<?xml version="1.0" encoding="utf-8"?>
<!-- Generator: Adobe Illustrator 27.4.1, SVG Export Plug-In . SVG Version: 6.00 Build 0)  -->
<svg version="1.1" id="Camada_1" xmlns="http://www.w3.org/2000/svg" xmlns:xlink="http://www.w3.org/1999/xlink" x="0px" y="0px"
	 viewBox="0 0 1500 1500" style="enable-background:new 0 0 1500 1500;" xml:space="preserve">
<g>
	<path d="M1222.9,955c-6.9-5.9-13.7-11.3-19.9-17.3c-6.4-6.2-14.5-9.1-22.4-12.4c-1.3-0.5-3.4-0.6-4.3,0.1
		c-13.5,9.7-28.3,15.2-44.9,17.3c-10.6,1.3-21.1,4.3-31.4,7.2c-10.7,3-19.7,9-27.4,17.1c-2.5,2.6-5.2,5.3-8.2,7.2c-1.7,1-5,1-6.5,0
		c-2.4-1.8-4.7-4.9-2.2-8.2c14.8-19.7,32.7-33.2,59.1-33.6c14.8-0.2,29.5-4.3,44.2-6.9c1.6-0.3,3.1-1.5,6.2-3.1
		c-8.5-7.3-16.1-13.9-23.8-20.3c-1.6-1.4-3.7-2.2-5.5-3.5c-7.7-5.4-15.1-11.4-23.1-16.3c-4.1-2.5-9.2-3.6-14-4.5
		c-7.4-1.4-14.9-2.5-22.5-3.1c-6.6-0.5-13.2-0.1-19.8-0.4c-13.9-0.6-27.9-1.4-41.8-2.1c-5.9-0.3-7-1.8-5.4-8.2
		c-6.8,2.1-13.2,4-19.6,6c-11.9,3.8-23.7,7.5-35.5,11.4c-16.8,5.5-34.1,8.4-51.6,10.6c-3.1,0.4-6.4,1.4-9.4,0.9
		c-9.3-1.6-12.4-5.2-14-15.2c-0.3-1.8-0.5-3.6-0.9-6.6c-12.3,0.6-24.4,1.2-36.5,1.8c-9.4,0.5-18.9,1.1-28.3,1.3
		c-22.5,0.5-44.9,0.9-67.4,1.3c-5,0.1-9.9,0.9-14.9,0.7c-9.2-0.3-18.5-1.8-27.6-1.5c-12.8,0.5-25.8,1.4-38.4,3.6
		c-13.7,2.4-26.9,7.3-41.1,7.1c-3.7,0-7.3-0.2-11-0.6c-6.6-0.8-8.6,1.3-11,7.7c-1.4,3.8-5,6.9-7.9,10.1c-4.1,4.5-9.7,5.1-15.2,4.4
		c-5.4-0.7-10.8-2-16.1-3.3c-3.7-0.9-7.3-2.2-10.9-3.5c-13.9-5.4-27.8-10.8-41.7-16.3c-1.7-0.7-3.6-1.3-4.8-2.5
		c-7-7.2-15.9-5.8-24.6-5.9c-17.8-0.3-35.7-0.6-53.5-1.3c-3.2-0.1-6.6-1.3-9.4-2.8c-2-1.1-3.1-3.6-4.7-5.5c2-1.4,3.9-3.9,5.9-4.1
		c8.9-0.8,17.9-0.9,26.8-1.3c9.2-0.3,18.5-0.6,28.8-1c-2.5-3.7-4.4-6.5-6.1-9.4c-4.6-7.6-8-15.5-7.2-24.8c0.2-2.2-2.5-4.7-2.2-6.8
		c0.8-6.2,1.5-12.7,4-18.4c10.4-23.8,25.1-45,40-66.1c14.8-20.9,29-42.3,44.2-62.9c5.2-7.1,7.4-12.2,2.9-21.5
		c-10.5-21.5-3.4-41.3,10.9-58.7c6.6-8,8.2-15.7,5-25.3c-2.6-7.7-5-15.7-5.9-23.7c-1.7-14.6,4.3-27.4,12-39.2
		c10.4-16.2,25.6-27.8,40-40.2c7.8-6.7,16.8-12.7,20.3-22.8c2.9-8.4,4.5-17.3,5.6-26.2c1.5-12,1.5-24.2,2.8-36.2
		c1.5-13.4,6.6-25.6,13.9-36.8c9.7-14.8,22.9-26.2,35.9-37.8c3.7-3.3,7.5-6.6,11.2-9.9c16.1-14.5,35.2-21.3,56.6-21.1
		c7.1,0.1,14.2,3.1,21.3,5.2c5.6,1.6,10.9,1.8,16.6-0.1c10.8-3.5,22.1-5.9,33.5-4c13.5,2.2,25.9,7.2,37.7,14.6
		c13.3,8.3,23,19.5,30.5,32.7c5.1,8.9,10.2,18.3,12.8,28.1c2.5,9.4,1.8,19.6-5.5,27.8c-1,1.2-2.4,2.1-3.7,3.2
		c-1.5-6.2-2.3-12.1-4.3-17.5c-3.7-9.7-7.1-19.8-12.6-28.5c-8.2-12.8-17.2-25.4-27.5-36.5c-11.6-12.5-26.8-16.5-43.7-11.8
		c-4.4,1.2-8.8,2.6-13.3,3.8c-9.9,2.7-19.2-0.4-28.3-3.3c-14.1-4.6-27.3-2.6-40.2,3.6c-1.3,0.6-2.7,1.3-4.2,1.6
		c-8.3,2-13.9,7.7-19.4,13.8c-4.8,5.4-10.7,9.9-15.5,15.3c-16.4,18.4-30.3,38.2-34.5,63.2c-1,5.7-0.7,11.6-1.3,17.4
		c-1.6,15.7-3.1,31.3-5,46.9c-1.5,11.8-8.7,20.2-17.5,27.4c-8.4,6.9-16.7,14.1-25.4,20.6c-14.3,10.6-24.6,24-30,41
		c-2.8,8.7-3.4,17.5-0.7,26.5c2.1,7.2,4.5,14.3,6,21.6c1.8,8.9-2.4,16-10.4,21.1c-1.9,1.2-2.2,4.5-3.6,6.7
		c-6.2,10.1-10.8,20.7-8.9,32.9c0.2,1.4,0.5,2.8,1,5.3c18.5-21.5,35.7-43,58.9-56.2c-1.7-10.4-4.1-20-4.6-29.6
		c-0.5-9.6,3-18.6,8.4-26.7c5.6-8.4,11.3-16.7,17.1-25.2c8.7,4.3,11.8,13.6,5.7,23.6c-5.2,8.6-9.8,17.6-13.8,26.8
		c-3.4,7.9-3.9,16.4-1,25c7.4-2.1,14.7-4.1,21.9-6.1c5.7-1.6,11.4-2.5,17,0.5c2.8,1.5,5.3,0.6,7.7-1.3c3.6-2.7,7.4-5,10.9-7.8
		c3.9-3.1,7-1.5,10.2,1c5.8,4.5,9.1,10.7,12.3,17.1c6.4,13.1,13,26.1,19.6,39.1c0.9,1.7,2.3,3.1,3,4c7.3-8.6,14.6-17.1,22.4-26.3
		c-5.1-6.4-10.9-13.8-17-21.1c-10.8-12.9-20.6-26.4-27.8-41.7c-1.2-2.5-3-6,0.3-7.3c2-0.8,5.5,1.2,7.8,2.7c2.1,1.3,3.6,3.6,5.6,5.9
		c4.6-11.3,3.4-22.4,2.4-33.4c-0.1-1.1-1.4-2.2-2.3-3.2c-23.9-25.4-30.7-55.2-23.1-88.7c4.6-20.1,9.3-40.2,18.1-59
		c4.8-10.1,10.2-19.7,18.9-27.2c4.2-3.7,8.8-3.3,13.5-3.5c1,0,2.9,1.8,3,2.8c0.1,1.8-0.3,4.6-1.5,5.4c-9.6,6.9-14.5,16.8-18.2,27.5
		c-5.2,14.7-10.8,29.3-15.1,44.3c-2.9,9.8-4.9,20-5.6,30.2c-1.9,30.6,6.8,56.7,33.9,74.2c8.7,5.6,18.3,7.5,28.6,6.5
		c17-1.6,30.6-10.1,43.2-20.9c8.1-7,12.3-16.3,17.8-25c7.9-12.6,8.4-26.9,10.1-40.8c1.5-12.1,2-24.4,2.3-36.7
		c0.3-14.9-6.3-27.7-14.2-39.8c-5.4-8.3-10.6-16.7-15.9-25.1c-0.3-0.5-0.4-1.2-0.7-2.4c6.2,0.8,9.5,5.4,12.9,9
		c11.8,13,21.8,27.2,29.5,43c9.6,19.6,10.7,39.9,6.8,61.1c-2.9,15.4-6.2,30.8-7.3,46.4c-1.1,17.2,6.7,30.8,22.3,39.2
		c11.8,6.3,23.2,13.1,31.1,24.4c6,8.5,9.5,17.8,10.6,28.1c0.2,2.1,0.9,4.3,0.8,6.4c-0.1,2-0.3,5.1-1.5,5.7c-1.6,0.8-4.7,0.4-6.3-0.7
		c-2.2-1.5-4.3-3.8-5.2-6.2c-2-5.6-3.7-11.5-4.5-17.3c-1.7-12.2-8.3-20.4-19.2-25.4c-25.2-11.8-39.5-31.9-45.3-58.6
		c-0.3-1.2-0.6-2.4-1.3-4.7c-1.4,4.8-2.5,8.4-3.5,12.2c-2.1,7.9-7.5,13.6-13.1,18.8c-3.8,3.5-5.6,7-4.7,12.1
		c1.2,7.1,2,14.4,3.2,21.5c0.1,0.9,1,1.9,1.8,2.5c4.9,4.2,6.4,9.6,4.5,15.6c-3,9.4-7.1,18.1-13.3,25.9c-5.2,6.5-8.8,14.2-13.7,22.2
		c3.3-1.2,5.5-2.2,7.9-2.9c7.9-2.2,15.8,1.2,19,8.7c2.9,6.8,5,14,7.7,21.8c1.6-2.2,3.2-3.8,4.2-5.7c6-11.3,11.6-22.8,18-33.9
		c2.6-4.6,2.6-8.5,1-13.2c-5.4-15.9-10.6-31.9-19.3-46.4c-1.7-2.7-0.1-5.2,3-4.6c2.3,0.4,5.2,1.2,6.6,2.9
		c7.2,8.3,13.1,17.5,16.8,28.7c9.4-2.2,14.9,5.1,21.7,9.5c9,5.8,18.2,11.5,26.7,18c7.2,5.5,13.9,11.6,20.1,18.2
		c6.1,6.4,11.8,13.4,16.5,20.8c4.3,6.7,7,14.5,10.7,21.6c4.7,8.9,9.6,17.7,14.4,26.6c11.4,21,22.8,42,34.3,63
		c1.9,3.4,4.5,6.5,6.1,10.5c-3.2-2.4-6.5-4.6-9.4-7.2c-13.3-11.8-24.2-25.6-33.7-40.5c-11.9-18.5-23.7-37-35.4-55.6
		c-2.4-3.8-3.9-8.1-6.6-11.7c-6.8-9.1-13.9-18.1-21.2-26.8c-10.4-12.3-24.8-19.7-38.2-29c1.5,4.8,3,9.7,4.6,14.5
		c2,5.7-0.9,10.5-3.2,15.1c-11.4,23.5-23.3,46.7-34.5,70.3c-4.2,8.9-7,18.5-10.7,27.8c-2,4.9-4.3,9.7-6.8,14.4
		c-1.9,3.6-6.8,4.8-10.1,2.7c-6.2-3.9-7.8-8.5-4.9-15.8c6.2-16.1,12.6-32.2,19-48.3c1.3-3.4,2.9-6.7,4.4-10.2
		c-6.7-3.9-7.7-10.9-9.9-17.2c-1.7-4.8-2.9-9.9-4.5-14.8c-1.9-6-5.7-6.9-10.7-2.9c-7.3,5.8-10.1,14.1-12.8,22.5
		c-4.2,13-8.4,25.9-12,39c-1.1,4.2-1.1,9-0.3,13.3c1.4,7.5,4.1,14.7,5.7,22.1c0.7,3.1,1.3,6.8,0.1,9.5c-1.8,4.3-8.3,4.6-12.3,1.2
		c-3.3-2.9-5.7-6.4-5.4-11.2c0.6-8.6-0.6-16.9-3.5-25c-3.7-10.5-1.1-20.6,2-30.8c1-3.1,1.1-6.8,0.5-10.1c-2-10.8-4.5-21.5-7.1-33.6
		c-4,4.3-7.4,7.5-10.3,11.1c-5.5,6.9-8.4,14.9-9.5,23.6c-0.1,0.5-0.4,1-0.3,1.4c0.2,2.3,2.5,5.8-1,6.2c-3,0.4-7.5-0.8-9.4-3
		c-4.6-5.1-8.3-11.1-11.8-17.1c-6.1-10.1-12-20.3-17.5-30.8c-3.7-7-6.4-14.6-9.6-22.1c-2.6,2.1-2.7,4.1-1.4,7.5
		c9.6,26.3,19,52.7,28.2,79.2c5.2,15,9.8,30.3,14.9,45.3c1.4,4.2,3.8,8.1,5.5,12.2c0.6,1.5,0.2,3.3,0.3,5c-2.3-0.2-4.9,0.2-6.9-0.6
		c-5.6-2.3-8.4-7.5-10.4-12.8c-7.9-20.3-15.6-40.6-23.2-61c-5.3-14.3-10.5-28.7-15.5-43.2c-2.8-8.2-5.4-16.4-7.8-24.7
		c-0.8-2.8-1.9-4.1-4.8-3.4c-2.9,0.7-5.7,1.5-8.6,2c-2.7,0.5-5.5,0.6-8.1,1.4c-2,0.6-3.6,2.6-5.7,3.2c-11.4,3-20.8,9.9-30.3,16.1
		c-7.4,4.9-14.2,11.1-20.1,17.8c-11.1,12.6-21.4,25.9-31.9,38.9c-3.3,4.2-6.2,8.7-9.5,12.9c-5.5,7.3-11.3,14.4-16.6,21.9
		c-3.8,5.5-6.5,11.7-10.3,17.1c-4.8,6.9-10.3,13.2-15.3,19.9c-5.4,7.3-10.6,14.8-16,22.1c-6.3,8.5-12.9,16.8-19.1,25.4
		c-1.9,2.6-4.3,5.1-2.4,9.4c1,2.2-0.5,5.8-1.6,8.5c-5.3,12.4-6.3,24.6-0.9,37.5c4.8,11.3,14,16.4,24.2,20.6
		c8.4,3.4,16.8,6.9,25.4,9.8c11.9,4.1,24,7.6,36,11.4c0.5,0.1,1,0,1.5,0.1c6.2,1.6,5.6,1.4,7.8-4.6c7.7-20.4,13.7-41.7,29.5-58
		c1.7-1.7,3.9-3,5.5-5.2c-10.3-1.6-18.8-6.7-29.2-6.7c-14.5,0-29-2.6-43.4-5c-5.7-1-10.9-4.6-13.6-11.9
		c35.6-3.6,69.5-0.2,103.3,13.3c3.1-4.3,6.7-9.3,10.2-14.1c-20.8-17.4-20-41-16.2-64c3.5-21.4,10.4-42.3,15.8-63.4
		c0.5-2.1,1.5-4,2.8-7.5c3,3,6.5,5,7.8,8.1c2.4,5.6,3.1,11.4,1.5,17.8c-3.2,12.7-5.1,25.7-8.1,38.4c-2.7,11.4-5.9,22.7-4.6,34.5
		c0.9,8.2,3,16.2,4.8,24.3c0.4,1.6,2.1,3,3.5,4.8c12-18.4,29.6-25.4,49.2-28.7c5.3-0.9,9.7,1.5,12.4,5.7c2.8,4.5,0.2,8.6-2.8,12.1
		c-2.5,2.9-4.9,5.8-7,9.7c9.1-3.8,18.2-7.3,27.2-11.4c8.9-4,17.6-8.6,26.5-12.9c3.4,4.1,2.6,11.3-2.5,14.1
		c-8.9,4.9-17.9,9.5-27.3,13.5c-11.5,4.8-23.3,8.7-34.9,13.3c-3.8,1.5-6.6,0.4-9.6-1.7c-8.6-5.9-8.7-5.9-1-12.9
		c4.8-4.4,9.8-8.5,14.6-12.9c1.5-1.4,2.8-3,3.8-4.8c-11.8,3.9-22.6,8.8-32.5,16.6c-12.5,9.8-19.3,23.9-29.8,35.1
		c-3.6,3.8-7.3,7.5-11,11c-8.7,8.2-15.3,17.9-19.2,29.3c-0.8,2.3-1.5,4.7-2.6,7.9c4.4,0.5,8.5,1,12.5,1.5
		c16.6,1.8,32.5-2.1,48.1-6.9c19.9-6.2,39.8-12.7,59.6-19.2c8.2-2.7,16.3-5.5,24.4-8.4c5.7-2,11.3-4.3,17-6.4
		c0.7-0.3,1.6-0.2,2.8-0.3c-0.2,1.4,0.1,3-0.5,3.5c-4.7,3.5-7.7,8.8-13.7,11c-10.4,3.8-20.5,8.4-30.6,13.8c41.2-1,82.4-2,124.3-3
		c-12.9-15.6-26.1-29.5-43.5-39c-4.6-2.5-7.5-8.1-10.9-12.4c-0.5-0.6-0.2-2.9,0.2-3c1-0.4,2.6-0.4,3.5,0.2
		c11.6,7.1,23.5,13.9,34.4,21.9c6.6,4.8,11.9,11.5,17.4,17.7c6.4,7.1,13.2,12.8,23.1,14.4c8.7,1.4,17.4,3.6,26,5.6
		c3.4,0.8,5.3-0.4,6.7-3.4c5.8-12.3,10.1-25.1,11.5-38.5c0.4-3.8-1.7-7.9-2.9-11.8c-4.4-15-9.1-30.1-20.2-41.8
		c-4.6-4.9-10-9-16-14.3c-1.3,14.1,8.5,25,6,38c-6.7-0.8-12-2.7-16.5-7.9c-8.5-9.8-17.5-19.5-30-24.2c-10.2-3.8-21-6-31.5-9.2
		c-3-0.9-5.8-2.9-9.1-4.7c5.6-4.3,32.8-1.4,40.8,2.5c12.5,6.2,23.5,14.1,33.8,23.9c-0.5-1.2-0.9-2.4-1.5-3.6
		c-4.5-8.5-5.8-17.6-5-27.1c0.3-3.9,2.2-5.4,5.5-2.9c9.4,7.1,18.7,14.4,28.1,21.7c2.3,1.8,4.6,3.5,7.3,5.5c-0.1-0.9,0.1-1.9-0.2-2.1
		c-5.6-3.7-3.3-8.9-2.9-13.8c2.3-23.5-0.8-46.5-7.5-69c-1.7-5.6-2.6-11.5-3.9-17.4c9.1,0,14.9,4.8,16.7,12.4
		c0.9,3.7,3.4,6.9,4.3,10.6c3.3,14.8,7.7,29.7,8.9,44.7c1,12.9-1.5,26-2.9,39c-0.3,3-2.5,5.8-3.7,8.8c-0.3,0.9-0.3,2.2,0.1,3.1
		c2.2,4.8,4.5,9.6,6.8,14.5c7.9-3.8,15.4-7.9,23.3-11.1c8.4-3.4,17-6.4,26.4-5.7c3.1,0.2,6.3-2,9.5-2.7c6-1.4,18.3,0.9,20.2,10
		c0.9,4.2-1.4,7.1-5.1,5c-9.2-5.2-17.5-0.5-26.3,0.8c-11.4,1.7-20.8,8.6-31.5,12.1c-4,1.3-6.5,4.8-6.3,9.6
		c0.4,17.4-5.2,33.4-11.6,49.2c-1.8,4.4-4.3,8.4-6.2,12.7c-0.7,1.7-0.7,3.7-1,5.6c1.6-0.3,3.2-0.6,4.7-1c10.3-2.4,20.8-4.6,31-7.5
		c9.8-2.7,19.2-6.3,29-9.2c5.4-1.6,11-2.6,16.5-3.3c10-1.3,19.4-4.2,26-11.9c4.3-4.9,7.1-11.2,10-17.1c4.8-9.5,8.5-19.4,8.5-30.4
		c0-11.5-5.2-20.7-11.6-29.6c-2.3-3.2-4.6-6.5-6.4-10.1c-0.8-1.6-0.5-3.8-0.6-5.8c0.8-0.3,1.6-0.7,2.4-1c5.7,6.6,11.6,13,16.9,19.8
		c3.3,4.3,6.2,9,8.5,13.9c4.8,10.4,4.6,21.1,0.8,32c1.3,0.2,2.2,0.4,2.5,0.4c-3.3,17.4-9.4,33.1-27.9,40.5
		c12.9-0.4,24.8-1.5,36.6-0.9c12.6,0.7,25.2,2.7,37.6,5.1c11.2,2.2,22.1,5.7,33.1,8.8c13.1,3.7,22.4,13,31.6,22.3
		c3.7,3.7,7.5,7.4,11,10.8c17.7-13.3,36.8-24,56.1-34.5c22.2-12,44.1-24.8,66-37.3c1.7-1,3.2-2.3,3.9-2.8
		c-7.8-21.2-15.5-41.7-22.8-62.4c-5.8-16.5-11-33.1-16.5-49.7c-0.4-1.1,0-2.4,0-3.7c1.5,0.1,3.4-0.2,4.6,0.5
		c6.3,4.2,11.6,9.5,14.5,16.6c3.9,9.8,7.5,19.7,11,29.6c7,19.4,14.7,38.7,20.3,58.5c2.6,9.3,7.9,11.9,15.7,14.1
		c4.5,1.3,8.8,3.9,12.7,6.7c1.3,0.9,1.5,4,1.5,6c0,0.5-3.2,1.5-4.7,1.2c-8.3-1.7-16.5-3.7-26-5.8c-33,27.5-73.7,45.6-112,67.1
		c9.5,8.4,19.2,16.3,28.2,25c9.1,8.8,16.7,19,21.1,32.3c13.9-3.9,27.6-7.8,41.3-11.6c33-9.2,65.7-19.5,97.6-32.1
		c22-8.7,40.1-22.7,52.9-43.1c2.4-3.9,4.8-7.9,9.9-9c4.9,6.7,3.7,13.5,0.2,19.8c-6.8,12.1-15.4,22.4-27.2,30.4
		c-13.9,9.4-29,15.6-44.4,21.8c-9.2,3.7-18.1,8.4-27.4,11.9c-11,4.1-22.3,7.4-33.6,10.9c-13.9,4.2-27.8,8.7-41.9,12.1
		c-12.6,3.1-25.6,5.1-38.4,7.1c-2.8,0.4-6.2-0.9-8.9-2.3c-4.8-2.5-8.9-3.6-14.6-1.3c-10.1,4-21,6.1-31.3,9.7
		c-11.2,3.8-22.2,8-33.1,12.6c-16.4,7-32.6,14.5-48.9,21.8c-4.5,2-5.8-1.4-8.3-4.9c12.4-7.2,24.7-14.3,36.9-21.6
		c17-10.1,35.3-17.2,54.5-21.7c12.4-2.9,23.5-8,33.8-15.4C1212,960.1,1216.9,958.2,1222.9,955z M782.2,630.9c0.5-0.1,1-0.3,1.5-0.4
		c0.8-1.6,1.7-3.2,2.3-4.9c2-4.9,3.7-10,6.1-14.6c3.7-7,7.9-13.8,12.1-20.6c3.3-5.4,7.1-10.4,10.1-15.9c1.9-3.4,4.3-7.4-0.6-10.8
		c-0.6-0.4-0.5-1.9-0.8-2.8c-2.7-9.3-2.7-18.7-1.4-28.2c0.2-1.4,0.1-2.7,0.3-5.4c-22.5,12.1-43.8,7.6-66.2-1.9
		c0.7,5.2,2.2,9.3,1.7,13.1c-1.1,8.8-2.6,17.6-5.1,26.1c-1.2,4-0.6,6.4,1.8,9.2c10.1,12.1,20.1,24.3,30.1,36.4
		c0.7,0.9,1.7,2.1,1.6,3C774.5,620.7,782.9,623.7,782.2,630.9z"/>
	<path d="M1092.3,357.3c10.5-10.3,20.5-20.9,31.3-30.7c6-5.5,13.9-5.9,21.8-4.7c1.7,0.2,3.7,0.1,5.1-0.6c10.5-5.2,21.2-7.4,32.9-4.8
		c2.8,0.6,6,0,8.8-0.7c13.2-3.1,25.4-1.2,36.9,6c1.1,0.7,2.3,1,3.3,1.4c2.1-5.7,3.5-11.4,6.2-16.3c2.1-3.7,5.7-6.8,8.9-9.7
		c2.3-2.1,5.4-3.4,7.7-5.4c4.5-3.9,9.5-4.7,15.3-3.9c4.5,0.6,9.3,0.6,13.8,0c6.9-0.9,13.8-1.6,19.9,2c3.8,2.2,6.8,5.9,10.1,8.9
		c2.3,2,4.3,4.9,6.9,5.7c12.2,3.3,20.3,10.7,24.7,22.6c0.7,1.9,2.2,3.7,3.8,5.1c10.1,8.3,11.9,14.7,7.5,27.1
		c-0.5,1.5-0.9,3.2-0.6,4.7c1.6,10.3-3.6,17.5-10.3,24.2c-3.4,3.4-6.4,7.1-9.6,10.6c-0.8,0.8-1.8,1.5-2.7,2.1
		c-4.2,2.6-8.3,5.3-12.6,7.5c-4.2,2.2-8.6,3.9-13.3,5.9c0.3,2.3,0.6,5.5,1.2,8.6c0.2,0.9,1.1,2.1,1.9,2.4
		c8.4,3.3,13.4,13.4,10.6,21.8c-1.1,3.3-2.5,6.4-3.8,9.6c-0.3,0.8-0.7,1.9-1.3,2c-8,2.1-5,8.1-4.2,12.7c1.5,8.4-1.5,15.3-7.1,20.7
		c-2,1.9-6.6,1.3-10.1,1.5c-1.7,0.1-3.4-0.8-4.6-1.1c-1,5.6-2.2,10.5-2.7,15.5c-0.7,6.6-6.4,8.3-10.5,11.5c-0.5,0.4-2.1-0.3-3-0.7
		c-3.2-1.4-6.3-2.9-9.4-4.4c-0.6,0.4-1.2,0.8-1.7,1.1c1.6,7.1,2.5,14.4,5.1,21.1c3,8,6.8,15.9,11.4,23.1c3.9,6.1,9.7,10.9,14.2,16.6
		c10.2,12.8,24.4,20.2,37.6,29.2c3,2,6.3,3.7,9.5,5.4c13.5,7.1,23.8,18.2,35.1,28.2c11.4,10.1,20.7,21.7,27.8,35
		c5.9,11.1,11.3,22.4,17,33.6c12.7,24.9,21.1,51.3,25.9,78.6c3.5,20.5,5.7,41.6,2,62.5c-0.8,4.8-2.3,10.8-8.8,12.1
		c-6.6,1.3-10.1,0-9.7-6.9c0.5-9.3,1-18.6,0.8-27.9c-0.5-20.2-4.2-40-9.7-59.4c-5.7-20.1-11.7-40.1-21.7-58.6
		c-9-16.8-17.8-33.7-25.6-51.1c-6.4-14.4-19.7-20.9-30.7-30.3c-10.9-9.3-21.3-5.9-31.8,0.4c-14.3,8.5-28.6,16.9-42.9,25.3
		c-4,2.3-8.1,4.5-12.4,6.3c-13.2,5.7-26.2,12.2-39.9,16.4c-9.6,2.9-20.2,3-30.4,3.7c-7.9,0.5-14.8-2.8-20.8-7.8
		c-5.7,3.4-6.5,9.6-8,14.9c-5.5,19.9-12.1,39.3-22.6,57.4c-6,10.2-9.8,21.8-9.7,34.1c0,7-0.8,13.9-0.7,20.9
		c0.3,18.8,8.4,35.2,19,49.8c5.2,7.2,14.4,11.5,21.7,17.2c6.9,5.4,13.7,10.9,20.5,16.3c-3,4.5-4.8,9.1-10.2,6.8
		c-2.8-1.2-5.1-3.6-7.6-5.6c-13-10.3-26.2-20.5-39-31.2c-8.9-7.5-14.7-17.5-18.7-28.4c-2.9-8-5.8-16.1-7.7-24.4
		c-1.2-5.3-1.2-11-0.8-16.4c1.5-19.2,7.3-36.9,16.1-54.1c10.4-20.6,18.9-42.2,28-63.4c6.1-14.2,12.6-28.3,17.2-43
		c3.5-11.2,5.2-23.1,6.1-34.8c0.4-5.2-3.2-10.7-5.4-15.9c-0.4-0.9-3.1-1.9-4.2-1.4c-9.4,4.3-19.3,6-29.5,5.4
		c-10.1-0.6-17.5-6.6-23.9-13.9c-7.9-9-12.7-19.4-14.9-31.1c-0.5-2.8-2-4.1-5-5.2c-8.9-3.2-17.8-6.5-23.2-15.2
		c-3.2-5.1-4.1-10.1-0.3-15.3c1.2-1.6,2-3.5,3.4-4.9c10.2-11.2,9.6-24.1,6.1-37.6c-2.4-9.1-4.9-18.2-6.8-27.4
		c-1.6-8,2.8-14.5,6.7-20.9c0.5-0.8,3-1.2,4.1-0.7c2.6,1.3,4.8,8.9,4,12c-2.8,10.4-4,20.3,2.4,30.5c3.9,6.1,6.4,13.9,6.9,21.1
		c0.4,6-2.7,12.5-5.1,18.4c-3.1,7.5-7.3,14.5-10.6,21.9c-0.6,1.3,0.6,4.4,1.8,5.1c3.2,1.7,6.8,2.8,10.3,3.5
		c8,1.7,14.8,4.8,18.4,13.3c4.6-3,8.7-5.8,12.7-8.5c6-4,13.2-2.3,14.8,3.5c1.3,4.6-2.1,7.2-5,9.3c-5.9,4.4-12.2,8.2-19.3,12.9
		c2.2,4,4.5,8.7,7.3,13.1c3.6,5.8,9.6,6.4,15.5,5.4c4.9-0.8,9.5-2.9,14.3-4.1c6.2-1.5,12.4-3.2,18.7-3.9c6.9-0.8,10.1,4.4,13,9.6
		c7,12.8,9.6,26.8,7.3,40.9c-2,12.2-6.6,23.9-10.1,35.8c-1.9,6.3-4,12.4-5.7,18.8c-0.1,0.5,2.5,2.7,3.6,2.5
		c9.3-1.5,18.9-2.3,27.7-5.4c14.7-5.2,28.9-11.6,43.1-18.1c8.4-3.9,16.2-9,24.4-13.4c11.5-6.2,23.1-12.3,34.7-18.4
		c0.9-0.5,1.7-1,3.2-1.8c-4.3-4.7-8.2-9.2-12.4-13.6c-8.8-9.3-18-18.3-26.4-27.8c-9.4-10.6-14.1-23.6-16.3-37.5
		c-0.4-2.7-1.3-5.4-2.2-8c-1.8-4.8,0.8-14.6,4.9-17.3c1.1-0.7,3.1-0.6,4.5-0.3c4.9,1,9.6,2.5,14.5,3.4c1.2,0.2,3.3-1,3.8-2
		c2.5-5.1,4.8-10.2,6.6-15.5c0.9-2.7,1.5-4.1,4.7-2.8c6.2,2.5,14-3.6,14-10.4c0.1-6.9,1.5-13.9-1.7-20.5c-0.3-0.6,1.4-2.8,2.5-3.1
		c3.7-1.2,6.3-2.8,5.7-7.3c-0.1-1.2,0.9-2.4,1.3-3.7c2-5.7,1.2-8.1-4.1-11.1c-6.8-3.9-9.3-9.9-9.3-17.6c0-3.1-1.3-6.7-3.1-9.2
		c-10.5-14.3-21.3-28.5-32.1-42.5c-1.6-2.1-4.2-3.5-7.6-6.1c3.3,0,5.4-0.5,7,0.1c7.6,2.8,15.4,5.4,20.6,12.3
		c6.7,9.1,13.4,18.2,19.9,27.4c0.9,1.3,0.7,3.3,0.9,4.3c7.2-1.1,14.1-2.1,21.9-3.2c3.9-5.1,8.7-11,13-17.2c2.8-4.1,5-8.6,7.1-13.1
		c0.8-1.6,1.1-4.4,0.3-5.7c-2.3-3.7-1.3-6.9,0-10.4c2.7-7.5,1.9-8.8-3.5-14.3c-3.6-3.7-6-8.7-9.2-12.9c-1.7-2.2-3.9-4.9-6.3-5.5
		c-8.8-2.1-14.7-7.9-20.7-14c-1.2-1.2-3.5-2-5.3-2c-7.1-0.2-14.1-0.2-21.2,0c-1.7,0-3.6,0.4-5,1.3c-5.1,3.4-9.7,8-15.2,10.2
		c-7.1,2.9-8.5,8.6-10.3,14.6c-1.1,3.6-1.2,7,2.3,9.9c1.5,1.3,1.6,4.3,2.3,6.5c-2.6-0.2-5.6,0.4-7.8-0.7c-3.5-1.8-6.1-5.3-9.7-6.9
		c-7.6-3.5-14.7-9.7-24.2-6.4c-6.7,2.4-13.6,1.6-20.5,0.9c-9.2-1-17.9,1-25.5,6.2c-3.5,2.4-6.9,2.5-9.7,0.5c-6-4.4-11.3-2-15.7,1.6
		c-7.3,5.9-13.9,12.7-21,18.9c-3.4,3-7.1,5.9-11,8.3C1102.2,365.7,1097,363,1092.3,357.3z M1123,525.5c-5.8,2.7-11.7,5.4-17.9,8.2
		c1.1,1.9-0.1,6.1,4.4,4.6C1115.9,536.2,1120.3,531.6,1123,525.5z"/>
	<path d="M101.1,1192.9c24.8,0,49.5-0.1,74.2,0c12.3,0,24.6,0.3,36.9,0.7c12.6,0.4,25.2,1.1,37.8,1.8c19.8,1,39.6,1.9,59.4,3
		c26.6,1.5,53.2,3.5,79.8,4.9c27.8,1.4,55.5,2.6,83.3,3.5c31.3,1,62.6,1.8,93.9,2c43.9,0.4,87.9,0,131.8,0.2
		c26.8,0.2,53.5,0.9,80.3,1.5c31.8,0.8,63.6,0,95.4-2.5c17.7-1.4,35.6-0.9,53.4-1.5c9.8-0.3,19.5-1.5,29.3-1.6
		c22.5-0.3,45.1-0.1,67.6-0.4c21.9-0.3,43.9-1.1,65.8-1.7c23.8-0.7,47.6-2.4,71.3-1.6c12.6,0.4,25-0.4,37.5-0.5
		c22.3-0.2,44.6,0.3,66.8-0.8c32.2-1.7,64.3-4.8,96.5-7c8.4-0.6,17-0.6,25.4-0.1c6.5,0.3,10.8-2.4,14.3-7.3c0.6-0.9,1.5-1.7,2.3-2.5
		c5.3,5.7,5.7,12.8,1.1,18.2c-2.5,2.9-4.6,7-7.9,8.3c-5.3,2.2-11.3,3-17.1,3.6c-10.8,1.2-21.7,1.8-32.6,2.6
		c-15.5,1.2-31.1,3.1-46.6,3.4c-34.6,0.9-69.1,1-103.7,1.5c-31.2,0.5-62.5,1-93.7,1.5c-8.4,0.1-16.9,0.3-25.3,0.2
		c-18.6-0.4-37.2-1.2-55.8-1.4c-12.5-0.1-25.1,0.6-37.7,1c-17,0.5-34.1,1.2-51.1,1.6c-17.7,0.5-35.5,0.6-53.3,1.2
		c-21.8,0.7-43.5,2.1-65.3,2.4c-14.2,0.2-28.5-1.1-42.8-1.2c-16.7-0.1-33.4,0.3-50.2,0.5c-13,0.2-25.9,0.6-38.9,0.9
		c-16.5,0.3-33.1,0.5-49.6,0.6c-17.4,0.1-34.8,0.5-52.3,0.1c-36.1-0.7-72.1-1.7-108.1-2.9c-25.7-0.9-51.4-2.1-77.1-3.6
		c-21.9-1.3-43.7-4-65.6-4.7c-31.6-1.1-63-4.7-94.7-3.7c-10.2,0.3-20.4-2.2-30.7-2.9c-11.7-0.9-23.5-1.4-35.2-1.8
		c-17.4-0.5-34.7-0.8-52.1-0.9C110.3,1207.5,101.9,1201.2,101.1,1192.9z"/>
	<path d="M222.8,715.6c4.8,0.7,5.7,3.2,4.8,7.4c-6.6,28.9-16.7,56.4-31.4,82.1c-5.2,9.2-10.8,18.2-16.7,28.2c9,0,18.1-0.6,27.1,0.1
		c35.7,2.6,71.3,5.5,107,8.5c12,1,21.5,6.6,27.5,17.3c1.4,2.6,1.6,5.9,2.5,9.1c9.5,0,19.4,0.2,29.3-0.1c20.9-0.6,40.9,2.2,59.9,11.9
		c15.2,7.7,26.5,20,38.9,30.9c2.2,1.9,4.2,4.2,6.2,6.4c3.9,4.3,8.8,3.5,14,3.6c18.8,0.3,37.6,0.8,56.4,2.1c21.7,1.5,43.4,3.5,65.1,6
		c10.4,1.2,20.5,4.1,30.7,6.5c5.7,1.3,7.7,6.2,5.4,11.6c-5.4,12.3-10,24.9-16.2,36.8c-7.6,14.5-15.2,29.6-28.4,39.7
		c-5.2,4-11.4,7.6-17.5,10.6c-12.4,6.2-26,6.4-39.5,6.9c-18.2,0.7-36.5,1.8-54.6,1.1c-28.7-1.1-57.6-1.7-85.8-8.5
		c-12.3-2.9-24.3-6.8-36.6-9.7c-5.9-1.4-12.1-1.5-18.2-2.1c-10.2-0.9-20.5-1.6-30.8-2.6c-6.6-0.7-13.2-1.5-19.6-3.1
		c-2.9-0.7-6.2-2.9-7.8-5.4c-3.1-4.8-3.9-9,2.1-13.1c14.5-9.7,29-19.6,43.2-29.6c6.4-4.5,12.3-9.6,18.5-14.4c3-2.3,6-4.7,9.2-6.7
		c2.5-1.6,5.4-3.1,8.1-0.1c2.6,2.9,2,5.5-0.2,8.5c-5.8,7.9-15,11-22.5,16.7c-14.2,10.8-28.7,21.1-44.3,32.5c8.6,0.6,15.8,0.8,23,1.6
		c14.4,1.6,28.8,3,43,5.6c15.4,2.9,30.4,7.3,45.7,10.6c6.5,1.4,13.2,1.9,19.8,2.4c13.9,1.1,27.8,2.1,41.7,2.8
		c35.3,1.6,70.4,0,105.6-2.9c1.5-0.1,2.9-0.4,4.8-0.7c-2-4.2,0.2-6.2,3.1-8.7c10.2-8.5,18.2-18.9,24.2-30.8
		c6.3-12.4,12.3-25,18.9-38.5c-47.8-9.5-95-8.7-142.1-11.1c7.3,6.7,16.7,11.1,14.8,23.3c-10.6,8.4-21.7,4.8-32.7-0.3
		c-7.5-3.5-14.7-7.8-22.5-12c-0.6,3.1-1,6.2-1.8,9.1c-2.1,7.9-8.7,9.9-15.4,11.5c-16.5,3.7-32.3,1.9-47.3-6.2
		c-6.7-3.6-9.3-16.3-3.7-21.4c2.4,3.2,4.6,6.3,7.1,9.4c7.6,9.4,18.2,9.9,29,9.8c15.1-0.2,19.1-11.7,14.8-22
		c-3.2-7.8-7.2-15.4-10.8-23c-0.6-1.2-1.2-2.3-1.9-3.4c4.9-2.2,10.4-0.5,13.1,3.8c0.7,1.1,1.2,2.3,1.9,3.5
		c6.4,11.1,16.2,18.4,27.2,24.3c10.1,5.4,19.7,11.8,31.5,13.4c1.1,0.1,2.2,0.2,4.9,0.4c-2.1-2.1-3.1-3.8-4.5-4.4
		c-18.9-8.2-31.7-23.9-46.7-37c-11.6-10.1-21.8-22.2-36.4-28.5c-11.4-4.9-23.1-7.9-35.8-6.6c-6.4,0.7-12.9-0.7-19.4-0.7
		c-5.1,0-10.3,0.8-15.4,0.8c-3.5,0-6.2,0.8-7.6,4.3c-4.4,11.2-8.7,22.4-12.7,32.8c7.2-0.5,13.6-1,20-1.4c0.8-0.1,1.7,0.1,2.5,0.3
		c12.3,2.6,24.6,1.8,36.9,0.1c3.7-0.5,6.5,0.7,6.5,3.9c0,2.4-2.1,5.9-4.2,6.9c-3.5,1.6-7.8,2.5-11.6,2.2
		c-15.7-1.3-31.3-3.9-47.3-2.7c-3,0.2-4.6,0.8-5.7,3.2c-0.3,0.6-0.7,1.2-0.8,1.8c-0.9,7.3-6.4,9.4-12.4,10c-8.1,0.8-16.2,1-24.3,1.1
		c-12,0.1-24.2,0.8-36.1-0.5c-6.9-0.8-12.4,0.2-19,2.3c-22.9,7.5-46.7,9.1-70.7,9c-9.7-0.1-18.1-3.9-26.4-8.5
		c-3.6-2-7.2-3.7-10.9-5.6c0.2-0.6,0.4-1.3,0.5-1.9c5.2,0.9,10.4,1.6,15.5,2.7c16.5,3.3,33.1,2.9,49.6,0.2
		c15.6-2.5,31.1-5.7,46.6-8.5c0.2,0,0.4,0,0.5-0.1c10.3-7.4,21.9-3,32.9-3.4c12.1-0.4,24.3,0.3,36.4,0.9c4.2,0.2,6.5-0.9,7.2-5.3
		c3.3-19.5,10.6-37.8,18.1-56c1.6-4-1.4-4.8-3.8-5.3c-6-1.2-12.1-2.3-18.2-2.8c-26.1-2.1-52.3-4.2-78.5-6c-14.9-1-29.8-1.8-44.8-2.3
		c-8.1-0.3-16.2,0.2-24.2,0.5c-6.3,0.2-7-0.3-6-6.6c1-6.4,1.9-13,10.5-13.9c1-0.1,2-1.7,2.6-2.8c11.9-24.5,25.2-48.4,34.7-74.1
		c4-10.9,11.1-20.7,16.8-30.9C220.3,720.2,221.5,718.1,222.8,715.6z"/>
	<path d="M302.7,533.6c7.2-0.1,11.4,3,15.1,7.7c9,11.3,17.5,23.1,29.8,31.3c6.4,4.2,12.1,4.4,18.1-0.6c2.9-2.4,5.5-5.2,7.7-7.2
		c-4.4-6.9-8.7-12.9-12.3-19.4c-4.1-7.3,1.2-15.4,9.6-15.8c7.3-0.4,12.6,1.9,15.4,9.1c0.6,1.4,2,2.5,3.3,4c1.3-1.3,2.5-2.2,3.4-3.3
		c4.1-4.7,8.6-6.9,15.3-5.6c8.7,1.6,17.4-3.1,15.7-14.8c-1.8-12.7-1.3-25.4,4.3-37.2c2.8-5.8,6.6-11.2,10.1-16.6
		c1.4-2.1,3.3-5.5,6.1-2.8c2,1.9,3.7,5.9,3.1,8.3c-2.2,8.6-6.3,16.8-8,25.5c-1.7,8.3-1.5,17.1-2,25.6c-0.2,3.6,0.2,7.3-0.2,10.9
		c-0.4,4-3.3,6.7-6.9,7.5c-7.1,1.6-13.8,5.1-21.6,3c-1.9-0.5-5.4,3.6-7.5,6.1c-9.1,10.7-17.8,21.7-26.9,32.4
		c-4.5,5.2-16.4,5.9-23.3,1.5c-6.5-4.2-12.7-9-19.2-13.7c-5,8.8-9.5,17.7-10.4,28.1c12.9,5,23.8,12.6,33.6,22
		c6.5,6.2,8,14.2,8.1,22.3c0.1,7.9-1.2,15.9-2.4,23.7c-0.5,3.4-2.8,5.7-6.9,5.6c-4.1-0.1-6.1-1.7-5.8-6.1c0.5-8.3,0.7-16.6,1.1-25
		c0.5-12.3-3.3-22.1-14.7-28.4c-4.6-2.5-8.7-6-13.6-9.5c-0.3,5.6-0.7,10.5-0.6,15.4c0,1.3,1.5,2.8,2.6,3.9c4.5,4.8,9.9,9,13.6,14.4
		c5.7,8.2,5.1,17.6,1.4,26.4c-1.2,2.9-0.7,8-5.9,7.9c-3.4,0-9.2-5.2-10.2-9.2c-0.7-2.7-0.9-5.6-0.9-8.4c-0.1-3.8,0.5-7.7,0.1-11.5
		c-0.4-4.8-1.1-9.7-6.9-11.4c-1.2-0.4-2.5-1.4-3-2.5c-3.9-8.1-12.2-10.6-19-14.7c-13-8-26.3-15.4-39.6-23
		c-10.5-6-20.9-12.2-31.6-17.9c-8.8-4.7-22.6-1.3-29.3,6.2c-5.8,6.4-11.8,12.5-18.2,18.3c-6.5,5.9-9.8,13.9-14.1,21.2
		c-6.6,11.1-12.8,22.5-19.3,33.6c-9.9,16.9-20.1,33.6-30,50.5c-8.5,14.6-17,29.1-25.2,43.9c-5.3,9.5-9.9,19.4-14.9,29.1
		c-0.5,1-1.1,1.9-1.8,3.2c-1.4-1-2.6-1.9-3.9-2.5c-3.5-1.8-3.9-4.2-2.8-7.8c4-13,9.5-25.4,15.2-37.8c10.3-22.2,19.9-44.8,30.3-67
		c9.6-20.4,22.2-38.9,36.4-56.3c4-4.9,7-11,13.8-13.2c0.7-0.2,1-1.6,1.5-2.5c4.9-10.6,12.9-18.9,20.5-27.5c3.5-3.9,7.8-6.1,13.3-5.6
		c4.6,0.4,7.3-1.7,10.2-5.4c13.6-17.2,25.1-35.6,35.7-54.7c0.7-1.3,1.8-2.4,2.9-3.8c-4.8-2.3-4.8-6.3-4.4-11.1
		c1-11.1,1.2-22.2,1.8-33.3c0-0.8,0.4-1.5,0.6-2.3c8.3,2.5,13,10,13.2,22.3c0.1,9.1,1,18.8-8.6,24.9c1.5,1.4,2.8,2.6,4.1,3.8
		c2.4,2.4,2.4,4.9,1.2,8.1c-7,18-17.1,34.1-29.4,48.9c-1.4,1.7-3.5,2.9-4.5,3.7c29.6,16.6,59.6,33.4,90.2,50.5
		c0.5-3.5,1.1-6.5,1.4-9.5c0.9-11.6,4.9-22,11.1-31.7c4.7-7.4,4.7-7.5-0.8-14.5c-2.5-3.1-5.5-5.8-7.9-9
		C306.8,540.9,304.9,537.2,302.7,533.6z M378.4,558.7c2.7-4.3,5.9-7.5,6.5-11c0.3-2-3.5-4.7-5.4-7.1c-0.1-0.1-0.2-0.3-0.3-0.4
		c-1.4-2.3-3.3-4.7-5.8-2.5c-2,1.9-4.5,5.8-3.8,7.7C371.4,549.9,375,553.8,378.4,558.7z"/>
	<path d="M908.9,1020.1c-5.7-13.4-12.2-26.9-17.1-41c-2.4-7-1.8-15-2.5-22.6c-0.3-3.4,1.6-5.2,4.6-6.3c2.3-0.8,4.6-1.9,7.1-2.4
		c16.9-3.6,33.7-7.4,50.7-10.7c21.4-4.2,42.8-8.4,64.3-11.8c17.1-2.7,34.3-4.1,51.4-6.3c5.2-0.7,10.4-2.1,15.6-2.7
		c1.8-0.2,3.7,1,5.6,1.6c-0.9,1.5-1.4,3.8-2.7,4.4c-3.7,1.7-7.6,3.3-11.6,4c-22.3,4-44.8,7.5-67.1,11.7c-15.8,3-31.4,6.9-47.1,10.5
		c-19.3,4.4-38.5,9.1-57.8,13.4c-4.1,0.9-5.4,3-4.5,6.6c1.4,5.8,2.5,11.8,4.9,17.2c12.3,27.7,29.1,52.6,47.6,76.4
		c1.6,2.1,3.6,4,5,6.2c4.1,6.5,9.8,8.1,17.2,6.8c32.5-5.6,65.1-10.3,97.4-16.7c31.8-6.2,63.4-13.7,94.9-21.2
		c13.4-3.2,26.5-7.8,39.7-11.9c5.9-1.9,6.4-3.3,3-8.4c-4.7-6.9-8.6-14.1-10.7-23.9c2.3,1.6,4,2.2,4.9,3.4c5.7,8,11.2,16.1,16.7,24.2
		c0.7,1.1,1.2,2.4,1.4,3.7c1.4,8.6,0,9.7-8.2,6.8c-1.7-0.6-4-0.3-5.7,0.4c-6.6,2.9-13.7,5.4-19.5,9.5c-12.8,8.9-27.6,12.3-42.2,15.9
		c-21.4,5.3-43.1,9.7-64.7,14.3c-14.6,3-29.2,5.8-43.9,8.4c-19.7,3.5-39.4,6.8-59.1,9.9c-4.2,0.7-8.5,0.9-12.7,0.4
		c-2.3-0.3-5-2-6.5-4c-9.9-12.5-19.8-25-29.2-37.8c-5.5-7.5-10-15.6-14.9-23.5c-5.2,7.8-11.6,14.3-19,19.8
		c-8.5,6.3-17.1,12.4-25.6,18.7c-5.4,4-5.3,8.2,0.2,12.3c7.7,5.6,15.7,10.7,23,16.7c10.1,8.3,19.5,17.6,29.7,25.9
		c16,13.2,34.4,22.7,52.7,32.3c13.4,7,27.1,13.4,41,19.4c5.4,2.3,11.6,2.3,17.4,3.6c1.9,0.4,3.6,1.7,6.3,3
		c10-8.3,21.1-16.6,31.3-25.9c32.2-29.1,64.2-58.6,96.2-88c2.8-2.6,5.3-5.6,8.1-8.2c1.8-1.6,3.9-2.7,5.9-4.1
		c0.4,0.3,0.8,0.6,1.2,0.9c-0.6,1.5-0.9,3.2-1.7,4.6c-6.3,11.1-14.9,20.2-24.3,28.7c-24.4,22-48.2,44.8-72.9,66.6
		c-12,10.6-25.4,19.8-38.1,29.6c-8.5,6.5-17.7,3.9-25.9,0.6c-14-5.6-27.7-12-40.9-19.3c-17.7-9.8-35.2-20.1-52-31.4
		c-9-6-16.1-14.8-24.6-21.8c-10.4-8.5-21.3-16.4-32-24.5c-6.2-4.7-10.7-10.5-10.6-18.7c0-1.5,0.5-3.5,1.5-4.4
		C876.2,1047.4,892.8,1033.6,908.9,1020.1z"/>
	<path d="M64.5,1181.7c-3.6-2.4-7.7-4.4-10.7-7.4c-4.5-4.6-4.8-15.5-1.3-21c2.4-3.8,5.5-7.1,7.7-11.1c9-16.6,23.7-28.2,36.9-40.9
		c25.9-24.9,52.3-49.2,79.6-72.5c25.4-21.8,52.2-42,78.4-62.8c6.8-5.5,13.7-10.9,20.6-16.2c3.6-2.7,7.2-5.4,12.3-3.8
		c1,0.3,2.3-0.2,4.2-0.5c0.5,2.3,1.5,4.9,1.6,7.6c0,1.3-1.3,3-2.5,4c-20.5,16.9-41,33.7-61.5,50.6c-13.6,11.2-27.5,22.2-40.8,33.8
		c-18.9,16.4-37.5,33.3-56.2,50c-8.4,7.6-17.1,14.9-24.6,23.3c-10.1,11.4-19.1,23.7-28.5,35.6c-3,3.8-5.7,7.8-8.6,11.5
		c-2.9,3.7-4.2,7.7-3.3,12.5c0.4,2.1-0.7,4.4-1.2,6.6C65.8,1181.4,65.2,1181.5,64.5,1181.7z"/>
	<path d="M906.7,379.8c5,4.4,8,8.1,8,13.6c-0.1,13.8-0.3,27.5-0.3,41.3c0,8.6-0.4,17.3,0.6,25.9c1.6,13.8,9.2,24,21.7,30
		c11.1,5.3,22.1,10.6,31.8,18.6c11.8,9.8,17.2,26.7,12.7,41.3c-0.5,1.7-0.9,3.6-1.4,5.3c-2.4,8.3-6.4,11.1-15.1,10.7
		c-2-0.1-5,0.5-5.9-0.5c-1.5-1.9-2.6-5-2.2-7.3c0.6-3.3,2.6-6.4,4.3-9.5c4.4-8.1,6.5-16.9,5-26c-0.5-3-2.9-6.6-5.4-8.1
		c-8.6-5-18-8.5-26.4-13.8c-21.9-13.8-36.2-33.3-36.4-59.8c-0.1-17.2,2.8-34.4,4.8-51.5C902.8,386.8,905,383.8,906.7,379.8z"/>
	<path d="M425.1,422.1c-11.7,8.1-24.2,13.9-38.4,16.5c-7.8,1.4-15.2,5.2-23,6.1c-3.8,0.4-8.7-2.6-12.1-5.3
		c-5.2-4.1-6.8-4.8-11.7-0.4c-8.9,7.9-10.9,18.1-8.5,29c0.6,3,4.2,5.4,6.6,7.8c1.3,1.3,3.4,1.8,4.4,3.2c1,1.4,1.2,3.5,1.7,5.3
		c-1.6,0.2-3.7,1.2-4.8,0.6c-4.8-2.6-10.4-4.8-13.7-8.8c-12.2-15.1-14.8-33.1,3.8-46.5c5.9-4.2,17.5-4.5,23.8-1.1
		c2.9,1.6,6.9,3.2,9.8,2.5c13.3-3.3,27.6-3.6,39.8-10.6c9.4-5.3,18.5-11.2,27.6-17c2.9-1.8,5.4-2.7,8.8-0.9c4.2,2.3,6.1,5,4.8,10
		c-3.4,12.6-9.9,23.6-17.8,33.6c-5.5,6.9-14.4,8.9-19,1.8c6.4-8.3,12.6-16.6,18.9-24.8C425.9,422.7,425.5,422.4,425.1,422.1z"/>
	<path d="M659.1,562.8c9.7-8.6,15.5-19.7,20.2-31.5c4.7-11.8,1.3-22.3-4.7-32.7c-7.3-12.5-11.8-26-10.3-40.8
		c1.3-12.6,5.3-24.4,11.1-35.5c5.3-10.1,11.5-19.7,17.4-29.7c4.4,4.8,5.8,14.5,3.3,20.5c-3.8,9.2-7.9,18.3-11.3,27.6
		c-3.9,10.8-6.6,22-6.5,33.5c0.1,10.2,3.5,19.5,8.8,28.2c6.1,10.1,10.2,20.9,9.9,32.9c-0.3,10.8-6,19-13.3,26.3
		c-1.8,1.8-4.1,3.1-6.2,4.7C672.1,570.5,663.1,568.8,659.1,562.8z"/>
	<path d="M1402.9,1163.4c0.2,4.9-1.6,6.3-4.5,4.6c-2.1-1.2-4.1-2.8-5.8-4.6c-11.2-11.7-22.3-23.6-33.5-35.3
		c-11.6-12.1-23.2-24.1-35-36c-8.6-8.7-17.6-17.1-26.3-25.6c-16.6-16.3-33.4-32.6-49.7-49.2c-4.6-4.7-8.4-10.5-11.5-16.4
		c-2.1-4.1-0.7-3.5,3.6-4.2c5.4-0.8,6,3.2,8.3,5.5c8,7.8,15.8,15.7,23.7,23.4c16.3,15.9,32.7,31.7,48.8,47.6
		c18.6,18.3,37.2,36.6,55.4,55.3c8,8.2,15.4,17,22.6,25.9C1401.2,1157.1,1402,1161.1,1402.9,1163.4z"/>
	<path d="M227.1,416.5c0-20.8,5.7-35.1,15.5-47.8c10.8-14,22.9-26.7,37.2-37.3c3.7-2.7,8.1-4.4,12.2-6.6c2.8-1.5,5.2-1.1,6.9,1.6
		c1.6,2.5,2.1,4.4-0.4,7.2c-12.2,13.3-24.2,26.8-35.9,40.6c-4.2,5-7.8,10.7-10.6,16.5c-3.4,7.1-6.5,14.5-8.3,22.1
		c-1.3,5.4-0.2,11.4,0,17.1c0.1,2.2,1,4.5,0.4,6.4c-0.8,2.7-2.8,5-4.2,7.4c-2.5-1.8-6.5-3.2-7.3-5.6
		C229.9,429.7,228.2,420.8,227.1,416.5z"/>
	<path d="M353.3,673c7,2.8,9.7,8.1,10.6,14.5c1.8,13.6,3.6,27.2,5,40.8c2.3,22.2,1.9,44.4-0.5,66.6c-0.3,3.1-1.5,6.1-2.5,9.1
		c-2,5.7-4.6,6.6-10.4,4.6c-3-1-3.6-2.5-3.5-5.5c0.9-20.8,2-41.5,2.1-62.3c0.1-12.1-1.9-24.2-2.4-36.3c-0.4-9.1,0-18.3,0.1-27.4
		C352,675.8,352.8,674.6,353.3,673z"/>
	<path d="M356.2,311.7c19.2,0.2,37,5.7,53.9,14.6c17,8.9,31.1,21.3,43.4,35.8c3.8,4.4,6.5,9.8,9.3,14.9c0.6,1.1-0.2,4.4-0.9,4.6
		c-1.7,0.4-4.3,0.2-5.4-0.9c-3.7-3.6-6.8-7.7-10.2-11.6c-12.5-14.7-26.1-28.3-44.4-35.1c-9.4-3.5-19.9-4.5-29.9-6.5
		c-12.5-2.5-25-0.3-37.6,0.4c-3.4,0.2-7.4-0.8-10.3-2.6c-4.5-2.8-4-5,0.8-7.3C334.9,313.3,345.4,311.7,356.2,311.7z"/>
	<path d="M1205.2,491.5c8.9-2.6,14-8.9,16.3-16.6c3.5-12,5.1-24.4,1.3-36.9c-1.3-4.3-3.4-5.1-6.7-1.8c-5.7,5.7-11.9,11.2-14.3,19.4
		c-1,3.6-5,4.9-8.9,3.6c-4.2-1.4-3-4.5-1.9-6.9c2.9-6.1,5.7-12.4,9.6-17.8c6.8-9.4,18.2-10.9,28.3-5c9.4,5.5,10.8,14.9,11.4,24.1
		c0.5,7.4-0.7,14.9-1.8,22.3c-1.7,10.8-9.2,17-18.5,21.2C1216.1,499.1,1209.3,496.3,1205.2,491.5z"/>
	<path d="M298.3,682.7c6-7.3,11.6-14.1,17.3-21c0.7,0.2,1.4,0.4,2.2,0.6c0,3.5,0.6,7.1-0.1,10.4c-1.6,6.7-3.8,13.3-6,19.8
		c-2.5,7.4-7.1,7.3-12.7,3.4c-5.4-3.8-11.1-8.2-14.3-13.7c-8.3-14.4-19.7-25.9-31.2-37.4c-2.7-2.7-5-6-7.4-9
		c0.4-0.6,0.8-1.2,1.2-1.8c3.5,1.6,7.7,2.4,10.4,4.9c10.5,9.6,20.8,19.5,30.7,29.7C292.2,672.7,295,677.9,298.3,682.7z"/>
	<path d="M454.4,460.6c9.1-12.1,17.3-23.8,16.3-38.8c-0.4-6-4-11.9-6.1-17.8c-0.8-2.2-1.8-4.3-2.3-6.6c-0.3-1.2,0.4-2.6,0.7-3.9
		c1.4,0.3,3.3,0.1,4,1c1.9,2,3.3,4.4,4.7,6.8c2.6,4.5,5,9.3,7.7,13.7c7.8,12.7,5.2,25.2-0.7,37.6c-1.9,4-4.4,7.8-6.8,11.6
		c-4.5,7-12.8,7-16.4-0.8C455.1,462.3,454.7,461.2,454.4,460.6z"/>
	<path d="M767.8,770.3c4.3,5.3,4,12.9-1.3,17.1c-16.8,13.4-34.6,25.3-56.2,29.6c-2.8,0.6-5.8,0.3-8.7,0.1c-0.7,0-2-1.2-1.9-1.9
		c0-1,0.7-2.3,1.6-2.7c3-1.7,6.2-3.1,9.3-4.7c19.6-9.8,37.7-21.7,54.4-35.8C765.7,771.3,766.7,771,767.8,770.3z"/>
	<path d="M1105,955.2c-1,7.8-4.5,12.7-10.3,16.3c-8.1,5-15.9,10.5-24,15.6c-8.1,5.1-14.9,11.5-20.4,19.3c-2,2.8-3.8,5.9-5.5,8.8
		c-2,3.3-3.8,2.6-5.5-0.1c-2.1-3.4-1.8-6.7,0.2-10.3c7.2-12.8,18.3-21.7,29.7-30.5C1079.8,966.1,1091.7,960.4,1105,955.2z"/>
	<path d="M1202.5,374c-4,0.8-8.1,2.3-12.1,2.3c-9.1-0.1-17.7,1.6-26.2,4.8c-7.3,2.8-13.1,7.3-17.5,13.3c-2.9,4-6.5,4.2-10.4,3.8
		c-3.9-0.5-5.5-4.6-3.3-8.1c9.4-14.9,23.2-22.6,40.7-22.6c8.5,0,17,2,25.5,3.1c1.1,0.1,2.1,0.8,3.1,1.2
		C1202.4,372.6,1202.4,373.3,1202.5,374z"/>
	<path d="M947.3,613.9c13.5-0.8,22-8.6,23.1-20.1c0.4-4,0.4-8-3.5-10.8c-0.6-0.5-0.9-2.1-0.6-2.9c0.2-0.6,1.7-1.1,2.6-1
		c6.6,0.3,9.5,5.3,12.5,10.1c4.7,7.6,5.1,15.8,2.3,23.9c-3.5,10.1-15.9,15.7-27.1,8.4C953.6,619.6,951,617,947.3,613.9z"/>
	<path d="M1119.3,976.6c1.9,3.8,1.3,6.4-2.1,8.7c-14.9,9.9-29.7,20-44.6,30c-3.6,2.4-7,5.2-10.8,7.3c-3,1.7-5.8,0.6-7.4-2.7
		C1066.8,1004.7,1101.3,981.7,1119.3,976.6z"/>
	<path d="M1265.8,390.5c-10.1-1.1-16.6-6.8-20.4-15.8c-6.7,1.7-12.9,1.3-17.9-4.8c1.4-1.2,2.5-2.5,3.9-3.2
		c11.6-5.7,24.4-0.3,28.9,11.9c0.4,1.1,2.3,1.9,3.7,2.4c5.8,2.1,10.9,5,13.3,10.9c2.5,6.1,0.4,11.9-2.7,17.2c-0.6,1-4,1.3-5.5,0.6
		c-4.6-2.2-6.5-7.4-5.1-12.6C1264.6,395.1,1265.1,393.1,1265.8,390.5z"/>
	<path d="M957.8,1102.3c2.1,1.1,4.5,2,6.3,3.5c5.3,4.5,10.3,9.4,15.7,13.8c8,6.6,16.9,11.5,27.1,14.3c5.9,1.6,11.7,4.3,14.7,10.2
		c0.8,1.5,0.3,3.7,0.4,5.5c-1.6,0.1-3.2,0.4-4.7,0.1c-22.6-4.5-38.9-18.8-53.9-35c-2.9-3.1-4.6-7.2-6.9-10.9
		C956.8,1103.3,957.3,1102.8,957.8,1102.3z"/>
	<path d="M1252.9,485.2c8.9-12.1,13.3-23.7,7.8-37.3c-0.5-1.3,0.2-3.2,0.4-4.8c1.6,0.2,3.6,0,4.9,0.8c10.7,6.7,18.3,28.9,5.1,42.6
		c-2.5,2.6-5.9,4.7-10.2,2.1C1258.6,487.1,1255.8,486.4,1252.9,485.2z"/>
	<path d="M932.2,528.1c-24.7-1.2-49.4-36.1-44.2-63.7c2.6,3.3,5,5.5,6.2,8.2c3.4,7.5,6,15.4,9.6,22.9c4.9,10.5,12,19.4,22.1,25.6
		C928.2,522.5,929.6,525.2,932.2,528.1z"/>
	<path d="M263.5,421.4c6.5,1.7,9.6,6.2,11.5,11.3c4,11,3.6,22.3,0.8,33.6c-1.5,5.9-8.1,8.5-12.3,4.7c-1.4-1.3-1.9-4.3-1.8-6.4
		c0.4-7.6,1.4-15.2,1.7-22.8C263.8,435.2,263.5,428.6,263.5,421.4z"/>
	<path d="M970.6,1048.4c-3.5-4.2-7.4-8.2-10.5-12.7c-8.8-12.9-17.6-25.8-25.9-39c-3.4-5.4-5.6-11.6-8.2-17.6
		c-0.4-0.9-0.3-2.1-0.5-3.1c0.5-0.4,0.9-0.7,1.4-1.1c2.3,2.1,4.9,3.9,6.7,6.4c3.9,5.5,7.4,11.4,11.1,17.1
		c9,13.8,18.1,27.4,26.9,41.3c1.3,2,1.2,4.9,1.8,7.4C972.5,1047.5,971.6,1047.9,970.6,1048.4z"/>
	<path d="M1286.9,323.6c8.8,3.4,17.3,5.9,25,9.8c5.1,2.6,7.9,7.9,8.9,13.8c0.9,5.6,2,10.9,5.4,15.8c1.4,2,0.6,5.5,0.8,8.3
		c-2.6,0-5.4,0.7-7.7-0.1c-2.7-1-5-3.3-8.1-5.5c4.1-3.2,3-5.6,1.2-8.7c-2.3-4-4-8.4-4.9-12.8c-0.9-4.1-2.9-5.9-6.8-6.6
		C1294.5,336.3,1287.6,329.8,1286.9,323.6z"/>
	<path d="M515.8,1000.5c9.9-17.1,22.6-30.5,36.7-43.2c5.2,9,0.1,15-4.5,20.6c-5.5,6.7-11.9,12.7-17.7,19.3
		C526.6,1001.2,522.4,1002,515.8,1000.5z"/>
	<path d="M954.5,975.3c7.5,0.2,11,4.5,13.8,8.4c10.8,15.1,21,30.6,31.3,46.1c1.3,1.9,1.4,4.5,2.3,7.8c-5.6-0.7-7.9-4.1-10.1-7.2
		c-7.3-10.3-14.2-20.9-21.4-31.3c-2.3-3.3-4.9-6.3-7.1-9.6C960.4,985.3,957.8,980.7,954.5,975.3z"/>
	<path d="M715.3,829.5c1.1-0.8,2.1-1.7,3.3-2.4c13.3-7.7,26.7-15.4,40.1-23.1c2.3-1.3,4.8-2.3,7.1-3.6c3-1.6,5,0.2,6,2.4
		c0.5,1-0.7,3.5-1.9,4.5c-8.8,7.7-18.8,13.2-29.2,18.5c-7.1,3.6-13.7,6-21.5,5.3c-1.2-0.1-2.3-0.3-3.5-0.4
		C715.6,830.4,715.4,829.9,715.3,829.5z"/>
	<path d="M778,425.4c0,5.8-0.1,11.6,0,17.3c0.1,3.8,1.8,6,6,5.2c0.5-0.1,1.1-0.4,1.5-0.3c3.1,1.1,7.8,0.3,8.1,5.1
		c0.2,5-4.5,3.4-7.2,3.9c-15.3,3-20.4-11.3-18.9-21.6c1.1-7.5,1.8-15.1,3-22.6c0.4-2.4,2.4-6.8,3.1-6.7c3.6,0.6,4.5,3.6,4.4,7.1
		C777.8,417.1,777.9,421.2,778,425.4C778,425.4,778,425.4,778,425.4z"/>
	<path d="M836.5,786.5c-13-0.7-24.1-5.7-35-11.6c-3.6-2-7.9-2.8-11.3-5.1c-3.4-2.2-6.3-5.3-9-8.3c-0.8-0.9-0.3-3-0.4-4.6
		c1.4-0.1,2.9-0.5,4.1-0.2c14.4,4.2,27,11.9,39.4,20C828.7,779.6,832.5,783.2,836.5,786.5z"/>
	<path d="M776.7,472.9c6.2,0.5,12.4,0.7,18.5,1.8c4,0.7,6.8,3.3,6.4,8c-0.4,4.6-2.9,7.2-7.1,9.1c-9.2,4.2-18.3,1.9-27.3,0.2
		c-3.2-0.6-7.2-4.1-8.1-7.1c-0.9-2.7,1.7-6.6,3.3-9.8c0.5-1,2.5-1.5,3.9-1.6c3.5-0.2,7-0.1,10.4-0.1
		C776.6,473.2,776.6,473.1,776.7,472.9z M765.2,483c6.2,6.2,23.3,6.8,28.3,1.8c1-1,1.7-3.2,1.2-4.4c-0.4-1.1-2.4-2.2-3.8-2.3
		c-6-0.1-12.1-0.2-18.1,0.6C770.3,479.1,767.9,481.4,765.2,483z"/>
	<path d="M1066.3,392.4c3-11,5.3-20.6,14.1-26.6c3-2,6.4-3.9,9.5,0.4c2.7,3.6,2.8,7.2-0.7,10.3c-5.1,4.5-6.1,10.7-8.1,16.6
		c-0.9,2.7-8,8.1-9.6,6.7C1069.1,397.9,1067.7,394.6,1066.3,392.4z"/>
	<path d="M1210,622.2c8.6-24.3,20.6-47,22.5-73.9C1243.1,560.3,1224.4,615.1,1210,622.2z"/>
	<path d="M563.6,1007.7c6.9-15.6,15.2-29.6,28.6-40.6c3,6,0.4,11.3-2.1,15.7c-4.8,8.3-10.8,15.9-16.4,23.7
		C571.3,1009.8,568.1,1010.3,563.6,1007.7z"/>
	<path d="M466.3,1000.8c8.1-8.5,15.8-17.1,24.1-25.1c1-1,4.6,0.3,6.7,1.1c1.4,0.5,3.7,2.5,3.5,3.1c-0.8,2.4-1.9,5.1-3.8,6.8
		c-5.5,5.2-11.1,10.3-17.2,14.7C476,1003.8,471.3,1005.3,466.3,1000.8z"/>
	<path d="M1186.1,396.4c1,0.1,2.1-0.1,3,0.2c6.7,2.3,12.8,1.2,18.9-2.3c3.5-2,5.6,0.3,7.1,3.1c1.7,3.1,1.2,5.9-2,7.6
		c-4.1,2.2-8.2,4.4-13.1,2c-5.6-2.7-11.3-1.1-17,0.1c-1.6,0.4-3.3,0.9-4.8,0.7c-1.9-0.2-3.8-1-5.6-1.5c0.7-2,0.7-4.7,2.1-5.7
		c3.3-2.4,7.2-3.9,10.9-5.7C1185.7,395.5,1185.9,395.9,1186.1,396.4z"/>
	<path d="M1115.5,398.1c-5.4-0.1-9.7-5.3-9.6-10.2c0.2-8.5,4.4-15,11.7-18.9c1.9-1,5.7-0.6,7.7,0.7c2.7,1.8,3,5.1,1.4,8.4
		c-2.9,5.7-5.3,11.7-8.1,17.4C1117.8,396.8,1116,397.7,1115.5,398.1z"/>
	<path d="M290.5,437.2c5.1,0.7,10,5,10,10.1c0,6-0.6,12.1-1.4,18.1c-0.5,3.8-5,7-7.8,6.4c-3.8-0.8-7.2-5.7-6.4-9.6
		C286.6,454,288.5,445.9,290.5,437.2z"/>
	<path d="M788,783.4c1.6,0.1,3.3-0.3,4.7,0.3c10.1,4.5,20.4,8.9,30.2,13.9c3.5,1.8,6.2,5.3,9.1,8.2c0.9,1,1,2.7,1.4,4.1
		c-0.4,0.4-0.8,0.8-1.2,1.2c-12.3-5.7-24.7-11-36.7-17.1c-3.5-1.8-5.9-5.8-8.7-8.7C787.2,784.7,787.6,784.1,788,783.4z"/>
	<path d="M767,326.5c3.3-0.9,6.8-2.9,10-2.5c10.1,1.4,20.1,3.6,30.1,5.7c1.3,0.3,2.8,1.4,3.6,2.5c1.3,1.9,2.1,4.1,3.1,6.1
		c-2.5,0.4-5.8,2.1-7.4,1.1c-9.3-5.7-19.8-5.6-29.9-7.3c-3.1-0.5-6-2.5-9-3.8C767.3,327.8,767.1,327.2,767,326.5z"/>
	<path d="M1009.1,1100.7c12.6,6.1,25.2,12.2,37.8,18.3c0.6-0.3,1.1-0.6,1.7-1c-0.5,2.5-0.2,5.8-1.7,7.1c-1.4,1.2-5,1.2-7.1,0.3
		c-8-3.4-16.1-6.8-23.4-11.5c-3.8-2.5-5.8-7.6-8.7-11.5C1008.2,1101.9,1008.6,1101.3,1009.1,1100.7z"/>
	<path d="M409.3,913.4c2.4,1,5.4,1.4,7,3.2c6.7,7.7,13.3,15.7,13.9,26.6c0.1,1.2-0.9,2.5-1.4,3.7c-1.3-0.6-3.1-0.8-3.7-1.8
		c-5.9-9.8-11.5-19.8-17.3-29.7C408.3,914.8,408.8,914.1,409.3,913.4z"/>
	<path d="M1016.3,1002.8c-5.6,0.5-7.7-3.1-10.3-6.1c-0.6-0.7-1.3-1.6-1.8-2.4c-4.7-7.6-9.3-15.2-13.9-22.8c0.4-0.5,0.8-1.1,1.3-1.6
		c2.1,1,4.9,1.5,6.2,3.2c6,7.5,11.8,15.2,17.3,23C1016.2,997.8,1015.9,1000.5,1016.3,1002.8z"/>
	<path d="M1044.6,1092.1c3.7,1,6.2,1.4,8.6,2.3c3.4,1.3,6.6,3.1,9.9,4.5c6.4,2.6,6.5,2.5,6,9.5
		C1060.1,1111.1,1051.6,1105.8,1044.6,1092.1z"/>
	<path d="M449.4,444.1c2.1-5.4,4.1-10.3,5.8-15.3c1.6-4.8,2.8-9.8,4.3-15.1c7,3.8,4.1,10.5,3.9,15.6
		C463,436.3,458.1,441.9,449.4,444.1z"/>
	<path d="M747.1,396.3c2.2,2,4.6,3.2,5.3,5.1c1.1,3,1.7,6.5,1.4,9.6c-0.2,1.8-2.6,4.5-4.3,4.7c-2,0.3-5.9-1-6.4-2.4
		c-1.3-4.1-1.7-8.6-1.5-12.9C741.7,399.2,744.7,398.1,747.1,396.3z"/>
	<path d="M820.1,406.3c-0.2,1,0.1,2.9-0.7,3.9c-1.4,1.7-3.5,4.1-5.3,4.1c-1.9,0-4.3-2-5.6-3.8c-1.1-1.4-1-3.8-1.2-5.8
		c-0.7-6.2,0.3-7.7,5.4-8.4c4-0.6,6.5,1.7,7.4,6.7C820.2,403.9,820.1,404.9,820.1,406.3z"/>
	<path d="M402.2,481.6c2.2-3.3,4.2-6.8,6.6-9.9c1.9-2.5,5.1-4.4,7.6-1.7c1.6,1.7,2.1,5.3,1.6,7.7c-0.6,2.7-2.8,5.2-4.7,7.5
		C410.3,488.9,407.3,488,402.2,481.6z"/>
	<path d="M1105.3,451c2.8-3.6,4.5-7.8,7.1-8.6c3.8-1.1,6.2,2.5,7.2,6.4c0.9,3.6,2.3,7.2-0.6,10.3c-1.1,1.2-4.1,2.4-4.7,1.9
		C1111.2,458.2,1108.7,454.9,1105.3,451z"/>
	<path d="M390.8,476.9c-7.3,3.1-15.6-0.6-19.6-8.5C376.5,465.5,388.1,470.3,390.8,476.9z"/>
	<path d="M371.9,482.6c3.5-0.4,6.8-1.5,9.7-0.9c2.5,0.6,4.7,3,6.8,4.9c0.4,0.3-0.2,2.8-0.8,2.9c-2.5,0.8-5.4,2.1-7.7,1.5
		C376.1,490.1,372.5,488.1,371.9,482.6z"/>
	<path d="M344.9,524.6c1.6-8.3,13.3-15.6,20.7-13C365,515,352.5,522.9,344.9,524.6z"/>
	<path d="M1150.9,460.3c-5.3,2-10.1,2.1-14.5-1.1c-0.9-0.6-1.2-1.9-1.8-2.9c1-0.5,1.9-1.5,3-1.5c2.5-0.2,5,0,7.4,0
		C1148.6,454.9,1149.6,455.8,1150.9,460.3z"/>
	<path d="M1151.4,446.5c-5.1,0-9.9,0-15.8,0C1142.9,440.2,1148.5,440.3,1151.4,446.5z"/>
</g>
</svg>
