<?xml version="1.0" encoding="utf-8"?>
<!-- Generator: Adobe Illustrator 27.4.1, SVG Export Plug-In . SVG Version: 6.00 Build 0)  -->
<svg version="1.1" id="Camada_1" xmlns="http://www.w3.org/2000/svg" xmlns:xlink="http://www.w3.org/1999/xlink" x="0px" y="0px"
	 viewBox="0 0 1500 1500" style="enable-background:new 0 0 1500 1500;" xml:space="preserve">
<image style="overflow:visible;" width="1450" height="993" xlink:href="../../Library/CloudStorage/GoogleDrive-lucas.pretti@okfn.org/.shortcut-targets-by-id/0B79xBlVd-Nf6ZzMzUlZSTWwxV28/Open Knowledge All Team/Brand 2023/Illustrations/L 1500px - web transp/Icons/board.png"  transform="matrix(1 0 0 1 -2106 1417.5)">
</image>
<g>
	<path d="M1283.4,812.7c-3.8-3.1-7.3-5.7-10.5-8.7c-5.9-5.3-6.5-12.5-6.1-19.6c0.9-13.9,2.4-27.8,3.6-41.7c0.1-1.1,0-2.2,0-4.3
		c-6.7,5-12.6,9.4-18.5,13.9c-8.9,6.9-17.8,13.7-26.6,20.8c-5,4-9.5,8.6-14.6,12.3c-10.3,7.5-21,14.6-31.5,21.9
		c-6,4.2-11.9,8.7-18,12.8c-2.8,1.9-6.2,3-9.2,4.5c-0.4,0.2-0.9,0.4-1.2,0.7c-8.8,10.3-21.2,15.4-32.1,22.6
		c-6.9,4.5-13.4,9.5-20.2,14.1c-2.1,1.4-4.7,2.1-6.9,3.4c-1,0.6-1.5,2.1-2.3,3.1c-0.3,0.5-0.7,1-1.2,1.3
		c-8.5,5.2-16.9,10.5-25.4,15.6c-6.7,4.1-14,7.3-19.9,12.2c-19,15.8-39.3,29.9-58.9,44.9c-11.4,8.8-23.3,17-35,25.5
		c-8.8,6.4-17.8,12.7-26.4,19.4c-25.1,19.5-49.9,39.3-75.1,58.6c-8.1,6.2-17.3,11.2-25.7,17.1c-7.3,5.1-14.4,10.7-21.3,16.3
		c-15.1,12.2-31.5,22.5-48.5,31.7c-10.4,5.6-21.1,11-32.2,15.1c-11.9,4.3-23.5,3-34.5-4.8c-12.7-9-26.1-17-39.2-25.5
		c-15.3-9.9-30.5-19.9-45.7-29.9c-15.3-10.1-30.2-20.7-45.7-30.4c-27.9-17.5-55.9-34.7-84.1-51.7c-10.8-6.5-22.3-11.9-33.3-18
		c-5.3-3-10.2-6.8-15.5-9.8c-4.1-2.4-8.8-3.8-12.8-6.2c-7.3-4.3-14.2-9.5-21.7-13.6c-5.3-2.9-11.3-4.6-16.9-7c-4.7-2-9.5-4-14-6.5
		c-7.6-4.2-15-8.8-22.6-13c-3-1.7-6.4-2.7-9.3-4.5c-10.3-6.9-20.8-13.6-30.6-21.1c-11.1-8.5-15.8-21.9-22.8-33.4
		c-3.5-5.8-7.2-8.9-14.8-7.8c-8.7,1.3-17.1,1.6-23.8,8.4c-1.6,1.6-4.6,1.8-6.6,3.2c-2.3,1.7-5,3.6-6.1,6.1c-8.5,19.1-11.4,39-4.3,59
		c2.7,7.8,8.1,14.9,13.4,21.4c11.9,14.8,27.2,25.8,43.2,35.9c8.6,5.4,15,12.4,15,24.8c-4.4-1.2-9.2-1.1-12.3-3.4
		c-14.1-10.3-28.3-20.6-41.2-32.2c-9.7-8.7-17.7-19.3-26.2-29.2c-10.2-11.8-14.1-26-15.3-41.3c-2-26.2,6.8-48,24.2-67.3
		c20.2-22.4,44.6-39.4,69.4-55.9c19.9-13.3,40.1-26.1,60.3-39.1c15.9-10.2,31.8-20.6,48-30.4c7.6-4.6,15.8-8.3,23.8-12.3
		c1.4-0.7,3-0.8,5.5-1.4c-1.1,2.3-1.7,3.6-2.3,4.9c1.2-0.1,2.6-0.2,4.7-0.4c-3,7.8-6.4,14.5-12.6,19.4C390.5,730.8,366,745,342,760
		c-19.4,12.2-37.6,26.2-56.3,39.6c-10.2,7.3-20.3,15-30.4,22.5c-0.5,0.4-0.9,0.9-1.4,1.3c5.1,2.3,10.2,4.2,14.8,6.8
		c10.6,6,18.3,15.3,23.1,26.1c5.7,12.8,15.9,19.5,27.2,25.7c5.4,3,10.2,7.3,15.6,10.1c10.6,5.6,21.6,10.3,32.2,15.8
		c17.1,9,34,18.3,50.9,27.6c22.1,12.3,44.5,24.2,66.2,37.2c27.6,16.5,54.8,33.5,81.9,50.9c31.4,20.1,62.4,40.8,93.6,61.2
		c7.9,5.2,15.7,10.6,23.6,15.9c0.8,0.6,1.8,1.1,2.3,1.9c5,8.8,12.8,6.7,19.7,4.1c26-9.8,49.9-23.3,72.1-40.2
		c15.1-11.5,31.3-21.6,47-32.4c1.9-1.3,3.5-2.9,6.1-5c-0.2,1.5-0.3,2.1-0.4,3c0.9-0.5,2-0.8,2.5-1.5c5.4-7.3,11.7-12.1,20.9-17.3
		c3.1-1.8,5.1-5.4,8.1-7.7c5.2-4.1,10.9-7.6,16.2-11.7c2.4-1.9,4.1-4.9,6.6-6.6c9.8-6.8,19.9-13.1,29.6-20c3.7-2.6,6.7-6.4,10.2-9.4
		c1-0.9,2.7-0.9,3.8-1.8c4-3,7.8-6.4,11.9-9.4c4.1-2.9,8.6-5.2,12.6-8.2c5.8-4.4,11.2-9.3,17-13.7c3.2-2.5,6.8-4.4,10.1-6.9
		c5.5-4.1,10.8-8.6,16.3-12.7c4.1-3.1,8.5-5.7,12.6-8.7c3.7-2.7,7.2-5.7,10.9-8.6c4.6-3.6,9.3-7,14-10.6c3.5-2.6,6.7-5.9,10.5-7.6
		c4.7-2.1,8.8-4.4,12.2-8.4c1.9-2.2,5.2-3.1,7.7-4.8c6.1-4.1,12-8.5,18.2-12.6c3.6-2.4,7.5-4.3,11-6.7c5.2-3.5,10-7.5,15.2-10.9
		c8.5-5.5,17.2-10.5,25.7-16.1c4.9-3.2,9.2-7.4,13.9-10.8c9.1-6.5,18.4-12.8,27.5-19.3c7.2-5.1,14.2-10.3,21.4-15.3
		c7.3-5,14.9-9.7,22.2-14.8c4.7-3.3,8.8-7.4,13.5-10.7c4.6-3.3,9.9-5.7,14.4-9.1c4.8-3.6,9-8,13.4-12c0.8-0.7,1.6-1.5,2.6-1.9
		c5.6-2.7,8.8-7.1,11.1-12.8c1.9-4.9,5-9.3,7.9-13.8c1.7-2.6,1.7-4.4-1-6.1c-15.2-9.8-30.3-19.7-45.5-29.3
		c-7.1-4.5-14.4-8.5-21.6-12.7c-1.9,6.3-4.1,13-6,19.8c-2.2,7.9-6.4,14.6-11.9,20.6c-6,6.5-12,13-18.2,19.3
		c-1.4,1.4-3.7,1.8-5.6,2.7c-2.2,1.2-4.9,2-6.4,3.8c-7,8.5-16.3,13.9-25.4,19.6c-25.7,16-51,32.5-76.9,48.1
		c-19.3,11.7-39.5,22-58.9,33.5c-29,17.2-57.7,34.9-86.4,52.7c-25.7,15.9-51.3,32.1-76.8,48.4c-15.7,10-30.9,20.7-46.6,30.7
		c-5.8,3.7-12.1,7-19.3,6.9c-2.5-0.1-4.9-1.1-7.3-1.7c3.2-10,12.2-14,19.6-19.2c23.6-16.4,47.3-32.7,71.6-48.1
		c43.8-27.8,88-54.9,132.2-82.1c25.3-15.6,51.2-30.4,76.3-46.4c17.1-10.9,33.2-23.3,50-34.8c14.6-9.9,28.8-20.5,44.3-28.7
		c9.1-4.8,15.8-10.5,19.7-19.6c1.8-4.4,2.5-9.2,3.8-13.8c1.6-5.9,4-11.7,5-17.6c2-12.5,1.9-25,0.3-37.6c-3-22.8-10.2-43.7-25.5-61.3
		c-6.3-7.3-13.1-11.8-23.5-8.9c-5.7,1.6-11.7-0.6-16.3-4.3c-7.4-5.8-14.4-12.2-21.3-18.6c-11.7-10.8-23.3-21.8-34.9-32.9
		c-2.7-2.6-4.8-5.7-7.1-8.7c-2.4-3.2-0.7-4.5,2.5-5.2c7-1.5,12.3,2.3,17.3,6.1c17.4,13.1,35,26,48.4,43.6c1,1.3,3.4,2.3,5.1,2.3
		c18.7,0.3,34.1,8,47.3,20.7c12.6,12.2,22.4,26.5,27.2,43c4.5,15.4,6.1,31.6,8,47.6c0.5,3.9,1.7,5.6,4.5,7.2
		c14.7,8.7,29.7,17,44,26.4c9.7,6.4,18.7,14,27.3,21.8c4.4,4,7.5,9.6,10.9,14.7c2.9,4.5,1.6,13.1-2.1,17c-0.8,0.8-2,1.5-2.3,2.5
		c-2.1,7.3-4.6,14.5-5.9,21.9c-1.7,9.7-2.5,19.6-3.3,29.4c-0.6,7.1-0.5,14.2-0.5,21.3c0,1,1,2.3,1.8,3.1c4.5,4.5,9.4,8.7,13.6,13.5
		c3.8,4.4,3.5,10.1,1.7,15c-4.4,11.6-11.8,21-22.4,27.9c-2.1,1.4-3.5,4-5.5,5.6c-16.3,12.3-32.7,24.5-49.1,36.7
		c-20.5,15.4-40.9,30.9-61.6,46c-19.5,14.2-39.3,27.8-58.9,41.8c-11.3,8.1-22.7,16.1-33.8,24.5c-9.7,7.3-19,15.2-28.7,22.5
		c-16.6,12.5-33.5,24.6-50.1,37.1c-6.3,4.8-11.9,10.5-18.2,15.3c-11.9,9-23.9,17.8-36.1,26.4c-10.2,7.3-20.6,14.3-30.9,21.3
		c-16.1,10.9-32.3,21.7-48.3,32.8c-13.9,9.7-27.7,19.5-41.4,29.6c-15.4,11.4-30.3,23.3-45.7,34.7c-3.9,2.9-8.9,4.2-12.8,7
		c-4.2,3-7.8,6.9-11.7,10.3c-9.7,8.6-16.6,3.7-21.1-5.9c-0.6-1.2,0.9-4.5,2.3-5.5c14.2-10,28.9-19.3,42.9-29.5
		c7.2-5.3,13.4-12,20.2-17.8c2.3-2,5.6-2.8,8.1-4.7c9.9-7.6,19.5-15.8,29.7-23.1c8.6-6.2,18-11.4,26.9-17.3
		c14.3-9.4,28.4-19.1,42.6-28.6c9.4-6.3,19-12.4,28-19.2c11.8-8.9,23.1-18.5,34.8-27.6c22.8-17.7,45.7-35.3,68.6-52.9
		c10-7.6,20.3-14.8,30.3-22.3c3.7-2.8,6.9-6.5,10.7-9.2c5.2-3.7,10.9-6.8,16.2-10.4c5.7-3.9,11.1-8.2,16.7-12.3
		c6.7-4.9,13.5-9.8,20.3-14.6c9.4-6.6,19.1-13,28.4-19.8c14.2-10.5,28.1-21.3,42.2-31.9c9.3-6.9,18.9-13.5,28.1-20.5
		c11.8-9,24.7-16.7,34.7-28c5.3-5.9,11.6-11,17.3-16.5C1281,816,1282.2,814.2,1283.4,812.7z"/>
	<path d="M412,628c2.2-3.5,4-6.3,5.6-9c2.3-3.8,4.6-6.2,9.9-7c5.7-0.9,10.9-5.1,16.1-8.3c12.9-7.8,25.5-16.1,38.4-23.8
		c5-2.9,10.6-4.7,16.1-6.6c2.8-0.9,2.8-2.2,1.9-4.4c-7.8-20.2-3.4-39.5,4.5-58.5c3.2-7.7,10.5-10.5,17.9-10.5
		c7.5-0.1,15.1,1.8,22.6,3.1c4.8,0.9,6.3,5.2,7.7,9.4c6.9-3.2,13.4-0.9,20,0.5c13.1,2.8,26.3,5.5,39.5,8.1
		c18,3.5,36.1,6.4,53.9,10.5c17.2,3.9,34,9,51.1,13.3c16.1,4.1,32.3,8,48.6,11.5c11.1,2.4,22.3,3.2,33.6,0.3
		c10.7-2.8,18-10.4,25.7-17.4c17.5-15.9,31.5-34.6,45.4-53.6c8.6-11.8,18.4-22.7,28.2-33.6c14.6-16.3,26.6-34.5,38.9-52.5
		c7.2-10.6,14.7-21,21.9-31.5c4.4-6.5,8.6-13.1,12.9-19.6c1.1-1.7,2.5-3.1,3.7-4.7c3.1-4.1,6-8.3,9.1-12.3c1-1.2,2.4-2.1,3.5-3.2
		c1.3-1.3,3.4-2.8,3.3-4.1c0-1.9-1.2-4.6-2.7-5.5c-13.4-8.4-28.4-12.8-43.7-16.2c-15.7-3.5-31.4-6.9-47.2-9.9
		c-4.8-0.9-10,0.2-14.8-0.7c-10.1-1.8-19.9-4.9-30-6.4c-13.6-2.1-27.4-3.2-41.1-4.7c-4.5-0.5-8.9-0.9-13.4-1.4c-9.5-1-18.7-1-27.4,4
		c-1.7,1-4.7,0.5-6.7-0.3c-4.2-1.6-8.7-3.2-11.9-6.1c-5.6-4.9-11.9-6.5-18.8-5.5c-8.4,1.2-14.5-1.8-19.2-8.7c-0.7-1-1.9-1.7-2.9-2.7
		c4.6-8.9,13.2-8.5,21.1-9.2c7.2-0.6,13,3.2,18.2,7.3c5.3,4.1,10.5,2.8,16.1,1.8c6.2-1.1,12.5-2.7,18.7-2.5
		c15.6,0.4,31.4,0.4,46.8,2.8c37.7,5.8,76,6.9,113,16.9c17.4,4.7,34.8,10,48,23.1c5.3,5.2,10.1,11.2,13.8,17.5
		c2.1,3.6,2.4,8.8,2,13.1c-0.5,5.3-2.4,10.5-4.1,17c7.4,5.9,3.7,16.2,4.8,25.2c1.4,11.7,1.8,23.5,3,35.2c0.1,1.3,2,2.7,3.4,3.5
		c5,2.8,10.6,4.9,15.3,8.2c14.7,10.3,13,18.9,6.2,31.9c-7,13.5-15.2,26.5-23.8,39.2c-11.9,17.5-24.1,34.7-37.1,51.3
		c-14.2,18.2-29.5,35.6-44.2,53.4c-16.3,19.8-32.6,39.6-48.8,59.4c-7.8,9.5-15.3,19.4-23.6,28.4c-6.2,6.8-12.9,13.6-20.6,18.4
		c-7,4.4-15.8,5.2-24.5,3.8c-3.6-0.6-7.3-1-10.9-0.6c-7,0.7-12.2-3.9-18.3-5.7c-10.2-3.1-20.4-6-30.4-9.4
		c-14.8-5-29.5-10.3-44.1-15.7c-10.3-3.8-20.3-8.3-30.6-12.1c-20.1-7.4-40.5-14.2-60.5-21.9c-12.5-4.8-24.5-11.1-36.7-16.6
		c-4.4-2-8.6-2.6-13.8-2.1c-6.4,0.7-13.3-0.8-19.6-2.6c-6.6-2-13-5.1-19.1-8.5c-7.6-4.3-13.5-10.6-18.1-18.1
		c-1.5-2.4-3.3-4.5-5.1-6.8c-23.8,14.7-47.3,29.3-71.7,44.4c7.1,4,13.1,7.7,19.3,11c10.5,5.6,21.4,10.3,31.5,16.6
		c13.5,8.4,26.2,18,39.5,26.9c10.5,7,21.6,13.1,31.9,20.4c17.3,12.3,34,25.4,51.2,38c7.9,5.8,16.2,11,24.2,16.6
		c12,8.4,23.7,17.1,35.9,25.1c4.7,3.1,10.2,5.7,15.7,7.1c16,4,28.4,13.2,37.9,25.9c17.8,24,29,50.7,30,81
		c0.6,18.2-4.6,35.3-11.3,51.8c-1.9,4.6-6.7,8.1-10.2,12c-0.1,0.1-0.3,0.2-0.4,0.3c-5.3,5.9-10.1,12.3-16,17.5
		c-4.1,3.5-9.5,6.8-14.6,7.5c-14.4,2-23.9-7.5-33.1-16.7c-1.3-1.3-2.3-2.8-3.9-4.7c-0.6,1.8-1,2.9-1.4,4
		c-11.2-0.4-19.7-7.4-28.6-12.7c-21.3-12.7-42.4-25.9-62.7-40c-28-19.4-55.3-40-83-60c-12.1-8.7-24.2-17.5-36.5-25.8
		c-7-4.7-14.8-8.3-21.9-13c-5.3-3.4-10.5-7.2-14.9-11.7c-2.7-2.7-4.7-6.8-5.8-10.6c-1.7-5.9,1.8-10.9,7.8-12.6
		c2.9-0.8,5.8-1.3,8.8-1.8c7.6-1.2,8.1-1.9,7.9-9.5c-0.8-30.1-1.5-60.1-2.3-90.2c-0.3-11.4-0.9-22.9-1.4-34.3
		c-0.1-1.1-0.6-2.6-1.4-3.3c-3.9-3-8.3-5.5-11.8-8.8C414.5,633.7,413.3,630.2,412,628z M994.1,357.9c-4,2.6-7.6,3.9-9.7,6.5
		c-3.4,4.3-5.7,9.4-8.5,14.1c-2.1,3.4-4.1,6.8-6.4,10c-5.6,7.8-11.7,15.3-17,23.3c-4.3,6.5-6.9,14.2-11.7,20.3
		c-10.2,12.9-21.3,25.1-32,37.7c-7.3,8.6-14.6,17.1-21.5,26c-5.6,7.1-10.3,15-15.9,22.1c-7,8.9-14.4,17.5-22,25.9
		c-6.5,7.2-13.6,13.9-20.2,20.9c-9.5,10.1-21.3,15.7-34.8,14.8c-14.5-0.9-29-3.4-43.2-6.2c-14.6-2.9-29.1-6.9-43.5-10.7
		c-17.4-4.6-34.7-10-52.2-14.1c-18.7-4.4-37.8-7.5-56.5-11.8c-11.2-2.5-22.2-5.7-33.1-9.3c-5.2-1.7-10.3-4.4-11.5-9.5
		c-5.4-0.3-10.5-0.4-15.6-0.8c-8.5-0.7-13.5,2.5-16.3,10.5c-0.5,1.4-1.2,2.8-1.3,4.3c-1,10.5-3.6,21.2-2.5,31.5
		c1.3,12.5,7.8,23.7,17.6,32.1c8,6.9,17,11.8,28.3,7.8c1.4-0.5,3.3-0.5,4.8,0c8,2.8,16,5.5,23.8,8.7c11.3,4.7,22.2,10.5,33.7,14.8
		c20.8,7.9,42,14.8,62.8,22.7c19.9,7.4,39.3,16,59.3,23.1c18,6.3,36.5,11.3,54.8,16.8c13.2,4,24.5,1.3,33.4-9.6
		c6-7.3,12.2-14.4,18.2-21.7c8.9-11,17.5-22.1,26.4-33c6.2-7.6,12.6-15,19-22.4c14.1-16.5,28.4-32.8,42.4-49.4
		c11.7-14,23.8-27.8,34.3-42.8c15.6-22.5,30.3-45.6,44.6-69c7.8-12.7,5.5-12-5.7-15.3c-0.2-0.1-0.6,0.2-0.9,0.3
		c-0.3,5.3-0.4,10.6-1,15.8c-0.6,4.3-2.9,5.4-6.7,3.5c-6-2.9-10.2-7.1-10.2-14.4c-0.1-9-0.4-17.9-0.8-26.9
		C995.7,389.3,994.9,374.2,994.1,357.9z M450.4,698.9c5.4,2.8,10,5.1,14.5,7.7c2.2,1.2,4,3.1,6.1,4.4c18.6,11.7,37.3,23.1,55.8,35
		c7,4.5,14.4,8.3,20.6,14.3c7.1,6.8,16.3,11.4,24.3,17.2c4.1,3,7.6,6.8,11.4,10.2c-0.3,0.5-0.6,0.9-0.9,1.4
		c-9-4.4-17.9-8.8-27.3-13.4c0.9,1.4,1.5,2.3,2.1,3.3c-34.7-21.1-73.2-35.3-104.9-61.8c0,9.3,0,17.5,0,24.1c5.6,3,10.2,5.3,14.7,7.8
		c1.3,0.7,2.5,1.6,3.8,2.4c24.9,14.7,50,29.2,74.8,44.2c15.9,9.6,31.3,19.9,46.9,30c8.2,5.3,16.3,10.8,24.5,16.1
		c15.2,9.7,30.5,19.3,45.7,29c2.4,1.5,4.6,3.5,6.9,5.3c-1.3,2-2.1,3.3-3.3,5.2c-5.1-2.8-10-5.4-14.8-8.3
		c-15.6-9.3-31.2-18.8-46.8-28.1c-4.5-2.7-9.4-4.8-13.7-7.9c-3.9-2.9-9.2-2.3-12.9-6.1c-2.5-2.6-7-3.4-10.5-5.1
		c-8.8-4.3-17.6-8.5-26.3-12.9c-7.4-3.7-14.7-7.4-21.9-11.5c-8.6-4.8-16.9-10.1-25.3-15c-11.9-6.9-23.9-13.7-35.8-20.6
		c-1.5-0.9-2.9-1.8-5-3.1c0,3.3,0,5.6,0,7.9c0,7.6,0.3,15.2-0.1,22.8c-0.2,4.4-3.4,6.1-7.5,4.4c-1.8-0.7-3.4-1.9-4.3-2.4
		c-5.8,1.3-10.9,2.4-17.3,3.8c2.5,2,3.6,3.1,5,4c21,13.1,42.5,25.6,62.9,39.5c26.2,17.8,51.2,37.2,77.3,54.9
		c22.2,15.1,45.4,28.9,68.1,43.3c5.5,3.5,11.1,6.9,17.2,10.6c0-2.5,0-4,0-5.1c8.4-1.5,12.6,3.9,16.8,9.4c1.2,1.6,2,3.7,3.6,4.8
		c4,2.7,8.3,5,12.6,7.2c1,0.5,2.8,0.4,3.7-0.3c3.9-2.8,8.3-5.3,11.1-9c5.7-7.6,10.8-15.8,15.6-24c3-5.1,5.6-10.6,7.6-16.2
		c9.4-26.7,10.4-53.2-3.7-78.7c-5.7-10.3-12.2-20.2-25.4-22.7c-6.7-1.3-13.8-1.6-19.8-6.3c-10.7-8.4-22-16-33-23.9
		c-23.2-16.7-46.5-33.4-69.7-50.1c-6.3-4.5-12.5-9.2-18.9-13.6c-4.5-3-9.6-5.2-13.7-8.6c-15.7-12.7-31.8-24.6-49.4-34.5
		c-13.8-7.7-27.6-15.4-41.4-23.1c-1.5-0.8-3.1-1.6-4.4-2.2C447.6,669.7,449,684.8,450.4,698.9z"/>
	<path d="M313.7,936.2c-3.9-2.6-8.1-5-11.8-7.9c-2.5-2-4.6-4.6-6.6-7.2c-1.4-1.8-2.1-4.5,0.7-5.5c2.5-0.9,6.1-1.9,8.2-0.8
		c7.8,4.1,15.2,8.8,22.6,13.7c29.4,19.3,60.7,35.3,91.3,52.4c14.9,8.4,29.2,18,43.6,27.3c2.4,1.6,4.8,3.8,6.2,6.3
		c0.8,1.5,0.4,5.1-0.7,6c-1.6,1.2-4.7,1.4-6.8,0.9c-15.1-4.2-26.6-14.9-39.9-22.5c-22.8-13.1-45.9-25.6-68.9-38.3
		c-3.4-1.9-6.8-3.7-11.6-6.3c-1.4,12.1-2.6,22.9-4,33.7c-1.4,10.8-3.2,21.6-4.8,32.4c-1.8,12.5-10.7,19.2-20.6,25.3
		c-6.4,4-12.6,8.4-18.7,12.8c-1,0.8-1.2,2.7-1.8,4c-0.7,1.4-1.2,3-2.1,4.3c-12.4,18.5-25,36.8-37.2,55.4c-4.8,7.3-13.8,8.4-17.9,0.7
		c-1.6-2.9-0.7-7.7,0.1-11.4c0.8-4.1,2.8-8,4.7-13.1c-2.4,1.3-4.1,1.8-5.4,2.9c-5,4.1-10.1,2.5-14-0.9c-2.2-1.9-3.9-6.2-0.9-9.5
		c8.6-9.5,17.1-19,26-28.1c11.9-12.1,24.1-23.8,36.4-35.5c10-9.6,13.2-21.4,12.7-34.9c-0.6-16.6,5.5-31.6,12.6-46.2
		c0.7-1.4,0.3-3.6,1.3-4.6C308.2,939.7,310.7,938.3,313.7,936.2z"/>
	<path d="M522.8,1149.5c1.1,0.2,2.1,0.3,3.2,0.5c0.1-0.2,0.2-0.4,0.2-0.5c-1.2-0.6-3.1-2.1-3.6-1.7c-3.2,2.6-4.9-0.6-6.8-1.8
		c-3.5-2.1-6.7-4.6-10.1-6.9c-15.7-10.6-31.5-20.8-46.9-31.8c-14.1-10.1-27.7-21-41.5-31.4c-16-12.1-32-24.3-48.1-36.2
		c-6-4.4-12.5-8-18.7-12.1c-1.4-0.9-2.4-2.6-3.1-4.7c1,0.3,1.9,0.6,3.7,1.1c-0.6-2.2-1.1-4-1.9-6.8c3.1-0.6,6.3-1.7,9.3-1.7
		c5.3,0.2,10.5,0.8,15.2,4.2c3.8,2.7,9.1,3.4,13,6.1c10.3,6.9,20.1,14.5,30.2,21.6c5.5,3.9,11.2,7.6,16.8,11.5
		c3.4,2.4,6.6,4.9,9.9,7.4c7.2,5.5,14.2,11.3,21.6,16.6c6.7,4.8,13.9,8.9,20.7,13.7c6,4.2,11.6,8.9,17.5,13.3
		c1.7,1.3,3.7,2.1,5.5,3.3c11.8,7.6,23.6,15.1,35.3,22.8c9.8,6.5,19.2,13.7,29.2,19.7c13.6,8.1,27.7,15.4,41.5,23.2
		c8.4,4.7,16.8,9.5,24.9,14.7c2.6,1.7,3.9,5.5,6.6,7c14.6,8.1,28.7,17.4,45.2,21.7c4.1,1.1,7.7,4,11.8,5.2c6,1.7,12.2,2.5,18.3,3.7
		c1.1,0.2,2.7,0.5,3.2,1.3c3,4.9,2.4,9.3-1.5,13.9c-0.4,0.5-0.8,1.2-1.2,1.3c-9.1,0.6-18,4.1-27.4-0.6c-8.4-4.2-18-5.9-26.6-9.9
		c-11.9-5.6-23.3-12.1-34.7-18.4c-14.8-8.2-29.7-16.3-44.2-25c-12.1-7.3-23.6-15.4-35.4-23.1c-8.5-5.5-17.1-10.8-25.6-16.2
		c-2.1-1.3-4.1-2.7-6.2-4C522.4,1150.2,522.6,1149.8,522.8,1149.5z"/>
	<path d="M744.6,794.6c-2.7-1.8-6.5-2.9-7.7-5.4c-1.4-2.8-0.4-6.8,3.1-8.9c6-3.6,11.8-7.3,17.9-10.6c14-7.5,28.2-14.8,42.2-22.2
		c4.1-2.2,8.1-4.8,12.4-6.5c17.3-6.7,31.6-18.3,47.1-28c12.4-7.7,25-15.2,37.3-23.2c12.8-8.4,25-17.7,38-25.8
		c16.8-10.6,34-20.5,51.1-30.7c15.6-9.3,31.4-18.5,47-27.9c8.6-5.1,17.1-10.3,25.4-15.8c8.5-5.7,16.6-12,24.9-18
		c3.3-2.3,7.2-4.3,10.5-0.7c2.7,2.9,5.2,6.6,6,10.4c0.4,1.8-3.1,5.1-5.5,6.6c-22.1,14-44.2,27.8-66.5,41.5
		c-16.4,10.1-33.2,19.7-49.6,29.8c-13.7,8.4-27.3,17.1-40.9,25.8c-7.5,4.8-14.6,10.2-22.2,14.8c-9.5,5.8-19.4,10.9-28.9,16.6
		c-15.1,9.1-29.7,19.1-45.1,27.6c-23.9,13.1-48.4,25.1-72.5,37.7c-5,2.6-9.8,5.7-14.7,8.5C751.1,791.7,748.2,792.9,744.6,794.6z"/>
	<path d="M513.6,491.3c2.8-3.9,5.4-7.9,8.4-11.7c11.5-14.8,23-29.7,34.7-44.3c10.8-13.5,21.9-26.7,32.7-40.2
		c6-7.5,10.9-15.9,17.3-23.1c9.2-10.5,19.3-20.1,28.8-30.4c11-11.8,21.6-23.9,32.4-35.8c10-11.1,20-22.1,30.1-33.2
		c1.6-1.7,3-3.6,4.7-5.1c2.2-2,5.2-4.4,7.9-2.3c2.4,1.8,4.3,5,5.2,7.9c1.3,4.1,0,7.7-3.2,11.3c-18.9,21-37.1,42.5-56,63.6
		c-9.7,10.9-20.6,20.8-30.2,31.7c-7.9,9-14.6,19-22.1,28.3c-10.9,13.4-22.2,26.5-33.2,39.8c-10.7,12.9-20.8,26.3-31.9,38.8
		c-4.1,4.6-10.2,7.7-15.9,10.7C519.4,499.3,514.3,495.6,513.6,491.3z"/>
	<path d="M1151.7,870.7c-1.2,0.8-2.4,1.6-3.7,2.3c0.1,0.2,0.2,0.5,0.3,0.7c0.9-0.1,1.7-0.3,2.6-0.4c0.3,0.4,0.6,0.8,0.9,1.2
		c-7.2,5.4-14.2,11-21.6,16.2c-13,9.2-26.5,17.8-39.4,27.2c-9.7,7.1-18.4,15.6-28.1,22.8c-28,20.7-56.1,41.1-84.3,61.5
		c-32.5,23.5-65.4,46.5-97.4,70.6c-22.1,16.6-45.7,30.4-69.7,43.7c-9.5,5.3-18,12.4-27,18.7c-5.2,3.7-10.7,6.8-17.3,6.9
		c-1.2,0-2.5-0.4-3.7-0.6c0.3-1.3,0.1-3.2,0.9-3.9c3.5-3.4,7.2-6.8,11.1-9.7c10-7.5,20-15.2,30.4-22.1c8-5.3,17.1-8.9,25.1-14.2
		c18.6-12.4,37-25.1,55.2-38c21.7-15.4,43.1-31.3,64.7-46.8c24.8-17.8,50-35.2,74.6-53.3c7.9-5.8,15.5-11.5,24.4-15.9
		c6-3,10.5-8.8,16.2-12.6c15.5-10.3,31.3-19.9,46.8-30.2c11.7-7.8,23.1-16.2,34.6-24.3c1-0.7,2-1.2,3.1-1.7
		C1150.8,869.5,1151.3,870.1,1151.7,870.7z"/>
	<path d="M786.8,361.5c-10.2,2.2-18.7,5.4-26.4,10.3c-4.8,3-9.1,6.8-13.9,9.7c-1.6,1-4.5,1.4-6.2,0.7c-1.3-0.6-2.1-3.2-2.4-5.1
		c-0.9-8.3,6-12,11-15.8c6.7-5.1,14.6-9,22.5-12.1c5.9-2.4,12.5-2.9,18.8-4c3.1-0.5,5.7,1,6.5,4.2c1.2,5.1,2.6,10.3,3,15.4
		c0.2,3.5,0.9,4.8,4.5,4.6c8.1-0.6,16.3-1.7,24.4-1.2c7,0.4,13.9,2.6,20.8,4.2c4.9,1.1,9.6,2.5,14.5,3.6c1.4,0.4,3,0.3,4.4,0.7
		c8.4,1.8,12.9,11.3,8.3,18.4c-1,1.6-4.7,2.5-6.8,2.1c-6.4-1.4-13-2.8-19-5.5c-13.7-6.2-27.3-6.3-41.8-3.1
		c-8.1,1.8-17.2,3.5-24.9-2.6c-4.1-3.3-5.3-11.8-2.5-16.3C783.2,367.2,784.7,364.9,786.8,361.5z"/>
	<path d="M709.7,317.1c2.7,2.1,4.7,3.7,6.5,5c-4.8,9-8.8,17.8-13.9,25.8c-3.9,6.1-9.2,11.3-13.9,16.9c-5.4,6.5-10.6,13.2-16.3,19.3
		c-7.2,7.7-15,14.8-22.4,22.2c-3.2,3.2-6.1,6.6-9.1,9.9c-13.9,15.5-27.6,31.1-41.7,46.4c-3,3.2-7,5.4-11,8.4
		c0.3-1.4,0.6-2.3,1.1-4.6c-5.2,4.6-9.4,8.4-13.7,12.2c-0.3-0.3-0.7-0.6-1-0.9c4.7-6.6,9.8-12.9,13.8-19.9
		c4.2-7.2,10.9-12,15.8-18.4c5.1-6.7,11.1-12.8,16.6-19.3c12-14.1,23.8-28.4,35.9-42.4C674,357.6,691.8,337.6,709.7,317.1z"/>
	<path d="M555.6,1087.9c4.7-7.5,5.1-7.3,13.6-2.3c13.1,7.6,26.7,14.3,39.6,22.2c19.4,12,38.2,24.7,57.4,37.1
		c7.3,4.7,14.7,9.1,22,13.7c3.2,2,6.3,4.3,9,6.1c-6,9.1-8.1,9.1-16.7,3.3c-18.4-12.3-36.7-24.7-55.4-36.4
		c-17.7-11.1-36-21.4-53.9-32.3c-4.1-2.5-7.7-5.7-11.6-8.6C558.2,1089.8,556.9,1088.8,555.6,1087.9z"/>
	<path d="M822.7,428.1c0,1.5-0.2,2.9,0,4.1c1.2,6.7-4.4,12.6-10.9,10.7c-8.7-2.5-17.2-6.1-25.9-8.6c-14.4-4-29-7.3-43.3-11.3
		c-5.8-1.6-11.4-4.2-17.1-6.4c-3.5-1.4-3.6-4.6-2.8-7.3c0.9-3.1,2.7-6.2,6.8-5.4c14.5,2.6,29.2,4.5,43.5,8.3
		c13.8,3.7,27,9.3,40.5,14C816.5,427.1,819.7,427.4,822.7,428.1z"/>
	<path d="M300.2,848.9c1.2-0.4,2.1-0.6,2.1-0.8c0-8.5,7.5-11.4,12.4-15.8c7.6-6.9,16.3-12.4,24.9-18.1c8.2-5.5,16.8-10.7,25.3-15.7
		c4.3-2.5,8.8-4.6,14.4-7.5c0,5.2,0.3,8.4-0.1,11.6c-0.2,1.7-1.1,3.8-2.4,4.7c-11.1,7.9-22.6,15.3-33.6,23.3
		c-9.8,7.2-19.2,14.8-28.7,22.5c-4.7,3.8-8.6,3-10.7-2.5C303.5,849.9,302,849.7,300.2,848.9z"/>
	<path d="M762.2,1172.8c0-2.6,5.6-3.6,1.7-7c-0.1-0.1,1.1-2,1.9-2.6c13.8-10.9,27.4-22.1,41.5-32.6c9.7-7.3,19.8-13.9,30-20.4
		c3.9-2.5,8.6-4,13.2-6.1c1.2,5-1.3,7.4-4,9.5c-24.4,19.4-48.9,38.7-73.4,58.1C769.6,1174.4,766.2,1175.2,762.2,1172.8z"/>
	<path d="M738.5,1175.2c0,3-0.1,6,0,9c0.2,8.1-2.2,11.7-8.5,12.4c-4.3,0.5-8.9-3.8-9.9-10.4c-1.1-6.8-1.5-13.7-1.8-20.6
		c-0.3-8.2-0.3-16.5,0.1-24.7c0.1-1.5,2.5-4,3.9-4c6.7,0,11.7,4.4,12.9,11.4c1.5,8.9,2.6,17.9,3.9,26.9
		C738.9,1175.1,738.7,1175.1,738.5,1175.2z"/>
	<path d="M359,986.3c5.9-3.3,11-2.9,16.1-0.8c11.2,4.7,22.4,9.2,33.4,14.3c3.6,1.7,6.3,5.1,9.8,8c-4.7,4.1-8.6,3.8-12.5,2.1
		c-11.9-5-23.8-9.8-35.5-15.3C366.2,992.9,363,989.4,359,986.3z"/>
	<path d="M952.1,451.2c-2.5,9.2-4.3,17.4-7,25.4c-4.5,12.9-13.2,23.5-21.8,33.7c-19.9,23.7-40.4,46.8-60.5,70.3
		c-5.9,6.9-11.4,14.3-17.1,21.5c-1.1,1.4-2.3,2.8-3.6,4.1c-2,2.1-4.1,3.3-6.9,1.1c-2.7-2.1-4-4.9-2.2-7.7
		c4.3-6.8,8.8-13.7,13.9-19.9c17.2-21.1,34.8-41.8,52-62.9c16.3-20.1,32.2-40.5,48.3-60.7C948.4,454.4,950.1,453.1,952.1,451.2z"/>
	<path d="M793.8,610.2c-5.5,10.3-7.1,10.8-17.3,8.3c-31-7.6-62-14.9-93.1-22.4c-1.2-0.3-2.4-0.7-5-1.5c2.4-1.3,3.7-2.7,4.9-2.6
		c15.2,1,30.4,2.1,45.6,3.3c7.3,0.6,14.7,0.6,21.8,1.9c8.9,1.7,17.7,4.2,26.4,6.8C782.7,605.7,788,608,793.8,610.2z"/>
	<path d="M923.2,534.7c-5.1,6.5-10.3,13-15.4,19.5c0.5,0.4,1,0.8,1.5,1.3c2.3-2.1,4.7-4.2,7-6.3c0.2,0.2,0.4,0.4,0.5,0.6
		c-1.6,2-3.3,3.9-4.7,6C900,574.5,885,591.1,870.5,608c-4.8,5.7-9.5,11.5-14.4,17c-3.1,3.4-6.4,6.7-10.1,9.3c-1.3,0.9-4-0.2-6.6-0.4
		c24-37.4,54.5-67.8,82.8-100.1C922.5,534.1,922.9,534.4,923.2,534.7z"/>
	<path d="M807,640.3c0-11.1-0.1-22.2,0.1-33.3c0-1.9,1.2-3.7,1.9-5.6c2.6,1.1,6.6,1.4,7.6,3.4c2.2,4.1,3.5,9,4,13.7
		c1.4,14.3,2.4,28.7,3.2,43.1c0.2,2.8-0.5,5.9-1.7,8.4c-1.5,3.3-6.8,3-9-0.7c-2-3.3-3.5-7.2-4.1-11c-0.9-5.9-0.8-11.9-1.2-17.9
		C807.5,640.3,807.3,640.3,807,640.3z"/>
	<path d="M723.1,628.7c1.7-0.3,2.6-0.4,3.6-0.6c-0.8-1-1.6-2-2.3-2.9c22.5,2.1,44.1,7.1,64.2,18.1c-2.1-0.6-4.1-1.4-6.2-1.6
		c-11.3-1.2-22.7-1.7-33.9-3.6c-6.5-1.1-12.7-4.2-19-6.5C727.5,631,725.7,629.9,723.1,628.7z"/>
	<path d="M623.2,859.5c-4.6-2.6-9.2-5.1-13.8-7.7c0.3-0.5,0.6-1.1,0.9-1.6c4.6,2.7,9.1,5.3,13.7,8
		C623.7,858.6,623.5,859,623.2,859.5z"/>
</g>
</svg>
