<?xml version="1.0" encoding="utf-8"?>
<!-- Generator: Adobe Illustrator 27.4.1, SVG Export Plug-In . SVG Version: 6.00 Build 0)  -->
<svg version="1.1" id="Camada_1" xmlns="http://www.w3.org/2000/svg" xmlns:xlink="http://www.w3.org/1999/xlink" x="0px" y="0px"
	 viewBox="0 0 1500 1500" style="enable-background:new 0 0 1500 1500;" xml:space="preserve">
<image style="overflow:visible;" width="1450" height="993" xlink:href="../../Library/CloudStorage/GoogleDrive-lucas.pretti@okfn.org/.shortcut-targets-by-id/0B79xBlVd-Nf6ZzMzUlZSTWwxV28/Open Knowledge All Team/Brand 2023/Illustrations/L 1500px - web transp/Icons/board.png"  transform="matrix(1 0 0 1 -2106 1417.5)">
</image>
<image style="overflow:visible;" width="1133" height="1032" xlink:href="../../Library/CloudStorage/GoogleDrive-lucas.pretti@okfn.org/.shortcut-targets-by-id/0B79xBlVd-Nf6ZzMzUlZSTWwxV28/Open Knowledge All Team/Brand 2023/Illustrations/L 1500px - web transp/Icons/books.png"  transform="matrix(1 0 0 1 -2106 1417.5)">
</image>
<g>
	<path d="M642.4,716.8c0.4,1.6,0.7,3.1,1,4.6c-1.4,1.6-3.2,2.9-4.2,4.7c-3.6,7-9.7,8.8-16.9,8.9c-7,0-6.9,0.7-5.9,7.3
		c0.7,4.9,0,10.2-1.1,15.2c-0.9,3.9,0.9,5.3,3.7,6.9c9.1,5,16.1,12.2,19.9,21.8c3.5,8.9,5.8,18.1,5.9,28c0.1,7.4-2.1,13.3-7.5,17.6
		c-10.6,8.3-13.3,19-10.7,31.6c4.4,21.6-1.4,40.4-15.2,57.1c-3.7,4.5-7.1,9.2-10.5,13.9c-6.5,8.8-3.6,18.4-1.4,27.4
		c4,15.8,2.5,31-3.5,45.7c-1.6,3.9-4.9,7.1-7.9,10.2c-11.2,11.6-16.1,25.3-16.9,41.4c-1.1,22.3-11,41.3-26.5,57
		c-5.3,5.4-12.7,8.7-19.5,13.2c2.5,5.2,5.4,10.7,7.9,16.4c3.5,8.1,0.8,16.3-5.8,22.3c-14.2,12.9-31.4,20.5-48.6,28.1
		c-20,8.9-40.9,15.3-62.3,19.3c-11.6,2.2-23.8,1.7-35.7,0.9c-3.8-0.3-8.5-4.6-10.8-8.3c-3.8-6.1-6.1-13.2-8.7-20
		c-1.7-4.4,1.4-10.5,5.6-12.1c3.7-1.4,9.1,1.7,10.9,6c2.5,5.8,3.2,13,10.4,15.6c3.5,1.3,7.1,3,10.7,3.1c27.5,0.9,52.5-9,77.5-18.7
		c10.1-3.9,19.8-8.8,29.6-13.4c2.7-1.3,5-3.3,7.6-4.8c3.5-2.1,4.2-5.2,2.5-8.6c-3.1-6.3-6.4-12.4-10-18.4c-0.6-1.1-3.4-1.7-4.9-1.2
		c-23.6,7-47.2,14.2-70.6,21.5c-34.1,10.7-68.5,19.7-104,23.7c-12.8,1.5-25.9,0.5-38.9,0.6c-5.3,0-10.7,0.1-16,0
		c-2,0-4.4,0.4-5.9-0.5c-4.1-2.5-6.8-0.5-10.1,1.7c-7.9,5.2-16.1,9.9-24.1,15.1c-6,4-11.7,8.5-17.7,12.6
		c-11.7,8.1-23.5,16-35.2,24.1c-12,8.3-24,16.6-35.9,25.2c-3.1,2.2-5.5,1.2-8.2,0c-2.6-1.1-2.2-3-1.7-5.4c0.4-2.4-0.4-5.1-0.4-7.6
		c0-6.1,5.8-7.9,9.2-11.1c4.6-4.3,10.4-7.3,15.6-10.9c13.1-9.3,26-19,39.4-27.9c12.5-8.3,23.6-18.6,37.6-24.7
		c5.7-2.5,10.9-6,16.4-9.1c9.9-5.4,20.6-2.5,30.8-2.1c19.3,0.6,38.2-1.1,57-5.4c12.1-2.8,24.5-4.6,36.5-8
		c20.8-5.9,41.3-12.8,62-18.9c13.7-4,27.4-7.7,41.3-10.7c13.2-2.9,26.7-4.3,40-7.1c12-2.5,22-8,26.2-21c5.8-17.8,10.5-35.6,8-55
		c-7.9,2-15.6,3.9-23.4,5.8c-2.1,0.5-4.3,1.3-6.3,1.1c-2.6-0.2-6.4-0.4-7.6-2.1c-2-3,0.5-8.9,3.6-10.1c7.4-2.9,14.8-5.8,22.3-8.4
		c7.1-2.5,14.1-5.7,21.4-6.5c13.2-1.4,13.8-11.6,16.2-20.7c3.3-12.8-0.8-25-3.7-37.3c-1.6-7-3.6-6.9-10.1-3.8
		c-15.2,7.1-30.6,13.6-46.2,20c-5.1,2.1-10.8,3-16.3,4.1c-3.8,0.7-6.9-3.2-5-6.5c1.6-2.8,4.1-5.8,6.9-7.2
		c18.3-9,36.8-17.5,55.3-26.2c3.6-1.7,7.3-3.2,10.9-4.7c16.1-6.8,24.6-19.8,31.2-35.3c5-11.9,6.6-23.5,3.7-35.7
		c-0.9-3.9-3.2-7.5-5-11.4c-13.5,6.1-26.4,12.9-40.1,17.9c-20.2,7.5-40.9,13.7-61.4,20.4c-5.1,1.7-5.9-2.7-7.4-5.9
		c7.6-6.5,17-9.1,26-12.8c19.5-7.9,39.1-16,58.1-25.1c14.7-7,28.6-15.5,42.8-23.4c1.3-0.7,2.6-1.5,3.6-2.6
		c6.4-7.2,6.9-22.4,0.2-29.6c-5.2-5.6-10.9-11.5-17.7-14.7c-5.2-2.5-12.4-1.7-18.5-1.1c-12.8,1.3-25.6,3.4-38.4,5.1
		c-14.1,1.8-28.3,3.4-42.3,5.4c-7.1,1-14.2,2.8-21.2,4.6c-13.8,3.5-27.9,6.1-41.1,11.2c-12.2,4.8-23.3,12.5-35,18.6
		c-19,9.9-38,19.7-57,29.5c-0.9,0.5-1.9,0.7-2.7,1.3c-3.3,2.6-5.9,2.1-8.1-1.6c-2.1-3.5-3.1-6.7,0.5-10.1c1.3-1.2,2.3-3.8,2-5.6
		c-0.9-5.2-2.5-10.3-3.8-15.4c-2.2-9-4.4-18-6.5-27.1c-0.7-3-1.4-6-2.2-9.7c-2.3,0.9-4.6,1.3-6.1,2.5
		c-13.2,10.9-26.1,22.2-39.4,32.9c-10.3,8.2-14.8,19.5-19,31.3c-6.8,19.1-14.1,38-21.2,56.9c-5.9,15.7-13.4,30.5-23,44.3
		c-9,13-17,26.7-25.6,39.9c-2.3,3.6-5.3,6.8-8.2,10c-3.3,3.6-7.3,5.1-12.3,3.3c-1.3-0.4-3.4,0.6-4.8,1.5
		c-14.4,10.4-28.8,20.9-43.1,31.4c-10.7,7.8-22.4,13.8-34.9,18.3c-4.2,1.5-6.6,0-8.4-2.9c-1.7-2.8-2.6-6.5,0.6-9
		c5.5-4.4,11.2-8.7,17-12.7c18.1-12.4,36.3-24.5,54.4-36.9c10.4-7.1,20.7-14.4,30.6-22.2c3.1-2.4,5-6.6,7.2-10.1
		c10.7-16.7,21.4-33.3,31.8-50.1c2.7-4.5,4.8-9.5,6.3-14.6c2.9-9.7,5.4-19.5,7.9-29.3c3-11.7,5-23.6,8.8-35
		c3.6-10.7,11.8-18.8,20.4-25.9c14.3-11.6,29.1-22.5,43.5-34c3.6-2.8,6.5-6.5,10.5-10.6c-6-0.7-10.7-1.6-15.5-1.7
		c-13-0.1-23.2-6.3-32.5-14.5c-1.1-0.9-1.6-2.5-2.2-3.9c-3.1-6.8-6.1-13.6-9.5-21.1c-7.9,0-16,0.1-24.1,0c-8.8-0.1-15-5.6-21.2-10.9
		c-0.8-0.7-1.2-2.4-1.2-3.7c-1.6-27.3-3.3-54.7-4.7-82c-0.8-15.8-1.1-31.5-1.2-47.3c-0.1-8.1,0.4-16.3,1.1-24.4
		c0.7-7.1,3.9-12.7,11.8-14.1c8.6-1.5,17.3-3.2,26-4.3c3.2-0.4,4.4-1,4.5-4.7c0.2-10.3,3.4-20,14.8-22.7c12.9-3.1,26-5.6,39-8.3
		c2.3-0.5,4.6-0.8,6.9-1.1c3.2-0.3,4.6-2.1,5.7-5.1c5.6-15.6,17.7-23.2,33.5-25.9c3.5-0.6,6.9-2.1,10.4-2.8
		c14.6-2.8,29.2-5.5,43.8-8.3c5.7-1.1,11.4-2.3,17.1-3.1c6.2-0.9,12.5-1.4,18.7-2.4c7.2-1.2,14.4-3.2,21.7-4.1
		c9.8-1.3,19.8-2,29.7-2.8c14.6-1.1,29.3-2.4,43.9-2.9c21.4-0.6,42.8-1.1,64.2-0.5c7.3,0.2,14.9,3,21.6,6.1
		c7.4,3.4,9.7,11,10.1,18.7c0.3,6.9-0.3,13.9-0.1,20.8c0.5,13.4,1,26.9,2,40.3c0.9,12.5,2.6,25,3.7,37.4c0.9,10,1.5,20.1,2.1,30.2
		c0.6,9.7,0.6,19.4,1.4,29c1.1,12.7,2.6,25.4,4,38.1c1.1,10.3,2.3,20.6,3.5,31.5c5.1-6.5,10.8-10.1,18.6-11.2
		c21.1-3.1,42.1-0.3,63.2,0c23.7,0.3,47,4.1,70.1,8.5c18,3.4,35.7,8.9,53.6,13c7.6,1.8,14.8,4.2,22.1,7.1
		c19,7.5,38.2,14.3,55.6,25.3c3.9,2.5,8.9,3.3,13,5.6c8.8,4.9,17.9,9.7,26,15.7c4.9,3.6,8.8,9,12,14.3c1.2,2,0.3,6.8-1.4,8.9
		c-4.5,5.5-4.9,5.1-12,0.6c-13.2-8.3-26.9-15.8-39.5-24.8c-14.4-10.2-31-14.8-47.1-20.4c-36.2-12.6-73.7-20-111.6-25.1
		c-35-4.7-70.2-5.5-105.5-6c-1,0-2,0.1-3,0.3c-8,2.2-10.6,0.9-14.3-6.9c0.8,4,0.7,8.5,2.6,12c2.3,4.2-0.7,6.4-1.6,9.5
		c-1.6,5.7-5.5,2.3-8.6,2.3c-0.7,0-1.3,0.2-1.9,0.3c-0.2-3.7-0.4-7.4-0.7-11.1c-0.5-6.4-0.5-12.9-1.9-19.1
		c-1.6-7.5-5.1-14.6-6.6-22.1c-2.4-12.3-3.8-24.9-5.8-37.3c-1.8-10.9-4.6-21.8-5.5-32.8c-1.8-22.2-2.4-44.5-3.9-66.7
		c-1.3-18.5,1.7-37.1-1.6-55.5c-0.1-0.7,0.7-1.7,0.5-2.3c-1.2-5,3.1-11.1-2.4-15.2c-2.5-1.9-5.8-3-8.8-3.9
		c-5.4-1.5-10.9-3.6-16.3-3.6c-12.7,0-25.5,0.9-38.2,1.8c-27.1,1.8-54.2,2.6-81.1,6c-33,4.2-65.7,10.4-98.4,16.2
		c-16.5,2.9-25.2,13-25.7,29.7c-0.3,9.5,1.4,19.1,2,28.7c0.8,12.3,1.5,24.7,2.3,37c1,16.3,2.1,32.7,3.1,49c0.3,5,0.9,9.9,1.2,14.9
		c0.3,3.9,0.2,7.8,0.5,11.7c0.5,6.1,1.4,12.1,1.8,18.2c0.9,13.2,1.1,26.5,2.8,39.5c0.6,4.5-0.7,6.7-3.1,9.4c-5.3-3.7-8-8.8-9.1-14.9
		c-3.6-20.2-7.5-40.4-10.5-60.8c-2.7-17.7-4.3-35.5-6.5-53.2c-1.4-11.5-1.5-23.1-5.2-34.5c-3.4-10.3-4.7-21.3-6.9-32
		c-0.6-3-0.9-6.1-1.4-9.5c-8.8,1.7-17.1,3.5-25.4,5c-8.3,1.5-9.8,2.7-11.4,11.2c-0.4,2.1-0.4,4.3-0.4,6.5c-0.4,18-0.6,36.1-1.1,54.1
		c-0.1,4.5-5,6.4-8.9,4.5c-6.6-3.3-6.4-10.4-9.8-15.2c-9.5,1.3-16.4,10.6-27.2,9.3c0.2,1.8,0.5,3.6,0.7,5.5c1.3,0,2.3,0,3.2,0
		c9.3,0.2,18.6,0.3,27.9,0.8c1.8,0.1,3.5,1.7,6.4,3.2c-2.7,0.6-3.8,0.8-4.8,1c0.6,4.3-1.5,6.3-7.2,6.5c-7,0.3-14,0.5-20.9,0.5
		c-2.9,0-4.2,0.8-4.1,4c0.2,8.1,0.1,16.2,0.1,23.8c11.1,1.1,20.9,2.2,30.8,3c0.9,0.1,2-0.8,2.7-1.5c2.4-2.5,4.7-5.2,6.4-7.1
		c2.8,0.8,4.5,1.3,6.9,2c0.6,4.8,1.6,10.5,2,16.2c1,15.9,1.8,31.9,2.5,47.8c0.1,1.7-1.1,4.9-1.7,4.9c-2,0-4.7,1.3-6.1-2
		c-1.4-3.3-4.9-6.1-5.2-9.3c-0.8-7.6-4.1-8.3-10.9-7.3c-8.1,1.1-16.5,0.3-24.9,0.3c0,1.5,0,2.4,0,3.4c0.3,5.3,0.9,10.7,0.9,16
		c0.1,6.6,3.7,13.1,9,13.8c5.4,0.7,10.9,0.3,16.4,0.3c4.3,0,8.6-0.3,12.9,0.1c4.2,0.4,8.6,7.3,9.1,11.6c0.7,6.8,2.3,14,8.9,17.2
		c4.4,2.1,9.9,3,14.8,2.7c20.6-1.5,41.2-3.9,61.8-5.6c19-1.6,38-2.7,57-4.1c9.9-0.8,19.8-1.8,29.6-2.8c9.7-1,19.4-2.6,29.1-3.1
		c17.1-0.8,34.2-0.6,51.3-1.4c26.3-1.2,52.7-3.1,79-4.3C624.9,715.5,633.7,716.5,642.4,716.8z M601.2,735.1c-0.5,0-1.3-0.1-2.1,0
		c-21.5,1.6-43,3.5-64.5,4.7c-13.8,0.8-27.6,0.2-41.4,1.1c-22,1.6-44,3.9-66,5.9c-9.1,0.8-18.2,1.7-27.3,2.4
		c-14.4,1.1-28.8,2.1-43.3,3c-3.9,0.3-5.1,1.8-5.2,5.9c-0.6,14.1,2.2,27.8,5.2,41.3c1.5,6.9,5.4,13.3,8.4,20.5
		c7.6-4.3,14.1-7.6,20.2-11.4c6.8-4.3,13.1-9.4,20.1-13.4c8.4-4.8,17.2-8.8,25.9-13c7.3-3.5,14.4-7.8,22.1-10
		c10.6-3,21.6-5.3,32.5-6.4c21.7-2.2,43.3-6.3,65.4-4.7c13.3,1,26.8-0.6,40.2-1.1c5.1-0.2,8-3.1,8.4-8.2
		C600.2,746.5,600.7,741,601.2,735.1z M268.2,661.2c0-5.1,0.4-9.9-0.2-14.6c-0.4-3-1.1-6.7-5.5-7c-8.1-0.5-16.2-0.9-24.3-1.4
		c-3.4-0.2-4.2,1.3-3.9,4.6c0.5,4.5,0.6,9,0.4,13.5c-0.1,3.3,1,4.5,4.1,4.3c4.3-0.2,8.6-0.3,12.9-0.2
		C257.5,660.5,263.1,660.9,268.2,661.2z M259.1,560.2c-1-5.3-1.8-10.7-3.1-15.9c-0.3-1.4-2.1-3.4-3.2-3.4c-4.6-0.1-9.3,0.2-13.9,0.9
		c-1.5,0.2-3.8,1.8-3.9,3c-0.9,6.3-1.3,12.7-2,20.2C242.4,563.2,250.6,561.7,259.1,560.2z"/>
	<path d="M1144.6,841c-3.7-7.2-3.2-9.6,0.8-14.9c6-7.9,12.6-15.5,17.3-24.1c5.6-10.4,10.1-21.5,13.9-32.7c5.1-14.8,9.2-30,13.3-45.1
		c1.8-6.5,2.5-13.3,3.5-20c2-12.7,4.3-25.3,5.8-38c1.3-11.4,1.7-23,2.4-34.4c0.8-12.2,1.8-24.4,2.3-36.7c0.5-12.7,0.7-25.3,0.8-38
		c0-10.4,0.2-20.8-0.9-31c-2-18-4.8-35.9-7.6-53.9c-1.6-10.2-3.4-20.4-5.9-30.3c-3.8-14.9-8.4-29.7-12.6-44.5
		c-1.6-5.6-2.7-11.3-4.6-16.7c-8.2-24-20.4-46.1-33.1-67.8c-5.8-9.8-13.7-18.6-21.4-27.2c-8.6-9.6-17.6-19.1-27.3-27.5
		c-6.7-5.8-14.7-10.2-22.5-14.5c-3.8-2.1-3.5-5.4-3.2-8c0.2-1.6,3.5-3.5,5.7-4.1c14.1-3.4,24.7,4.8,34.9,12.2
		c13.9,10,25.8,22.4,36,36.2c12.1,16.5,24.3,32.8,32.5,52c5.9,13.7,11.4,27.4,15.4,41.7c5.4,19.5,10,39.3,14.6,59
		c3.3,14.3,6.3,28.6,8.9,43.1c4.9,27.4,8.5,55,7.5,83c-0.4,10.9-1.4,21.7-1.6,32.6c-0.2,9.4,0.7,18.8,0.1,28.1
		c-1.2,19.2-3.1,38.4-4.7,57.5c-0.8,9.7-0.7,19.6-2.5,29.2c-3.4,18.8-7.1,37.6-12,56c-2.8,10.7-7.1,21.2-12.3,31
		c-5.2,9.9-10.7,19.8-19.8,27.2C1160.2,826.7,1152.6,833.9,1144.6,841z"/>
	<path d="M980.5,341.3c1.8,0.6,3.2,1.1,4.9,1.8c-2.1,14-4.3,28-6.1,42c-1.2,9.5-1.9,19.1-2.6,28.7c-0.8,10.7-1.5,21.5-1.9,32.2
		c-0.4,9.2-0.2,18.5-0.4,27.7c-0.2,9.7-0.9,19.5-0.6,29.2c0.4,14.7,1.3,29.3,2,44c0.6,11.4,1.1,22.7,1.9,34
		c0.3,4.7,1.2,9.4,1.8,14.1c2.2,17.3,3.9,34.7,6.7,52c2.2,14,6.4,27.8,8.3,41.9c2.4,17.3,10.1,32.4,16.3,48.3c3.1,8,5,16.5,8.7,24.2
		c4.3,8.9,9.9,17.1,15.1,25.5c3.6,5.7,7.3,11.4,11.4,16.8c2.5,3.3,5.8,6.3,9,9c7.4,6.3,14.5,13.1,22.7,18.2
		c8.3,5.1,17,10.4,27.6,9.8c3.3-0.2,7.1-0.2,7,4.8c-0.1,7.1-1.2,10.1-6.2,11.1c-10.8,2.2-20.8,0.5-30.7-3.4
		c-5.3-2.1-10.8-3.9-16-6.4c-2.2-1.1-4.1-3.2-5.8-5.1c-4.4-4.6-8.9-9.2-12.9-14.1c-9.4-11.7-19.6-22.9-25.7-37.1
		c-8.4-19.8-17.6-39.2-25.6-59.2c-4.8-12-8.9-24.4-11.9-37c-4.1-17.1-6.5-34.6-10.2-51.8c-5.1-23.9-6.5-48.2-8.4-72.5
		c-0.9-11.4-2.6-22.7-3-34.1c-0.5-12.1-0.1-24.2,0.2-36.2c0.3-9.2,0.9-18.4,1.6-27.6c0.6-7.8,1.7-15.5,2.5-23.3
		c1.3-13.1,2.3-26.2,3.9-39.3c1.3-10.3,2.9-20.5,5.1-30.6c2.4-10.7,5.6-21.2,8.6-31.8C978.1,345.2,979.4,343.4,980.5,341.3z"/>
	<path d="M714,466.8c-10.9,0-21.7,0-32.6,0c-3.9,0-7.7-0.3-11.6-0.4c-3-0.1-5.2-1.2-5.2-4.6c0-3.3,1-5.7,4.8-6.4
		c7.2-1.3,14.3-2.8,21.4-4.3c13.5-2.9,26.9-5.9,40.4-8.7c28.1-5.8,55.2-14.7,81.5-25.7c15.9-6.6,31.7-13.5,45.9-23.5
		c8.9-6.2,18.6-11.2,27.3-17.7c7.4-5.5,13.9-12.2,20.5-18.8c13.6-13.5,27.4-26.9,40.4-41.1c10.2-11.1,19.3-23.2,28.8-34.9
		c8-9.9,15.2-20.6,23.9-29.8c10.2-10.9,23.5-17,38.5-19c1-0.1,2.2-0.4,3,0.1c2.5,1.4,5.9,2.6,6.9,4.9c0.7,1.5-1.4,5.3-3.3,6.8
		c-7.5,5.8-15.4,11-23.1,16.5c-11.5,8.2-21.8,17.7-30.4,29.1c-13.5,18-26.9,36.2-41,53.8c-8.5,10.6-17.7,20.8-27.5,30.2
		c-10.2,9.6-21.3,18.3-32.6,26.7c-8.7,6.6-18,12.6-27.4,18.1c-8.2,4.8-17.4,7.9-25.5,12.7c-16.8,9.9-35.2,15.6-53.4,21.6
		c-21.2,7-43,12.4-65.3,14.6c-1.5,0.1-3,0-4.5,0C714,467,714,466.9,714,466.8z"/>
	<path d="M1047.8,316.7c0.5,3.3,0.9,5.2,1,7c0.9,11.7-2.2,22.6-5.6,33.7c-3.9,12.6-7.7,25.4-10.1,38.4c-2.7,15.4-4.4,31-5.5,46.6
		c-1.3,17.5-1.8,35.1-2,52.6c-0.2,15.3-0.1,30.7,1.1,46c1.1,14.1,4,28.1,6,42.2c1.2,8.3,2.1,16.6,3.1,24.9c0.5,4.2,1,8.4,1.9,12.5
		c4,19,7.3,38.3,12.5,57c2.9,10.5,4.6,21.4,8.3,31.6c7.3,20.3,11.9,41.6,26,59.2c5.2,6.6,9.1,14.3,16.2,19.1
		c3.9,2.7,8.7,4.4,13.2,6.1c3.8,1.5,7.8,2.4,12.1,3.7c-2.3,5-5.5,7.6-9.9,8.4c-1.7,0.3-3.6-1.5-5.4-1.5c-15.6,0.4-23-11.5-30.6-21.6
		c-15.9-21.1-23.1-46.4-30.9-71.2c-3.9-12.6-6.4-25.6-9.5-38.4c-2.5-10.7-4.8-21.6-7.4-32.3c-3-12.2-7.1-24.3-9.4-36.6
		c-3.2-17.3-6.2-34.7-7.7-52.2c-2.1-24.8-3.6-49.8-3.9-74.7c-0.3-25.8,2.8-51.4,8.4-76.7c3-13.6,3.7-27.7,8.9-40.8
		c4.7-11.9,9-23.9,13.7-35.7C1043,321.7,1045.2,320,1047.8,316.7z"/>
	<path d="M1061.9,508.8c6.9,1.1,11.8,1.8,16.8,2.6c5,0.8,7.7,4.4,10.5,8.3c12,16.6,15.6,35.7,15.4,55.4c-0.1,8.5-3.2,17.1-5.9,25.4
		c-0.9,2.8-4.9,4.6-7.4,6.9c-10.6,9.7-22.8,11.9-36.5,8.1c-3.2-0.9-3.8-2.1-3.4-5.1c0.4-3.2-0.5-7.1,3.8-7.8
		c3.5-0.6,7.3-0.3,10.8,0.2c8.8,1.3,12.2-1,15.4-9.2c4-10.1,2.8-20.4,2-30.8c-0.4-4.6,0.1-9.3-1-13.7c-1.4-5.9-3.9-11.5-6.1-17.2
		c-2.9-7.5-8.3-10.4-16.5-9.6c-5.8,0.6-11.8-0.1-17.7-0.8c-2-0.3-3.8-2.3-5.7-3.6c1.4-1.6,2.6-4.2,4.3-4.6
		C1048.2,511.2,1055.9,509.9,1061.9,508.8z"/>
	<path d="M1418.7,538.1c-1.9,1.6-3.2,3.6-4.8,3.9c-10.4,2.3-20.8,4.8-31.4,6.2c-13.4,1.8-27,2.9-40.5,4c-8.8,0.7-17.7,1.4-26.4,0.9
		c-12-0.8-22.4-5.6-29-17.4c1.4-0.5,2.5-1.3,3.6-1.3c21.9,1.5,43.3-3.7,65-4.5c23.2-0.9,46.5-2.3,69.7-3.4c2.6-0.1,5.4,0.1,7.9,0.8
		c0.9,0.3,1.9,3.7,1.6,3.9C1429.5,534.6,1424.4,537.7,1418.7,538.1z"/>
	<path d="M1162.8,513c2,3.7,4.1,7,5.7,10.6c6.8,15.5,6.2,32.1,6.8,48.5c0.5,11.8,0.7,23.6,0.2,35.4c-0.4,9.8-2.1,19.6-3.1,29.5
		c-0.5,4.9-0.1,9.9-0.9,14.7c-1.1,7.1-2.9,14.1-4.2,21.2c-1.4,7.6-2.1,15.5-4.1,23c-2.2,8.1-5.6,15.8-8.5,23.7
		c-0.5-0.1-1-0.3-1.5-0.4c0.5-4,1.2-8,1.6-12c0.6-6.5,1.2-13.1,1.5-19.7c0.5-11,0.5-22.1,1-33.1c0.3-6.8,1.3-13.5,1.6-20.2
		c0.8-16.9,1.3-33.8,1.9-50.7c0.2-5.3,0.5-10.6,0.4-15.8c-0.1-4.6,0.6-9.2-1.4-13.9c-1.4-3.3,0.1-7.9,0-11.8
		c-0.2-5.5-0.7-11-0.9-16.5C1158.9,521.1,1157.9,516.7,1162.8,513z"/>
	<path d="M1277.3,645.8c4.3,1.1,8.7,2.2,13,3.5c10.8,3.1,21.9,5.3,32.2,9.6c12.6,5.2,24.5,12,36.6,18.4c6.4,3.4,12.6,7.3,18.7,11.3
		c1.5,1,2.8,2.9,3.5,4.7c0.9,2.4,0.5,5-2.8,5.1c-4.7,0.1-9.9,1-14.2-0.5c-14.9-5.3-29.7-11-44.1-17.5c-12-5.4-22-14-31.7-22.7
		c-2.7-2.5-6-4.3-8.9-6.7c-1.2-1-2-2.4-2.9-3.7C1276.9,646.7,1277.1,646.2,1277.3,645.8z"/>
	<path d="M1330.1,383.5c-1.9,8.7-9.3,11.2-16.2,14.7c-9,4.6-17.4,10.3-26.4,15c-6.1,3.2-12.6,5.8-19.1,8.2c-8.2,3-14.8-0.1-21-6.7
		c2.6-1.3,4.9-2.4,7.1-3.5c5.6-3,11.2-6.2,16.9-9.1c1.5-0.8,3.5-0.6,5.2-1c1.4-0.3,3.1-0.6,3.9-1.5c2.8-3.2,6-5.3,10.5-5
		c0.6,0,1.2-1.3,2.8-2.9c2.8-0.2,7.3-0.6,12.7-1.1c-0.2-0.3,0.4,0.6,1.6,2.1c0.9-5.4,2.7-9.2,8.9-7.6c0.5-1.8,0.8-3.3,1.2-4.9
		C1322.3,381.3,1326.4,382.4,1330.1,383.5z"/>
	<path d="M486.5,850.7c-0.8,3.4,1.5,8-3.6,10.7c-3.5,1.9-5.8,1.6-7.2-2.2c-2.5-7.2-4.7-14.5-7.3-21.7c-1.8-5-4-9.8-6.1-14.7
		c-1.7-3.8-1.2-7.5,2.2-9.7c4.4-2.8,9.1-1.5,11.7,2.8C482.7,826.4,486.7,837.8,486.5,850.7z"/>
	<path d="M480.7,905c7.8-0.7,8.9-0.5,11.1,7.2c2.9,10.2,5,20.6,6.7,31c0.5,2.9-1.1,6.9-3.1,9.3c-3,3.7-8,2.6-9.3-2.1
		c-2.2-7.8-4.2-15.7-5.2-23.7C480,919.6,480.7,912.4,480.7,905z"/>
	<path d="M565.7,667.9c-0.2,1.2-0.8,2.3-0.5,3.1c1.5,4.7-1.4,5.4-4.8,5.4c-5.1-0.1-10.3-0.4-15.4-0.6c-12.4-0.5-24.9-1.2-37.3-1.3
		c-20.4-0.1-40.8,0-61.2,0.3c-10.1,0.2-20.2,1.4-30.3,1.6c-3.9,0.1-7.9-1.4-11.8-2.1c-0.2-0.7-0.3-1.3-0.5-2
		c2.2-1.6,4.1-3.7,6.5-4.8c3-1.3,6.3-2.3,9.6-2.5c24.9-1.4,49.8-3.4,74.6-3.4c20.5,0,41,2.5,61.5,4
		C559.4,665.9,562.5,667.1,565.7,667.9z"/>
</g>
</svg>
