<?xml version="1.0" encoding="utf-8"?>
<!-- Generator: Adobe Illustrator 27.4.1, SVG Export Plug-In . SVG Version: 6.00 Build 0)  -->
<svg version="1.1" id="Camada_1" xmlns="http://www.w3.org/2000/svg" xmlns:xlink="http://www.w3.org/1999/xlink" x="0px" y="0px"
	 viewBox="0 0 1500 1500" style="enable-background:new 0 0 1500 1500;" xml:space="preserve">
<image style="overflow:visible;" width="1450" height="993" xlink:href="../../Library/CloudStorage/GoogleDrive-lucas.pretti@okfn.org/.shortcut-targets-by-id/0B79xBlVd-Nf6ZzMzUlZSTWwxV28/Open Knowledge All Team/Brand 2023/Illustrations/L 1500px - web transp/Icons/board.png"  transform="matrix(1 0 0 1 -2106 1417.5)">
</image>
<image style="overflow:visible;" width="1133" height="1032" xlink:href="../../Library/CloudStorage/GoogleDrive-lucas.pretti@okfn.org/.shortcut-targets-by-id/0B79xBlVd-Nf6ZzMzUlZSTWwxV28/Open Knowledge All Team/Brand 2023/Illustrations/L 1500px - web transp/Icons/books.png"  transform="matrix(1 0 0 1 -2106 1417.5)">
</image>
<image style="overflow:visible;" width="1357" height="1143" xlink:href="../../Library/CloudStorage/GoogleDrive-lucas.pretti@okfn.org/.shortcut-targets-by-id/0B79xBlVd-Nf6ZzMzUlZSTWwxV28/Open Knowledge All Team/Brand 2023/Illustrations/L 1500px - web transp/Icons/campagne.png"  transform="matrix(1 0 0 1 -2106 1417.5)">
</image>
<g>
	<path d="M376,373c-0.3,1.5-0.6,3-1,4.5c0.2,0.1,0.4,0.1,0.6,0.2c4.4-13.6,8.8-27.3,13.2-41.1c0,0-0.6,0.1-1.1,0.1
		c-0.3-0.3-0.6-0.6-0.8-0.9c4.2-3.1,8.1-6.6,12.5-9.4c14.3-9,30.4-13.3,46.9-16.2c23.9-4.2,47.8-9.1,71.9-11.6
		c20.6-2.1,41.5-1.1,62.3-1.5c9-0.2,18.3,0.8,26.8-1.2c8.2-2,16.1-2.2,24.1-1.4c3,0.3,7.1-1.4,8.2,3.7c0.1,0.3,1.6,0.2,3.1,0.4
		c-2.2,3-2.4,7.6-7.5,5c-8.9,5.4-19.3,5.6-29,6.5c-13.7,1.4-27.5,0.5-41.3,0.8c-15.8,0.4-31.7,0-47.4,1.8c-17.2,1.9-34.1,5.7-51.1,9
		c-12,2.3-24.1,4.8-36,7.6c-13.9,3.4-22.3,13-26.3,26.1c-3.7,11.9-7.5,23.9-9.2,36.1c-2.6,18.9-3.6,38-4.9,57
		c-1.2,16.6-2.1,33.2-2.8,49.8c-1,23.1-1.9,46.1-2.5,69.2c-0.4,16.4-0.5,32.7-0.5,49.1c0,15.9,0.2,31.8,0.2,47.8
		c0,10.9-0.7,21.8-0.6,32.7c0.1,10.3,0.8,20.6,1.1,30.8c0.5,17.4,1.1,34.9,1.5,52.3c0.3,11.1,0,22.2,0.5,33.2
		c0.7,15.1,2,30.1,2.7,45.1c0.5,11.9,0.6,23.8,0.8,35.7c0.2,9.9,0.2,19.9,0.4,29.8c0.4,15.2,1.2,30.3,1.5,45.5
		c0.4,19.9,0.2,39.8,0.5,59.7c0.2,14.1,0.5,28.3,1.2,42.4c0.5,10,1.5,20,2.3,30c0.8,9.7,1.3,19.4,2.5,29c0.9,7.2,2.6,14.3,4.1,21.4
		c3,14.5,5.2,29.1,9.4,43.2c3.4,11.5,9.1,22.4,14.1,33.5c2.8,6.2,6.2,12.1,9.6,18.1c2.1,3.7,4.1,7.9,7.1,10.7
		c2.5,2.2,6.4,3.3,9.8,3.9c10,1.5,20.1,3.1,30.2,3.6c18.9,0.8,37.8,0.7,56.7,1.1c9.5,0.2,19.1,1.1,28.6,1
		c20.3-0.2,40.6-0.2,60.9-1.4c23.9-1.4,47.6-0.9,71.5,0.4c8.2,0.4,16.4-0.6,24.7-0.7c6.6,0,13.3,0.6,19.9,0.6
		c15.9,0,31.7,0,47.6-0.2c9-0.1,18-0.7,27-1c18.2-0.5,36.5-0.7,54.7-1.4c10.5-0.4,20.9-1.5,31.3-2.3c19.7-1.4,39.3-3.2,59-4.1
		c25-1.2,50-1.7,75.1-2.4c4.9-0.1,9.9,0.3,14.8,0.6c3,0.2,6.3,5.9,4.7,9.4c-1.6,3.6-3.8,7.5-6.9,9.7c-3.2,2.3-7.7,3.4-11.8,4
		c-5.8,0.8-11.7,0.3-17.5,0.8c-13.3,1.1-26.5,2.5-39.8,3.5c-5.5,0.4-11,0-16.4,0.2c-2.1,0.1-4.1,1-6.2,1.2
		c-14.7,1.1-29.4,2-44.1,3.1c-13.5,1-27,2.7-40.6,3.4c-23,1-45.9,1.7-68.9,2.1c-26.3,0.5-52.6,0.6-78.9,0.7c-18.5,0-36.9-1-55.4-0.6
		c-19,0.4-38,2.1-57,2.8c-20.2,0.7-40.4,1.1-60.5-1.7c-4.7-0.6-9.6,0.3-14.4,0.5c-11.2,0.3-22.4,1-33.6,0.7
		c-11.1-0.3-22.2-1.1-33.2-2.6c-6.7-0.9-13.1-3.7-19.7-5.2c-2.2-0.5-4.8,0.5-7.2,0.8c-1,0.1-2,0.3-2.9,0.1c-1-0.2-2-1.1-2.8-0.9
		c-10.8,2.8-12.8-8.1-19.1-12.4c0.7,0,1.3,0,1,0c-8.1-14.6-17.6-29.2-24.3-44.9c-6.3-14.9-9.7-31-14.4-46.5
		c-0.7-2.3-1.7-4.5-2.6-6.7c-0.2-0.6-0.9-1.1-1-1.6c-1.5-12.2-2.7-24.5-4.3-36.7c-0.6-4.5-2.6-8.9-3.4-13.4c-0.4-2.2,1-4.6,0.9-6.9
		c-0.3-4.6-0.5-9.5-2-13.8c-1.4-4.1-2-4.2,0.6-8.8c-1,0-1.7,0-2.4,0c0-7.1,0.2-14.3-0.1-21.5c-0.2-5.9-1.1-11.8-1.2-17.7
		c-0.1-10.6,0.5-21.1,0.3-31.7c-0.1-5.7-1.4-11.4-1.7-17.1c-0.3-4.9,0.3-9.8,0.2-14.6c-0.2-11.7-1.8-23.5-0.6-35.1
		c1.3-12.1-1.5-23.9-0.9-35.9c1-20.8-0.8-41.6-1.3-62.4c-0.3-11.6-1.4-23.2-1.7-34.9c-0.2-8.7,0.3-17.4,0.4-26.2
		c0.1-6.1-0.1-12.1-0.2-18.2c0-0.7,0-1.6-0.4-1.9c-6.4-4.9-2-11.7-2.9-17.6c0.2,1.5,0.4,2.9,0.5,4.4c0.3,0,0.6,0,0.9,0
		c0-10,0-20,0-30c0-10.1,0-20.2,0-30.3c-0.3-0.1-0.6-0.1-0.8-0.2c-0.7,1.2-1.4,2.4-2.7,4.8c0-7.1,0-12.8,0-19c0.7,0.5,1.3,0.9,2,1.3
		c0.4-0.1,0.9-0.2,1.3-0.3c-1.2-4.3-2.9-8.6-3.4-13.1c-0.6-4.8-0.1-9.6-0.1-15.2c0.8,0.8,1.3,1.2,2.2,2c0.1-3,3.5-6-1.6-8
		c-0.7-0.3-0.3-3.3,0.1-5.1c0.2,1.4,0.4,2.7,0.6,4.1c0.6,0,1.1,0,1.7,0.1c0.1-2.6,0.6-5.1,0.4-7.7c-0.7-7.7-2-15.4-2.4-23.1
		c-0.4-7.9-0.1-15.9-0.1-24.1c1,0.7,1.6,1.2,2.5,1.8c0-3.2,0.9-7.8-0.2-8.3c-3.7-1.7-2.5-4.4-2.4-6.7c0.8-16.7,2-33.4,2.6-50.1
		c0.6-17.6,0-35.2,0.9-52.8c0.7-14.3,3-28.5,4.4-42.8c0.9-8.7,1.2-17.5,2.1-26.2c0.6-5.6,2.1-11.1,3-16.7c0.3-1.8,0.1-3.6,0.3-5.4
		c0.7-7.1,1.4-14.2,2.2-21.2C375,372.9,375.5,372.9,376,373z"/>
	<path d="M829.9,297.6c6.7,0.5,12.8,0.9,18.9,1.3c14.3,0.7,28.3,3.9,40.6,11c10.5,6.1,18.4,15.7,24.2,26.5c3.4,6.3,6.1,13.1,8,19.9
		c1.1,3.9,2.1,7.1,5,10.4c2.7,3.1,2.8,8.5,4.1,13.1c0.7-2.5,0.8-5.5,2.2-6.5c1.7-1.3,4.7-1.1,7.1-1.3c8.9-0.5,17.8-0.8,26.7-1.3
		c15.7-0.9,30.8,1.2,45.3,7.3c11.4,4.8,17.3,14.5,17.3,26c0,8,2.4,15.4,2.4,23.1c0,10.6-0.6,21.2-0.5,31.8
		c0.1,6.8,1.2,13.6,1.4,20.5c0.2,6.8-0.3,13.5-0.3,20.3c0,11.3,0.4,22.7,0.3,34c-0.1,9.6-0.8,19.1-0.9,28.7
		c-0.1,10.4,0.4,20.8,0.4,31.1c0,7.1-0.6,14.2-0.7,21.3c-0.2,8.4,0,16.8-0.2,25.1c-0.6,20.4-1.4,40.7-1.9,61.1
		c-0.3,12.3-0.4,24.5-0.6,36.8c-0.2,19.3-0.5,38.7-0.6,58c-0.1,18.6-0.1,37.1-0.1,55.7c-0.1,26.4,3.1,52.5,7.8,78.4
		c4,22.1,7.4,44.6,13.9,66c5.4,17.9,14.6,34.7,22.8,51.8c2.9,6,7.5,11.2,11.4,16.8c2.4,3.5-0.6,10.4-5.4,12.3c-6.2,2.5-12,0-16-3.8
		c-5.5-5.2-10.9-11.3-14.1-18.1c-8.4-17.5-17.6-35-22.8-53.6c-7.1-24.9-11.5-50.6-15.7-76.2c-3.2-19.7-4.8-39.7-6.2-59.6
		c-0.8-10.6,0.4-21.3,0.3-31.9c-0.1-17.8-0.7-35.6-0.7-53.4c0.1-21.9,0.5-43.8,0.9-65.7c0.7-32.4,2-64.8,2.4-97.2
		c0.5-40.9,0.7-81.8,0.5-122.8c-0.1-20.1-0.8-40.3-2.3-60.3c-0.9-12.1-2.9-24.3-6.1-36c-1.1-4.1-6.9-9-11.3-9.8
		c-12-2.3-24.3-2.5-36.5-3.6c-1.2-0.1-2.3-0.3-3.5-0.4c-3.7-0.1-7.5-2.5-11.1,0.8c-0.4,0.4-1.8-0.1-2.7-0.2
		c-0.4-0.6-0.9-1.1-1.3-1.7c1.8-0.3,3.6-0.7,5.3-1c-0.6-0.6-1.3-1.2-1.9-1.8c-2.9,0.9-4.4,2.9-4.5,6.1c-0.1,1.9-0.3,3.9-1,5.7
		c-2.4,5.8-4.5,6.6-10.4,4.9c-1.1-0.3-2.4,0.2-3.6,0.6c-2.6,0.7-4.7,3.9-7.9,1.5c-0.4-0.3-1.4-0.2-1.9,0
		c-10.9,4.5-22.4,3.8-33.8,4.9c-13.8,1.3-27.5,2.5-41.3,3.5c-20.5,1.4-40.9,2.7-61.4,3.8c-12.6,0.7-25.3,1.4-37.9,1.5
		c-15.8,0.1-31.5-0.4-47.3-0.8c-11.3-0.2-22.6-0.8-33.9-0.9c-5.6,0-11.3,1.2-16.9,0.9c-12.6-0.6-25.2-1.5-37.8-3
		c-5.9-0.7-11.2-2.4-15.2-8.6c-2.8-4.2-3.4-7.9-2.4-11.6c4.3-16.9,11.9-32,25.8-43.3c7.2-5.8,13.9-12.4,21.5-17.6
		c12.3-8.6,25.6-15.3,40.2-19.5c7.8-2.3,15.2-5.9,22.5-9.2c1.2-0.5,2.3-3.3,2-4.6c-3.2-13.6-2.2-27,1.1-40.5
		c5.3-21.5,16.6-37.8,38.3-45.2c5.8-2,11.8-3.8,17.7-5.4c1.1-0.3,2.6,0.4,3.8,0.8c3.1,1,6.1,2.5,9.3,3c24.8,3.6,42.7,17.3,55.6,38.1
		C825.9,261.1,831.2,278.1,829.9,297.6z M911,387.8c0.5-3.7,0.9-5.9,1-8.1c0.4-8.4-2.2-16.1-5.8-23.5c-6.8-14.4-16.1-26-32.7-29.6
		c-5.8-1.3-11.5-3.4-17.3-4c-11-1-22.2-0.9-33.2-1.9c-4-0.3-8.3,1-12-3.6c-3.9-4.8-8.2-17-5.9-22.9c7.8-20.1,3.3-44.1-17.7-56.1
		c-8.8-5-17.1-10.8-25.7-16.1c-1.1-0.7-2.9-0.7-4.2-0.2c-5.6,1.9-11.2,4.2-16.8,6.3c-26,9.6-38,40.5-34.4,65c1.2,8,2.6,16,4,24
		c0.5,2.7-0.2,3.7-3.3,3.8c-3.2,0.1-6.6,1-9.7,2.1c-8.2,3-16.3,6.4-24.5,9.5c-3.9,1.5-8,2.2-11.7,4.1c-6.4,3.3-12.8,6.9-18.7,11
		c-17.4,12.2-33.7,25.6-42.9,46.2c1.4,0.5,2.9,1.4,4.4,1.4c8.1,0.3,16.2,0.5,24.3,0.6c19.3,0.1,38.6,0.4,57.8-0.1
		c28.8-0.6,57.6-1.7,86.4-2.8c22.7-0.9,45.4-2.1,68.1-3.4c16.9-1,33.8-2.9,50.7-3.6C897.6,385.6,904.1,381.3,911,387.8z"/>
	<path d="M1078.8,1261.7c0-8.1,6-9.1,10.9-10.1c7.4-1.4,10.8-6.1,12.8-12.4c6.1-18.5,8-37.6,8.9-56.9c0.4-8.9,1.5-17.8,1.9-26.8
		c0.6-16.6,1-33.2,1.4-49.8c0.4-17.7,0.8-35.5,1-53.2c0.3-27.2,0.5-54.4,0.7-81.6c0.1-15.8,0.2-31.6-0.2-47.3
		c-0.4-14.8-1.5-29.6-2.2-44.3c-0.8-16.6-1.1-33.3-2.2-49.9c-1.5-24.5-3.6-49-5.2-73.5c-0.7-10.4-0.8-20.9-1.3-31.4
		c-0.9-19.1-2.1-38.1-2.9-57.2c-0.9-21.2-1.4-42.3-2.3-63.5c-0.7-17.9-1.8-35.7-2.3-53.5c-0.4-14.1-0.3-28.2-0.5-42.3
		c-0.2-12.2-0.6-24.5-0.8-36.7c-0.1-9.2,0.4-18.4-0.1-27.6c-0.7-14.6-1.9-29.2-3.1-43.8c-1.2-14.3-2.1-28.6-3.9-42.8
		c-1.7-13.5-6.3-25.9-14.9-37c-7.8-10-17.3-14.2-29.9-13.1c-19.4,1.6-38.8,3.2-58.2,3.7c-23.1,0.6-46.2,0.1-69.2-0.3
		c-8.3-0.1-11.4-4.7-9.6-12.2c0.9-3.7,3.4-3.3,5.9-3.3c15.2,0,30.3,0.5,45.4,0.1c21.6-0.6,43.3-1.5,64.9-2.8
		c21.7-1.4,43-0.3,63.2,8.5c8.8,3.8,15.3,10.3,21,17.9c8,10.6,11.4,23.1,13.7,35.8c1.2,6.8,1.1,13.9,1.9,20.8
		c0.5,4.4,1.8,8.8,2,13.2c0.3,7.1-0.1,14.1-0.2,21.2c-0.2,9.7-0.3,19.5-0.5,29.2c-0.1,11-0.4,22-0.3,33.1
		c0.1,17.8,0.4,35.6,0.7,53.3c0.2,16.7,0.6,33.4,0.8,50.2c0.2,17,0.2,33.9,0.6,50.9c0.2,9.9,1.7,19.9,1.5,29.8
		c-0.4,12.9,2.5,25.5,2.5,38.3c0,13.1,0.6,26.3,1.3,39.4c2,34.2,4.3,68.4,6.2,102.6c1.6,29.9,2.7,59.9,3.8,89.8
		c0.2,4.5-1.3,9-1.2,13.4c0.1,6.1,1.5,12.3,1.5,18.4c0,5.9-1.3,11.8-1.6,17.7c-0.2,3.8,0.6,7.6,0.7,11.4c0.1,2.7-0.4,5.5-0.3,8.2
		c0.1,3.1,0.9,6.3,0.6,9.3c-0.2,2.3-1.1,4.2-0.6,6.8c0.7,3.3-0.5,7-0.6,10.5c-0.2,6.8-0.8,13.7-0.1,20.4c0.9,8.6-0.3,17.1-0.6,25.6
		c-0.7,23.7-1.7,47.4-2.9,71.1c-1.2,22-2.3,44.1-4.5,66c-1.1,11.1-4.2,22.1-7.4,32.9c-4.8,16.1-17.3,24.2-33,26.4
		C1087.6,1264.7,1083,1262.5,1078.8,1261.7z"/>
	<path d="M577.8,380.4c-2.1,4.3-3.7,8-5.8,11.5c-0.6,1-2.7,1.5-4.2,1.6c-10.2,0.8-20.7,0.2-30.6,2.5c-10.1,2.4-14.3,6.2-13.9,17
		c0.9,25.7,0.4,51.5,0.5,77.2c0,15.9,0.3,31.9,0.1,47.8c-0.2,16.4-0.9,32.7-1.2,49.1c-0.2,10.3,0.1,20.5-0.1,30.8
		c-0.1,8.6-0.7,17.2-0.7,25.9c-0.1,17.5-0.4,35.1-0.1,52.6c0.4,17.8,1.6,35.7,2.1,53.5c0.5,22.1,0.4,44.2,1,66.3
		c0.8,28.3,1.7,56.6,3.2,84.9c1.1,19.7,2.9,39.4,5,59.1c1.8,16.3,3.9,32.6,7,48.7c2.5,12.6,5.8,25.3,10.3,37.3
		c5.1,13.7,14,25.6,23,37.1c7.8,9.9,16.3,19.2,24.2,29c2.3,2.9,2.6,6-1,8.9c-7.8,6.4-14,6.5-22-1.6c-6.5-6.6-12.5-13.8-18.3-21.1
		c-11-13.8-22-27.8-28.4-44.4c-4.2-10.8-7.3-22.1-9.7-33.3c-3.3-15.3-6-30.8-8.2-46.4c-1.5-10.6-1.8-21.5-2.7-32.2
		c-1-12.2-2.1-24.4-2.9-36.6c-0.6-9.8-0.8-19.5-1.2-29.3c-0.4-10.1-0.9-20.1-1.4-30.2c-0.3-5.9-0.7-11.9-0.8-17.8
		c-0.7-25.5-1.2-51.1-1.9-76.6c-0.5-17.6-1.5-35.1-1.6-52.7c-0.2-20.9,0.3-41.8,0.5-62.7c0.3-18.9,0.6-37.7,1-56.6
		c0.5-24.4,0.9-48.8,1.4-73.2c0.3-13.9,0.9-27.8,1.2-41.7c0.4-19,0.6-38,0.9-57c0-1.1-0.3-2.3-0.4-3.4c-0.5-5.1,0.5-9.2,5.6-12
		c4.1-2.2,7.5-5.9,11.7-7.8c4.5-2,9.5-3.3,14.4-3.6c13.4-0.8,26.8-0.9,40.3-1.3C574.9,379.7,575.7,380,577.8,380.4z"/>
	<path d="M618.6,1109c19.3-0.4,38.6-0.8,58-1.2c19.8-0.4,39.5-0.8,59.3-1.3c16.5-0.4,33-1.3,49.5-1.5c7.7-0.1,15.5,0.9,23.2,1.1
		c6.8,0.2,13.6-0.1,20.4-0.1c3.1,0,6.3,0.3,9.4,0.2c3.8-0.1,7.6-0.4,11.4-0.5c5.2-0.1,10.4,0.1,15.6-0.1c10-0.2,19.9-0.7,29.9-0.9
		c11.9-0.2,23.9-0.4,35.8-0.2c6.1,0.1,12.1,1.6,18.2,1.7c6.6,0.1,13.1-1,19.7-1.2c20.2-0.6,40.4-0.6,60.6-1.7
		c12.4-0.7,24.7-3,37-4.9c5.6-0.9,11.9-9,11.6-15c-0.2-4.2,3.2-3.5,5.1-4.9c0.9,1.3,1.9,2.6,2.7,3.9c0.3,0.5,0,1.5,0.4,1.9
		c6.9,6.7,3.2,14.3,1.6,21.5c-1.8,8.2-7,13.2-15.4,15.1c-13.2,3-26.2,7-39.5,9c-10,1.5-20.4,0.6-30.5,1c-14.1,0.6-28.1,1.9-42.1,2.1
		c-17.1,0.2-34.3-0.6-51.4-0.7c-11-0.1-22,0.6-33.1,0.6c-28.7-0.1-57.3-0.6-86-0.7c-29.3,0-58.7,0.3-88,0.5
		c-11,0.1-21.9,0.6-32.9,0.2c-14.2-0.5-28.5-1.1-42.6-3c-6.1-0.8-13.7-1.3-16.6-9.3C607.5,1114.2,611.6,1107.8,618.6,1109z"/>
	<path d="M528.4,1167.9c4.4-0.5,8.9-1.6,13.4-1.3c25.6,1.6,51.2,2.8,76.8,0.6c20.8-1.8,41.8-2.3,62.7-3.1c11.5-0.4,23-0.2,34.4,0.1
		c24.4,0.7,48.8,1.7,73.2,2.6c17.8,0.6,35.7,1.3,53.5,2c15,0.6,30,1.5,45,1.7c11.2,0.2,22.4-0.7,33.6-0.8c12.1-0.1,24.2,0.3,36.3,0
		c9.9-0.2,19.8-1.3,29.7-1.7c3.6-0.2,7.2,0.7,10.8,0.4c6.9-0.6,13.8-1.7,20.7-2.4c8.6-0.8,17.2-1.6,25.7-2c4.1-0.2,8.3,0.5,12.4,0.3
		c1.8-0.1,3.5-1.3,5.4-2.1c-4.9-9.5-5.4-18.7-0.1-29.2c0,2.3,0,3.4,0,5c1.8-0.5,3.2-0.9,5-1.5c3.3,8.5,5.8,17,4,26.3
		c-0.5,2.4,0.2,5,0,7.5c-0.2,2.9-1.8,4.7-4.8,5.2c-10,1.5-19.9,3.3-30,4.5c-18,2.2-35.9,4.4-54,5.9c-15.9,1.3-31.8,1.6-47.7,2
		c-19.7,0.5-39.4,1.2-59,1c-26.4-0.2-52.8-1.2-79.2-1.8c-11.7-0.3-23.5-0.7-35.2-0.9c-11.8-0.3-23.6-0.4-35.4-0.7
		c-12.2-0.3-24.4-1.1-36.6-0.9c-10.7,0.1-21.5,1.2-32.2,1.9c-11.7,0.7-23.4,2-35.1,1.9c-23.4-0.1-46.8-1-70.2-1.5
		c-3.8-0.1-7.7-0.3-11.5-0.3c-8.5,0-13.4-5.8-11.9-14.3C528.6,1171.2,528.4,1170.2,528.4,1167.9z"/>
	<path d="M650,497.5c-0.9,0.7-1.3,1.1-1.7,1.5c0.9,0.3,2.1,1.1,2.5,0.7c5.4-3.8,11.4-1.7,17.2-2.1c6.2-0.4,12.5-0.7,19.1-1
		c-0.6,0.7-1,1.1-0.6,0.7c8-0.9,16.7-2.2,25.5-2.9c6.3-0.5,12.5-0.8,19.1,0.8c6.6,1.6,13.9,0.1,20.8-0.1c17.2-0.6,34.5-1.3,51.7-1.8
		c23.1-0.7,46.2-1.4,69.3-1.8c23.4-0.5,46.8-0.8,70.2-0.9c5.2,0,10.5,1,14.1,1.3c1.8,2.4,3,3.5,3.7,4.9c1,1.8,2.2,3.8,2.3,5.8
		c0.4,5-3.1,9.1-8,9.7c-3.1,0.4-6.1,0.8-9.2,0.8c-26.9,0.3-53.7,0.5-80.6,0.9c-31.6,0.6-63.2,1.2-94.8,2.4c-33,1.2-66,3.2-99.1,4.7
		c-9.5,0.4-19-0.1-28.4,0c-3.6,0-7.2,1-10.8,0.9c-11-0.4-22.1-0.9-33-2c-4.8-0.5-7.4-4.4-8.1-9.2c-1-6.9-0.6-7.3,6.7-8.1
		c15.8-1.7,31.6-3.4,47.5-5C646.6,497.4,648,497.5,650,497.5z"/>
	<path d="M583.6,584.7c1.4-1.1,2.2-1.7,3.1-2.5c-0.4-0.4-0.7-0.7-1-1c-0.7-0.7-1.8-1.4-1.9-2.2c-0.1-0.6,1-1.6,1.8-2
		c9.8-4.8,20.1-6.7,31.1-6.6c27.6,0.1,55.1,0,82.7-0.3c14.5-0.2,28.9-1,43.3-1.5c14.3-0.5,28.7-0.8,43-1.3
		c9.8-0.4,19.5-1.1,29.3-1.5c4.1-0.2,8.2,0.3,12.4,0.3c15.1,0.1,30.3,0.3,45.4,0.2c14.1-0.2,28.2-0.8,42.2-1.2
		c7.6-0.2,15.2-0.3,22.8-0.5c0.5,0,1-0.1,1.5,0.1c5.2,2.2,9.2,10.5,7.2,16.3c-0.6,1.8-3.4,4-5.3,4.2c-10.7,0.8-21.5,1.1-32.3,1.4
		c-9.1,0.2-18.3,0-27.4-0.1c-13.6-0.2-27.1-0.5-40.7-0.6c-7.3,0-14.5,0.5-21.8,0.7c-21.9,0.6-43.7,1-65.6,1.8
		c-21.4,0.8-42.7,2.1-64.1,2.7c-10.6,0.3-21.2-0.7-31.8-0.2c-16.2,0.7-32.3,2.5-48.4,3.3c-5.7,0.3-11.8,3.9-17.2-0.7
		C589.1,591,586.6,587.9,583.6,584.7z"/>
	<path d="M618.8,885.7c24.6,0,49.1-0.1,73.7,0.1c5.1,0,10.2,1.3,15.3,1.4c6.8,0.1,13.6-0.5,20.3-0.6c27.2-0.7,54.3-1.3,81.5-2
		c17.4-0.4,34.9-0.9,52.3-1.4c15.1-0.4,30.2-1.2,45.4-1.4c4.8-0.1,9.6,0.4,13.2,5c2.9,3.6,2.8,7,2,11c-0.9,5-5.2,5.3-8.7,5.4
		c-33.7,1.3-67.4,2.4-101.1,3.3c-21.8,0.6-43.6,1-65.3,0.9c-32.5-0.1-65.1-0.7-97.6-0.9c-14.6-0.1-29.1,0.9-43.7,0.8
		c-8-0.1-16.2,0.4-23.2-5.5c-3.6-3.1-4.4-6.8-4.8-10.9c-0.1-0.7,1.2-1.7,2.1-2.2c7-4.5,14.8-2.6,22.3-3c5.5-0.2,11,0,16.5,0
		C618.8,885.6,618.8,885.6,618.8,885.7z"/>
	<path d="M475.2,434.9c7.2,0.1,10.3,3.3,11.4,10.2c3.6,21.1,1.7,42,0,63.1c-1.6,20.7-1.6,41.5-2.7,62.2c-1.1,20.6-3.3,41.2-3.7,61.8
		c-0.4,20.4,1.2,40.9,1.1,61.3c-0.1,20.4-1.4,40.9-2.2,61.3c-0.2,7.1,0.1,14.3-0.5,21.4c-0.4,5-2.3,9.9-2.9,14.9
		c-0.7,5.7-0.5,11.6-1.3,17.3c-0.4,2.7-2,5.2-3.1,7.8c-0.6-0.2-1.2-0.4-1.8-0.6c-0.8-9.2-1.5-18.4-2.3-27.6
		c-0.8-9.7-1.8-19.3-2.5-29c-0.2-2.6,0.4-5.2,0.4-7.8c0.1-10.7,0.1-21.4,0.3-32c0.1-7.3,0.8-14.5,0.6-21.8c-0.5-14-2-28-2.3-42
		c-0.2-10.8,0.8-21.7,1.3-32.6c0.5-10.2,1.1-20.3,1.6-30.5c0.7-16.6,1.4-33.3,2.1-49.9c0.3-6.3,1.5-12.7,1-19
		c-1.9-25.2,4.3-50,2.8-75.1C472.3,444.1,474.2,439.6,475.2,434.9z"/>
	<path d="M851.2,954.2c2.2,0.8,5.1,1,6.4,2.6c3.2,3.9-2.2,13.8-7.3,13.7c-17.1-0.5-34.2-1.5-51.3-1.8c-9.4-0.2-18.8,0.8-28.2,1
		c-18.1,0.4-36.2,0.5-54.3,0.8c-20.3,0.4-40.6,1-60.9,1.5c-18.1,0.4-36.2,1.1-54.3,1.3c-6,0.1-11.7-1.8-15.5-7.3
		c-2.2-3.2-1.8-6.5,0.8-9.3c2.8-3.1,6.2-3.7,10-3.9c12.6-0.5,25.1-0.8,37.7-1.4c13.9-0.7,27.8-1.7,41.7-2.4
		c4.6-0.2,9.3,0.2,13.9,0.3c9.4,0.1,18.7,0.1,28.1,0.4c9,0.3,18,1.4,26.9,1.4c9.9-0.1,19.8-1.5,29.7-1.5c19.2,0,38.4,0.6,57.6,1
		c7.1,0.2,14.3,0.8,21.4,1.1C852.9,952.5,852,953.4,851.2,954.2z"/>
	<path d="M474.8,845.4c1.4,6.3,1.8,13,4.4,18.8c7.2,15.9,6.7,33,8.6,49.7c1.8,16.3,2.8,32.8,3.6,49.2c1.1,21.7,1.2,43.5,2.5,65.2
		c0.6,10.6,3.2,21,4,31.5c1.4,16.5,1.8,33.1,3.1,49.7c0.7,9,2.3,18,3.9,26.9c1.3,7.3,3.2,14.6,4.8,21.9c0.7,3.2-4.3,9.1-8,9.2
		c-2.3,0.1-4.6-0.2-6.9-0.3c-3.6-0.2-5.9-2.2-6.4-5.8c-1.7-10.8-4-21.6-4.8-32.5c-1.1-13.9-0.8-27.8-1.4-41.7
		c-0.3-7.9-0.9-15.8-1.6-23.7c-1.7-18.8-4.4-37.5-5.3-56.3c-1.1-23.2-0.4-46.4-1.3-69.6c-0.6-14.4-3-28.6-4-43
		c-0.7-8.6-0.6-17.3-0.4-25.9c0.1-5.9,0.7-11.7,1.4-17.6c0.2-1.9,1.4-3.6,2.1-5.5C473.6,845.6,474.2,845.5,474.8,845.4z"/>
	<path d="M822,822.8c-25.2,0-50.4-0.2-75.5,0.1c-27.4,0.3-54.7,1.2-82.1,1.7c-9.1,0.1-18.2-0.1-27.3-0.8c-6.8-0.5-7.7-4.2-10.4-10.2
		c-3.1-7,3.9-6.9,5.2-7.6c4.9-2.6,10.5-3.6,16.4-3.5c14.4,0.3,28.9-0.7,43.3-0.9c16.8-0.1,33.5,0.2,50.3,0.2c14.4,0,28.8-0.1,43.2,0
		c15.6,0.1,31.2,0.2,46.7,0.3c1,0,2,0,3-0.1c7.1-0.8,12.4,3.4,13,10.4c0.6,7.3-0.8,9.1-8.4,9.9c-5.8,0.6-11.6,0.6-17.4,0.9
		C822.1,823.1,822.1,822.9,822,822.8z"/>
	<path d="M819.8,668.7c-10.8,0-21.5-0.1-32.3,0c-12.8,0.1-25.5,0.5-38.3,0.7c-20,0.4-40.1,0.7-60.1,1.1c-9,0.2-17.9,0.8-26.9,0.5
		c-9.5-0.3-18.6-2.5-26-9.2c-2.5-2.2-1.9-6.3-0.5-9.1c2.3-4.5,5.8-3.8,9.6-3.8c11-0.1,21.9-0.5,32.9-0.6c12.8-0.1,25.5,0,38.3-0.2
		c10.2-0.2,20.4-1.1,30.5-1.2c12.2-0.1,24.5,0.6,36.7,0.7c13.4,0.1,26.8-0.1,40.2-0.3c2.1,0,11.9,5.2,12.3,6.6
		c2.3,9.9-1.9,14.9-12.5,15.1c-1.3,0-2.6,0-3.9,0C819.8,669,819.8,668.8,819.8,668.7z"/>
	<path d="M641.8,737c0.3-1.1,0.6-2.5,1.2-3.8c1.5-3.3,3.3-6.3,7.4-7c8.7-1.6,17.3-4.3,26.1-5.1c13.6-1.2,27.4-0.7,41-2
		c8.8-0.8,16.9,1.7,25.3,3c11,1.8,22.1,3.5,33.2,3.4c11-0.1,22-2.8,33.1-4c9-1,18.1-1.5,27.2-1.9c3.8-0.2,8.2,5.1,8.5,9.7
		c0.3,3.8-3.3,8.4-7.2,8.9c-18.3,2.3-36.5,5.2-54.8,6.6c-10.8,0.8-21.8-0.4-32.7-1.2c-11.8-0.8-23.5-2.7-35.2-3
		c-8-0.2-16.1,1.4-24.2,2.5c-8.6,1.1-17.1,2.9-25.7,3.8C655.7,747.9,647.4,745.5,641.8,737z"/>
	<path d="M580.7,729.6c2.2-1.3,3.6-2.2,5.1-2.9c1.5-0.7,3.1-1.7,4.7-1.6c8.1,0.2,16.1,0.8,23.9,1.2c0.6,1.4,0.7,3.2,1.6,4
		c4.2,3.3,3.3,7.4,2.1,11.5c-1.3,4.2-4.7,5.4-8.8,5.8c-7.1,0.8-14,0.4-20.2-3.2c-3.3-1.9-7-3.9-6.3-9.1
		C583.1,733.4,581.4,731.3,580.7,729.6z"/>
	<path d="M611.2,673.5c-7.2-0.7-14.5-1.4-21.8-2.3c-3.5-0.4-7.3-5.4-7.5-9.1c0-0.7-1.1-1.5-0.9-2.1c0.3-1.5,0.7-3.9,1.5-4.1
		c5.5-1.6,11.1-3.4,16.8-3.9C609.2,651.2,615.1,661.7,611.2,673.5z"/>
	<path d="M598.5,821.8c-5.8,0.8-11.6,0.4-15.5-4.3c-2.3-2.8-3.2-6.8-4.4-10.3c-0.2-0.6,0.9-2.4,1.7-2.5c5.9-1.3,11.9-3.3,17.9-3.4
		c7.3-0.1,11.9,9.5,9.3,17.1C605.7,823.6,601.8,821.6,598.5,821.8z"/>
	<path d="M769.4,246c3.4,4.5,8.3,9.5,11.5,15.4c6.3,11.5,9.6,23,1.6,36c-4.3,6.9-10.5,11.1-16.7,14c-4.7,2.3-12,0-17.9-1.4
		c-19.2-4.6-25.8-23.2-22.5-39.8c2-10.1,13.7-20.7,22.6-21.6C754.7,247.9,761.3,247,769.4,246z M754.6,290.1
		c0.6-0.1,2.6-0.3,4.3-1.1c12.9-6.2,15.1-19.1,4.9-29.2c-0.7-0.7-2.9-0.8-3.6-0.2c-4.4,3.4-8.6,6.9-12.6,10.7
		c-4.5,4.1-6.8,9.8-6.1,15.4c0.2,1.8,6.1,3,9.5,4.4C751.4,290.4,752.4,290.1,754.6,290.1z"/>
</g>
</svg>
