<?xml version="1.0" encoding="utf-8"?>
<!-- Generator: Adobe Illustrator 27.4.1, SVG Export Plug-In . SVG Version: 6.00 Build 0)  -->
<svg version="1.1" id="Camada_1" xmlns="http://www.w3.org/2000/svg" xmlns:xlink="http://www.w3.org/1999/xlink" x="0px" y="0px"
	 viewBox="0 0 1500 1500" style="enable-background:new 0 0 1500 1500;" xml:space="preserve">
<image style="overflow:visible;" width="1450" height="993" xlink:href="../../Library/CloudStorage/GoogleDrive-lucas.pretti@okfn.org/.shortcut-targets-by-id/0B79xBlVd-Nf6ZzMzUlZSTWwxV28/Open Knowledge All Team/Brand 2023/Illustrations/L 1500px - web transp/Icons/board.png"  transform="matrix(1 0 0 1 -2106 1417.5)">
</image>
<image style="overflow:visible;" width="1133" height="1032" xlink:href="../../Library/CloudStorage/GoogleDrive-lucas.pretti@okfn.org/.shortcut-targets-by-id/0B79xBlVd-Nf6ZzMzUlZSTWwxV28/Open Knowledge All Team/Brand 2023/Illustrations/L 1500px - web transp/Icons/books.png"  transform="matrix(1 0 0 1 -2106 1417.5)">
</image>
<image style="overflow:visible;" width="1357" height="1143" xlink:href="../../Library/CloudStorage/GoogleDrive-lucas.pretti@okfn.org/.shortcut-targets-by-id/0B79xBlVd-Nf6ZzMzUlZSTWwxV28/Open Knowledge All Team/Brand 2023/Illustrations/L 1500px - web transp/Icons/campagne.png"  transform="matrix(1 0 0 1 -2106 1417.5)">
</image>
<image style="overflow:visible;" width="845" height="1103" xlink:href="../../Library/CloudStorage/GoogleDrive-lucas.pretti@okfn.org/.shortcut-targets-by-id/0B79xBlVd-Nf6ZzMzUlZSTWwxV28/Open Knowledge All Team/Brand 2023/Illustrations/L 1500px - web transp/Icons/case-study.png"  transform="matrix(1 0 0 1 -2106 1417.5)">
</image>
<image style="overflow:visible;" width="1265" height="951" xlink:href="../../Library/CloudStorage/GoogleDrive-lucas.pretti@okfn.org/.shortcut-targets-by-id/0B79xBlVd-Nf6ZzMzUlZSTWwxV28/Open Knowledge All Team/Brand 2023/Illustrations/L 1500px - web transp/Icons/collaboration.png"  transform="matrix(1 0 0 1 -2106 1417.5)">
</image>
<g>
	<path d="M1130.5,833.2c3-0.8,5.2-1.8,7.4-1.8c3.6,0.1,7.3,0.3,10.7,1.4c17.3,5.9,30.1,17.7,41.5,31.5c1.2,1.4,2.2,3,3.4,4.3
		c16.1,16.5,28.3,35.9,41.3,54.7c13.2,19,26.6,37.8,39.6,56.8c5.3,7.8,9.7,16.1,14.7,24.1c3.4,5.5,7.2,10.7,10.9,16
		c4,5.8,8.3,11.5,12.2,17.4c5.8,9,11.7,18.1,17,27.4c8.2,14.6,16.7,29.1,23.6,44.4c3.1,6.8,2.4,15.2,3.6,22.9
		c0.5,3.4,1.5,6.7,1.9,10.1c0.2,1.8,0.3,3.9-0.4,5.5c-3.9,9.6-11.1,16-20.1,20.7c-3.1,1.6-5.8,4-8.8,5.9c-0.9,0.6-2.1,1.1-3.2,1.2
		c-8.2,0.6-16.4,0.9-24.6,1.6c-11.9,1-23.8,2.6-35.7,3.1c-17.5,0.8-35,0.9-52.5,1.4c-8.3,0.2-16.5,0.9-24.8,1
		c-8.8,0.1-17.6,0-26.4-0.3c-10.9-0.4-21.8-0.9-32.7-1.9c-10.9-1-21.7-2.9-32.6-3.7c-11.2-0.8-22.6-0.7-33.8-1.3
		c-9.8-0.6-19.6-1.4-29.3-2.5c-13.2-1.4-26.5-2.6-39.6-5c-13.3-2.4-25.9-7.5-36.7-15.9c-3-2.3-5.3-5.9-7-9.3
		c-3.7-7.3-5.9-15-2.4-23.1c1-2.3,2.3-4.4,3.1-6.7c1.7-5.5,2.8-11.2,4.9-16.6c1.3-3.4,4.1-6.3,5.6-9.6c6.7-15.1,16.2-28.5,25-42.2
		c6.9-10.7,13.8-21.3,20.2-32.3c5.9-10.3,10.9-21.1,16.6-31.5c3.3-5.9,7.4-11.3,11-16.9c2.3-3.7,4.4-7.6,6.6-11.3
		c4.3-7.3,8.8-14.6,13-21.9c3.4-5.9,6.3-12.2,9.8-18c5.5-9.2,11.5-18.1,17.1-27.3c4.1-6.8,7.3-14.2,12-20.5
		c7-9.5,14.7-18.4,22.6-27.1c1.6-1.7,6-2.2,8.5-1.5C1127.9,837.4,1129.7,836.3,1130.5,833.2z M1129.5,837.9
		c-0.2,2.8-0.2,4.3-0.5,5.6c-0.5,2.1-0.7,4.4-1.8,6c-5.4,7.5-11.6,14.5-16.7,22.2c-3.9,6-6.3,12.9-9.7,19.2
		c-3.5,6.4-7.6,12.3-11.1,18.7c-6,10.8-11.8,21.7-17.7,32.5c-11.7,21.2-23.1,42.5-35.4,63.3c-8.1,13.5-13.9,28.3-24,40.8
		c-7,8.6-12,18.9-18.1,28.2c-7.4,11.1-13.7,22.7-17.9,35.5c-2.4,7.3-5.9,14.3-9.2,21.2c-2.5,5.2,0.8,15.5,6.2,17.3
		c5.8,1.9,11.7,4,17.8,4.7c15.8,1.9,31.7,3.5,47.6,4.7c26.5,2,53,4,79.6,5.3c20.8,1,41.6,1.7,62.4,1.4c25.8-0.4,51.6-1.8,77.3-3
		c17.4-0.8,34.8-2.6,52.2-2.7c5.4-0.1,8.9-1.5,12.8-4.7c4.2-3.6,9.2-6.4,13.4-9.9c1.2-1,1.9-3.6,1.6-5.3
		c-2.9-21.9-15.5-39.3-26.8-57.3c-3.4-5.4-7.2-10.6-10.4-16.1c-3.7-6.4-6.6-13.2-10.5-19.5c-2.8-4.5-7.2-8-10-12.5
		c-5.5-8.8-10.3-18.1-15.7-27c-1.7-2.8-4.1-5.2-6-8c-4.9-7.2-9.7-14.6-14.7-21.7c-6.3-9-13-17.7-19.2-26.7
		c-9.2-13.4-18-27.1-27.4-40.4c-6-8.5-12.5-16.5-19-24.5c-9-11.1-16-23.8-28.3-32.1C1143.6,848.7,1137.1,843.6,1129.5,837.9z"/>
	<path d="M184.2,868.5c-2.7,1.8-4.8,3.7-7.2,4.6c-8.2,3.2-7.9,11-9.7,17.5c-4.7,17.2-3.1,34.9-3.7,52.4c-0.4,11.1-0.7,22.2-0.8,33.2
		c-0.2,17.6-0.1,35.2-0.4,52.8c-0.4,20.7-2.1,41.5-1.2,62.2c1,22.2,1.9,44.5,7.8,66.3c1.9,7.1,4.7,12.5,13,13.4
		c14.5,1.6,28.9,4.1,43.4,5.5c13.1,1.3,26.2,2.1,39.4,2.3c14.1,0.1,28.3-1.1,42.4-1.2c25.6-0.2,51.3-0.2,76.9-0.1
		c21.8,0,43.5,0.2,65.3,0.4c3.1,0,6.3,0.4,9.4,0.9c7.9,1.4,10.9-0.7,14.7-7.7c8.3-15.4,6.7-31.9,6.3-48.3c-0.3-14.6-1.2-29.2-2-43.8
		c-0.9-17.7-1.2-35.4-3.1-53c-3.9-36.7-8.7-73.3-13.2-110c-6-13.4-7.2-29.2-20.4-39.1c-6.1-4.6-13.1-6.2-20.2-7.4
		c-25.6-4.1-51.5-2.9-77.2-3.2c-17.3-0.2-34.6-1.2-51.9-1.1c-25.4,0.2-50.9,1.2-76.3,1.8c-6.2,0.2-12.3,0.1-18.5,0.4
		c-3.8,0.2-6.7-1.8-7.5-4.9c-1-4,2.3-7.5,7-7.9c8.8-0.8,17.6-1.4,26.4-1.8c37.9-1.7,75.9-2.2,113.8-0.6c22,0.9,44,0.6,65.9,1.5
		c15.6,0.6,31.3,1.7,46.2,7c13.2,4.7,22.2,13.9,29.2,26c6.3,11,6.4,23,8.3,34.7c1.3,8.1,1.7,16.3,2.3,24.5
		c0.5,7.9,0.5,15.8,1.2,23.6c1.4,16.9,3.4,33.8,4.7,50.7c1.3,16.6,2.2,33.2,2.9,49.8c0.4,11.3-0.1,22.7,0,34
		c0,12.7,0.5,25.5,0.2,38.2c-0.4,16-5.2,30.8-16.6,42.4c-5.2,5.2-11.8,7.5-19.7,6.9c-8.8-0.7-17.8,0.5-26.7,0.4
		c-28.6-0.2-57.3-1-85.9-0.9c-18.6,0-37.2,1.4-55.9,1.6c-18.8,0.2-37.6-0.1-56.3-0.9c-13.4-0.6-27-1.5-40.2-3.9
		c-12.4-2.2-24.5-6.1-36.4-10.3c-3.1-1.1-5.5-5.7-7-9.2c-5.9-13.5-7.5-28.1-9-42.6c-1.3-12.2-2.2-24.5-2.3-36.8
		c-0.2-14.5,0.5-28.9,0.8-43.4c0.5-23.4,0.6-46.9,1.6-70.3c0.9-21.2,2.1-42.5,4.3-63.6c1-10,5.2-19.5,6.8-29.5
		c1.4-8.2,8.6-11.1,12.9-16.6C171.1,861.9,178.2,863.5,184.2,868.5z"/>
	<path d="M719.1,311.8c7.6-7.9,17.8-8.5,27.1-9.2c41.9-2.8,79.6,9.5,111.5,36.7c30.1,25.7,50.6,58,58,97.6
		c1.3,7.1,1.4,14.5,1.7,21.8c0.1,1.6-1.2,3.2-1.4,3.7c0.4,3.2,1.4,5.6,1,7.7c-1.1,5.2-4,10.3-4.1,15.4c-0.2,7.4-4,13.2-6.5,19.5
		c-1.5,3.9-3.7,7.5-5.7,11.2c-0.4,0.9-1.4,1.8-1.3,2.6c0.9,7.5-5.7,11.3-8.4,17c-2.8,6.1-6.6,11.8-10.7,17.2
		c-6.3,8.4-12.6,16.7-19.8,24.2c-3.1,3.2-8.5,4-12.7,6.2c-1.3,0.7-2.3,2.2-3.4,3.4c-1.4,1.5-2.6,3.1-3.9,4.7
		c-7.3,9.2-15.5,17-26.8,21.2c-2.4,0.9-3.9,4.3-6.3,5.3c-15.6,6.7-31.1,12.8-48.6,13.6c-16,0.8-31.8,0.3-47.5-2.3
		c-17.1-2.8-33.2-8.7-48.9-16c-22.8-10.6-41.3-26.9-59.6-43.6c-10.8-9.9-19.7-21.1-27.9-33c-12.8-18.6-17.5-39.6-19.2-61.6
		c-2.1-26.1,2.3-51,12.2-75.1c1.8-4.4,4.8-8.4,7.4-12.4c6.4-9.7,14-18.3,21.9-26.8c10.8-11.6,23.4-21,36.2-29.8
		c14.5-10,30.9-16.9,49.1-17.7c3.8-0.2,7.7-0.1,11.4,0.5c1.2,0.2,3.1,3.3,2.7,3.9c-1.5,2.7-3.3,6.1-5.9,7.3
		c-10.6,4.8-21.6,8.5-32.2,13.3c-16.4,7.5-30.3,18.8-43.1,31.4c-11.3,11.2-20.4,24.2-27.5,38.3c-6.8,13.6-8.3,28.9-10.8,43.8
		c-4.2,24.8-0.3,48.8,8.1,71.9c3.6,9.7,9.9,19,16.9,26.8c13.2,14.8,28.7,27.4,46.6,36.3c15.3,7.6,31.1,13.9,48.2,17.1
		c17.3,3.3,34.7,4.1,52.1,3.1c17.3-1,33.1-7.7,48.8-14.8c3.3-1.5,7.4-1.6,10.5-3.3c4-2.2,7.5-5.3,10.9-8.4
		c9.7-8.9,19.5-17.6,28.5-27.1c3.8-4,5.2-10,8.3-14.7c13.9-20.6,25.2-42.3,31.8-66.4c8.8-31.8,4.4-61.8-10.8-90.7
		c-12.7-24.1-32.5-38.9-57.8-47.5c-6.8-2.3-13.4-4.9-20.3-6.9c-5-1.5-10.3-2.4-15.5-3.1c-6.7-1-13.5-2.1-20.3-2.3
		c-8.1-0.3-16.2-0.2-24.2,0.8C729.6,324.1,723.4,320.5,719.1,311.8z"/>
	<path d="M345.7,908.2c1.6,0.1,3.5-0.1,4.9,0.5c10.2,4.4,20.8,8.1,30.5,13.5c14.8,8.4,23,22.1,26.7,38.5c1.9,8.6,2,17-0.3,25.6
		c-1.2,4.4,2.5,6,5.5,7.7c7.5,4.3,15.6,7.8,22.4,12.9c10.8,8.2,18.3,19.2,22.4,32.3c0.8,2.5,0.7,5.7-0.1,8.2
		c-2.4,7-6.5,13-12.5,17.5c-4,2.9-4.3,5.9-2.7,10.6c3.1,9,6,18.2,8.1,27.5c1.9,8.3-3.7,14.1-8.9,19.4c-12.6,12.7-18,12.3-30.8,9.7
		c2.2,7,4.8,14.6,6.7,22.3c0.7,2.7,2.1,6.7-2.1,8.1c-3.8,1.3-7.8-1.3-9.1-5.6c-0.8-2.7-1.2-5.4-1.6-8.2c-1.3-8.3-5.9-14.6-12.9-18.6
		c-6.4-3.7-13.2-7.2-20.3-9.3c-25.6-7.7-34.2-30.7-32.2-53.5c0.1-1.5,0.3-2.9,0.6-5.8c-9.9,5.6-19.5,2.3-29.8,1.5
		c0,3.6-0.4,7.2,0.1,10.7c2,13.8-3.3,24.5-14.6,31.8c-11,7.1-22.7,13-33.8,20.1c-11.4,7.3-20.2,17.2-25.9,29.8
		c-1.3,2.8-2.4,6.3-6.9,5.3c-4.4-1-4.2-4.5-4.1-7.7c0.5-13.6,6.3-25,14.5-35.4c6.8-8.6,15.4-15.1,24.7-20.7
		c7.3-4.4,14.5-8.8,21.5-13.6c6.9-4.7,12.5-10.4,11.6-20c-0.4-3.9-1.5-6.4-4.6-8.7c-8.5-6.4-16-14.1-18.9-24.4
		c-2.4-8.6-3.8-17.9-3.5-26.7c0.4-11.3,1.3-11.2-8.3-16.5c-0.8-0.5-1.9-0.8-2.4-1.5c-0.8-1-1.2-2.3-1.8-3.5c1.2-0.3,2.4-1,3.5-0.9
		c16.7,0.3,33.4-0.6,49.4-5.8c15.5-5,30.3-11.8,43.6-21.6c5.5-4,12.3-1.7,14.3,4.4c1,3,0.4,5.5-2.3,7.8
		c-10.4,9.3-22.5,15.2-35.5,19.6c-14.6,4.9-29.6,7.2-45,6.6c-0.8,0-1.6,0.1-2.9,0.2c0.2,3.3,0.5,6.4,0.5,9.5
		c0.1,6.3-0.2,12.6,0.1,18.9c1.1,21.2,22.6,36.2,43.2,31.6c10.3-2.3,18.4-6.8,24.9-14.7c5-6.1,4.5-13.7,4.9-20.9
		c0.5-10.2,0.2-20.5,0.4-30.8c0-1.9,1.2-3.8,2.2-6.7c7.1,8.1,9.8,16.7,9.8,26c0,12.5-1.5,24.8-5.5,36.8c-0.4,1.2-0.7,2.8-1.6,3.5
		c-5.7,4.3-7.3,10.6-7.9,17.1c-0.9,8.2-1.3,16.5-1.7,24.8c-0.2,4.3,1.9,6.8,5.9,8.7c10.7,4.9,21.3,10.1,31.6,15.8
		c3.8,2.1,7.3,5.4,10.1,8.8c3.3,3.9,6.8,4.7,11.4,3.5c0.3-0.1,0.7-0.2,1-0.2c21.9-1.4,25-22.8,20.6-36.1c-2-6.1-5.8-10.8-10.8-14.5
		c-4.4-3.3-3.8-6.2,0-10.4c6-6.8,11.6-14.2,16.4-21.9c1.5-2.4,0.7-6.9-0.3-10.1c-3.7-12.1-12.7-19.5-23.7-24.9
		c-7.6-3.7-15.1-7.3-20.5-14.5c-3.8-5.1-5.6-10.3-4.5-16.2c2.2-12.5-1.4-23.7-6.2-34.8c-3.1-7.1-9.1-11.4-16-14.4
		c-8.7-3.7-15.8-9.3-21.9-16.2C345.4,909.2,345.6,908.7,345.7,908.2z"/>
	<path d="M944.1,510c-0.2-6.1,4.6-9.9,11.4-9.9c12.6,0,24,4.6,35.7,8.5c22.4,7.5,42.2,19.5,60.4,34c9.1,7.2,16.1,17,23.9,25.8
		c5.1,5.7,10.2,11.3,14.7,17.4c5.2,7.1,9.5,14.9,14.7,22c11.9,16.3,21.7,33.7,29.8,52.1c6.8,15.3,13.2,30.8,18.9,46.5
		c3.5,9.7,5.8,20,8,30.1c2,8.9,3.8,17.9,4.5,27c0.7,8.9,0.5,18-0.6,26.9c-0.7,6.1-5.2,10.6-11.6,11.7c-1.4,0.2-4.3-2-4.7-3.6
		c-1.4-5.8-2.2-11.7-2.9-17.6c-2.1-19.2-5.8-38.1-13.2-56.1c-7.5-18.2-14.1-36.9-22.1-54.9c-4.8-10.7-11.6-20.5-17.4-30.7
		c-5.9-1.2-7.2-7-10.2-10.9c-5.2-6.6-8.9-14.4-13.9-21.1c-5.7-7.6-12-14.6-18.3-21.7c-8-8.9-15.9-17.9-24.5-26.2
		c-13.1-12.5-28.4-21.9-45-29.1c-10.9-4.8-22.2-8.7-33.5-12.6C943.8,516,944.1,513.1,944.1,510z"/>
	<path d="M542.8,1074.1c2.2,0.8,4.5,1.4,6.6,2.3c7.4,3.1,14.5,6.6,22,9.2c11.1,3.9,22.2,8.2,33.7,10.4c21.3,4,42.9,7.4,64.5,9.6
		c14.9,1.5,30,0.6,45,0.7c8.1,0,16.3,0.3,24.4-0.4c12.8-1.1,25.5-2.9,38.3-4.5c6.5-0.9,13.2-1.4,19.4-3.3
		c13.8-4.1,27.4-8.9,41.1-13.4c10.2-3.3,20.5-6.2,30.5-10c9.7-3.6,19.1-8.1,28.6-12.2c4.9-2.1,9.8-4.3,14.2-6.3
		c5.5,3,6,8.1,4.5,12.4c-1.5,4.1-5.1,7.5-7.8,11.2c-6.7,9.2-18,11-26.9,16.6c-0.9,0.5-2.2,0.3-3.4,0.4c-0.9,0.1-2-0.3-2.8,0.1
		c-13,6.1-25.9,12.6-39.1,18.2c-4.6,2-9.3,5.8-15.2,3.5c-0.7-0.3-1.9,0.5-2.7,1.1c-7.8,5.9-17.3,6.8-26.2,7.6
		c-23.6,2.3-47.3,3.3-71,4.6c-8.6,0.5-17.4,1-25.9,0c-15.7-1.8-31.3-4.6-46.9-7c-8.4-1.3-16.9-1.8-25-3.9c-10.6-2.6-21-6.1-31.3-9.7
		c-8.9-3.1-18-6.1-26.3-10.4c-7.7-4-15-9.2-21.6-14.9c-2.2-1.9-1.5-7-2.1-10.6C541.8,1074.9,542.3,1074.5,542.8,1074.1z"/>
	<path d="M504.8,541.6c6.9-0.1,10.5,2.4,12.5,7.8c0.1,0.2,0,0.3,0.1,0.5c1.2,2.4,4,5.6,3.3,7.1c-1,2.2-4.6,3.2-7.1,4.8
		c-16.4,10.3-31.2,22.5-44.6,36.5c-3.7,3.9-8.5,6.7-12.2,10.6c-6.9,7.3-13.2,15.2-20.1,22.6c-9.8,10.6-17.9,22.5-25.7,34.6
		c-10.3,16.1-20.2,32.4-27,50.4c-6.1,16.1-12.7,32.1-18.1,48.5c-4.1,12.4-6.8,25.2-9.5,38c-1,4.9,0,10.2-0.4,15.3
		c-0.2,2.4-1.5,4.6-2.3,6.9c-2.3-1.7-5.5-3-6.6-5.3c-1.7-3.9-1.9-8.4-2.9-12.5c-0.8-3.3-2.7-6.5-2.9-9.8c-1-11.7,2.4-22.8,5.3-33.9
		c3.2-12.5,6.6-25,10.5-37.2c2.4-7.6,5.4-15,8.9-22.2c5.9-12.4,11.8-24.9,18.9-36.6c7.7-12.8,16.6-24.8,25.1-37.1
		c14.6-21,31.3-40.2,50.5-57c11.8-10.4,24.9-19.4,37.6-28.8C500.4,543,503.5,542.2,504.8,541.6z"/>
	<path d="M750,503.5c-9.9,0-19.6,0-29.8,0c0,5.5-0.3,10.8,0.1,15.9c0.6,8.8-3.1,16.3-11.4,20.3c-9.6,4.6-19.2,9.4-29.2,12.9
		c-12,4.2-23.9,8.2-34.9,14.8c-2.5,1.5-6.1,1.8-9.1,1.8c-2.2,0-6.3-1.7-6.3-2.4c0.2-2.8,1-6,2.8-8c7.4-8.6,18-12.2,28.1-16.6
		c13.5-5.9,26.8-12.2,40.2-18.3c4.6-2.1,6.5-6,6.6-10.9c0-4.1,0.2-8.2-0.2-12.3c-0.2-1.7-1.5-3.8-2.9-4.9c-17-12.5-21-30.4-20.4-50
		c0.3-8.1,1.5-16.1,2.3-24.8c2.3,0.4,4.4,0.1,5.2,1c3,3.5,6.5,2.7,10.1,1.8c8.8-2.3,17.7-4.7,26.4-7.2c4.7-1.3,7.8-4.2,8.5-9.3
		c0.2-1.3,0.8-2.5,1.2-3.8c1-2.9,1.8-6.2,5.9-5.1c4.2,1,6.3,4.6,5.6,8.2c-1.4,7.1-3.6,14.2-6.2,21c-1.4,3.9-4.9,3.3-7.7-0.4
		c-13.2,3.1-26.1,6-39.6,9.1c-0.4,13.7-2,28.4,5.6,41.8c8.1,14.3,26.9,20,43.9,13.5c15.2-5.8,22.9-17.2,24-33
		c0.9-12.3,1-24.6,1.4-36.9c0.1-2.1,0.4-4.3,0.6-6.6c2.2-0.3,4.3-1.2,6-0.7c1.9,0.7,4.9,2.6,4.9,4.1c0.2,13.6,0.3,27.2-0.6,40.7
		c-0.8,13.2-4.2,25.5-15.4,34.5c-1.9,1.5-2,6-2.1,9.1c-0.2,5.4,0,10.9,0.5,16.3c0.1,1.3,1.8,3,3,3.4c4.8,1.3,9.8,1.9,14.6,3.1
		c18.9,4.8,34.6,15.2,48.7,28.2c1.5,1.3,1.2,4.5,1.7,6.9c-2.9,0-6.4,1.1-8.7-0.1c-7-3.7-13.1-9.4-20.4-12.3c-10-4-20.7-6.6-31.3-9
		c-10-2.3-20.3-8.4-20.7-21.3C751,512.9,750.4,507.8,750,503.5z"/>
	<path d="M687.4,512.4c-4.7-1.5-9.8-2.2-13.9-4.6c-12.2-7.3-24.3-14.9-36-23.1c-8.5-5.9-8.7-12.3-4.4-21.8
		c5.2-11.5,11.8-22.4,16.3-34.1c6.4-16.6,12.5-33.3,22-48.4c5.3-8.3,12.1-15.8,21.8-19c9.5-3.2,19.3-6.4,29.2-7.8
		c6.1-0.9,12.8,0.9,19,2.6c7.6,2.1,15.4,4.4,22.2,8.4c18.9,11,31.3,28.3,40.2,47.7c8.1,17.6,15.1,35.8,22,53.9
		c3.7,9.6,0.2,16.8-10.2,23.7c-1.5,1-3.1,2-4.3,3.3c-7.3,8.3-17.2,11.8-27.2,15c-3.2,1-6.8,0.9-10.2,0.6c-1-0.1-2.1-2.5-2.5-4
		c-0.6-2.4-0.8-4.6,2.4-6.1c14.6-6.9,26-17.8,35.6-30.5c1.3-1.8,2-5.1,1.3-7.1c-4.2-11.5-8.7-23-13.6-34.2
		c-7.1-16.4-16-31.7-28.9-44.3c-5.4-5.2-11.8-8.7-19.1-10c-9.6-1.7-19.1-3.9-28.8-4.6c-4.3-0.3-9,2.1-13.1,4
		c-9.8,4.6-21.1,7.2-26.6,18.1c-3.9,7.8-7.8,15.6-11.2,23.7c-5.4,12.6-10.1,25.5-15.6,38.1c-2.3,5.3-5.7,10.1-8.9,15
		c-1.9,3-2.3,5,1.1,7.4c9,6.2,17.6,13.1,26.7,19.1c7.4,4.9,15.3,8.8,23,13.3c0.7,0.4,1.6,1.6,1.5,2.2c-0.2,0.9-1.1,2.1-1.9,2.3
		c-2.4,0.5-4.9,0.5-7.3,0.8C687.6,512,687.5,512.2,687.4,512.4z"/>
	<path d="M336.3,908.8c-4.1,2.2-8,4.6-12.2,6.4c-17.5,7.3-35.6,13.5-52.6,21.8c-9,4.4-16.9,11.6-24.4,18.6
		c-6.4,5.9-8.4,14.5-9.9,22.9c-0.3,1.7,0.3,3.6,0.9,5.3c4.3,13.6,3.3,26.7-4.7,38.6c-2.6,3.8-6.6,6.9-10.3,9.8
		c-7.2,5.6-14.8,10.6-20,18.4c-8.2,12.2-7.2,25.4-5.2,39c2.2,14.5,12,21.9,24.4,27.1c1.4,0.6,3,2.3,3.3,3.7c0.2,0.9-1.9,3.1-3,3.2
		c-3.3,0.3-6.9,0.4-10-0.6c-15.6-5.2-22-18.1-26.4-32.5c-3.9-12.9-3.4-26-0.6-39c2.7-12.9,10.4-22.4,20.5-30.4c3.8-3,7.5-6,11.3-9
		c9-7.1,12.5-16.4,9.4-27.4c-1.7-6-1.8-11.7-0.2-17.6c3.4-12.7,9.2-23.9,19.5-32.3c19.4-15.9,41.4-26,66.1-29.6
		C319.9,903.8,328.1,903.9,336.3,908.8z"/>
	<path d="M1221.5,827.5c1.5-8.2,2.9-15.1,4.1-22.1c1.8-10.8,4.2-21.6,5.2-32.5c1.9-20.9-1.3-41.4-6.1-61.7
		c-4.4-18.7-11.1-36.6-18.3-54.3c-0.9-2.3-3.3-4.9-0.3-7.1c4-3,9.3-2.8,11.9,1c4.5,6.5,9,13.2,12.1,20.5
		c8.5,20.3,14.5,41.4,17.8,63.1c2.7,18.4,3.7,37-1.2,55.3c-2.4,9.2-4.8,18.5-8.3,27.2c-1.6,3.9-5.9,7-9.4,9.8
		C1227.5,827.9,1224.8,827.3,1221.5,827.5z"/>
	<path d="M353.5,625c-4.9,5.2-9.8,10.4-14.7,15.6c-0.3-0.3-0.7-0.5-1-0.8c2-3.6,4.2-7.2,6.1-10.9c2-3.9,3.3-8.4,5.9-11.7
		c8.7-11.1,17.6-21.9,27-32.5c7.6-8.6,15.8-16.6,23.9-24.6c4.3-4.2,9.2-7.8,13.5-12c3.3-3.2,5.9-7.3,9.4-10.2
		c17.2-14.1,34.1-28.6,55-37.2c4.1-1.7,8.7-2.4,13.1-3.4c4.3-0.9,4.6,2.2,5.4,5.2c1,3.4,0,5.3-2.9,7c-7.5,4.3-15.1,8.3-22.3,13.1
		c-8.3,5.5-16.2,11.6-24.1,17.6c-10.6,8.1-21.2,16.4-31.4,24.9c-4.5,3.8-8.2,8.6-12.5,12.8c-5.1,5.1-10.5,9.8-15.5,15
		c-5.4,5.6-10.5,11.5-15.8,17.2c-5,5.3-10.1,10.5-15.3,15.5c-0.7,0.7-2.2,0.4-3.4,0.6C353.9,625.8,353.7,625.4,353.5,625z"/>
	<path d="M667.8,1191.7c-4.2,0.8-8.3,2.4-12.5,2.3c-18.4-0.5-36.8-0.8-54.5-6.6c-17.3-5.7-33.9-12.9-47.5-25.4c-2-1.8-4-4.3-4.7-6.8
		c-0.5-1.9,0.4-5.5,1.9-6.4c1.7-1,5.4-0.8,7,0.5c14.4,11,31,18,47.3,25.3c14.2,6.4,29.8,8.8,45.3,11.2c5.9,0.9,11.7,2.7,17.6,4.1
		C667.7,1190.5,667.7,1191.1,667.8,1191.7z"/>
	<path d="M1285.8,863c-0.2,1.4-0.4,2.8-0.7,4.5c-4-1.4-7.6-2.7-11.8-4.2c1.7-4.3,3.2-8,4.8-11.8c2.1-4.9,4.2-9.8,6.4-14.7
		c2.3-5.1,10.2-4.4,13.7,0.5c4.3,6.3,1.2,11.3-1.1,16.7c-0.7,1.7-1.9,3.2-2.4,4.9C1293.3,863.9,1289.5,863.3,1285.8,863z"/>
	<path d="M412.1,506.7c-3.1-2.1-6.7-3.3-7-5.1c-0.5-3.1,0-7.2,1.7-9.8c3.4-5.2,7.7-9.9,11.9-14.5c2.8-3.1,9.5-3.2,11.8-0.7
		c2.8,3.1,2.2,9.6-0.8,12.7c-4.1,4.2-8,8.7-12.1,13C416.1,503.8,414.3,504.9,412.1,506.7z"/>
	<path d="M1315.7,789.6c-0.6,2.5-1,5.1-2,7.5c-3.1,8-7.4,9.8-15.8,7.4c-2.8-0.8-4-2-3.5-4.9c1.2-6.5,2.3-13,3.8-19.4
		c0.8-3.5,5.3-5.2,8.9-3.9C1312.9,778.4,1315.4,782.6,1315.7,789.6z"/>
	<path d="M598.4,1057.7c-11.9-1.4-20.6-6.4-28.4-12.9c-2.5-2.1-3.6-6.4,0.2-8.6c2-1.1,5.5-0.5,7.9,0.4c7.3,2.8,14.3,6.2,21.5,9.1
		c4.2,1.7,4.5,5.2,3.4,8.3C602.3,1055.8,599.4,1056.9,598.4,1057.7z"/>
	<path d="M754.4,411.5c0-3.3-0.4-6.7,0.1-10c0.4-2.2,2.2-4.2,3.3-6.2c2.4,1.6,6.3,2.9,6.9,5c1.4,5,1.6,10.5,1.7,15.7
		c0.1,5.8-0.5,11.6-0.6,17.4c-0.1,3.7-2.2,5-4.5,2.4c-2.9-3.1-5.6-7-6.6-11C753.6,420.7,754.5,416,754.4,411.5z"/>
	<path d="M714.1,1183.2c6.7-1.2,13.2-2.3,19.7-3.7c4.2-0.9,7.4,0.3,9.1,4c1.9,4.1,0,8.6-3.7,10.7c-5.5,3.1-11.2,4.9-17.5,2.5
		C714.3,1194,712.6,1191.2,714.1,1183.2z"/>
	<path d="M692.4,1060.8c6.1-1.4,11.6-3,17.3-4.1c7-1.4,10.5,0.8,12.1,7c1,3.8-2.2,8.1-7.5,10.2c-8.6,3.4-18.1-2.5-21.5-8.6
		C692.2,1064.4,692.6,1062.8,692.4,1060.8z"/>
	<path d="M1181.1,589.9c3.5,1.4,8,1.9,10.4,4.4c5.2,5.4,4.8,12.8,3.9,19.7c-0.5,3.5-7.5,5.1-11,3.2c-3.9-2.2-5.9-5.3-5.7-9.8
		c0.2-5.4,0.3-10.9,0.4-16.3C1179.9,590.7,1180.5,590.3,1181.1,589.9z"/>
	<path d="M636.6,1055.3c5.7,0,12.3,0,18.8,0c7.8,0,12.3,5.9,9.2,12c-1.4,2.7-10.2,6-13.9,4.5c-4.5-1.9-8.7-4.4-12.7-7.1
		c-1-0.6-0.8-3.1-1.1-4.7C636.7,1058.5,636.7,1056.9,636.6,1055.3z"/>
	<path d="M319.3,675.6c2-0.1,3.7,0,5.3-0.3c5.7-1.3,12.8,4.8,10.7,10.2c-1.7,4.3-5.5,8.6-9.5,10.8c-2.8,1.5-8,0.2-11.1-1.6
		c-1.5-0.9-1.4-6.1-0.5-9C315.2,681.8,317.6,678.5,319.3,675.6z"/>
	<path d="M314.8,736.1c-0.6,7-5,12.3-10.6,13.8c-3.9,1.1-9.2-2.8-9-6.8c0.1-3.3,0.5-6.6,1.2-9.8c0.9-4.3,4.2-7.2,8.1-7.3
		c2.4,0,5.1,2.8,7.2,4.8C313.3,732.5,314.1,734.9,314.8,736.1z"/>
	<path d="M1147.6,545.7c9.1-1.8,13.9,6.4,14.6,13c0.1,1.3-1.8,3.4-3.2,4.1c-4.3,2-7.8-0.6-10.7-3.3
		C1145.2,556.6,1145.3,551.9,1147.6,545.7z"/>
	<path d="M473.2,467.2c-8.8-0.6-13.6-4.7-13.1-9.7c0.3-2.6,5.5-6.8,8.3-6.7c4.5,0.3,11,6.7,9.9,10.8
		C477.6,464.2,474.4,466,473.2,467.2z"/>
	<path d="M729.5,477.6c-3.8-1.4-7.8-2.5-11.4-4.2c-0.9-0.4-1-2.6-1.5-3.9c1.4-0.4,3-1.5,4.1-1.1c7.5,3,14.7,3.8,21.7-1.3
		c0.6-0.5,2.8-0.1,2.9,0.4c0.3,1,0.3,2.7-0.3,3.4C740.8,475.3,735.7,477.2,729.5,477.6z"/>
	<path d="M332.7,1026.7c-0.1,3.1-1.2,6-5.1,7.3c-8.9,3.1-18,1.9-21.6-2.6C314.6,1029.9,323.4,1028.4,332.7,1026.7z"/>
	<path d="M341.9,1002.6c-0.1,0.7,0.3,2.5-0.4,3.2c-1.6,1.5-3.6,3-5.6,3.3c-1.1,0.1-2.9-2.3-3.5-4c-0.6-1.8-0.6-4.1,0.1-5.8
		c0.9-2.1,2.9-3.8,4.4-5.6c1.7,2,3.4,3.8,4.9,5.9C342.3,1000.1,341.9,1001.2,341.9,1002.6z"/>
	<path d="M754.2,441.7c-2.6,3.2-4.1,7.2-6.2,7.5c-4.1,0.6-5-3.6-5.1-6.9c-0.1-3.5,1.3-7.1,5.5-6.5
		C750.2,436.1,751.7,439.1,754.2,441.7z"/>
	<path d="M304.7,1007c0.5,3.8-1.3,5.9-4.8,6.1c-4,0.2-4.9-2.8-4.9-6c0-3.5,0.9-7.5,4.9-7.2c2.2,0.2,4,4,6,6.2
		C305.5,1006.5,305.1,1006.7,304.7,1007z"/>
	<path d="M716.7,445.5c-1.2,4.2-1.8,7.4-5.8,7.9c-3.3,0.3-4.8-1.8-4.9-4.9c-0.1-4.5,2.6-8.9,5.4-8
		C713.5,441.1,714.9,443.8,716.7,445.5z"/>
	<path d="M1174,1072.2c5.8,6.3,5.1,14.3,4.8,22c-0.2,5,1.9,6.5,6,8c13,4.5,26.3,8.5,38.8,14.3c12.6,5.8,23.4,14.7,32.3,25.5
		c1.5,1.9,2.6,4.2,3.4,6.6c1.3,4-0.4,5.9-4.5,5c-2-0.5-4.1-1.6-5.4-3.1c-14-16.3-32.1-25.5-52.8-30.1c-5-1.1-10.1-2.4-14.8-4.5
		c-3.4-1.5-6.9-3.8-9-6.7c-5.6-7.7-10.1-16.1-8-26.3c0.3-1.6,0.2-3.2,0.2-4.5c-10.1,0-19.8,0-29.6,0c0.2,3.2,0.1,6.5,0.7,9.6
		c2.4,10.9-3.3,18-11.6,22.9c-12.8,7.6-25.8,15.1-39.4,20.9c-9.3,4-16.1,11.4-24.9,15.8c-1.7,0.8-4.2,1.8-5.6,1.2
		c-2.6-1.2-2.4-3.8-1.1-6.4c4.6-9.2,11.4-16.5,19.8-22c9.6-6.3,19.9-11.4,29.6-17.5c4.7-3,9-6.8,13.3-10.4
		c5.5-4.6,6.6-10.9,5.8-17.7c-0.2-1.6-1.4-3.4-2.7-4.4c-11.5-9.1-18.6-20.7-20.7-35.3c-0.5-3.6-1.3-6.4-4.6-8.7
		c-2.9-2.1-4.7-5.5-7-8.4c-2.4-3.1-4.1-6.3-7.9-8.5c-2.4-1.4-3.5-6.2-4.1-9.6c-2.4-12,1.5-23,6.8-33.5c3.1-6.1,7-11.9,11.1-17.5
		c7.1-9.6,18-13,28.7-15.9c8-2.1,16.4-2.4,24.6-3.5c9-1.1,15.8,3.5,22.6,8.6c1.7,1.3,4.4,2.4,6.3,2.1c6.8-1.1,12.6,0.9,17.7,5
		c16.9,13.3,24.2,31,23,52.4c-0.5,9-4,16.8-9.9,23.4c-3.7,4.1-8.2,7.6-12.2,11.6c-1.4,1.5-2.6,3.4-3.3,5.4
		C1184.8,1054.8,1184.9,1058.7,1174,1072.2z M1191.1,1025.9c0.6,0.1,1.2,0.1,1.8,0.2c5.8-8.8,11.4-17.8,11.1-29
		c-0.4-16.4-7.3-29.8-18.8-41.1c-2.6-2.5-5-4.1-8.7-3.4c-5.2,0.9-9.1-0.9-12.3-5.5c-3.4-4.9-8.5-6.9-14.8-6.4
		c-9.5,0.7-18.7,2.1-27.7,5.6c-10.7,4.1-20.5,9.7-28.1,18c-7.3,8-13,28-6.6,40.1c2.5,4.8,6.4,8.9,9.6,13.3c0.6-0.3,1.2-0.6,1.8-0.9
		c-0.4-3.2,0.2-7-1.4-9.3c-1.6-2.4-5.2-3.6-4.7-6.9c4.2-1.3,7.9-2.3,11.5-3.5c15.4-5.1,28.1-14.9,41.3-23.8
		c9.6-6.5,16.3-5.4,24.1,3.3c6.9,7.7,12.3,16.9,22.9,20.7c3.7,1.3,3.5,4.2,0.4,7.2c-0.6,0.6-1.4,1.6-1.4,2.4
		C1191,1013,1191.1,1019.4,1191.1,1025.9z M1158.1,981.9c-3.1,2.5-5.7,4.6-8.2,6.7c-9.4,8.3-20.8,13.2-32.3,17.5
		c-7,2.6-7.4,1.8-6.9,9.2c0.6,8.4,0.6,16.9,2,25.2c2.4,15,15.6,32,36.4,28.8c0.3,0,0.7-0.1,1-0.1c10.9-0.1,17.6-6.4,21.9-15.5
		c7.1-15,9.8-30.9,8-47.6c-0.5-4.5-2.1-7.5-6.4-9.7c-3.3-1.6-6.2-4.3-8.9-6.9C1162.4,987.5,1160.6,984.9,1158.1,981.9z"/>
	<path d="M1133.4,1045.6c2.1-0.3,3.6-0.6,5-0.7c5.4-0.3,10.8-0.6,16.2-0.7c1.3,0,2.9,0.5,3.6,1.3c0.4,0.5-0.2,2.6-1,3.3
		C1152.4,1053.2,1138.4,1051.6,1133.4,1045.6z"/>
	<path d="M1156.8,1014.4c0.2-2.8,0.8-6.5,5.3-6.8c4.3-0.2,4.8,3.3,4.9,6.6c0.1,5.1-1.9,8.1-5.5,7.9
		C1157.2,1021.9,1157.1,1018.5,1156.8,1014.4z"/>
	<path d="M1122,1016.5c0.2-0.5,0.5-2.6,1.4-4.2c1.4-2.3,3.9-2.6,5.3-0.4c1.4,2.3,2.5,5.2,2.5,7.9c0.1,2.4-1.4,4.9-4.7,4.5
		C1122.6,1023.9,1121.7,1021.3,1122,1016.5z"/>
</g>
</svg>
