<?xml version="1.0" encoding="utf-8"?>
<!-- Generator: Adobe Illustrator 27.4.1, SVG Export Plug-In . SVG Version: 6.00 Build 0)  -->
<svg version="1.1" id="Camada_1" xmlns="http://www.w3.org/2000/svg" xmlns:xlink="http://www.w3.org/1999/xlink" x="0px" y="0px"
	 viewBox="0 0 1500 1500" style="enable-background:new 0 0 1500 1500;" xml:space="preserve">
<image style="overflow:visible;" width="1450" height="993" xlink:href="../../Library/CloudStorage/GoogleDrive-lucas.pretti@okfn.org/.shortcut-targets-by-id/0B79xBlVd-Nf6ZzMzUlZSTWwxV28/Open Knowledge All Team/Brand 2023/Illustrations/L 1500px - web transp/Icons/board.png"  transform="matrix(1 0 0 1 -2106 1417.5)">
</image>
<image style="overflow:visible;" width="1133" height="1032" xlink:href="../../Library/CloudStorage/GoogleDrive-lucas.pretti@okfn.org/.shortcut-targets-by-id/0B79xBlVd-Nf6ZzMzUlZSTWwxV28/Open Knowledge All Team/Brand 2023/Illustrations/L 1500px - web transp/Icons/books.png"  transform="matrix(1 0 0 1 -2106 1417.5)">
</image>
<image style="overflow:visible;" width="1357" height="1143" xlink:href="../../Library/CloudStorage/GoogleDrive-lucas.pretti@okfn.org/.shortcut-targets-by-id/0B79xBlVd-Nf6ZzMzUlZSTWwxV28/Open Knowledge All Team/Brand 2023/Illustrations/L 1500px - web transp/Icons/campagne.png"  transform="matrix(1 0 0 1 -2106 1417.5)">
</image>
<image style="overflow:visible;" width="845" height="1103" xlink:href="../../Library/CloudStorage/GoogleDrive-lucas.pretti@okfn.org/.shortcut-targets-by-id/0B79xBlVd-Nf6ZzMzUlZSTWwxV28/Open Knowledge All Team/Brand 2023/Illustrations/L 1500px - web transp/Icons/case-study.png"  transform="matrix(1 0 0 1 -2106 1417.5)">
</image>
<image style="overflow:visible;" width="1265" height="951" xlink:href="../../Library/CloudStorage/GoogleDrive-lucas.pretti@okfn.org/.shortcut-targets-by-id/0B79xBlVd-Nf6ZzMzUlZSTWwxV28/Open Knowledge All Team/Brand 2023/Illustrations/L 1500px - web transp/Icons/collaboration.png"  transform="matrix(1 0 0 1 -2106 1417.5)">
</image>
<image style="overflow:visible;" width="1339" height="1035" xlink:href="../../Library/CloudStorage/GoogleDrive-lucas.pretti@okfn.org/.shortcut-targets-by-id/0B79xBlVd-Nf6ZzMzUlZSTWwxV28/Open Knowledge All Team/Brand 2023/Illustrations/L 1500px - web transp/Icons/connect-community.png"  transform="matrix(1 0 0 1 -2106 1417.5)">
</image>
<g>
	<path d="M464.8,721.7c0-0.2-0.2-0.9-0.1-0.7c3.1,0.5,6.2,1.6,9.2,1.3c23.3-1.9,46.7-4.1,70-6.2c21-1.9,42-3.8,63-5.7
		c15.7-1.4,31.4-2.9,47.1-4.2c22.2-1.8,44.5-3.8,66.8-5.2c11.4-0.7,22.9-0.5,34.4-0.4c11.1,0.1,22.2,1.2,33.2,0.6
		c19.6-1,39.1-3.2,58.6-4.3c8.1-0.5,16.3,0.8,24.4,1c4.6,0.1,9.2-0.3,13.7-0.1c2.3,0.1,4.6,1.1,6.8,1.7c0,0.5,0,1-0.1,1.5
		c-1.6,0.4-3.2,1-4.9,1.2c-18.1,2.7-36.2,5.6-54.4,7.8c-9.5,1.2-19.2,1-28.9,1.6c-13.6,0.8-27.3,1.9-40.9,2.6
		c-14.4,0.7-28.9,0.7-43.2,1.6c-23.9,1.6-47.7,3.4-71.5,5.7c-37.6,3.7-75.1,8-112.7,11.9c-19.4,2-38.8,3.3-58.2,5.3
		c-2.6,0.3-5.9,1.8-7.5,3.9c-8.9,11.4-17.4,23-25.9,34.7c-10.5,14.4-20.3,29.3-31.5,43.2c-25.8,32.2-52.3,63.7-78.1,95.8
		c-10.1,12.5-19.1,25.9-28.7,38.8c-5.9,7.9-12.2,15.6-18.6,23.8c8.8,2.6,17.1,5.6,25.6,7.5c23.7,5.1,47.6,9.9,71.4,14.4
		c3.1,0.6,6.8-0.5,10-1.5c21.8-6.8,43.6-13.6,65.3-20.8c15.1-5,29.8-10.9,44.8-16.1c13.2-4.7,26.4-9.1,39.7-13.6
		c12.9-4.3,25.8-8.5,38.7-12.8c8.2-2.8,16.3-6.1,24.6-8.8c8.5-2.8,17.2-5,25.7-7.6c17.7-5.5,35.5-10.9,53.1-16.8
		c25.2-8.4,50.2-17.5,75.4-25.9c17.9-6,36-11.4,54-16.9c20.5-6.3,41-12.3,61.5-18.6c20.4-6.3,40.8-12.5,61-19.2
		c14.3-4.7,28.2-10.6,42.5-15.3c20.2-6.7,40.6-12.7,60.9-19.1c12-3.8,23.9-7.9,35.9-11.6c18.1-5.6,36.2-11.1,54.4-16.4
		c17.2-5,34.4-9.8,51.7-14.5c18.3-4.9,36.7-9.4,55-14.2c14.1-3.7,28.1-7.5,42.2-11.2c9.8-2.6,19.4-6,29.4-7.6
		c7.5-1.2,15.4-0.6,22.6-3.5c1-0.4,1.7-1.8,2.7-2.4c1.4-0.9,3-1.7,4.6-2c0.4-0.1,1.2,1.7,1.7,2.5c10-0.1,18.2-4.7,26.1-10.7
		c4.2-3.2,9.4-5,13.9-7.8c1.9-1.1,3.3-3.1,4.9-4.6c-1.7-1.5-3.1-3.6-5-4.4c-19-7.4-37.9-15.3-57.3-21.6c-24-7.9-48.4-14.4-72.7-21.5
		c-19.3-5.6-38.6-11.3-57.9-16.8c-33.6-9.6-67.2-19-100.7-28.6c-12.9-3.7-25.8-7.5-38.7-10.9c-25.2-6.5-50.5-12.9-75.8-19.1
		c-27.4-6.7-55-13-82.5-19.4c-22.3-5.2-44.6-10.3-66.9-15.5c-20.9-4.9-41.7-10.1-62.6-15.1c-17.6-4.2-35.3-8.1-52.9-12.5
		c-10.8-2.7-21.4-6.2-32.1-9c-7.5-2-15.1-3.7-22.7-5.3c-13.3-2.9-26.6-5.7-39.9-8.4c-14.8-2.9-29.8-5.2-44.5-8.6
		c-13.1-3-25.9-7.3-39-10.7c-8.7-2.3-17.5-3.9-26.3-6c-13.9-3.4-27.7-7.1-41.6-10.6c-1.9-0.5-3.8-0.9-6.2-0.5
		c3.2,3.3,6.3,6.7,9.5,9.9c15.3,15.4,30.5,31,46.1,46.2c9.8,9.6,20,18.7,30.4,27.7c8.3,7.2,17.1,13.7,25.6,20.6
		c11,9,21.4,18.9,33.1,27c13.2,9.2,27.6,16.6,41.2,25.1c6.9,4.3,11.9,10.7,12.9,19c0.6,5.6-2.7,7.7-7.6,5
		c-14.9-8.2-30.2-15.9-44.1-25.6c-14.4-10-27.4-22-40.8-33.4c-12.1-10.2-24.2-20.3-35.9-30.9c-15-13.7-30.4-27.1-44.2-41.9
		c-14.3-15.2-27.1-31.9-40.1-48.2c-2.4-3.1-3.1-7.5-4.4-10.9c1.7-3.1,3.2-5.9,4.8-8.8c-0.2-0.6-0.3-1.1-0.5-1.7
		c5.7,0.6,11.5,0.6,17,2c37.6,9.4,75.1,19.4,112.7,28.5c21.8,5.2,44.1,8.4,65.9,13.4c25,5.7,49.6,12.7,74.6,18.8
		c32.6,7.9,65.3,15.4,98,23c27.8,6.5,55.7,12.9,83.5,19.4c28.8,6.8,57.7,13.3,86.4,20.4c33.4,8.3,66.7,16.9,99.9,26
		c55.8,15.3,111.5,31.1,167.2,46.8c28.6,8.1,57.3,16.2,85.7,25.1c15.3,4.8,30.2,11.4,45.1,17.3c19.9,7.9,22.8,28.2,8.1,43.1
		c-7.5,7.6-16.9,11.3-27.4,13.5c-12.3,2.6-24.2,6.9-36.3,10.4c-14.1,4.1-28.2,8.3-42.4,12.3c-13.6,3.8-27.2,7.3-40.9,10.9
		c-12.5,3.3-25,6.5-37.5,10c-13,3.6-25.9,7.2-38.8,11c-14.5,4.3-29,8.6-43.4,13.2c-7.7,2.5-15.2,5.8-22.9,8.4
		c-4.4,1.5-9,2.2-13.4,3.4c-12.2,3.4-24.4,6.7-36.5,10.5c-9.2,2.9-18.1,6.6-27.2,9.9c-3,1.1-5.9,2.1-9,2.9c-3.9,0.9-8,1.1-11.7,2.5
		c-8,2.8-15.7,6.4-23.7,9.3c-7.1,2.5-14.5,4.4-21.7,6.6c-17.7,5.6-35.3,11.3-53.1,16.8c-37.2,11.4-74.6,22.4-111.7,34.2
		c-34.2,10.9-68.1,22.9-102.2,34.2c-17.7,5.9-35.5,11.2-53.2,17c-20.5,6.8-41,13.9-61.5,20.7c-19.2,6.4-38.6,12.6-57.8,19.1
		c-13.5,4.6-26.8,10.1-40.4,14.4c-24.4,7.6-49,14.6-73.6,21.9c-1.7,0.5-4.1,0.7-5,2c-5.8,7.8-14,5.9-21.1,4.4
		c-19.9-4.1-39.7-8.4-59.2-14.1c-15.7-4.6-30.8-11-45.9-17.3c-5.9-2.5-10.4-7.3-13.9-13.3c-1.7-3,0.6-3.7,1-3.8
		c3.5-0.1,3.3-3.1,4.6-5.1c3.9-5.8,8-11.4,12.2-16.9c12.4-16.5,24.6-33.1,37.4-49.3c12.3-15.7,25.3-30.9,37.8-46.4
		c23.7-29.6,47.3-59.2,70.9-88.9c8.7-10.9,17.3-22,25.9-33c0.5-0.6,1.3-1.3,1.4-2C451.2,721.6,459.5,724.7,464.8,721.7z"/>
	<path d="M346.8,475.6c2.5,3.3,4.6,6,6.7,8.8c13.8,18.5,27.7,36.9,41.1,55.7c9.2,12.8,18,26,26.2,39.5c11.3,18.4,22.1,37,32.8,55.8
		c5.2,9.1,9.6,18.6,14.2,27.9c2.5,5.1,10,7.7,17.9,6.7c10.1-1.3,20.1-2.3,30.2-3.1c12.4-0.9,24.9-1.5,37.4-2.1
		c12.3-0.6,24.6-0.9,36.9-1.5c16.1-0.8,32.2-1.8,48.3-2.6c30.1-1.6,60.1-3.6,90.2-4.6c13.8-0.4,27.6,1.4,41.4,1.9
		c17.9,0.6,35.9,0.8,53.8,1.3c16.4,0.5,32.9,1.2,49.3,1.6c12.5,0.2,25-0.3,37.4-0.1c19.1,0.2,38.2,0.8,57.4,1.1
		c13.9,0.2,27.9,0,41.8,0.1c13.7,0.1,27.5,0,41.2,0.8c5.6,0.3,11-0.8,16.6-0.1c6.1,0.8,12.3,0.4,18.4,0.8c6.1,0.3,12.3,0.9,18.4,1.4
		c6.1,0.5,12.2,1.4,18.4,1.8c11.2,0.6,22.4,0.9,33.6,1.5c6.5,0.4,13,1.1,19.8,2.4c-1.6,0.7-3.3,1.4-5.3,2.3c1.1,0.7,2.2,1.4,3.3,2.1
		c-0.2,0.2-0.3,0.6-0.5,0.7c-16.2,7-32.9,4.6-49.8,3.2c-15.5-1.3-31-1.8-46.5-2c-23.9-0.3-47.9,0.1-71.8-0.1
		c-29.1-0.2-58.2-0.9-87.3-1.2c-23.8-0.2-47.6,0.2-71.4-0.3c-31.9-0.7-63.8-2.4-95.7-2.8c-21.1-0.3-42.2,1-63.2,1.7
		c-15.8,0.5-31.6,1-47.4,1.8c-12.4,0.6-24.9,1.9-37.3,2.6c-15.9,0.9-31.9,1.4-47.8,2.3c-23.9,1.3-47.7,2.7-71.9,4
		c2,9,4,17.1,5.7,25.3c0.4,1.8,0.2,4.1-0.6,5.7c-1.2,2.2-2.7,3.3-6,1.5c-7.6-4.4-11.2-10.9-12.7-19.1c-0.6-3.6-1.3-7.2-2.2-10.7
		c-0.7-3.1-1.4-6.3-5.8-6.3c-0.9,0-2-1.6-2.7-2.6c-7.2-10.8-14.4-21.6-21.4-32.5c-16.9-26.4-33.3-53.2-50.7-79.3
		c-13.4-20.1-27.9-39.4-42.2-58.8c-6.5-8.8-13.5-17.1-20.3-25.7c-0.5-0.6-0.5-1.7-0.5-2.5c-0.1-4.1-1.6-9,0.1-12.1
		c2.4-4.2,6.7-8.1,11.1-10.2c14.9-7.2,30.3-13.5,45.5-20.3c12.4-5.6,24.7-11.6,37.2-17c8-3.5,13.2-0.5,15.1,7.4
		c1.1,4.6-1,7.5-4.6,9.4c-5.3,2.7-11,4.8-16.3,7.4c-14.8,7.4-29.4,15.2-44.2,22.5C361.4,470,354.2,472.5,346.8,475.6z"/>
	<path d="M1053.4,835.9c-6.6,10.1-17.4,13.1-27.1,18c-8.4,4.2-16.3,9.4-24.6,13.8c-5.7,3-11.6,5.8-17.6,8.3
		c-20.1,8.1-40.4,15.6-60.3,23.9c-22.8,9.5-45.5,19.3-68,29.5c-18.3,8.3-36,17.7-54.2,26.2c-17.5,8.1-35.4,15.5-53,23.5
		c-15.5,7.1-30.8,14.8-46.2,22.2c-14.2,6.8-28.4,13.5-42.5,20.4c-26.4,13-52.6,26.1-79,39c-4.4,2.1-9.5,2.7-13.9,4.8
		c-6.6,3-12.9,6.8-19.5,10.1c-4.7,2.3-9.4,4.9-14.4,6.3c-2,0.6-5.7-1-7.2-2.8c-10.5-12.6-14.3-28.1-17.9-43.6
		c-1.7-7.4-3.3-15-4.4-22.5c-0.4-2.9,0.5-6.1,1.3-9c0.1-0.5,3.4-1,3.9-0.5c2.8,3.3,6.4,6.5,7.5,10.4c2.3,7.8,3,16,4.8,24
		c1.4,6.3,3.3,12.5,5.1,18.7c0.9,3.2,3.2,2.8,5.5,1.7c11.5-5.6,23-11.2,34.6-16.7c14.1-6.7,28.3-13.1,42.4-19.8
		c15.2-7.2,30.3-14.7,45.6-21.8c19-8.9,38.2-17.6,57.2-26.4c17.5-8.1,35-16.1,52.4-24.3c23.6-11.1,47.1-22.5,70.7-33.4
		c11.2-5.2,22.7-9.4,34-14.3c17.7-7.6,35.2-15.6,53-23c13.6-5.7,27.5-10.8,41.3-15.9c5.7-2.1,11.5-4.2,17.4-5.3
		c9.6-1.8,19.3-2.6,28.5-6.6c5.8-2.5,12.4-3.3,18.6-5.2c4.8-1.5,9.4-3.6,14.1-5.4C1045.6,838.7,1049.5,837.3,1053.4,835.9z"/>
	<path d="M357.2,670.1c-2.1,6.9-7.9,8.6-17.6,6.7c0.8,1.3,1.4,2.2,1.7,2.8c-4.4,2.2-8.4,5.1-13,6.5c-6.4,1.9-13,3-19.6,3.9
		c-21.8,3-43.4,0.1-65.2-1.1c-20.2-1.1-40.4-2.3-60.7-3c-18.6-0.7-37.2,0.2-55.7-1.4c-10.8-0.9-21.5-4.9-26.9-16.1
		c-0.7-1.4-1.1-3.1-1-4.7c0-0.6,1.7-1.7,2.5-1.7c3.4,0.4,6.8,1.7,10.1,1.6c17.7-0.5,35.4-1.8,53.1-2c15.3-0.2,30.6,0.3,45.9,1
		c24.4,1,48.8,2.7,73.3,3.4c15.2,0.4,30.5-1,45.8-0.4C338.9,665.8,347.7,668.4,357.2,670.1z"/>
	<path d="M628.1,731.7c2.4,2.9,5.2,5.2,6.5,8.2c2.2,5.1,0.8,9.7-3.3,14c-31.9,32.5-63.8,65-95.4,97.9
		c-21.9,22.9-43.2,46.3-64.8,69.5c-8.4,9.1-16.6,18.4-25.4,27.1c-10.6,10.6-21.7,20.8-32.8,30.9c-1.8,1.7-4.5,2.3-6.8,3.4
		c-0.5-0.6-1-1.3-1.5-1.9c6.2-7.7,12.3-15.4,18.5-23.1c7.8-9.6,16.7-18.4,22.8-29.4c1.6-2.8,5-4.6,7.3-7.1c2.4-2.6,4.5-5.6,6.8-8.3
		c9.3-11,18.7-21.9,28.1-32.8c9.8-11.3,19.5-22.6,29.5-33.8c8-9,16.1-18,24.4-26.8c4.1-4.4,9-8.2,13-12.7c5.5-6,10.4-12.5,15.8-18.6
		c1.7-1.9,3.9-3.3,5.9-4.9c0.5-0.4,1.2-0.7,1.6-1.2c5.2-5.9,10.3-11.9,15.5-17.8c1.3-1.5,2.8-2.7,4.2-4.1
		c7.9-7.8,15.7-15.6,23.7-23.3C623.2,735.1,625.2,733.9,628.1,731.7z"/>
	<path d="M312.4,587.9c1.1,2.2,1.9,3.9,2.8,5.8c-3.5,5.2-9.5,7.5-15.5,8.3c-9.5,1.3-19.1,1.6-28.7,1.5c-15.4-0.3-30.9-0.6-46.2-2.3
		c-14.3-1.6-28.5-4.1-42.4-7.9c-8.2-2.2-15.6-7.7-24.3-12.1c6-5.5,11.4-8.2,18.4-7.7c17.3,1.3,34.7,2.3,52.1,3.4
		c8.7,0.5,17.4,1.3,26.1,1.5c8.7,0.1,17.4-0.3,26.1-0.6c7.7-0.3,15.5-0.8,23.2-1c3.5-0.1,7,0.4,10.4,1c3.2,0.6,6.7,1.8,6.2,5.8
		C320.1,587.2,317,588.3,312.4,587.9z"/>
	<path d="M186.3,888.4c-9.3-0.8-18.7-1.4-28-2.4c-4.4-0.5-8.7-1.7-13.1-2.5c-5.3-1-8.7-4.6-9.7-9.4c-0.8-3.6,1.2-5.2,3.6-6.2
		c9.9-4.1,19.9-7.6,31.1-6.1c8.9,1.2,18,1,27,1.8c9.7,0.8,19.3,1.9,28.9,3.1c0.9,0.1,2.4,3,2,3.8c-1.1,2.3-2.7,5.2-4.8,6
		c-10.7,3.9-21.7,7.3-32.6,10.8c-1.4,0.4-3,0.2-4.5,0.3C186.3,887.8,186.3,888.1,186.3,888.4z"/>
	<path d="M504.7,526.6c0,0-0.9-1.2-2-2.7c9.7,4.2,14.1,13.1,20.2,20.3c9,10.7,17.3,22,26.9,32c16.4,17.1,35,31.7,54.9,44.6
		c2.5,1.6,5.1,3,7.6,4.7c0.6,0.4,0.8,1.4,1,1.6c-3.4,6.9-7.5,4.6-12.4,2.2c-16.2-7.8-30-19.1-43-31.2c-12.2-11.4-23-24.3-34.7-36.3
		c-8.5-8.8-15.3-18.6-19.1-30.3C503.7,530.4,504.3,529,504.7,526.6z"/>
</g>
</svg>
