<?xml version="1.0" encoding="utf-8"?>
<!-- Generator: Adobe Illustrator 27.4.1, SVG Export Plug-In . SVG Version: 6.00 Build 0)  -->
<svg version="1.1" id="Camada_1" xmlns="http://www.w3.org/2000/svg" xmlns:xlink="http://www.w3.org/1999/xlink" x="0px" y="0px"
	 viewBox="0 0 1500 1500" style="enable-background:new 0 0 1500 1500;" xml:space="preserve">
<image style="overflow:visible;" width="1450" height="993" xlink:href="../../Library/CloudStorage/GoogleDrive-lucas.pretti@okfn.org/.shortcut-targets-by-id/0B79xBlVd-Nf6ZzMzUlZSTWwxV28/Open Knowledge All Team/Brand 2023/Illustrations/L 1500px - web transp/Icons/board.png"  transform="matrix(1 0 0 1 -2106 1417.5)">
</image>
<image style="overflow:visible;" width="1133" height="1032" xlink:href="../../Library/CloudStorage/GoogleDrive-lucas.pretti@okfn.org/.shortcut-targets-by-id/0B79xBlVd-Nf6ZzMzUlZSTWwxV28/Open Knowledge All Team/Brand 2023/Illustrations/L 1500px - web transp/Icons/books.png"  transform="matrix(1 0 0 1 -2106 1417.5)">
</image>
<image style="overflow:visible;" width="1357" height="1143" xlink:href="../../Library/CloudStorage/GoogleDrive-lucas.pretti@okfn.org/.shortcut-targets-by-id/0B79xBlVd-Nf6ZzMzUlZSTWwxV28/Open Knowledge All Team/Brand 2023/Illustrations/L 1500px - web transp/Icons/campagne.png"  transform="matrix(1 0 0 1 -2106 1417.5)">
</image>
<image style="overflow:visible;" width="845" height="1103" xlink:href="../../Library/CloudStorage/GoogleDrive-lucas.pretti@okfn.org/.shortcut-targets-by-id/0B79xBlVd-Nf6ZzMzUlZSTWwxV28/Open Knowledge All Team/Brand 2023/Illustrations/L 1500px - web transp/Icons/case-study.png"  transform="matrix(1 0 0 1 -2106 1417.5)">
</image>
<image style="overflow:visible;" width="1265" height="951" xlink:href="../../Library/CloudStorage/GoogleDrive-lucas.pretti@okfn.org/.shortcut-targets-by-id/0B79xBlVd-Nf6ZzMzUlZSTWwxV28/Open Knowledge All Team/Brand 2023/Illustrations/L 1500px - web transp/Icons/collaboration.png"  transform="matrix(1 0 0 1 -2106 1417.5)">
</image>
<image style="overflow:visible;" width="1339" height="1035" xlink:href="../../Library/CloudStorage/GoogleDrive-lucas.pretti@okfn.org/.shortcut-targets-by-id/0B79xBlVd-Nf6ZzMzUlZSTWwxV28/Open Knowledge All Team/Brand 2023/Illustrations/L 1500px - web transp/Icons/connect-community.png"  transform="matrix(1 0 0 1 -2106 1417.5)">
</image>
<image style="overflow:visible;" width="1357" height="681" xlink:href="../../Library/CloudStorage/GoogleDrive-lucas.pretti@okfn.org/.shortcut-targets-by-id/0B79xBlVd-Nf6ZzMzUlZSTWwxV28/Open Knowledge All Team/Brand 2023/Illustrations/L 1500px - web transp/Icons/contact.png"  transform="matrix(1 0 0 1 -2106 1417.5)">
</image>
<g>
	<path d="M691.1,1020.6c-0.2-3.8-0.6-8.2-0.8-12.6c-0.4-9.6-0.7-19.2-1.1-28.8c-0.4-9.6-1.1-19.2-1.3-28.7
		c-0.6-25.1-1-50.2-1.4-75.3c-0.2-11.6-5.1-22-9.6-32.1c-5.5-12.3-12.9-23.9-20.2-35.3c-17.4-27.1-42.6-43.3-73.3-51.8
		c-6.2-1.7-12-4.6-17.9-7.2c-3.9-1.7-7.5-4-8.1-10.1c3.2-0.1,6.8-1,10.1-0.4c23,4.2,44.1,12.6,63.8,25.7
		c18.9,12.6,34.7,27.8,47.4,46.4c2.8,4,5.6,8,8.4,11.9c0-8.7,0.2-17.4-0.1-26.1c-0.2-7.3-0.6-14.7-1.5-21.9
		c-0.3-2.6-1.7-5.4-3.5-7.4c-15.7-17.9-32.2-34.9-52.3-48.1c-13.2-8.7-27.5-14.8-42.7-18.5c-12.7-3.1-25.5-6.6-38.4-8.3
		c-15.7-2-31.5-4.5-47.4-0.5c-2.9,0.7-5.9,0.9-8.9,1.3c-21.9,2.7-37.2,15.1-48.9,33.1c-5.9,9-9,19.2-13.3,28.9
		c-5.1,11.2,0.1,21.6,6.5,30.7c2.3,3.2,7.7,4.3,11.7,6.3c13.7,6.8,28.8,8.3,43.7,9.3c25.4,1.8,50.8,2.6,76.3,3.4
		c21.9,0.7,43.6,2.7,63.7,11.9c8,3.7,15.3,9,22.6,14c4.2,3,5.7,7.4,2.6,12.8c-1.7-1-3.4-1.9-5-2.9c-10-6.1-20.9-9.6-32.3-12.7
		c-14.4-3.9-29-3-43.5-4c-19-1.3-38.1-0.4-57.1-2c-17.3-1.5-34.7-4.1-51.6-8c-16.1-3.7-31.3-10.6-44-21.4
		c-10.5-9-14.6-21.3-14.9-35.2c-0.3-14.5,7.3-25.9,14.2-37.5c6.7-11.4,14.9-21.6,25.7-29.5c0.3-0.2,0.5-0.8,0.9-1.4
		c-1.1,0-1.9,0-2.7,0c-0.1-0.4-0.3-0.8-0.4-1.2c6.9-2.6,13.6-6.3,20.8-7.5c14.4-2.6,28.9-4.8,43.4-5.4c11-0.5,22.2,2.3,33.3,2.6
		c15.3,0.4,29.5,5.1,43.9,9.5c19.4,5.9,37.2,14.8,53.9,26.5c10.8,7.6,21,15.8,30.4,24.9c4.1,4,7.4,8.9,12,14.5c0-5.3,0.1-9.1,0-12.9
		c-0.3-15.6-0.6-31.2-0.8-46.8c-0.1-7.6,0.2-15.2-0.2-22.7c-0.1-1.7-2-4.2-3.6-4.8c-18.4-7.3-34.5-17.7-47.2-33.2
		c-18.3-22.3-24.3-46.8-15.4-74.5c1.7-5.3,3.8-10.6,6.3-17.2c-2.7-2.3-6.2-5.1-9.6-8c-3.4-2.9-7.2-5.6-9.9-9.1
		c-13.9-18.1-31.2-32.7-47.3-48.7c-2.4-2.3-4.4-4.9-6.1-6.9c-21.2,10.2-39.3,3.1-56-5.8c-6.2,5.7-12.5,11.1-18.3,17
		c-7,7-13.8,14.3-20.4,21.6c-1,1-1.4,3.1-1.2,4.5c1.2,9.7-0.4,18.7-6.5,26.6c-0.5,0.6-1.3,1.1-2,1.4c-13.6,5.1-31.6,2.5-34.7-15.9
		c-1.1-6.4-0.7-12.4,2.7-17.8c3.4-5.4,12.5-10,20.4-9.1c2.4,0.3,5.2-0.9,7.5-2.1c2.7-1.4,5.1-3.4,7.3-5.5c1.2-1.1,1.5-3.1,2.6-4.2
		c9.8-9.3,19.7-18.4,29.4-27.7c0.9-0.9,0.9-3.2,0.6-4.7c-1.6-7.3-4.5-14.3-1.9-22c4.7-13.9,15.5-20.5,28.7-24.4
		c9.4-2.8,18.7-1.7,28.1-0.1c0.2,0,0.3,0,0.5,0.1c15.4,2.9,32.8,23.6,32.1,38.9c-0.2,4.6-2,9.3-4.2,13.5c-1.4,2.8-1.5,4.3,0.9,6.2
		c9,7.6,17.9,15.3,26.8,23c11.9,10.3,23.7,20.7,35.6,31c2.6,2.3,5.4,4.4,8.3,6.3c0.8,0.5,2.6,0.9,3.1,0.4c3-2.7,5.7-5.6,8.5-8.5
		c0.7-0.7,1.1-1.8,1.9-2.1c8-3.6,16-7.1,24-10.6c4.6-2,9.2-3.8,13.7-6c8.7-4.2,18-5.4,27.3-3.8c11.8,2,23.4,5.4,35.8,8.3
		c8.8-24.3,16.5-50.5,28.4-73.5c-3.7-4.3-7.1-8.9-11-12.8c-6.7-6.7-5.6-14.8-3.6-22.4c2.3-8.8,9.3-14.3,16.5-19.8
		c5.2-4,10.7-5.4,16.7-6c3-0.3,6.5,0,9.2,1.3c12.1,5.4,22.1,13.1,25.4,26.9c1.5,6,0.6,11.4-2.5,17.1c-7,13.1-17.9,18.8-32.2,19.3
		c-1.1,0-2.8,1.7-3.3,2.9c-8.3,24-16.3,48.2-24.7,72.2c-1.8,5.2-1.1,8.2,3.6,11.3c4.9,3.3,9.1,7.6,13.4,11.4
		c24.8-24,55.7-38.5,82.5-59.4c-5.3-10.9-7.2-21.8,0.2-32.6c6.6-9.6,13.8-18.1,26-18c0-11.6,0-23.1,0-34.6c0-2.2-0.4-4.3-0.2-6.5
		c0.6-6.6-0.5-11.4-8-14.1c-6.9-2.5-13.3-17-12.5-25.2c0.9-9.2,8.8-19.6,16.7-22c0.9-0.3,2.2-0.6,2.9-0.2c4.3,2.8,8.4,1.2,12.6-0.2
		c-0.4-0.8-0.8-1.6-1.4-2.8c2.7,0.8,5.3,1.1,7.3,2.2c15.4,8.5,23.2,35.8,5,49.5c-0.7,0.5-1.4,1.2-2.1,1.3c-6.4,0.5-7.4,3.6-6.7,9.7
		c1.5,12.9,1.9,25.9,2.5,38.8c0.1,3,1.4,4.5,3.8,5.7c5.1,2.5,10.6,4.3,15,7.7c5,3.9,8.9,9.3,13.7,14.5c2.3-0.7,5.2-1.7,8.2-2.6
		c0.1,0.2,0.1,0.3,0.2,0.5c-0.9,0.6-1.7,1.3-2.6,1.9c0.1,0.1,0.1,0.3,0.2,0.4c0.9-0.3,1.8-0.6,2.7-0.9c13.5-4,27.1-8.1,40.6-12
		c3-0.9,3.8-2.2,4.2-5.5c0.6-5.9,2.1-11.7,3.9-17.3c0.7-2,3.5-3.2,5.1-5.1c2-2.3,3.9-1.4,6.5-1.2c4.1,0.3,9-0.5,12.4-2.6
		c3.2-2,4.9-0.4,7.1,0.6c12.2,6,19.3,15.1,19.6,29.3c0.2,9.4-6.1,13.6-12.8,16.6c-10.7,4.8-21.9,5.4-32.3-1.7
		c-1.1-0.8-3.1-0.8-4.5-0.4c-17.7,5.2-35.4,10.3-53,16.1c-2.7,0.9-5.3,4.6-6.4,7.5c-5.3,13.7-19.7,24.9-36.9,24.2
		c-8.2-0.3-15.8-0.8-22.9-5.1c-1.1-0.7-3.6-0.1-4.8,0.8c-11.4,7.7-22.8,15.5-33.9,23.6c-8,5.8-15.9,11.8-23.5,18.1
		c-5.8,4.8-11,10.3-16.6,15.4c-2,1.8-2.7,3.3-1.2,5.9c7.6,13,10.4,26.9,8.5,42c-1.6,12.1-3.9,23.9-10.8,34.3
		c-2.5,3.8-4.6,7.9-7,11.8c-0.7,1.1-1.9,2.5-2.9,2.6c-8.3,0.5-9.8,8.7-14.9,12.8c-1.4,1.1-2.5,2.6-4.1,3.5
		c-7.9,4.5-15.6,9.2-23.8,13.1c-4.2,2-9.1,2.5-14,3.7c1.1,18.5,2.1,36.4,3.3,54.3c0.7,11.4,1.6,22.8,2.6,34.2c0.1,1.4,1.3,2.7,2,4.1
		c1.3-1,3.1-1.6,4-2.9c7.6-11,14.5-22.5,22.9-33c6-7.5,13.3-14.3,21-20c15-11.2,30.3-22.3,46.4-31.8c12.2-7.2,25.7-12.1,39-17.3
		c8.3-3.2,17-5.6,25.8-6.9c17.3-2.5,34.5-1,51.3,4.1c27.6,8.4,51.9,22.4,71,44.4c4,4.6,7.1,10.1,10,15.5c5.1,9.7,4.5,19.4-1.3,28.8
		c-2.5,4.1-4.2,8.9-7.5,12.1c-5.6,5.5-9.9,12.4-17.7,15.8c-5.3,2.3-9.6,7.1-14.7,10c-12.4,7-25.4,12.7-39.4,16.1
		c-6.8,1.6-13.2,4.6-19.9,6.5c-4.1,1.2-8.4,1.2-12.5,2.2c-4,1-7.8,2.8-11.7,3.9c-13.1,3.8-26.3,7-39.2,11.2
		c-10.8,3.5-21.1,8.5-31.9,12c-10.2,3.3-20.8,5.4-31.1,8.3c-6.9,1.9-13.6,4.7-20.6,6.5c-7.3,1.9-14.9,2.8-22.3,4.5
		c-4,0.9-7.8,2.4-12,3.7c-0.8-2.2-1.4-4.2-2.3-6.7c5.1-3,10.2-6.2,15.3-9c6-3.3,11.9-6.9,18.2-9.3c14.7-5.4,29.6-10,44.4-15.3
		c10-3.6,19.6-8.4,29.8-11.4c21.5-6.2,43.4-11.4,65-17.2c5.7-1.6,11.3-3.9,16.8-6.1c13-5.1,26.4-9.4,38.7-15.7
		c12.7-6.6,23.3-16.5,29.6-29.9c2.5-5.3,4.6-11,5.7-16.7c1.6-7.9-0.6-14.9-7.2-20.5c-16.7-14-35.7-23.2-57-27
		c-9.9-1.7-20.3-2.1-30.2-1.1c-9.1,0.9-18,4-26.7,7c-10.3,3.6-20.5,7.5-30.2,12.2c-26.5,12.9-52.1,27.1-73.3,48
		c-1.2,1.1-2.2,2.5-3.1,3.8c-7.1,9.6-14.2,19.1-21.1,28.8c-2.6,3.7-4.5,7.9-6.1,12.5c4.4-2.5,8.9-4.9,13.2-7.7
		c10.6-6.8,21-13.8,31.6-20.6c17.1-11,36.3-17.1,55.6-22.7c3-0.9,7.4,1.5,10.4,3.5c1.3,0.8,1.4,4.7,0.8,6.8
		c-0.4,1.4-2.8,2.5-4.5,3.3c-13.7,5.8-27.7,11-41.2,17.4c-16.3,7.8-31.3,17.7-44.8,29.7c-7.6,6.7-15,13.6-21.8,21.1
		c-8.2,9.1-14.7,19.5-19.1,31.1c-1.5,3.9-4,4.9-7.7,3.1c-0.6-0.3-1.2-0.6-1.8-0.9c-5.9-3.3-7-5.1-5.1-11.2
		c4.5-13.9,3.4-28.1,3.2-42.4c0-0.8,0.2-2-0.3-2.4c-5.2-4.3-3.5-10.5-3.8-15.8c-0.9-21.8-1.1-43.5-1.7-65.3
		c-0.3-10.9-0.9-21.8-1.7-32.7c-0.1-1.3-2.1-3.6-3.4-3.7c-6.4-0.4-12.8-0.2-19.8-0.2c0.6,5.7,1.7,12,2,18.4
		c0.9,15.1,1.4,30.2,2.2,45.2c0.7,12.3,1.7,24.5,2.3,36.8c1.5,29.1,3.2,58.1,4.1,87.2c0.6,19.6,0.2,39.3-0.4,58.9
		c-1,35.5,0.1,70.9,3.5,106.2c0.2,1.9,1.9,4.3,3.6,5.1c4.6,2.3,9.5,3.8,14.1,5.6c0-8.1,0-16,0-23.9c-0.1-30.6-0.5-61.1-0.3-91.7
		c0.1-15.4,1.4-30.9,2.2-46.3c0.2-3.3,0.9-6.7,1.3-10c0.5-3.9,3.6-3.4,6-3.4c2.3,0,5.1,0.1,5.6,3.5c1.2,9.4,3,18.8,3.5,28.3
		c0.9,16.1,1,32.2,1.6,48.2c0.8,21.9,1.5,43.8,2.6,65.7c0.6,13,3.2,26.1,2.4,39c-0.6,9.5,6.6,11.4,10.6,16.5c1.4,1.8,4,2.8,5.2,4.7
		c4.2,6.6,9.3,5.9,15.7,3.4c19.7-7.8,39.1-4.8,57.6,3.5c15.3,6.9,29.9,15.3,42.4,26.7c6.5,5.9,12.7,12,18.7,18.4
		c2.4,2.6,3.6,6.2,5.9,8.9c1.3,1.6,3.5,3.2,5.5,3.5c30.4,4.7,52,21.9,66.8,48c4.8,8.5,11,16.9,9.2,27.8c5,6,0.8,12.3,0.4,18.3
		c-0.3,4.1-2.3,7.6-6.9,9.9c-8.5,4.3-16.7,8.1-26.5,8.3c-17.3,0.3-34.6,1.5-51.9,2.1c-5,0.2-10.1-0.5-15.2-0.3
		c-4.9,0.2-9.8,1.3-14.8,1.6c-20.5,1-41.1,1.8-61.6,2.9c-16,0.9-31.9,2.8-47.8,3c-13.4,0.2-27.1,1.6-40.3-2.6
		c-10.5,3.4-20.8-1.8-31.4-0.8c-11.5,1.1-23.2,0.3-34.8,0.3c-12,0-24,0.1-35.9,0.1c-13.3,0.1-26.6,0.1-39.9,0.3
		c-16.5,0.2-32.9,1-49.4,0.8c-13.7-0.2-27.4-1.7-41.1-2.2c-17.1-0.7-34.3-0.1-51.3-1.8c-11-1.1-22.2-3.8-31.2-11.7
		c-11.7-10.3-16.4-30.1-9.9-43.8c0.7-1.4,2.6-3,4-3.1c1.2,0,2.9,1.8,3.6,3.2c3.1,6.3,5.7,13,9.1,19.2c3.2,5.7,7.2,10.8,13.9,13
		c4.9,1.6,9.7,3.5,14.4,5.7c8.5,4,17.6,2.7,26.5,2.9c23.7,0.6,47.4,1.2,71.1,1.1c19.9-0.1,39.8-1.5,59.8-1.7
		c25.9-0.3,51.8-0.4,77.8,0c19.9,0.3,39.8,2.2,59.8,2.2c18.1-0.1,36.1-2,54.2-2.9c28.4-1.4,56.8-2.5,85.2-3.9c25-1.2,50-2.7,75-4.2
		c4.9-0.3,7.9-4.7,8.9-9.5c2-9.4,1.7-18.5-2-27.4c-5-11.6-10.5-22.6-21.8-30c-5.7-3.8-11.3-6.7-18-7.4c-1.3-0.1-3.3-0.5-3.9,0.1
		c-5,5.6-10,1.5-14-0.6c-6.7-3.5-14.7-6.1-17.5-14.3c-4.9-14.5-14.3-25.6-26.6-34c-11-7.6-22.4-15.2-36.6-16
		c-8.1-0.5-15.8,1-23.1,4.4c-3.7,1.7-7.8,2.8-9.5,7.2c-0.3,0.7-3.1,1.1-4.4,0.7c-9.5-2.6-18.5-6.5-25.7-13.4c-2.6-2.5-5.1-5.2-7.5-8
		c-3.2-3.8-6.7-6.7-11.8-8.1c-3.1-0.9-6.8-3.8-8-6.8c-2.9-7-8.9-9.8-14.8-12.6c-22.6-10.8-46.3-13.3-71.1-9.7
		c-9.4,1.4-18.4,3.5-27.3,6.7c-5.7,2-12.2,1.8-18,3.5c-16.4,4.9-31.5,12.6-45.4,22.8c-15.5,11.5-28.8,24.9-38.2,41.9
		c-2.4,4.3-4.7,8.7-7.3,12.8c-0.6,0.9-2.1,1.6-3.2,1.8c-12.9,2.4-25.8,4.9-38.7,7.1c-11.5,1.9-21.4,6.8-29.8,14.8
		c-4.3,4.1-9.5,7.3-13.2,11.8c-4,4.8-6.5,10.7-10,15.9c-1.7,2.6-3.9,5.2-6.3,7.2c-3.7,3.1-6.8-1.1-10.1-1.8
		c-0.5-0.1-0.6-4.4-0.2-6.6c2.1-12.4,7.3-23.3,15.3-33.1c7.3-8.9,16.2-15.6,27.1-18.9c12.4-3.7,25.2-6.4,37.9-8.7
		c4.7-0.9,8-2.5,10.7-6.3c6.7-9.5,13.9-18.6,20.3-28.3c11.3-17,28.1-27,45.3-36.7c15-8.5,31.6-12.7,47.8-18.1c18-6,36.4-7,55-6.3
		C668.8,1018.3,679.4,1019.6,691.1,1020.6z M929.1,450c-3.4,7.8-8.6,13.9-16.2,18c2.1-0.4,4.6-0.5,5.8-1.8
		c4.2-4.6,7.9-9.7,11.6-14.6c0.3-0.4-0.4-1.5-0.6-2.3c1.9-2.9,1.5-5.4-0.5-8.2c-4.8-7.1-11.8-11.2-19.2-14.4
		c-3.3-1.4-8.2-2-11.3-0.6c-8.1,3.6-14,10.1-18,17.9c-5.6,10.7-1.2,19.4,10.8,21.7c4,0.8,8.2,0.9,12.3,1.3c8.9,0.8,15.2-3.3,20-10.4
		C925.3,454.2,927.3,452.2,929.1,450z M789.2,569.4c-0.3-3.8-0.5-7.6-0.9-11.4c-1.4-14.7-7.3-26.5-20.2-34.9
		c-11.4-7.5-23.6-12.6-36.8-15.9c-8.8-2.2-17.5-3.2-26-1.1c-10.6,2.5-21.2,5.2-30.6,11.3c-1.8,1.2-4.4,1.2-6.7,1.8
		c-1.8,0.5-4,0.8-5.3,1.9c-2.8,2.3-5.4,4.9-7.7,7.6c-13,15.1-22.5,31.9-24.6,52.1c-1.4,13.6,0.6,26.5,8.8,38
		c14.2,19.7,34.9,27.5,57.6,31.4c10.5,1.8,20.4-1.7,30.3-4.4c12.1-3.2,23-9.2,32.7-16.6C779.2,614.4,789.2,594.3,789.2,569.4z
		 M522.5,455.4c0.1-0.3,0.1-0.5,0.2-0.8c2-0.1,4.1,0.2,5.8-0.5c7.9-3.4,14.2-8.8,18-16.5c5.2-10.6,3.8-13.9-6-20.4
		c-4.9-3.3-9.6-4.7-15.4-3.3c-2.2,0.5-4.6,0-6.9,0.1c-1.2,0.1-2.8,0-3.6,0.7c-5.8,5.6-12.2,10.8-17,17.2c-4.6,6.2-0.5,16.2,6.7,18.7
		C510.2,452.6,516.4,453.8,522.5,455.4z M793.4,408.2c6.8-0.1,18.6-8.6,20.8-15.1c2.3-6.6,0.8-10.2-5.5-13.5
		c-7.9-4.2-15.7-2.3-24.3,5.6c-4.6,4.3-6.2,10.6-4.1,15.9C782.2,405.8,786.8,408.3,793.4,408.2z M898.2,346.9
		c5,0.9,9.3-2.6,12.4-6.5c2.9-3.8,3.8-8.8,1.4-13.7c-2.2-4.4-5.7-1-8.4-1.3c-6.6-0.8-11.4,2.2-14.2,8.6
		C886.1,341.2,889.3,346.7,898.2,346.9z M1018.5,410c-4.5-0.9-7.9,3.3-7.5,8.9c0.3,3.9,1.7,6.3,6.6,6.8c5.2,0.5,9.9-4.5,15.1-0.7
		c0.3,0.2,1.2-0.4,1.8-0.7c2.8-2,3.6-8.4,1.4-12.5c-1.9-3.5-4.5-5.7-8.9-4.2C1024.2,408.6,1021.4,409.3,1018.5,410z M433.1,508.2
		c-6-0.1-10.4,2.6-10.2,6.7c0.3,5.4,4.9,6.3,9,7.3c6.3,1.4,8.6-0.4,9.1-6.9C441.6,508.4,441.6,508.4,433.1,508.2z"/>
	<path d="M662.3,1142.2c1.6-2.1,3.3-4.1,4.9-6.2c7.6-10.5,18-16.7,30.7-18.8c12.4-2,24.8-4.2,37.6-1.4c19,4.2,35.6,12.3,49.4,25.8
		c5.3,5.2,10.3,10.8,14.7,16.7c2.9,4,4.6,8.9,6.7,13.5c2,4.1-0.8,5.6-3.8,5.1c-10.6-1.8-20.1-4.5-25.2-16.4
		c-7.4-17-24.6-30.4-45.8-29.8c-9.6,0.3-19.2,1.5-28.8,2.6c-2.2,0.3-4.4,1.6-6.2,2.9c-5.1,3.7-10,7.7-15.1,11.3
		c-2.1,1.5-4.6,2.9-7.1,3.1C668,1151.3,662.3,1150.5,662.3,1142.2z"/>
	<path d="M599,317.9c3.1,0.2,5.8,0.4,9.3,0.7c6.3,6.8,6.5,8.7,0.7,17.7c-7.2,11.2-14.3,22.4-21.6,33.6c-2.5,3.8-5.1,7.4-8,10.9
		c-2.9,3.5-6.5,1.9-9.6,0.3c-3.6-1.8-3.5-5.3-2.7-8.6c2.9-12.2,8.7-23,16.5-32.9C589.3,332.6,594.1,325,599,317.9z"/>
	<path d="M487.6,321.8c9,5.4,9.8,14.7,11.4,23.6c1.7,9.3,3.6,18.6,4.8,28c0.3,2.5-0.6,6.4-2.4,7.7c-2.7,2-7,1.7-9.2-1.5
		c-3-4.2-6.3-8.8-7.4-13.7c-2.6-12.3-4.2-24.8-5.8-37.3c-0.2-1.4,2-3.5,3.5-4.6C483.8,322.9,485.8,322.5,487.6,321.8z"/>
	<path d="M592.9,423.7c13.1,1,26.3,2,39.4,2.8c4,0.2,8-0.1,12-0.2c6.1-0.1,11.4,2.3,15.8,6.4c1.4,1.3,2.5,3.8,2.2,5.6
		c-0.2,1.3-2.6,3.2-4.2,3.4c-19.2,2.2-38.3,2-56.3-6.1c-4-1.8-6.8-6.4-10.1-9.8C592.2,425.1,592.5,424.4,592.9,423.7z"/>
	<path d="M941.8,518.4c0-5.1,0.1-10.2,0-15.3c-0.2-4.9,4-4.7,6.8-5.7c1.1-0.4,2.9,1,4.2,1.8c6.2,3.9,6.9,10.6,8,16.9
		c1.3,7.2,2,14.4,2.9,21.7c0.9,7.5-3.5,10.5-10.7,8.8c-5.7-1.4-7.3-5-8.3-9.6c-1.3-6.1-2.2-12.4-3.3-18.5
		C941.5,518.4,941.6,518.4,941.8,518.4z"/>
	<path d="M454.2,419.3c-4,0.5-8,0.9-12,1.4c-8,1-16.1,2.4-24.1,2.9c-8.3,0.6-14.7-3.4-17.3-10.5c-0.4-1.2,0.7-3.6,1.9-4.5
		c1.2-1,3.3-0.9,5-1.1c9.7-1,19.5-1.8,29.2-2.7c5.6-0.5,10.7,1.1,14.7,4.9c2,1.9,2.7,5.2,4,7.8C455,418.1,454.6,418.7,454.2,419.3z"
		/>
	<path d="M527.6,529.1c0,2.3,0.3,4.7-0.1,6.9c-0.3,2.2-0.9,5.8-2.1,6.1c-2.9,0.8-6.4,0.7-9.2-0.4c-1.9-0.8-3.8-3.5-4.4-5.6
		c-2.7-9.5-4.2-19.1-1.2-28.9c0.4-1.3,1.8-3.3,2.7-3.2c2.7,0.1,5.5-2.5,8.4,0.6c4.2,4.5,6.1,9.6,6.1,15.6c0,3,0,6,0,9
		C527.8,529.1,527.7,529.1,527.6,529.1z"/>
	<path d="M956.1,259.3c-3.3,7.3-6.6,13.6-9.1,20.2c-1.4,3.6-2.5,6.3-7,6.5c-4.1,0.2-10-4.1-9.1-8.1c2-8.3,4.2-16.8,7.7-24.4
		c1.2-2.7,7.7-5.2,10.4-4.2C952.1,250.4,953.6,255.6,956.1,259.3z"/>
	<path d="M887.8,250.9c3.6-4.5,6-4.8,9.3-0.7c1.6,2,3.1,4.4,3.9,6.8c3.1,9.7,5.1,19.5,2.9,29.7c-3.9,1.6-7.4,1.9-11.3-0.5
		c-3.2-2-4.3-4.4-4.6-8c-0.9-9.8-2.2-19.6-3.3-29.4c0.4-0.1,0.9-0.2,1.3-0.3C886.6,249.3,887.1,250.1,887.8,250.9z"/>
	<path d="M1024.8,492.5c-1.1,6.2-2.2,15.1-4.4,23.8c-0.6,2.3-4.2,4.7-6.8,5.3c-3.2,0.8-8.3-4.6-8-7.9c0.8-8.8,1.6-17.6,3.2-26.3
		c0.5-2.7,3.3-6,5.8-7.1C1020.1,478.1,1025,483.1,1024.8,492.5z"/>
	<path d="M1024.9,329.3c1,1.1,1.8,2.7,2.3,2.6c7.1-1.4,8.5,4.1,8.7,8.5c0.5,9.4-0.3,18.8-0.6,28.2c-0.1,1.6-0.6,3.2-1,4.9
		c-8.2,3-13.6-0.7-13.3-9.3c0.2-7.8,0.3-15.6,0.9-23.4C1022.3,337,1023.8,333.4,1024.9,329.3z"/>
	<path d="M950.3,328.4c1.6-2.4,3-4.5,4.6-6.8c-0.7,0-1.4-0.1-2.2-0.1c-0.1-0.4-0.2-0.7-0.3-1.1c7.9-2.5,15.9-5.2,23.9-7.6
		c3.1-0.9,6.4-3.5,9.4,0.1c1.6,1.8,4,4,3.9,5.9c-0.1,1.9-2.4,4.7-4.3,5.5c-6.8,3-13.8,5.4-20.8,7.8C959.3,334,955,331.9,950.3,328.4
		z"/>
	<path d="M364.5,398.3c7.5-0.2,13.8,4.5,14.4,10.3c0.9,7.8-3.8,14.4-11.1,15.8c-4.4,0.8-13.4-3.7-13.5-7.9c0-4.4,2.3-8.8,3.5-13.3
		C358.8,399.3,361.2,397.7,364.5,398.3z"/>
	<path d="M1066.7,433.2c2.1-5.6,5.3-7.1,9.5-5.6c8.3,3,16.5,6,24.5,9.6c5.6,2.5,7.3,7.4,5.4,14.7
		C1091.9,447.6,1077.3,444.6,1066.7,433.2z"/>
	<path d="M1084.1,352.2c-2.9,4.1-5.5,7.9-8.2,11.7c-1.7,2.3-3.9,4.2-5.2,6.6c-2.3,4.2-5.8,3.9-9.3,2.9c-3.9-1.2-4.3-4.4-3.9-8
		c1.3-9.9,6.5-16.7,15.6-20.4c1.9-0.8,4.9-1.7,5.9-0.9C1081.1,345.8,1082.1,348.8,1084.1,352.2z"/>
	<path d="M837.6,1130.4c5,1.7,10.7,2.5,14.9,5.4c4.4,3.1,7.6,8,6.5,14.4c-1.3,7.2-12.1,12.6-17.6,8c-1.8-1.5-2.2-5.1-2.3-7.8
		c-0.3-5.4-4-10.7-1-16.4c0.2-0.4-0.8-1.5-1.3-2.2C837.1,1131.4,837.4,1130.9,837.6,1130.4z"/>
	<path d="M490.2,292.5c-0.1,5.9-4.9,12.7-9,12.6c-7.1-0.2-15.7-5.1-14.8-9.1c1-4.6,3.6-9,6-13.1c0.8-1.3,3.2-2.3,4.9-2.4
		C483.7,280.2,490.3,286.6,490.2,292.5z"/>
	<path d="M522.9,592c-6.7-0.7-14.6-4.9-14.4-12c0.2-5.1,5.1-9.7,10.6-9.8c8.5-0.1,14.5,5.3,14.4,12.8
		C533.4,588.1,528.7,592.1,522.9,592z"/>
	<path d="M631.4,283.1c8,0.2,13.2,5.6,12.9,13.6c-0.2,4.7-5.3,9.3-10.4,9.3c-5.9,0-13.9-7.5-13.7-12.9
		C620.3,289.2,627.3,283,631.4,283.1z"/>
	<path d="M592,1156.5c2.6-7.7,2.8-16,9.1-22.6c5.4,0.6,9.9,3.8,12.7,9.1c3.2,6.1-1.8,10.9-4.9,14.5
		C604.3,1162.9,598,1159.4,592,1156.5z"/>
	<path d="M1064.7,458.7c4.9,4.6,13.2,23.4,12.9,29.8c-4.5,1-8.6,0.5-12.2-3c-5.2-5.2-9.7-17.8-8.9-24.4
		C1059.5,460.3,1062.1,459.5,1064.7,458.7z"/>
	<path d="M524.3,1171.1c-1.3,0.1-2.6,0.2-4,0.3c-4.8,0.4-6.4-1.4-5.3-6.1c1.2-4.8,1.2-9.7,5.1-14.1c3.3-3.7,6.3-3.2,8.9-1.4
		c3.4,2.4,5.8,6,8.6,9.2c0.3,0.4,0.3,1.3,0.2,1.9C537.4,1164.1,527.7,1171.3,524.3,1171.1z"/>
	<path d="M965.6,582.8c-0.1,6.5-4.3,10.3-11.1,10.7c-5,0.3-10.6-8.1-11.1-12.9c-0.3-3,6.2-9.5,9.1-9.6
		C959.3,570.9,965.6,576.6,965.6,582.8z"/>
	<path d="M687.7,417.6c4.3-0.7,8,0.7,10.5,4.1c3.1,4.2,2.1,9-0.3,12.6c-1.3,2-5.4,3.4-8.1,3.2c-6.7-0.4-10.5-5.6-12.9-11.1
		c-0.8-1.8,1.9-5.8,3.9-7.8C682.3,417.3,685.4,417.9,687.7,417.6z"/>
	<path d="M554,1129.7c0.2-5.1,5.5-14.1,9.9-14.4c2.9-0.2,6.5,1.9,8.9,4c2.8,2.4,3.3,6,0.9,9.4c-1.6,2.3-3.1,4.9-5.2,6.6
		c-1.6,1.3-4.2,1.8-6.4,2.1C558.3,1137.8,553.9,1133.5,554,1129.7z"/>
	<path d="M585.9,1092.1c0-8.8,2.7-11.4,7.8-11.5c6-0.1,13.4,7.7,12.3,14.2c-0.5,2.9-4.4,7-7.1,7.3
		C590.5,1103.1,585.8,1098.8,585.9,1092.1z"/>
	<path d="M692.9,354.9c0,3.1-5.3,8.8-8.4,8.9c-4.8,0.1-12.7-7.1-12.7-11.6c0.1-6.8,3.1-10.7,8.2-10.6
		C686.4,341.6,692.9,348.3,692.9,354.9z"/>
	<path d="M894.1,1192c-7.8-0.3-12.6-4.8-13.6-12.7c-0.6-4.2,1.8-7,6.1-7.3c5.6-0.4,14.1,6.2,15,11.5
		C902.2,1187.7,898.3,1192.2,894.1,1192z"/>
	<path d="M786.7,283.6c6.9,0.7,12.5,3.2,12.6,9.7c0.1,3.4-1.8,9-6.6,9.1c-3,0.1-6.7-2.4-8.8-4.8c-1.6-1.9-1.8-5.7-1.3-8.4
		C783,287.1,785.4,285.3,786.7,283.6z"/>
	<path d="M399.7,324.6c3.1-0.5,4.8-7.2,9.5-1.3c0.1-1,0.1-1.8,0.1-2.2c1.6,0.5,2.9,1.1,4.4,1.5c3.3,1,8.8,7.2,8.1,10.3
		c-0.4,2.1-2.8,4.6-4.8,5.3c-4.3,1.4-11.8-3.5-13.6-7.8C402.5,328.5,401,326.8,399.7,324.6z"/>
	<path d="M1032.2,583.1c0.6-1,2.5-2.6,2.3-3.8c-0.8-4.7,2.1-3.8,4.6-3.4c7.9,1.1,11.8,6,10.1,12.5c-1.2,4.6-4.5,5-8.4,4.5
		c-4-0.5-6.8-2.1-7.4-6.4C1033.2,585.4,1032.7,584.4,1032.2,583.1z"/>
	<path d="M1144.3,531.1c-3.4,0-6.9,0.7-10-0.1c-6-1.6-6.2-2.5-3.3-8.3c2.6-5.2,2.8-5.6,7.8-1.7c2.6,2,4.2,5.4,6.3,8.1
		C1144.8,529.8,1144.5,530.5,1144.3,531.1z"/>
</g>
</svg>
