<?xml version="1.0" encoding="utf-8"?>
<!-- Generator: Adobe Illustrator 27.4.1, SVG Export Plug-In . SVG Version: 6.00 Build 0)  -->
<svg version="1.1" id="Camada_1" xmlns="http://www.w3.org/2000/svg" xmlns:xlink="http://www.w3.org/1999/xlink" x="0px" y="0px"
	 viewBox="0 0 1500 1500" style="enable-background:new 0 0 1500 1500;" xml:space="preserve">
<image style="overflow:visible;" width="1450" height="993" xlink:href="../../Library/CloudStorage/GoogleDrive-lucas.pretti@okfn.org/.shortcut-targets-by-id/0B79xBlVd-Nf6ZzMzUlZSTWwxV28/Open Knowledge All Team/Brand 2023/Illustrations/L 1500px - web transp/Icons/board.png"  transform="matrix(1 0 0 1 -2106 1417.5)">
</image>
<image style="overflow:visible;" width="1133" height="1032" xlink:href="../../Library/CloudStorage/GoogleDrive-lucas.pretti@okfn.org/.shortcut-targets-by-id/0B79xBlVd-Nf6ZzMzUlZSTWwxV28/Open Knowledge All Team/Brand 2023/Illustrations/L 1500px - web transp/Icons/books.png"  transform="matrix(1 0 0 1 -2106 1417.5)">
</image>
<image style="overflow:visible;" width="1357" height="1143" xlink:href="../../Library/CloudStorage/GoogleDrive-lucas.pretti@okfn.org/.shortcut-targets-by-id/0B79xBlVd-Nf6ZzMzUlZSTWwxV28/Open Knowledge All Team/Brand 2023/Illustrations/L 1500px - web transp/Icons/campagne.png"  transform="matrix(1 0 0 1 -2106 1417.5)">
</image>
<image style="overflow:visible;" width="845" height="1103" xlink:href="../../Library/CloudStorage/GoogleDrive-lucas.pretti@okfn.org/.shortcut-targets-by-id/0B79xBlVd-Nf6ZzMzUlZSTWwxV28/Open Knowledge All Team/Brand 2023/Illustrations/L 1500px - web transp/Icons/case-study.png"  transform="matrix(1 0 0 1 -2106 1417.5)">
</image>
<image style="overflow:visible;" width="1265" height="951" xlink:href="../../Library/CloudStorage/GoogleDrive-lucas.pretti@okfn.org/.shortcut-targets-by-id/0B79xBlVd-Nf6ZzMzUlZSTWwxV28/Open Knowledge All Team/Brand 2023/Illustrations/L 1500px - web transp/Icons/collaboration.png"  transform="matrix(1 0 0 1 -2106 1417.5)">
</image>
<image style="overflow:visible;" width="1339" height="1035" xlink:href="../../Library/CloudStorage/GoogleDrive-lucas.pretti@okfn.org/.shortcut-targets-by-id/0B79xBlVd-Nf6ZzMzUlZSTWwxV28/Open Knowledge All Team/Brand 2023/Illustrations/L 1500px - web transp/Icons/connect-community.png"  transform="matrix(1 0 0 1 -2106 1417.5)">
</image>
<image style="overflow:visible;" width="1357" height="681" xlink:href="../../Library/CloudStorage/GoogleDrive-lucas.pretti@okfn.org/.shortcut-targets-by-id/0B79xBlVd-Nf6ZzMzUlZSTWwxV28/Open Knowledge All Team/Brand 2023/Illustrations/L 1500px - web transp/Icons/contact.png"  transform="matrix(1 0 0 1 -2106 1417.5)">
</image>
<image style="overflow:visible;" width="1059" height="1080" xlink:href="../../Library/CloudStorage/GoogleDrive-lucas.pretti@okfn.org/.shortcut-targets-by-id/0B79xBlVd-Nf6ZzMzUlZSTWwxV28/Open Knowledge All Team/Brand 2023/Illustrations/L 1500px - web transp/Icons/create-open-data.png"  transform="matrix(1 0 0 1 -2106 1417.5)">
</image>
<g>
	<path d="M660.6,700.6c28.1-20.1,56.9-35.2,89.8-38.1c0-8.9,0.4-17.4-0.1-26c-0.7-12.6-2.2-25.2-3-37.8c-1.3-18.1-2.3-36.2-3.3-54.3
		c-0.3-5.5,0-11,0-16c1.7-0.9,3.3-1.4,4.6-2.3c5.1-3.4,16.2,0,17.2,7.4c0.3,2.5,0.1,5.1,0.7,7.5c6.7,26.3,4.5,53.5,8.5,80
		c0.9,6.4,1,12.9,0.7,19.4c-0.2,5.5-1.1,11.1-2.5,16.4c-0.7,2.7-2.9,4.9-4.8,7.9c5.1,0.9,9.6,1.6,14.1,2.6
		c25,5.7,45.4,19.3,63.2,37.2c5.7,5.7,11.4,11.6,16.6,17.8c8,9.4,10.4,21,12.4,32.7c2.8,16.1,4.6,32.3,3.1,48.6
		c-1.4,14.4-5.7,28.1-13.7,40.4c-4.5,6.9-9.2,13.6-14.1,20.8c3.9,2.2,8.3,4.4,12.4,7.2c8.8,6.2,17.3,12.9,26.2,19.1
		c16.1,11.2,32,22.8,48.6,33.3c21.1,13.3,42.8,25.7,64.2,38.5c4.1,2.5,8.5,4.7,12,7.9c5,4.6,6.1,14.6,3.5,20.8
		c-1.2,2.7-2.9,3.5-5.5,2.6c-4.7-1.8-9.6-3.2-14-5.7c-10.9-6.3-21.5-12.9-32.1-19.6c-13.8-8.6-27.9-16.8-41.1-26.3
		c-19.6-14.1-39.7-27.7-57.2-44.7c-2.7-2.6-6.2-4.4-9.2-6.7c-6.2-4.6-12.3-9.3-19.1-14.4c-12.9,10.5-29.3,17.5-45.1,24
		c1,21.2,1.7,41.7,2.9,62.2c0.6,9.9,1.6,19.9,2.8,29.8c1,8,2.6,15.9,3.6,24c0.2,1.6-0.8,3.3-1.3,5.1c3.9,3.2,8.4,6.2,12.1,10.1
		c10.3,10.7,17.6,23.1,17.5,38.5c0,11.9-3.5,21.7-15.1,28.4c-6.3,3.6-12.4,7.5-19.2,8.9c-31.2,6.3-57.6-18.1-56.9-45.1
		c0.2-6.8,1.5-13.4,5-19.7c6.9-12.7,18.4-16.5,31.3-18.4c1.3-0.2,2.6-0.5,2.7-0.6c-0.9-8.2-1.9-16-2.4-23.8
		c-1.3-17.6-2.3-35.2-3.6-52.8c-1-14-2.1-28-3.2-42.3c-3.8,0.4-8.1,1.4-12.4,1.3c-23.9-0.6-46.5-7-68-17
		c-18.2-8.4-32.9-21.4-45-37.2c-12.2-15.9-19.1-33.7-20.9-54c-2.2-25.5,4.5-48.6,16.4-70.6c1.7-3.2,4.2-6,6.6-9.4
		c-1.6-1.4-3.1-2.8-4.7-4.2c-12.7-11.7-25.4-23.4-38.1-35.2c-15.8-14.7-31.7-29.5-47.4-44.4c-8.2-7.8-16.2-15.8-24.1-23.8
		c-2.2-2.2-3.7-2-6.4-0.6c-5.5,2.9-11.4,6.8-17.2,7.2c-9.6,0.6-19.5-0.7-29-2.4c-6.6-1.2-13.6-3.4-19-7.2
		c-6.3-4.4-11.4-10.8-16.4-16.9c-12.2-14.8-6.6-29.3,1.7-43.4c4.1-6.9,8.8-13.6,13.8-19.9c4-4.9,9.2-8.9,15.8-9.8
		c9.2-1.3,18.4-2.7,27.7-3.1c17.1-0.8,28.6,8.5,38,21.7c7.6,10.6,10,22.8,10.5,35.2c0.2,4.9-2.5,10.3-4.9,14.8c-3,5.7-3,5.6,2.2,9.6
		c6.3,4.8,12,10.5,17.8,16c18.1,17.2,36.1,34.5,54,51.9c6.5,6.2,12.7,12.7,19.4,18.8C646.8,688.8,653.9,694.8,660.6,700.6z
		 M862,792.6c-1.8-15.8-3.2-31.7-5.4-47.5c-0.8-5.4-2.7-11.4-6-15.6c-6.5-8.1-14.1-15.3-21.7-22.4c-7.5-7-16.6-11.6-26.7-13.8
		c-6.4-1.4-13.1-1.7-19.3-3.4c-20.2-5.8-39.4-2.6-58.3,5.3c-4.7,2-9.9,2.9-14.8,4.3c-3.7,1-7.5,1.6-11,3c-2,0.8-3.4,3-5.3,4.3
		c-9.4,6.3-17.3,14.2-24.4,23c-12.3,15.2-20.1,32.2-23,51.5c-0.7,4.4-2.1,8.7-2,13.1c0.1,7.1,0.8,14.3,1.9,21.3
		c1.1,6.5,2.7,13,4.8,19.3c3.7,11.1,12.8,17.7,21.9,23.7c21.5,14,44.8,22.8,70.8,22.2c10.3-0.2,20.6-2.6,30.8-4.1
		c5.7-0.9,11.3-2.2,16.9-3.1c2.7-0.4,6,0.8,8.1-0.4c7.9-4.2,16.2-8.2,22.8-14c8.4-7.4,15.7-16.1,22.7-24.9
		C854.4,822.2,861.5,808.8,862,792.6z M527.6,558.3c0.3-8.3-2.4-15.6-8-21.7c-4.2-4.6-9.1-8.3-16-7.5c-3.4,0.4-6.8,0.5-10.2,0.8
		c-5.2,0.5-9.8,2.1-12.9,6.6c-2.3,3.3-4.4,6.6-6.7,9.9c-0.9,1.3-2.1,3.2-3.3,3.3c-4.5,0.4-6,3.4-7.1,6.9c-1.2,3.6-2.4,7.2-3.5,10.9
		c-4.2,14.7,4.8,29.5,19.7,32.3c1.1,0.2,2.3,0.3,3.4,0.7c11.4,4.1,21.7-0.1,28.9-7.5C520.9,583.7,527.1,572,527.6,558.3z
		 M788.6,1043.3c-5.7,1.7-11.7,2.6-16.9,5.2c-8.8,4.3-14.8,11.3-15.7,21.5c-0.2,1.9,0.9,5.2,2.4,5.9c5,2.4,10.3,5.1,15.7,5.5
		c9.9,0.8,19.5-1.5,28.3-6.4c1-0.5,2.3-1.1,3.2-0.9c4.6,1.4,6.1-2,7.2-5c2.6-6.9,0.6-13.4-3.2-19.4c-0.4-0.6-1.2-1.2-1.9-1.4
		C801.5,1046.6,795.3,1045,788.6,1043.3z"/>
	<path d="M584.3,812.1c-32.8,0.5-65.5,1.5-98.3,1.3c-14.4-0.1-28.8-2.3-43.2-3.8c-4.7-0.5-5.8,0.6-6.2,5.7c-1,15.5-2.4,31.2-12,44.1
		c-5.9,7.9-13.7,14.3-20.8,21.2c-9,8.8-21.3,11.9-32.3,16.8c-12.4,5.5-26.1,7.7-39.8,4.2c-13-3.3-26-6.3-38.7-10.5
		c-5.4-1.8-9.8-6.6-14.8-9.8c-17.7-11.4-31.2-26.3-37.4-46.5c-9.6-30.8-7.1-59.9,14.3-86.1c6.9-8.4,14.8-15.1,23.7-20.9
		c2.7-1.8,6-2.7,9.2-3.8c8.4-2.8,16.6-6.3,25.2-7.8c16.7-3,33.7-7.7,50.6-2.2c9.6,3.2,18.4,9,27.4,13.8c3.5,1.9,7.3,3.7,9.8,6.6
		c9,10.6,18.4,20.9,23.9,34c2.4,5.7,4.4,11.5,7.1,17c0.9,1.8,3.3,4,5.1,4.1c12.9,0.6,25.9,1,38.9,0.8c28.6-0.3,57.2-0.9,85.7-1.5
		c11.3-0.2,22.5-0.8,33.8-1.1c6.7-0.2,11.3,2.4,13.3,9.3c1.6,5.3-0.3,10.5-5.6,11.6c-6.2,1.3-12.6,1.9-18.9,2.9
		C584.3,811.7,584.3,811.9,584.3,812.1z M333.2,877.7c22-0.5,38.2-4.9,53.4-13c4.8-2.6,8.9-6.5,13.6-9c5.6-3,9.7-7.5,11.6-13.1
		c3.5-10.5,6.7-21.2,8.7-32c2.2-12.2-1.3-23.8-7.1-34.6c-5.8-10.8-11.5-22-21.9-29.3c-14.8-10.4-31-14.7-49.1-11.3
		c-6.1,1.1-12.4,0.5-18.5,1.6c-4.9,0.9-9.4,4.1-13.9-0.6c-0.5-0.5-2-0.7-2.7-0.4c-6.9,2.8-14.1,5-20.4,8.8
		c-9.1,5.5-16.3,13.2-22.2,22.3c-4.9,7.7-9.2,15.6-11.8,24.5c-2.9,10-2.7,20.1-1.1,30c1.1,6.6,3,13.4,6,19.3
		c9.4,18.2,26.6,26.5,45.2,31.6C314.2,875.6,326.1,876.5,333.2,877.7z"/>
	<path d="M1205.3,1050.1c-0.9,15.2-6.9,28.3-13.2,41.7c-8.9,18.8-23.6,31.1-41.7,39.3c-11.9,5.4-24.7,8.8-38.2,6.9
		c-0.5-0.1-1-0.4-1.5-0.2c-13.1,4.1-23.2-4.3-34.2-8.6c-4-1.6-7.3-4.6-11.1-6.7c-12.7-6.9-21.3-17.7-29.1-29.3
		c-13.2-19.6-18.4-41.6-17.7-64.8c1-28.6,19.1-54.3,45.1-63.1c11.9-4,24.2-7.2,36.4-10.3c3.3-0.8,7-0.3,10.4,0
		c10.9,1.1,21.8,2.2,32.6,3.6c8.2,1.1,15.2,5.3,21.7,10.2c2.1,1.6,4.2,3.2,6.3,4.7c12.1,9,18.7,21.6,23.5,35.4
		c2.7,8,5.7,16,7.9,24.2C1204,1038.6,1204.4,1044.4,1205.3,1050.1z M1034.3,1045.8c-0.2,5.5,2.2,15,7.9,24
		c7.5,11.8,18.7,19.2,30.1,26.4c9.9,6.2,20.5,11.3,32.2,12.9c18.5,2.7,35.9-1.2,51.9-10.8c3.9-2.4,8.6-4.5,11.2-7.9
		c14.2-18.6,24.6-38.6,17.5-63.1c-3.5-12.1-7.7-24.1-17.9-32.7c-16.5-13.8-36.1-16.1-56.5-15.5c-3.6,0.1-7.3-0.1-10.9-0.1
		c-2.3,0-4.7-0.4-6.9,0.1c-11.9,2.6-22.8,6.7-32.8,14.6C1044.7,1005.9,1035.7,1021,1034.3,1045.8z"/>
	<path d="M1023.5,448.1c3-2.4,5.3-4.4,7.8-6.3c1.8-1.4,0.8-4.3,4.2-5.2c4.8-1.3,9.1-1.3,13.6,0.4c5.2,2,10.5,3.9,15.7,6
		c0.7,0.3,1.4,0.9,2,1.5c6,5.9,12.8,11.2,17.9,17.9c4.3,5.7,6.9,12.7,9.7,19.4c4.8,11.6,4.2,23.4-0.1,35
		c-3.7,10.1-11.3,17-19.7,23.1c-8.8,6.4-18.3,11.2-29.2,12.7c-1.3,0.2-2.7,0.6-3.9,0.4c-11.3-1.8-22.7-3.7-33.9-5.5
		c-2,2.2-4.8,5.3-7.6,8.4c-13.3,14.5-26.7,29-39.9,43.5c-16.1,17.6-32.1,35.1-48.1,52.8c-9.9,10.9-19.8,21.9-29.6,32.9
		c-4.3,4.9-10.3,5.7-15,1.9c-4.8-3.8-6.2-11.2-2.3-15.6c12.5-14.4,25.4-28.6,37.9-43c5-5.7,9.2-12,14.2-17.6
		c8.4-9.5,17-18.7,25.7-27.9c9.8-10.3,20.4-19.8,29.5-30.6c4.1-4.8,9-8,13.5-11.9c1.2-1,2.1-2.4,3.3-3.8c0.8,0.5,1.7,1.2,2.6,1.8
		c0.2-0.2,0.4-0.4,0.6-0.7c-0.6-0.8-1-1.8-1.8-2.5c-11.4-10.2-17.7-23.4-21-37.8c-4.8-20.9,5.1-44.3,26.6-52.1
		c3-1.1,6.2-1.8,8.8-3.5c5-3,8.8,0.3,12.6,2.1c3.6,1.7,2.8,11.6-0.8,13.7c-4.7,2.7-10,4.6-14.2,7.9c-7.9,6.3-13.9,14.5-15.8,24.5
		c-3.2,16.7,5.2,30.1,21.3,35.9c17.3,6.2,33.9,5.4,49.8-4.4c2-1.2,3.7-2.8,5.5-4.2c3.1-2.4,6.4-4.5,9.2-7.2c1.8-1.7,3.4-3.9,4.1-6.1
		c5.5-18.5-1.3-39.3-19.3-47.2c-4.7-2-10.4-1.7-15.7-2.4c-2.9-0.4-6-0.6-8.7-1.6C1029.7,451.8,1027,450,1023.5,448.1z"/>
	<path d="M727.7,346.9c9.7-4.6,20-4.3,30.3-3.3c22.9,2.2,41,13.9,55.3,31.2c6.1,7.4,10.6,16.4,15,25c2.1,4.1,2.1,9.2,3.4,13.8
		c4.8,17.3,0,33.8-4.1,50.3c-2.4,9.5-6.3,18.1-12,26.4c-11.7,17-28.7,23.6-47.4,28c-23.7,5.5-46.7,1.1-69.1-6.2
		c-20.6-6.7-36.5-19.3-44.7-40.3c-5-12.6-10.8-25-8.9-38.9c0.9-6.8,3.6-13.4,5.4-20c0.3-1.2,0.8-2.9,0.3-3.7c-3-4.2,0-6.6,2-9.8
		c3.6-5.7,6.4-12,9.9-17.8c5.5-9.2,12.6-17,22-22.5c7.6-4.4,15.1-9.2,24.3-9.6c3.3-0.2,6.8-0.6,9.8,0.4c2.9,1,5.3,3.7,9,6.4
		c-3.4,1.7-5.4,3.1-7.7,3.7c-12.4,3.7-22.6,10.2-31.2,20.2c-6.2,7.2-10.5,15.2-13.3,23.8c-5,15.5-10.9,31.4-5.2,47.9
		c7.5,21.4,18.6,40.2,41.4,48.8c21.4,8,42.5,7.1,62.8-3.4c10.9-5.6,19.1-14.8,24-25.9c3.5-7.7,4.9-16.3,7.3-24.5
		c0.2-0.8,0.5-1.6,0.8-2.4c7.5-17.9,3.6-35-4.1-51.7c-4.8-10.4-12.7-17.9-22-24.4c-12.3-8.5-25.5-12.8-40.6-11.5
		C734.4,357.3,728.4,352.3,727.7,346.9z"/>
	<path d="M1107.5,855.7c-17.8,0.2-34-4.9-47.9-17c-23.6-20.7-23.6-49.2-6.4-71.7c4.2-5.5,8.6-10.4,14.6-13.7c4.2-2.3,8.6-4.2,13-5.9
		c7.6-2.8,15.2-5.4,22.9-7.9c1.9-0.6,4.2-1,6.2-0.6c3.2,0.7,6.4,1.7,9.2,3.3c8.7,5,17.4,10.1,25.7,15.6c2.5,1.6,4,4.8,5.6,7.5
		c5.9,9.5,11.6,19.1,13.1,30.4c2.1,15.4-0.6,29.5-12.8,40.4c-4.6,4.1-9,8.6-14,12.2C1128.1,854.5,1118.2,856.2,1107.5,855.7z
		 M1058.3,808.2c0.4,8.1,5.1,15.2,14.5,19c18.2,7.3,36.5,8,54.4-1.2c10.5-5.3,18.1-12.9,18.3-25.6c0.1-9-1.5-17.6-6.8-25
		c-2.2-3.1-5.2-6.6-8.6-7.6c-4.6-1.4-8.5-5.6-13.9-4.4c-0.4,0.1-1.4-0.6-1.5-1.1c-1.3-4.7-5.1-3.6-7.9-2.8c-6.5,1.9-12.9,4.2-19,6.9
		c-9.5,4.2-17.3,10.6-22.8,19.4C1061,792.1,1057.6,798.8,1058.3,808.2z"/>
	<path d="M578,1002.8c2.4-3.6,4.8-7.6,7.5-11.4c11.3-15.4,22.1-31.2,34.3-45.8c12.8-15.4,27-29.7,40.6-44.4c1.7-1.8,4.1-3,5.7-4.8
		c3.7-4,7.8-2.3,10.9-0.1c4.5,3,6.4,9.7,3.9,13.3c-4.5,6.5-9.3,13-14.9,18.6c-19.8,19.8-36.4,42.2-53.1,64.6
		c-4.7,6.4-9.1,13-13.9,19.3c-6.6,8.6-11.6,7.5-17.5-0.3C579.9,1009.6,579.5,1006.6,578,1002.8z"/>
	<path d="M528.9,395.9c1.3,26.4-23.1,39.1-41.3,36.8c-11.6-1.5-21.1-5.3-29-14.2c-7-8-7-17.1-5.3-26.3c2-10.8,9-19.1,16.2-26.9
		c4.5-4.9,11.3-6.2,17.9-6c17.2,0.6,29.6,9.3,38,23.9C527.6,386.9,527.8,391.6,528.9,395.9z M509.9,394.5
		c-0.3-9.5-1.9-12.2-10.3-17.4c-9.3-5.8-18.8-3.9-25.1,5c-1.6,2.3-3.3,4.6-4.8,7c-4.6,6.9-2.9,16.9,4.2,21
		c7.7,4.5,15.4,8.3,24.9,2.5C506.9,407.6,510.2,404,509.9,394.5z"/>
	<path d="M888.4,789.8c12.9,0,26.6,0,40.3,0c17.5,0,34.9,0.1,52.4-0.1c12-0.2,23.9-0.5,35.9-1.4c8.5-0.6,13.9,3.6,18.1,9.8
		c1,1.6,0.4,5.3-0.8,7c-1.4,1.8-4.3,2.9-6.7,3.3c-2.7,0.4-5.5-0.8-8.3-0.7c-19.1,0.2-38.2,0.5-57.4,1c-16.1,0.4-32.2,1.2-48.3,1.5
		c-5,0.1-10.1-0.1-14.9-1.4c-3.9-1.1-7.5-3.9-10.9-6.3c-0.8-0.6-0.7-2.8-0.6-4.2C887.3,795.6,887.9,793,888.4,789.8z"/>
	<path d="M1301.4,901.1c-0.5,4.1-0.3,8.5-1.6,12.3c-4.4,13.1-22.1,23.4-38.9,16.5c-14.5-6-21.5-20.4-20.6-34.1c0.2-3,1.7-6,2.8-8.9
		c5.2-14.1,21.4-23.2,35.5-18.4C1292.6,873.2,1301.6,881.9,1301.4,901.1z M1285.4,897.9c-0.2-7.4-1.3-9.9-7.7-10.7
		c-5-0.6-10.6-0.1-15.3,1.7c-2.8,1.1-4.6,5.4-6.5,8.6c-3,5-1.5,9.6,3.8,11.7c3,1.2,6.4,1.6,9.6,2.2
		C1279.8,913.4,1285.6,908.5,1285.4,897.9z"/>
	<path d="M287.1,1033.7c3.8,1.3,7.7,2.7,11.8,4c6.6,2,13,4,18.4,8.9c5.6,5.1,9.9,10.7,10,18.6c0.1,11.3-8.8,24.4-19.1,28.7
		c-3.8,1.6-7.3,3.9-11.2,5c-7.4,2.1-14-0.5-20.9-3.7c-9.2-4.4-14.5-11.1-17.2-20.6c-4.7-16.5,5.9-35.9,21-39.7
		C282.1,1034.5,284.4,1034.2,287.1,1033.7z M290.4,1047.3c-12.4-0.1-22.7,11.6-20.3,21.7c1.9,7.9,15.9,16.7,23.4,13
		c3.3-1.6,6.9-2.6,10-4.4c8.6-4.9,10.5-13.3,5.6-18.9C304.3,1053.2,299.9,1044.5,290.4,1047.3z"/>
	<path d="M981,1172.4c-0.1,9.3-4.6,16.8-12.9,23.5c-7.5,6-15.2,6.3-23.2,4.7c-8.3-1.7-14.1-8-18.2-15.3c-4.9-8.7-3-24.7,3.8-32
		c3.3-3.6,6.6-7.5,10.7-10.1c2.5-1.6,6.4-1,9.7-1.1c8.9-0.1,14.7,5.8,21.3,10.6C979.1,1157.7,980.5,1164,981,1172.4z M951.8,1181.5
		c3.8-0.6,7-0.9,10-1.5c5.3-1.1,7.7-4.7,7.1-10.1c-1-8.1-9.2-13.1-16.8-10.3c-5.7,2.1-10.8,5-13.5,10.8c-1.8,3.8-0.4,6.7,3,8.2
		C944.9,1180,948.7,1180.6,951.8,1181.5z"/>
	<path d="M457.5,1145.8c-3.1-2.5-6.5-4.5-8.8-7.3c-3-3.8-0.7-7.9,1.3-11.4c8.1-14,21-23.5,32.7-34c4.8-4.3,11-1.3,14.2,4.6
		c2.6,4.8,2.6,9.7-1.2,13.3C483.3,1122.5,470.6,1133.9,457.5,1145.8z"/>
	<path d="M304.9,588.1c-0.1,10.9-8.8,20-19.1,20c-9.7,0.1-19.9-8.9-19.8-17.4c0.3-16,6.7-23.4,14.2-23.3
		C298.5,567.6,304.3,575.8,304.9,588.1z"/>
	<path d="M560.1,1092.1c9.3,2.1,18.6,4,27.7,6.4c7.4,1.9,14.6,4.5,21.8,6.9c7,2.3,11.2,10.5,5.7,15.2c-2.2,1.9-6,3.3-8.7,2.7
		c-12.2-2.3-24.5-4.7-36.3-8.6c-4.8-1.6-8.3-7.1-12-11.2c-0.9-1-0.5-3.5-0.1-5.2C558.6,1096.2,559.5,1094.1,560.1,1092.1z"/>
	<path d="M558.8,1076.5c-1.6-6.1,2.7-7.2,6.3-9c11.5-5.7,23-10.9,36-12.7c5.7-0.8,9.3,2.2,13.3,4.7c2.6,1.6,0.8,10.9-2.4,12
		c-13.1,4.8-26.3,9.4-39.5,14c-3.8,1.3-6.7-0.3-9-3.3C562,1080.4,560.4,1078.5,558.8,1076.5z"/>
	<path d="M1069.1,1234.7c-8.2,0.2-16-7.5-16.2-16.1c-0.3-11.5,7.2-21.8,16.1-22.1c9.9-0.4,19.6,9.2,20,19.6
		C1089.6,1228.7,1083.9,1233.6,1069.1,1234.7z"/>
	<path d="M500.9,987.1c8.2-0.7,14.8,4.4,16,12c2.4,15.2,4.8,30.5,6.8,45.8c0.5,3.7-0.7,7.7-1.5,11.5c-0.6,2.8-2.2,3.9-5.4,2.2
		c-5.3-2.7-8.4-6.9-9.2-12.6c-2.3-16.1-4.5-32.2-6.6-48.3C500.5,994.3,500.9,990.8,500.9,987.1z"/>
	<path d="M1349,809c0.6,8.7-8.7,16.7-21,16.6c-5.7,0-15.8-10.1-15.5-19.4c0.5-13,5.1-17.3,14.6-18.2
		C1338.4,786.9,1348.9,797.5,1349,809z"/>
	<path d="M551,1055.2c-7.9,0.7-15.8-8-13.4-16.1c4-13.3,9.4-26.3,14.3-39.4c0.5-1.3,1.9-2.3,2.8-3.4c11,4.1,13.6,10.4,9.6,21.3
		C559.7,1030.2,555.4,1042.7,551,1055.2z"/>
	<path d="M1220.1,587.5c0.1,2.5,0.3,5,0.4,7.5c0.2,3.2-3.3,9.2-5.5,9.5c-2.8,0.4-10.1-4.3-10.3-7.2c-1-14.9-1.8-29.8-2.6-44.6
		c-0.1-1.8-0.8-3.7-0.4-5.4c0.5-2.4,1.1-5.3,2.7-6.9c0.9-0.9,4.3,0.2,6.1,1.2c7.3,4,6.7,11.9,7.7,18.5c1.4,9,1.5,18.2,2.2,27.3
		C1220.2,587.5,1220.1,587.5,1220.1,587.5z"/>
	<path d="M1295.5,1029.1c-0.4,8.5-3.4,14.1-10.6,16.9c-0.9,0.3-1.9,0.6-2.8,0.5c-9.1-1.4-20.9-11.3-20.7-21.8
		c0.1-5.5,1.9-10.2,6.3-13.3c2.1-1.5,5.5-2.1,8.1-1.8c3.8,0.5,8,1.4,11.2,3.4C1293,1016.9,1294.5,1023.5,1295.5,1029.1z"/>
	<path d="M455.4,1066.6c7.9,0.8,15.5,1.3,23,2.5c2.1,0.3,5.3,2.4,5.5,3.9c0.4,2.8,0.7,5.9-2.7,8.7c-5.5,4.5-11.9,4.9-18.1,5.3
		c-7.2,0.4-14.6,3.4-21.9-0.6c-5.4-2.9-9.1-8.6-7.8-14.4c0.3-1.3,2.2-2.9,3.5-3.1C443.1,1067.9,449.4,1067.3,455.4,1066.6z"/>
	<path d="M511.3,1110c10,0.9,15.4,6.7,14.4,15.5c-1.3,10.8-3.3,21.6-5.4,32.3c-0.7,3.3-2.5,8.2-6.6,6.8c-3.5-1.2-7.4-5.1-8.4-8.6
		c-1.5-4.9-1.2-10.7-0.3-15.9C506.6,1129.9,509.2,1119.9,511.3,1110z"/>
	<path d="M340,992.1c-2.4-7.9,4.7-8.7,9.3-10.6c5.4-2.3,11.2-2,15.7,2.7c2.6,2.7,4.9,5.8,6.8,9.1c3,5.1-3.8,19.2-9.6,20.5
		c-5.9,1.3-13.4-2.1-17.1-7.1C341.7,1002.3,338.3,998.3,340,992.1z"/>
	<path d="M597,285.6c-2.8,4.6-5.5,9.1-8.4,13.6c-0.4,0.6-1.4,1-2.1,1.1c-11.5,0.8-21.4-6.8-23.2-18.4c-0.3-2.2,1.5-4.8,2.8-7
		c4.1-7.7,7.2-9.4,14.3-8.4c8.4,1.1,12.5,4.7,14.4,12.7c0.5,1.9,0.8,3.9,1.2,5.8C596.3,285.1,596.7,285.3,597,285.6z"/>
	<path d="M673.8,1173.3c12.1-0.2,19.5,11.5,13.6,22.2c-2.3,4.2-5.8,7.9-9.5,10.9c-1.7,1.3-5.8,1.4-7.8,0.3
		c-6.4-3.8-11.3-9.2-12.6-16.9C656.3,1182.3,665.3,1173.4,673.8,1173.3z"/>
	<path d="M1154.7,620.2c1.2-2,1.7-2.6,2.2-3.5c-1.3-0.3-2.4-0.6-4.7-1.2c2.5-2.9,4-6,6.5-7.3c9.8-5.2,20.2-9.3,31.4-7.5
		c4.5,0.7,8.9,4.6,12.5,7.9c2.7,2.5-0.9,8.8-4.7,9.3c-8.2,1.1-16.3,3-24.5,3.6C1167.5,622,1161.6,620.8,1154.7,620.2z"/>
	<path d="M451.5,1029.1c10.9-1,19.6,4.8,29.1,8c3,1,5.9,2.2,8.8,3.3c3.4,1.2,7.1,7.8,6.1,10.7c-2.2,6.3-4.7,7.6-10.9,5.6
		c-7.1-2.3-14.2-4.6-21.2-7C453.6,1046.5,449.5,1039.4,451.5,1029.1z"/>
	<path d="M545.4,1110.3c7.3-1.9,9.7,2.9,11.9,7.2c5.4,10.6,10.3,21.5,16,32c2.3,4.2,0.6,7.3-1.1,10.3c-0.6,1-4.4,1.6-5.4,0.8
		c-3.1-2.6-6.2-5.7-8.1-9.2c-5.2-9.6-10.2-19.3-14.2-29.4C543.2,1118.6,545.1,1113.9,545.4,1110.3z"/>
	<path d="M1084,326.7c0.5-12,6.4-17.6,14.6-18.2c8.4-0.6,14.9,8,14.7,17.8c-0.2,7.5-5.5,12.1-14.4,11.7
		C1088.4,337.6,1083.1,334.7,1084,326.7z"/>
	<path d="M156.1,958.2c1.3-1.5,3.3-4.1,5.5-6.5c1.5-1.6,3.3-3.2,5.2-4.3c2.1-1.1,4.9-2.7,6.8-2.1c3.2,1,6.6,3,8.7,5.5
		c4.6,5.4,3.6,15.5-1.9,20.3c-2.9,2.6-6.6,4.3-10.3,5.9c-1.2,0.5-3.4-0.6-4.9-1.4C161.5,973.6,156.2,964.2,156.1,958.2z"/>
	<path d="M981.2,348.8c-4.1,0.4-8.3,0.7-12.4,1.3c-5.6,0.8-10.2-1.1-13.5-5.6c-1.3-1.8-2.2-4.5-2.1-6.7c0-1.4,2-3.2,3.5-3.9
		c3.2-1.4,6.7-2.6,10.1-3.2c3.9-0.7,7.9-1,11.9-1.1c7.6-0.1,14.2,6.5,13.5,13.2c-0.6,5.8-1.4,6.4-7.4,6.2c-1.2,0-2.3,0-3.5,0
		C981.2,348.9,981.2,348.8,981.2,348.8z"/>
	<path d="M1231.9,605.8c1.7-0.7,3.4-1.2,5-2c1.3-0.6,2.5-1.8,3.8-2c6.4-0.9,12.8-1.7,19.3-2.4c5.7-0.7,9.5,2.8,12.5,6.8
		c2.8,3.9-1.5,9.6-5.2,10.2c-10.5,1.7-21.2,3.9-31.1-1.5c-2.8-1.6-4.1-5.9-6.1-8.9C1230.7,606,1231.3,605.9,1231.9,605.8z"/>
	<path d="M932.7,295.5c11.2,0.5,11.7,9.1,12.8,17c0.8,5.6,1.2,11.3,1.2,16.9c0,3.6-1.3,7.2-2,10.8c-9.6-2.6-13.7-8.4-14.3-19.8
		c-0.3-5.8-0.5-11.6-0.2-17.4C930.3,300.5,931.8,298,932.7,295.5z"/>
	<path d="M1215.8,622.7c10.7,3.6,13.6,10.2,13.1,19.1c-0.2,4-0.3,8.2,0.7,11.9c1.4,5-1.1,7.4-4.5,9.6c-2,1.3-9.6-2.4-10.5-5
		c-2.7-8.3-4.4-16.7-2.1-25.4C1213.6,629.5,1214.8,626.1,1215.8,622.7z"/>
	<path d="M894.9,340.4c5.9-8.5,14.2-7.3,22.5-6.6c3.7,0.3,7.2,0.1,10.1,3.2c4,4.2,4.9,9.5,1.6,13.3c-2.3,2.7-10.5,2.8-13.9,0.5
		c-4.1-2.6-7.2-7.2-13.4-6C899.9,345.2,897.3,342.1,894.9,340.4z"/>
	<path d="M943.2,348.1c9,11,11.6,23.6,8.2,37.7c-7.8-0.3-11.4-3.3-12.7-9.7c-0.9-4.4-1.8-8.8-2.5-13.2
		C935.3,356.7,935.6,350.9,943.2,348.1z"/>
</g>
</svg>
