<?xml version="1.0" encoding="utf-8"?>
<!-- Generator: Adobe Illustrator 27.4.1, SVG Export Plug-In . SVG Version: 6.00 Build 0)  -->
<svg version="1.1" id="Camada_1" xmlns="http://www.w3.org/2000/svg" xmlns:xlink="http://www.w3.org/1999/xlink" x="0px" y="0px"
	 viewBox="0 0 1500 1500" style="enable-background:new 0 0 1500 1500;" xml:space="preserve">
<image style="overflow:visible;" width="1450" height="993" xlink:href="../../Library/CloudStorage/GoogleDrive-lucas.pretti@okfn.org/.shortcut-targets-by-id/0B79xBlVd-Nf6ZzMzUlZSTWwxV28/Open Knowledge All Team/Brand 2023/Illustrations/L 1500px - web transp/Icons/board.png"  transform="matrix(1 0 0 1 -2106 1417.5)">
</image>
<image style="overflow:visible;" width="1133" height="1032" xlink:href="../../Library/CloudStorage/GoogleDrive-lucas.pretti@okfn.org/.shortcut-targets-by-id/0B79xBlVd-Nf6ZzMzUlZSTWwxV28/Open Knowledge All Team/Brand 2023/Illustrations/L 1500px - web transp/Icons/books.png"  transform="matrix(1 0 0 1 -2106 1417.5)">
</image>
<image style="overflow:visible;" width="1357" height="1143" xlink:href="../../Library/CloudStorage/GoogleDrive-lucas.pretti@okfn.org/.shortcut-targets-by-id/0B79xBlVd-Nf6ZzMzUlZSTWwxV28/Open Knowledge All Team/Brand 2023/Illustrations/L 1500px - web transp/Icons/campagne.png"  transform="matrix(1 0 0 1 -2106 1417.5)">
</image>
<image style="overflow:visible;" width="845" height="1103" xlink:href="../../Library/CloudStorage/GoogleDrive-lucas.pretti@okfn.org/.shortcut-targets-by-id/0B79xBlVd-Nf6ZzMzUlZSTWwxV28/Open Knowledge All Team/Brand 2023/Illustrations/L 1500px - web transp/Icons/case-study.png"  transform="matrix(1 0 0 1 -2106 1417.5)">
</image>
<image style="overflow:visible;" width="1265" height="951" xlink:href="../../Library/CloudStorage/GoogleDrive-lucas.pretti@okfn.org/.shortcut-targets-by-id/0B79xBlVd-Nf6ZzMzUlZSTWwxV28/Open Knowledge All Team/Brand 2023/Illustrations/L 1500px - web transp/Icons/collaboration.png"  transform="matrix(1 0 0 1 -2106 1417.5)">
</image>
<image style="overflow:visible;" width="1339" height="1035" xlink:href="../../Library/CloudStorage/GoogleDrive-lucas.pretti@okfn.org/.shortcut-targets-by-id/0B79xBlVd-Nf6ZzMzUlZSTWwxV28/Open Knowledge All Team/Brand 2023/Illustrations/L 1500px - web transp/Icons/connect-community.png"  transform="matrix(1 0 0 1 -2106 1417.5)">
</image>
<image style="overflow:visible;" width="1357" height="681" xlink:href="../../Library/CloudStorage/GoogleDrive-lucas.pretti@okfn.org/.shortcut-targets-by-id/0B79xBlVd-Nf6ZzMzUlZSTWwxV28/Open Knowledge All Team/Brand 2023/Illustrations/L 1500px - web transp/Icons/contact.png"  transform="matrix(1 0 0 1 -2106 1417.5)">
</image>
<image style="overflow:visible;" width="1059" height="1080" xlink:href="../../Library/CloudStorage/GoogleDrive-lucas.pretti@okfn.org/.shortcut-targets-by-id/0B79xBlVd-Nf6ZzMzUlZSTWwxV28/Open Knowledge All Team/Brand 2023/Illustrations/L 1500px - web transp/Icons/create-open-data.png"  transform="matrix(1 0 0 1 -2106 1417.5)">
</image>
<image style="overflow:visible;" width="1198" height="998" xlink:href="../../Library/CloudStorage/GoogleDrive-lucas.pretti@okfn.org/.shortcut-targets-by-id/0B79xBlVd-Nf6ZzMzUlZSTWwxV28/Open Knowledge All Team/Brand 2023/Illustrations/L 1500px - web transp/Icons/data.png"  transform="matrix(1 0 0 1 -2106 1417.5)">
</image>
<g>
	<path d="M478.5,902.9c-12.8-7.9-13.7-21.4-16.3-33.9c-4.1-19.8-3.6-40-4.2-60.1c-0.4-15.8-0.5-31.6-0.4-47.4
		c0.2-20.5,1.7-40.9,3.7-61.3c0.8-8.1,1.7-16.1,3.9-23.9c4.1-14.6,12.4-24.7,28.2-28.6c16.8-4.2,33.4-6.9,50.7-5.3
		c2.1,0.2,4.2-0.4,6.3-0.7c0.4-0.6,0.7-1.1,1.1-1.7c-2.6-2.2-5.4-4.2-7.9-6.5c-23.6-20.9-45.3-43.7-65.2-68.1
		c-9.3-11.4-17.1-24.1-25.3-36.3c-9.3-14-18.1-28.4-27.6-42.3c-2.1-3.1-6-4.8-9.1-7.2c-0.1-0.9,0.2-3-0.5-3.4c-4-2.4-8-5.4-12.4-6.2
		c-8-1.4-16.2-1.3-24.3-2c-4.9-0.5-9.8-1.3-14.7-2.1c-3.3-0.5-5.1-0.2-3.5,3.8c0.5,1.2,0,2.9-0.5,4.3c-2.8,7.4-5.8,14.6-8.5,22
		c-4.3,11.4-8.3,23-12.8,34.4c-3.8,9.8-8.1,19.3-11.5,27.4c1.3,4,2.5,6.6,3,9.3c0.7,3.8-2.1,5.3-5,7c-8.9,5.2-18.8,4.5-28.4,5.3
		c-16.4,1.4-32.8,2.6-49.2,3.4c-9.1,0.4-18.5,0-25.3-7.6c-1.6-1.7-2.4-4.6-2.5-7c-0.2-2.2,1-4.3,4.2-4c27.7,2.7,55.1-3.4,82.7-3.4
		c1.1,0,2.8-1.4,3.2-2.6c7.9-24.8,15.7-49.7,23.3-74.6c5.3-17.3,10.4-34.7,15.6-52.1c3.9-13.2,7.3-26.6,11.5-39.8
		c8.7-27.2,17.6-54.4,26.8-81.5c3-8.9,7.2-17.5,11.1-26.2c1.5-3.3,1-5.1-2.9-5.2c-6.6-0.3-13.2-0.8-19.9-0.7
		c-12.9,0.2-25.9,0.6-38.8,1c-1.7,0-3.3,0.4-5,0.4c-7.9,0.1-15.8,0.2-23.7,0.3c-11.3,0-22.6,0.1-33.9-0.1
		c-13.3-0.1-26.5-0.3-39.8-0.7c-5.3-0.2-10.9-5.2-11.1-10.1c-0.1-2.3,1-4.9,4-5.4c7.6-1.2,15.1-2.9,22.7-3.5
		c11.2-0.9,22.5-1.2,33.8-1.6c10.1-0.3,20.3-0.1,30.4-0.5c19.4-0.7,38.8-2.1,58.2-2.1c11.8,0,23.8,1.6,35.5,3.6
		c10.8,1.8,10.9,2.7,12.8,16.7c1.3,0.2,2.8,0.7,4.2,0.6c6.6-0.2,13.2-0.7,19.8-0.6c10.6,0.2,21.2,0.3,31.7,1.3
		c9.9,0.9,19.8,2.3,29.4,4.7c16.3,4,30.7,12.5,44.7,21.7c18.9,12.5,37.9,24.7,56.7,37.3c22.2,14.9,46.8,25.3,70.6,36.9
		c18.7,9.1,37.3,18.4,56,27.3c11.3,5.4,22.9,10.4,34.3,15.7c24.5,11.1,50,19.3,75.3,28c13,4.5,25.3,11.3,37.8,17.3
		c6.3,3,12.5,6.1,18.4,9.8c10.8,6.9,20.3,15.7,25.8,27.1c10.9,22.4,23.1,43.9,37.1,64.5c9.1,13.3,17.2,27.2,26.1,40.7
		c5.4,8.2,11.2,16.1,17.1,23.9c0.9,1.2,3.1,1.7,4.8,1.9c12.1,1.4,24.1,2.6,36.2,4.1c3.1,0.4,6.2,1.4,9,2.7c4.3,1.9,2.9,6.4,3.2,9.7
		c0.6,6.2-1.7,8.4-7.9,8.3c-11.4-0.3-22.9-1.1-34.3-1.2c-3.4,0-7.3,1.1-10.1,3c-2.8,2-4.2,1.1-6.5-0.3c-2.6-1.5-5.6-3.1-8.4-3.1
		c-18.1,0-36.2,0.5-54.2,0.7c-27.4,0.4-54.8,0.7-82.3,1.2c-15.3,0.3-30.5,1.2-45.8,1.4c-21.3,0.3-42.6,0.4-63.8,0.4
		c-8.3,0-16.5-0.9-24.8-1.3c-1-0.1-1.9,0.2-3.5,0.5c1.9,4.6,3.3,9,5.5,12.9c7.4,13.6,10.5,28.7,14.2,43.5
		c2.7,10.8,5.3,21.7,7.7,32.5c1.6,7.3,2.7,14.7,3.9,22c2,12.3,5,24.5,5.4,36.9c0.5,16.2-4.1,31.2-19,40.8c-4,2.6-7.9,5.6-12.2,7.7
		c-2.9,1.4-6.4,2.4-9.6,2.4c-9.4,0-19.2,0.9-27.2-5.1c-4.8-3.6-9.8-7.9-12.5-13.1c-13.7-25.6-26.8-51.5-40-77.4
		c-5.8-11.2-10.8-22.9-17.1-33.8c-7.9-13.4-16.9-26.1-25.3-39.2c-4.8-7.5-9.2-15.3-13.8-23c-3-5.1-7.8-6.9-13.3-7.4
		c-6.3-0.5-12.6-1-18.9-0.9c-6.4,0.1-12.9,1-19.3,1.3c-6,0.3-11.9,3-18.1-1.3c-3.7-2.6-14.1,3.2-15.6,8.2c-2.7,9-5.4,18.1-6.9,27.4
		c-1.7,10.6-2.8,21.4-3.1,32.2c-0.4,12.6,0.4,25.3,0.5,38c0.1,11.3,0,22.6,0.2,33.9c0.1,7.7,0.6,15.5,0.9,23.2
		c0.4,9.2,0.5,18.4,1.2,27.5c0.4,4.7,2,9.2,2.9,13.9c1.1,6,1.5,12.2,3.1,18.1c0.8,3,1.9,6.3,6.1,7.8c4.3,1.5,8.1,4.5,11.8,7.3
		c6.6,5,14.1,6.1,22.1,6.1c21.8-0.1,43.7-0.1,65.5-0.1c18.5,0,37.1-0.3,55.6,0c7.7,0.1,15.4,2.2,23.1,2c9.7-0.3,18.2,2.8,26.4,7.3
		c15.3,8.5,22.5,22.9,27.3,38.9c5.3,17.4,5.3,35.5,7,53.4c2.5,26.7,5.2,53.4,7.3,80.1c1.2,15.1,1.4,30.3,2.2,45.4
		c0.7,13.1,1.8,26.2,2.2,39.4c0.3,10.2,0.8,20.7-3.5,30.4c-3.3,7.4-6.7,14.9-11,21.8c-4.7,7.6-12.8,10.5-21.3,12
		c-5.6,1-11.2,2.1-16.8,2.5c-17.5,1.2-35,2.3-52.6,3.1c-13.8,0.6-27.7,0.8-41.5,1.1c-15.4,0.3-30.9,0.5-46.3,0.7
		c-16.4,0.2-32.9,0.5-49.3,0.6c-21.1,0.2-42.1,0.1-63.2,0.3c-19.4,0.2-38.8,0.8-58.2,1c-27.8,0.3-55.5,0.9-83.3,0.3
		c-13.2-0.3-26.3-3.2-39.5-4.6c-4.7-0.5-9.7,0.4-14.3-0.3c-13.1-2.1-26.1-4.9-39.2-7.2c-1.8-0.3-4-0.1-5.5,0.7
		c-9.4,5.1-18,0.5-19.8-9.4c-6.6-36.4-7.3-73.1-6.4-109.9c1-44.4,2-88.8,3.3-133.2c0.2-8.4,2.5-16.8,2.5-25.3
		c0-9.6,5-16.1,11.4-21.8c7.7-6.8,16.9-9.5,27.1-8c1,0.1,1.8,1.6,2.8,1.7c1.2,0.1,3.5-0.5,3.5-0.8c0-7.4,6.4-7.5,10.7-8.3
		c8.3-1.6,16.9-1.9,25.5-2.5c12.4-0.8,24.8-1.3,37.1-1.9c11.8-0.6,23.5-1,35.3-1.7c7.2-0.4,14.3-1.3,21.5-2c8-0.7,16-1.5,24-1.9
		c8.2-0.4,16.4-0.4,24.6-0.6c8.4-0.2,16.8-0.2,25.2-0.5c12.3-0.4,24.6-1.1,36.9-1.6c3.5-0.1,7.1,0,10.6,0
		C478,903.6,478.2,903.2,478.5,902.9z M226,930.8c-2.1,1.2-3.7,2.6-5.5,2.9c-12.2,2.4-20.8,16.7-21.1,27.3
		c-0.4,12.8-0.4,25.6-0.7,38.3c-0.1,5.9-0.7,11.8-0.4,17.7c0.4,9.4,2.1,18.8,2,28.2c-0.1,22.4-1.1,44.9-1.4,67.3
		c-0.1,14.3,0.3,28.6,0.9,42.9c0.7,16.4,1.8,32.8,3,49.1c0.1,1.3,1.8,3.2,3.1,3.6c5.8,1.5,11.7,2.9,17.6,3.6
		c12.2,1.3,24.6,1.4,36.8,3.3c16.7,2.6,33.1,6.2,50.3,5c14.8-1.1,29.7,0.2,44.5,0.4c11.8,0.2,23.5,0.6,35.3,0.4
		c25-0.4,50-1.3,75-1.8c16.1-0.3,32.1-0.4,48.2-0.4c18.4,0,36.8,0,55.1,0.1c7.1,0,14.1,0.3,21.2,0c13.6-0.6,27.2-1.6,40.8-2.3
		c10.2-0.5,20.4-0.3,30.5-0.9c11.1-0.6,22.2-2.7,33.3-2.5c11.9,0.3,19.6-6.2,26-14.2c9.8-12.2,14.9-26,13.3-42.6
		c-2.3-23.2-1.9-46.6-3.7-69.8c-2.2-28.5-5.3-57-8.1-85.5c-1.2-12.7-2.2-25.5-4.1-38.2c-0.9-6.1-2.3-12.5-8-16.6
		c-12.9-9.2-26.9-14.5-43.1-13c-1.2,0.1-2.4-0.8-3.7-1.2c-1-0.4-2.1-1-3.1-1c-16.4-0.5-32.9-0.9-49.3-1.2
		c-19.7-0.4-39.4-0.9-59.2-0.8c-26.2,0.1-52.3,0.9-78.5,1.2c-9.3,0.1-18.5-0.6-27.8-0.4c-8.6,0.2-17.1,1.4-25.7,1.7
		c-18.9,0.5-37.8,0.5-56.7,1.2c-17.2,0.6-34.5,1.9-51.7,2.7c-20,0.9-40.1,1.7-60.1,2C242.3,937.6,232.7,938.7,226,930.8z
		 M664.3,779.5c7.8-3.4,14.7-6.7,21.8-9.6c4.8-2,9.7-2.6,15-0.3c12.2,5.2,17.4,15.6,20.5,27.2c2,7.3,3.7,15.1-0.1,22.4
		c-1,1.9-3.8,3.6-6,3.9c-5.2,0.5-9.8-7.4-8.1-12.7c2.8-8.6,1.5-16.8-3.4-24.3c-1.8-2.8-4.2-5-7.9-3.6c-8.3,3.2-16.6,6.6-25.5,10.1
		c2.6,5.1,4.8,9.5,7,13.9c4.2,8.2,8.1,16.6,12.6,24.6c1.4,2.5,4.3,4.4,6.8,6c5.7,3.6,12.3,4.1,18.9,4.2c10.9,0.2,16.6-3.5,17.8-12.3
		c0.5-3.8,1-7.7,0.5-11.4c-1.7-12.3-3.5-24.5-5.9-36.7c-2.5-12.9-5.5-25.7-8.4-38.5c-0.3-1.5-1.1-2.8-1.4-4.3
		c-6.3-37.5-24.4-70.9-38.2-105.7c-6.5-16.4-9.7-33.3-10.8-50.7c-0.2-3.9,1.2-8.7,3.5-11.9c6.4-8.8,13.1-17.6,20.7-25.3
		c6.4-6.5,13.9-12.3,21.8-16.9c11.5-6.8,24.7-7.3,37.6-7c3.9,0.1,9.6-0.8,10.5,6.9c-17.2,5.6-36.5,7.5-49.8,23.1
		c1.5,0,2.5,0.2,3.4,0c22.8-4.3,45.6-9,68.5-12.8c17.7-2.9,35.7-3.9,53.6-1.3c4.2,0.6,8.5,1.8,12.3,3.7c1.8,0.9,3.8,5.3,3.2,6.1
		c-1.7,2.1-1.4,5.8-6.3,5.9c-17.9,0.2-35.9-0.1-53.5,2.3c-25.3,3.4-50.5,8.4-75.4,13.9c-9,2-17.3,7.4-25.7,11.5
		c-1.3,0.7-2.7,3.2-2.5,4.8c0.7,6.9,1.3,13.9,3.2,20.5c2.9,10.3,6.5,20.5,10.3,30.6c0.8,2.3,3.4,5.5,5.2,5.6
		c14.8,0.4,29.5,0.2,44.3-0.1c6.2-0.1,12.4-0.7,19.7-1.2c-5.4-6.8-9.7-12.9-14.6-18.5c-7.2-8.2-16.2-14.9-20.5-25.4
		c-0.7-1.7-0.9-4.8,0.1-5.7c1.4-1.2,4.4-1.9,6.2-1.2c2.9,1.1,5.6,3.1,7.7,5.3c7.2,7.4,14.4,14.8,20.9,22.8c4.4,5.5,8.2,11.7,11,18.1
		c1.3,3.1,2.5,4.3,5.4,4.1c16.6-0.9,33.1-1.9,49.7-2.8c4.4-0.2,8.9-0.5,14.5-0.8c-3-3.7-4.9-6.9-7.5-9.3
		c-10.8-10.4-21.6-20.7-32.7-30.7c-8.9-8-20.2-13.8-25.1-25.2c0.5-1.9,1-3.5,1.8-6.3c2.1,0.6,5.1,0.6,7.1,2
		c27.1,18,51,39.6,70.7,65.5c1.9,2.5,3.8,3.1,6.7,3.1c21.8,0,43.6,0.3,65.4,0.4c13.3,0.1,26.5,0,39.8,0c0.2-0.6,0.4-1.2,0.6-1.8
		c-1.6-2.4-3.2-4.9-4.8-7.3c-12.3-18.2-24.5-36.4-36.8-54.5c-9.8-14.4-19.6-28.8-29.5-43.1c-7.9-11.4-16.1-22.5-27.6-30.6
		c-18.9-13.3-39.7-22.8-61.6-30.2c-20.3-6.9-40.6-13.8-60.3-22.2c-23.7-10.1-46.7-21.7-69.9-33c-22.3-10.9-44.3-22.2-66.4-33.5
		c-11.7-6-23.5-11.8-34.8-18.6c-24.2-14.6-47.8-30.2-72.2-44.4c-12.1-7.1-25-14.2-38.5-17.3c-19-4.5-38.9-5.1-58.3-7.8
		c-5-0.7-7.3,1.1-8.7,5.5c-5.4,16.6-11,33-16.3,49.6c-4.7,14.9-9.2,29.8-13.7,44.8c-2,6.7-3.8,13.4-5.4,20.1
		c-0.9,3.6-0.8,7.6-2.3,10.9c-4.6,9.9-7.1,20.1-7.6,30.6c8.8,0.5,17.3,1,25.9,1.5c4.2,0.3,8.3,1,12.4,1.1c7.3,0.1,13.7,2.5,18.9,7.6
		c4.2,4.1,8.4,8.3,12.4,12.6c7,7.6,14,15.2,20.8,22.9c1.7,2,3,4.3,4.7,6.4c6,7.5,12.2,14.8,18,22.4c9.3,11.9,17.7,24.5,27.6,35.9
		c9.9,11.4,21.1,21.5,31.7,32.3c5.3,5.4,10.3,11.1,15.7,16.4c3.1,3.1,6.9,5.5,10.1,8.6c5.5,5.3,10.3,11.2,16,16.1
		c8.9,7.7,16.2,16.5,21.8,26.8c5.2,9.8,10.7,19.5,16.4,29.1c4.2,7.1,8.9,13.9,13.2,20.8c15.9-5.8,30.9-13.3,48.7-16.7
		c-2.4,2.3-4.6,3.9,0.6,4.3c-12.6,12.9-30.1,14.1-44,23.2C646.6,742.5,655.3,760.8,664.3,779.5z"/>
	<path d="M1033.8,676.2c6.4-1.6,12.1-2.9,17.6,1.6c2.3,1.9,5.6,2.6,8.2,4.2c7.4,4.6,9.1,12.8,10.9,20.1c3,12,3.5,24.5,2.9,37
		c-0.4,8.5,1.1,17,1,25.5c-0.2,14.4-1.1,28.8-1.3,43.2c-0.3,15.8-0.3,31.6-0.1,47.5c0.1,12,0.8,23.9,0.9,35.9c0.1,3.6,0,7.4-4.1,9.4
		c-0.8,0.4-1,1.9-1.8,3.6c8.5,0.5,16.6,0.9,24.6,1.3c16.3,0.9,32.7,1.7,49,2.5c21,1,42.1,1.6,63.1,2.9c15.9,1,31.6,2.9,47.5,4.3
		c6.3,0.6,12.9,0.3,19,1.9c4.6,1.2,9.4,3.9,12.9,7.3c12,11.7,20,25.9,24.9,42c11.6,38.2,14.6,77.6,15.3,117
		c0.5,28.9-1.7,57.8-3.4,86.7c-0.8,14.1-5.3,27.5-13.9,38.8c-4.7,6.1-11.3,10.5-19.1,12.4c-11.5,2.8-23,6.5-34.7,8.1
		c-13.1,1.8-26.4,1.8-39.6,2.3c-13,0.5-25.9,0.7-38.9,0.7c-15,0-30-0.4-45.1-0.8c-7.1-0.2-14.1-0.4-21.1-1
		c-7.4-0.7-14.7-2.2-22.1-2.6c-8.9-0.6-17.9-0.6-26.9-0.5c-18.5,0.2-37.1,0.5-55.6,0.9c-14.1,0.3-28.2,0.5-42.2,1.2
		c-10.8,0.5-21.6,1.5-32.4,2.3c-12.1,0.9-24.1,1.9-36.2,2.5c-16.4,0.8-32.7,1.7-49.1,1.9c-13.2,0.2-26.5,0.2-39.6-1.2
		c-14.3-1.5-28.5-4.7-42.7-7.4c-4.8-0.9-6.4-3.9-6.1-9.3c0.1-1.6-0.3-3.3-0.2-4.9c0.3-5,4.3-7.6,9.1-6c9.9,3.2,20.2,4.4,30.6,4.5
		c16.6,0.2,33.2,0.3,49.7,0.3c13.2,0.1,26.4,0.3,39.6-0.1c6.9-0.2,13.7-1.6,20.6-2.1c8.3-0.6,16.6-0.7,24.9-1.1
		c4.7-0.2,9.5-0.9,14.2-1.1c7.4-0.4,14.8-0.7,22.3-1c14.5-0.6,29.1-1.2,43.6-1.6c11.9-0.4,23.9,0.6,35.7-0.9
		c20.4-2.7,40.4,0.8,60.6,1.8c9.9,0.5,19.8,2.5,29.7,2.9c9.2,0.3,18.4-0.8,27.7-0.9c15.4-0.3,30.8-0.1,46.1-0.7
		c21.2-0.9,42.5-0.8,63.3-6.6c21.6-6,34.1-18.5,35.4-40.3c1.8-31.6,2.9-63.4,2.3-95.1c-0.5-23.8-3.9-47.6-9.6-70.9
		c-3.7-15.1-9.3-29.3-18.8-42c-5.2-6.9-11.5-10.1-20.2-10.3c-7.2-0.2-14.3-2.2-21.5-2.9c-6.7-0.6-13.4-0.5-20.1-0.9
		c-16.4-1-32.7-2.1-49.1-3c-9.4-0.5-18.9-0.7-28.4-1c-0.7,0-1.3,0.2-2,0.1c-15.7-2.6-31.5-1.9-47.3-2.5c-21.3-0.9-42.7-0.6-64-0.8
		c-21-0.1-42.1,0.2-63.1-0.2c-11.6-0.2-23.2-1.9-34.8-2.5c-7.9-0.4-15.8-0.1-23.8,0c-19.3,0.1-38.5,0.3-57.8,0.3
		c-13.7,0-27.5-0.8-41.2-0.1c-11.8,0.6-23.4,3-35.2,4.3c-6.4,0.7-12.8,0.7-19.2,1.5c-3.1,0.4-6,2-9,3c-5,1.6-8.8-0.3-10.4-5.3
		c-0.6-1.8-1.8-3.5-2.1-5.4c-0.7-4.1,6.6-11.8,11-12.1c2.1-0.1,4.3-0.4,6.2-1.2c8.3-3.3,17.2-2.1,25.7-3.7c24.5-4.5,49.3-4.9,74-5.1
		c30.5-0.3,61.1,0.5,91.6,0.4c18.4,0,36.8-1,55.2-1.3c9.2-0.1,18.5,0.6,27.7,0.2c6.2-0.3,12.6-1.3,18.6-2.8
		c5.2-1.3,6.3-5.9,6.3-10.7c0-9.3-0.1-18.5-0.2-27.8c-0.1-18.1-0.1-36.3-0.1-54.4c0-12,0.1-23.9-0.3-35.9c-0.4-9-1.5-17.9-2.4-26.9
		c-1.7-16.6-3.1-33.3-5.3-49.8c-0.8-5.6-3.8-10.9-5.8-16.3C1034.8,678.5,1034.4,677.5,1033.8,676.2z"/>
</g>
</svg>
