<?xml version="1.0" encoding="utf-8"?>
<!-- Generator: Adobe Illustrator 27.4.1, SVG Export Plug-In . SVG Version: 6.00 Build 0)  -->
<svg version="1.1" id="Camada_1" xmlns="http://www.w3.org/2000/svg" xmlns:xlink="http://www.w3.org/1999/xlink" x="0px" y="0px"
	 viewBox="0 0 1500 1500" style="enable-background:new 0 0 1500 1500;" xml:space="preserve">
<image style="overflow:visible;" width="1450" height="993" xlink:href="../../Library/CloudStorage/GoogleDrive-lucas.pretti@okfn.org/.shortcut-targets-by-id/0B79xBlVd-Nf6ZzMzUlZSTWwxV28/Open Knowledge All Team/Brand 2023/Illustrations/L 1500px - web transp/Icons/board.png"  transform="matrix(1 0 0 1 -2106 1417.5)">
</image>
<image style="overflow:visible;" width="1133" height="1032" xlink:href="../../Library/CloudStorage/GoogleDrive-lucas.pretti@okfn.org/.shortcut-targets-by-id/0B79xBlVd-Nf6ZzMzUlZSTWwxV28/Open Knowledge All Team/Brand 2023/Illustrations/L 1500px - web transp/Icons/books.png"  transform="matrix(1 0 0 1 -2106 1417.5)">
</image>
<image style="overflow:visible;" width="1357" height="1143" xlink:href="../../Library/CloudStorage/GoogleDrive-lucas.pretti@okfn.org/.shortcut-targets-by-id/0B79xBlVd-Nf6ZzMzUlZSTWwxV28/Open Knowledge All Team/Brand 2023/Illustrations/L 1500px - web transp/Icons/campagne.png"  transform="matrix(1 0 0 1 -2106 1417.5)">
</image>
<image style="overflow:visible;" width="845" height="1103" xlink:href="../../Library/CloudStorage/GoogleDrive-lucas.pretti@okfn.org/.shortcut-targets-by-id/0B79xBlVd-Nf6ZzMzUlZSTWwxV28/Open Knowledge All Team/Brand 2023/Illustrations/L 1500px - web transp/Icons/case-study.png"  transform="matrix(1 0 0 1 -2106 1417.5)">
</image>
<image style="overflow:visible;" width="1265" height="951" xlink:href="../../Library/CloudStorage/GoogleDrive-lucas.pretti@okfn.org/.shortcut-targets-by-id/0B79xBlVd-Nf6ZzMzUlZSTWwxV28/Open Knowledge All Team/Brand 2023/Illustrations/L 1500px - web transp/Icons/collaboration.png"  transform="matrix(1 0 0 1 -2106 1417.5)">
</image>
<image style="overflow:visible;" width="1339" height="1035" xlink:href="../../Library/CloudStorage/GoogleDrive-lucas.pretti@okfn.org/.shortcut-targets-by-id/0B79xBlVd-Nf6ZzMzUlZSTWwxV28/Open Knowledge All Team/Brand 2023/Illustrations/L 1500px - web transp/Icons/connect-community.png"  transform="matrix(1 0 0 1 -2106 1417.5)">
</image>
<image style="overflow:visible;" width="1357" height="681" xlink:href="../../Library/CloudStorage/GoogleDrive-lucas.pretti@okfn.org/.shortcut-targets-by-id/0B79xBlVd-Nf6ZzMzUlZSTWwxV28/Open Knowledge All Team/Brand 2023/Illustrations/L 1500px - web transp/Icons/contact.png"  transform="matrix(1 0 0 1 -2106 1417.5)">
</image>
<image style="overflow:visible;" width="1059" height="1080" xlink:href="../../Library/CloudStorage/GoogleDrive-lucas.pretti@okfn.org/.shortcut-targets-by-id/0B79xBlVd-Nf6ZzMzUlZSTWwxV28/Open Knowledge All Team/Brand 2023/Illustrations/L 1500px - web transp/Icons/create-open-data.png"  transform="matrix(1 0 0 1 -2106 1417.5)">
</image>
<image style="overflow:visible;" width="1198" height="998" xlink:href="../../Library/CloudStorage/GoogleDrive-lucas.pretti@okfn.org/.shortcut-targets-by-id/0B79xBlVd-Nf6ZzMzUlZSTWwxV28/Open Knowledge All Team/Brand 2023/Illustrations/L 1500px - web transp/Icons/data.png"  transform="matrix(1 0 0 1 -2106 1417.5)">
</image>
<image style="overflow:visible;" width="1162" height="1032" xlink:href="../../Library/CloudStorage/GoogleDrive-lucas.pretti@okfn.org/.shortcut-targets-by-id/0B79xBlVd-Nf6ZzMzUlZSTWwxV28/Open Knowledge All Team/Brand 2023/Illustrations/L 1500px - web transp/Icons/funders.png"  transform="matrix(1 0 0 1 -2106 1417.5)">
</image>
<g>
	<path d="M562.3,681c-4.1-23-10.1-44.3-20.7-64.1c-7.3-13.5-14.6-26.9-22.1-40.2c-4.3-7.6-8.6-15.3-13.4-22.5
		c-6-9-13-17.3-18.9-26.4c-6.2-9.5-0.2-19.5,11.2-19.4c2,0,4.2,0.9,6,2c12.1,7.2,24,14.8,36.3,21.8c8.7,5,17.9,9,26.9,13.6
		c9.3,4.8,18.3,10.3,27.9,14.4c13.4,5.7,27.2,10.5,41,15.4c9.2,3.3,18.7,6.1,28,9.1c0.9,0.3,1.9,0.4,3.3,0.7c0.7-1.8,1.4-3.4,2-5.1
		c6.8-22.5,14.5-44.7,20-67.5c7.3-30,13.3-60.4,18.8-90.8c4.1-22.7,6.7-45.6,9.4-68.5c2.1-17.5,3.4-35,4.8-52.5
		c0.9-11.4,1.7-22.8,2.1-34.2c0.2-4.7,3.6-6.1,6.5-5.5c9.4,1.8,15.4,2.1,18.5,13.9c2.7,10.1,4.7,20.3,6.4,30.6
		c2.9,17.6,5.1,35.4,8,53c1.7,10.3,3.7,20.5,6,30.7c2.5,11.4,5.4,22.7,8.3,34c2.7,10.2,5.8,20.3,8.7,30.5
		c4.4,15.4,8.9,30.7,13.2,46.2c4.5,16.2,9,32.4,13.2,48.7c2.2,8.4,3.6,17,5.7,25.4c0.9,3.5,2.6,6.7,4.2,10.7
		c6.4-2.7,12.9-4.9,19.1-8c13.2-6.7,26.3-13.6,39.3-20.7c25.4-13.9,50.8-27.8,75.9-42.2c11.5-6.5,22.3-14.4,33.8-20.9
		c2.4-1.4,7.4-0.8,9.8,0.9c5.5,3.9,9.5,10.1,5.9,18.4c-8.9,20.2-19.1,39.7-30.2,58.8c-14,24.1-26.7,49-39.6,73.7
		c-3.1,6-5.1,12.6-7.9,18.8c-1.8,3.9-4.5,5.5-8.8,2.8c-1.7-1.1-4.1-1.1-6-1.8c-5.6-2.1-6.8-3.7-4.9-9.7c2.8-8.7,5.9-17.3,9.4-25.6
		c5-11.6,10.3-23,15.9-34.3c2.7-5.4,6.4-10.4,9.6-15.6c4.1-6.8,8.1-13.7,12-20.6c4-7.2,7.9-14.6,11.8-21.9c0.7-1.4,1.3-2.9,2.3-5
		c-47.1,25.4-90.8,55.6-141.9,72.7c3.3,11.1,6.4,21.7,9.6,32.2c-8.2,3.6-16.3,4.6-23.7,1.1c-3.6-1.7-6.8-6.2-8.1-10.1
		c-6-17.6-11.9-35.3-16.9-53.3c-13.2-47.3-25.9-94.6-38.7-142c-4.6-17.3-8.6-34.9-12.9-52.3c-0.4-1.6-0.8-3.2-2.4-4.8
		c-0.9,7.1-1.7,14.2-2.7,21.4c-1.7,12.6-2.7,25.4-5.3,37.9c-6.1,29.7-11.8,59.6-19.7,88.9c-7.6,27.9-17.7,55.1-27.2,82.4
		c-6,17.4-13,34.4-19.6,51.6c-1.5,4-4.6,6.2-8.9,6.8c-1.3,0.2-3.4,1.1-3.4,1.8c-0.8,7.9-6.4,11.3-12.5,14.7
		c-20.8,11.9-43.9,17.5-66.8,23.6c-12.9,3.4-25.6,7.8-38.4,11.6c-6.4,1.9-12.9,3.2-19.2,5c-4.9,1.4-9.9,2.9-14.6,4.8
		c-14.5,6-29.6,9.6-45,12.6c-23.5,4.6-46.7,10.3-70.1,15.4c-12.9,2.9-25.9,5.6-38.9,8.5c-2.2,0.5-4.3,1.2-6.4,2.6
		c8.6,1.4,17.2,2.6,25.7,4.1c39.5,7.2,78,18.5,116.5,29.7c26,7.6,52.4,14,78.4,21.9c31.5,9.6,62.8,20,94,30.5
		c6.6,2.2,12.6,6.3,18.9,9.6c0.8,0.4,1.5,1.3,1.8,2.2c6.4,14.6,13.2,29.1,19,44c8.9,22.9,17.3,46,25.3,69.2
		c7.2,21,13.8,42.3,20.2,63.5c3.7,12.3,6.5,24.9,9.7,37.3c1.4,5.6,3,11.2,4.3,16.9c2.3,10,4.6,20,6.7,30c2.9,14.1,5.6,28.2,8.4,42.3
		c0.2,1.2,0.8,2.3,1.2,3.5c0.5,0,1,0.1,1.5,0.1c1.8-6.6,3.9-13.1,5.4-19.8c5.5-24.9,10.9-49.7,16.1-74.7
		c6.9-33.2,12.8-66.7,20.5-99.7c6.1-26.1,14.3-51.6,21.5-77.4c3.8-13.6,7.9-27.2,15.4-39.3c1.2-2,3.3-3.5,5.4-5.7
		c-0.3-1.9-1-5-1.3-8.2c-0.6-6.6,2.6-11.2,8.3-14c9.5-4.7,19-9.7,28.9-13.4c18.1-6.8,36.3-13.1,54.7-18.8
		c12.8-3.9,26.2-6.2,39.2-9.6c28.3-7.4,56.5-15,84.7-22.7c18.4-5,36.7-10.6,55.2-15.7c5.4-1.5,11-2.4,16.8-4.6
		c-2.3-0.6-4.5-1.3-6.8-1.8c-6.6-1.4-13.2-3-19.8-4.1c-23.4-3.8-46.8-7-70.1-11.4c-17.8-3.3-35.3-8.1-52.9-12c-13.4-3-27-5-40.3-8.5
		c-10.9-2.8-21.3-7.3-32-10.6c-6.3-2-12.8-3.4-19.4-4.6c-17.1-3.1-32.7-9.9-47.9-17.8c-5.4-2.8-7.9-9.2-6.3-15.4
		c0.2-0.9,0-1.9,0-2.9c12.2,1.2,23,5.8,34.2,9.8c9.6,3.5,19.8,5.3,29.8,7.6c14.1,3.3,28.3,6.5,42.5,9.7c22.3,5,44.5,10.4,66.9,14.9
		c29.2,5.8,58.6,10.9,87.9,16.3c18.7,3.5,37.2,7.4,55.9,10.4c17.4,2.7,35,4.3,52.5,6.6c2.8,0.4,5.5,1.1,8.2,2
		c6.8,2.5,10.6,14.4,6.5,20.4c-0.7,1-2.1,1.9-3.3,2.1c-15.6,2.8-31.2,5.5-46.8,8.3c-16.8,3-33.7,5.7-50.4,9.3
		c-8.2,1.8-16,5.4-24,8.1c-3.3,1.1-6.6,2.2-10,3.1c-10,2.8-20,5.8-30.1,8.4c-16.1,4-32.3,7.5-48.3,11.6c-6.1,1.6-11.9,4.6-17.9,6.4
		c-13.3,4-26.7,7.9-40.2,11.5c-4.3,1.2-8.9,1.1-13.2,2.2c-6.5,1.7-8.6,4.7-6.4,11.2c4.1,11.9,8.9,23.5,13.6,35.2
		c3.8,9.7,7.7,19.4,11.9,28.9c2.7,6.2,6.1,12.2,9.3,18.1c11.2,20.7,22.4,41.3,33.6,61.9c2.7,5,1.3,8.7-4,11.1
		c-2.6,1.2-5.4,2.3-7.7,4c-5.6,4.2-10.8,3.6-16.2-0.1c-9.8-6.6-19.5-13.3-29.5-19.7c-23-14.5-46.4-28.1-72.9-35.3
		c-8.8-2.4-17.9-3.8-26.8-5.7c-2.6-0.6-3.9,0.2-4.6,2.9c-4.4,19.1-8.9,38.2-13.5,57.2c-2,8.2-4.5,16.3-6.2,24.5
		c-1.6,7.9-2.3,16-3.7,24c-0.8,4.5-2,9-3.1,13.5c-5.5,22.6-10.8,45.3-16.5,67.9c-3.7,14.6-8.3,28.9-11.7,43.5
		c-2.3,9.8-2.6,20-4.7,29.8c-2.2,10.2-4.8,20.4-8.4,30.2c-1.9,5.1-7.1,8.3-13.1,9c-2.8,0.3-8-4.2-8.7-7.6
		c-2.2-11.4-4.1-22.9-6.5-34.3c-2.9-13.7-6.1-27.4-9.1-41c-3.5-15.7-6.8-31.4-10.3-47.1c-2.9-13-5.6-26-9.1-38.8
		c-6.1-21.8-12.5-43.5-19.2-65.1c-5-16.3-10.6-32.5-16-48.7c-0.6-1.9-1.4-3.7-2-5.3c-28.4,2.3-55.2,9.7-80.4,21.4
		c-26,12.1-51.2,26-76.4,39.7c-5.2,2.8-9.1,2.5-13.6-0.1c-7.6-4.5-8.8-10.1-3.8-17.6c12.1-18.2,24.4-36.3,36-54.8
		c5.7-9.1,10.3-18.9,15-28.5c5.9-12.2,11.6-24.5,16.9-37c1.9-4.5,2.3-9.6,3-14.5c0.1-0.9-1.3-2.7-2.3-3c-13.9-4-27.8-7.6-41.6-11.6
		c-13.9-4-27.7-8.4-41.6-12.4c-26.6-7.7-53.2-15.9-80-22.7c-24.9-6.3-50.2-11-75.3-16.6c-9-2-17.9-4.5-26.9-6.7
		c-10.4-2.5-21-4.5-31.2-7.6c-8.5-2.5-12.8-15.9-8.1-23.3c0.7-1.1,2.9-2.1,4.1-1.8c6.6,1.6,13.7,0.7,19.5-2.6c1.7-1,3.8-1.1,5.8-1.6
		c8.2-2,16.3-3.9,24.5-5.9c12.6-3.1,25.1-6.2,37.7-9.5c8.7-2.2,17.5-4.1,25.9-7.2c10.1-3.7,20.6-4.7,30.9-7.1
		c24.3-5.8,49.2-9.2,72.9-17.5c18.6-6.5,37.7-11.8,56.6-17.6C553.9,683,557.9,682.1,562.3,681z M660,606.5c-3.6-1-6.8-1.8-9.8-2.9
		c-15.8-5.7-31.6-11.5-47.4-17.4c-16-5.9-30.7-14.1-45.1-23.2c-9-5.7-18.8-10-28.2-15c25.3,39.8,47.2,80.2,50.5,128.6
		c3.5-0.9,6.1-1.4,8.6-2.2c4.2-1.4,8.4-3.1,12.6-4.5c8.9-3.1,18-5.7,26.7-9.4c8.1-3.4,16.4-6.5,19.2-17
		C650.4,631.1,655.5,619.1,660,606.5z M972.2,961.2c-8.9-18-20.8-38.4-29.3-60.1c-8.6-21.9-19.2-43.3-21.9-67.4
		c-5,1.7-9.5,2.9-13.7,4.8c-11.2,5.3-24.9,5-33.9,14.8c-2.1,2.3-2.9,5.9-4,9.1c-4.3,11.8-8.6,23.7-12.7,35.6
		c-2.5,7.3-4.4,14.7-6.5,21.5c23.1,0.4,45.3,3.6,65.9,12.7C936.3,941.1,955.5,952.4,972.2,961.2z M550.6,974.8
		c6.6-3.3,13.2-6.4,19.7-9.8c4.1-2.1,7.8-5.1,12-6.9c12.4-5.1,24.6-11.1,37.5-14.4c18.8-4.9,37.6-14.1,58.5-5.2
		c-1.8-5.5-3.3-10.5-5-15.5c-4.4-13.4-8.8-26.9-13.2-40.3c-1.2-3.7-3.1-6-7.9-5.6c-3.4,0.3-7.3-1-10.5-2.5c-7-3.2-13.9-6.4-21.8-6.3
		c-2.3,0-4.6-0.6-6.8-1.1c-4.8-1.2-9.5-2.7-14.2-4C590.5,904.3,571.1,939.4,550.6,974.8z"/>
	<path d="M1154,790.6c0.5,0.7,1.2,2,1.6,2c2.2-0.2,4.7-1.6,5.9,1.5c1.8,4.7,4.9,9.5,4.9,14.2c-0.2,9.6-1.5,19.3-3.5,28.7
		c-3.2,14.7-7.2,29.3-11.4,43.8c-6,21.3-16,41.1-25,61.2c-6.8,15.1-14.1,29.9-22,44.5c-6.3,11.7-13.2,23.2-21.1,33.8
		c-13.8,18.6-27.9,37.1-43.1,54.5c-12.3,14.1-26.3,26.9-40,39.8c-11,10.3-21.9,20.9-34.2,29.5c-14.4,10-29.9,18.7-45.6,26.4
		c-15.3,7.5-31.3,13.9-47.5,19.2c-15.1,5-30.1,10.8-46.4,11c-7.6,0.1-13.4-4.4-14.6-11.7c-0.2-1.4,1.6-4.4,2.3-4.4
		c12.2,0.8,23.2-4.1,34.3-7.8c14-4.7,27.9-9.8,41.6-15.3c17.1-6.8,34-14.2,49.4-24.6c23.2-15.6,46-31.7,65.1-52.3
		c10.9-11.8,21.9-23.5,31.9-36.1c16.5-20.8,32.6-41.9,46.7-64.4c14.1-22.5,26.5-45.7,35.4-70.7c8.9-24.9,17.7-49.9,25.1-75.2
		c3.9-13.1,4.8-27.1,7-40.8c0.4-2.3,1.1-4.6,1.6-6.9C1153,790.5,1153.5,790.5,1154,790.6z"/>
	<path d="M690.4,1188.8c-3.9,5.6-5.7,11.8-12.5,12.1c-4.4,0.2-9.1,0.1-13.4-1.2c-14.8-4.4-29.6-9-44.1-14.2
		c-24-8.6-47.3-18.9-68.9-32.5c-9.9-6.3-19.2-13.5-28.9-20.2c-8.7-6-18.1-11.3-26.3-18c-16.2-13.3-32.1-26.9-47.3-41.2
		c-15.8-14.9-30.8-30.6-45.9-46.2c-5.3-5.5-9.5-11.9-14.7-17.5c-13.1-14-21-31.2-31-47.2c-10.9-17.4-16.6-36.9-21.5-56.7
		c-3.9-15.6-8.3-31.2-11.9-46.9c-2-8.7-2.7-17.7-4.1-26.5c-0.4-2.7-1-5.5-1.5-8.3c2.1-1,4-2.3,6.1-2.8c3.8-0.9,7.3-0.5,8.9,3.9
		c1.2,3.3,2.5,6.5,3.3,9.9c4.7,18.5,9.9,36.9,13.9,55.5c7.3,34.1,24.1,63.7,42.9,92.2c13.1,19.9,28.9,37.9,46.4,54.3
		c11.7,11,22.7,22.8,34.6,33.6c11,10,22.4,19.6,34.1,28.7c13.8,10.8,28.3,20.8,42.1,31.5c10.7,8.3,22.5,14.4,34.7,19.9
		c10.7,4.8,21.5,9.8,32.5,13.7c17.8,6.3,35.9,11.8,53.9,17.6C677.8,1184.6,683.7,1186.6,690.4,1188.8z"/>
	<path d="M803.9,342.8c1.3-3,1.6-6.6,3.4-7.6c3.8-2,8.3-3.4,12.6-3.6c22.3-1.3,44.1,2.6,65.9,6.4c22,3.9,42.9,11.6,63,21.5
		c9.3,4.6,19.2,8,28.1,13.3c12.6,7.5,24.8,15.7,36.6,24.4c10.1,7.5,19.6,15.9,28.9,24.4c13.9,12.8,27.8,25.7,40.7,39.4
		c19.6,20.8,37.9,42.8,53.2,67c6,9.4,11.3,19.1,16.8,28.8c0.7,1.2,0.2,3,0.3,4.6c0,0.6,0,1.3,0.3,1.8c9.2,15.7,13.6,33,17.2,50.5
		c1.2,5.8,2.1,11.7,2.2,17.5c0.1,3.7-0.8,7.8-2.5,11.1c-1,1.9-4.5,3.5-6.9,3.4c-1.4,0-3.4-3.2-4-5.3c-3.7-13.1-6.5-26.5-10.9-39.3
		c-4.5-13.2-9.9-26.1-16-38.7c-5.4-11.1-11.7-22-18.9-32c-6.8-9.5-15.2-17.9-23.3-26.4c-13.4-14.3-26.6-28.7-40.7-42.2
		c-13.1-12.6-27.2-24.2-41.1-36c-10.4-8.8-20.9-17.3-31.7-25.7c-4.3-3.3-9.2-5.8-13.9-8.5c-10.4-6-20.7-12.5-31.5-17.8
		c-22.7-11.2-46.1-20.7-71.5-24c-16.6-2.2-33.4-3.4-50.1-5.1C808.2,344.3,806.2,343.5,803.9,342.8z"/>
	<path d="M316,682.1c0-6.8-0.4-12.8,0.1-18.7c1.6-20.4,8.7-39.5,13.9-59c2-7.3,5.9-14.1,8.8-21.2c4.1-9.7,7.7-19.6,12.2-29
		c3.8-7.8,9.5-14.6,12.8-22.6c5.1-12.3,15.1-20.4,22.7-30.6c12.2-16.1,24-32.4,39-45.9c14.3-12.9,29.7-24.7,43.7-37.9
		c22.4-21.1,48.7-35.8,76.4-48.3c8.7-3.9,17.7-7.3,26.6-10.6c14.3-5.3,28.7-10.4,43.2-15.4c4.5-1.5,9.3-2.4,14.1-3.3
		c8.7-1.7,13.8,0.8,15.9,11.1c0.2,0.8,0.5,1.5,0.7,2.2c-5.2,6.9-13.2,5.4-19.9,7.1c-28,7.3-54.3,18.9-80.4,31
		c-23,10.7-42.4,26.5-61.7,42.5c-12.1,10.1-24.5,19.8-36,30.6c-10.7,10.1-20.5,21.2-30.4,32.1c-9.3,10.3-18.3,20.9-27.1,31.8
		c-22.4,27.8-36.1,59.8-45.5,93.9c-3.5,12.5-7.2,24.9-11.4,37.1c-2.2,6.3-5.4,12.4-9.1,18C323.4,679.5,319.6,680.2,316,682.1z"/>
	<path d="M723.5,668.1c3.6-6.2,9.8-6.5,15.3-7.5c19-3.5,37,0.3,54.1,8.4c14.4,6.8,27.9,15.3,37.6,28.1c5.3,7,8.4,15.8,11.3,24.2
		c6.8,19.7,6.2,39.5-0.6,59.1c-5.2,14.9-15.4,26.4-24.8,38.6c-12.6,16.4-30.1,21.4-49.8,21.7c-14.4,0.2-28.8,0.7-42.8-4.1
		c-17.9-6.1-34.3-14.8-47.5-28.4c-5.8-6-11.4-12.6-16-19.6c-7.2-10.9-9.4-23.5-9.6-36.5c-0.3-29.8,12.7-53.4,34.7-72.4
		c4.3-3.7,10-5.8,14.9-8.7c1.8-1,3.3-3.1,5.1-3.3c4.8-0.6,9.6-0.5,14.5-0.5C721,667.1,722.1,667.7,723.5,668.1z M747.7,823
		c6.9-0.9,13.8-1.8,20.6-2.8c9.7-1.4,19.4-4.1,26.1-11c8.9-9,17-19.1,24.1-29.7c5.3-7.9,8.8-16.9,10.2-27
		c1.5-10.8,0.2-21.2-1.7-31.4c-1.3-7.1-4.4-14.6-8.7-20.3c-4.5-5.9-11.2-10.4-17.4-14.6c-4.7-3.2-10.4-5-15.7-7.4
		c-7.7-3.4-15.8-4.9-24.3-3.9c-10.8,1.3-21.6,3.3-32.4,3.6c-5.6,0.2-9.8,2.4-14.1,4.9c-1.9,1.1-3.5,2.7-5.4,3.6
		c-13.8,6.6-22.2,18.9-28.3,31.6c-8.9,18.5-13.2,38.4-7.5,59.4c3.8,13.8,11.4,24.3,23.2,31.7C712,819.6,729.6,822.1,747.7,823z"/>
	<path d="M1013.4,855.4c15.6,0.4,30,3.5,43.2,11.4c2.3,1.4,4.6,2.8,6.3,4.7c1.2,1.3,2.3,3.7,1.8,5c-0.6,1.6-2.7,3.2-4.4,3.7
		c-9.4,2.6-18.6,2.1-27.4-2.8c-7.6-4.2-15.2-8.2-22.6-12.7c-1.8-1.1-2.6-3.9-3.9-5.9C1008.8,857.7,1011.1,856.5,1013.4,855.4z"/>
	<path d="M1060.6,648c-11,2.5-21.2-1.4-31.6-3.7c-1.7-0.4-3-2.5-4.5-3.8c1.3-1.5,2.4-3.3,4-4.5c10.9-7.7,23.7-7.9,36.3-8.3
		c1.1,0,2.4,0.1,3.2,0.7c3.2,2.4,8.3,4.7,8.8,7.6c0.7,4.3-3.7,7.5-8.1,9.3c-2.6,1-5.1,2.5-7.6,3.8
		C1060.9,648.8,1060.7,648.4,1060.6,648z"/>
	<path d="M914.1,1057.6c-1.7,2.5-2.8,6.2-5.2,7.3c-2.1,1-5.8-0.3-8.4-1.5c-7.9-4-10.9-11.3-12.7-19.5c-0.7-3.1-2.6-5.8-3.8-8.8
		c-0.5-1.4-0.8-2.9-1-4.3c-0.8-5.7,2.2-8.3,7.2-5.2c5.7,3.5,11.2,7.7,15.6,12.6C914.1,1047.5,912,1044.9,914.1,1057.6z"/>
	<path d="M462.3,638.8c-4.5-1.8-8.4-2.9-11.8-4.9c-7.8-4.4-15.4-9.1-23-13.9c-1.2-0.7-1.7-2.4-2.5-3.7c1.5-0.9,2.9-2.4,4.4-2.5
		c9.1-0.9,18.2-1.2,26.9,2.3c4.1,1.7,8.6,3.3,12,6c3.4,2.6,6.5,7.3,4.2,11.2C470.8,636.3,465.7,637.1,462.3,638.8z"/>
	<path d="M449.2,913.6c-8.4-1.3-15.7-2.4-23-3.8c-1.1-0.2-2.4-1.9-2.7-3.2c-0.2-0.9,0.8-2.6,1.7-3.1c10.1-6.1,19.8-12.8,31.7-15.2
		c1.5-0.3,3.6,0.3,4.7,1.3c8.1,7.6,5.3,18.5-5.3,21.7C453.6,912.1,451,913.1,449.2,913.6z"/>
	<path d="M612.4,1070c4.9-8.6,9.4-16.9,14.2-25.1c2.2-3.7,4.5-7.4,7.1-10.8c1.2-1.6,3.9-4,4.6-3.6c2.3,1.3,4.9,3.4,5.6,5.7
		c1,3.3,1.4,7.5,0.2,10.7c-2.6,7.2-4.8,14.6-12.8,19.1c-3.8,2.2-7.5,4.7-11.7,6.5C616.3,1073.8,614,1073.4,612.4,1070z"/>
	<path d="M617.7,471c-0.2,1.8-0.2,3-0.5,4.1c-1.1,3-1.6,7.7-3.6,8.5c-2.5,0.9-6.5-0.8-9.4-2.4c-7.1-3.9-9-10.9-9.7-18.4
		c-0.4-4.4-1-8.9-1.3-13.3c-0.1-1.2,0.4-2.8,1.2-3.4c0.7-0.5,2.4-0.1,3.4,0.4c8.7,3.6,14.9,10,18.7,18.5
		C617.5,467,617.5,469.4,617.7,471z"/>
	<path d="M862.8,445.2c11.5,6.3,15,19.2,11,30.2c-1,2.8-1.6,5.8-2.6,8.5c-1.5,4.1-4.5,6.6-9,6.2c-4.1-0.3-7.8-4.6-7.3-9.3
		c0.7-6.3,2.6-12.5,3.8-18.7c0.8-4,1.1-8.1,1.9-12.1C861,448.4,862,446.9,862.8,445.2z"/>
</g>
</svg>
