<?xml version="1.0" encoding="utf-8"?>
<!-- Generator: Adobe Illustrator 27.4.1, SVG Export Plug-In . SVG Version: 6.00 Build 0)  -->
<svg version="1.1" id="Camada_1" xmlns="http://www.w3.org/2000/svg" xmlns:xlink="http://www.w3.org/1999/xlink" x="0px" y="0px"
	 viewBox="0 0 1500 1500" style="enable-background:new 0 0 1500 1500;" xml:space="preserve">
<image style="overflow:visible;" width="1450" height="993" xlink:href="../../Library/CloudStorage/GoogleDrive-lucas.pretti@okfn.org/.shortcut-targets-by-id/0B79xBlVd-Nf6ZzMzUlZSTWwxV28/Open Knowledge All Team/Brand 2023/Illustrations/L 1500px - web transp/Icons/board.png"  transform="matrix(1 0 0 1 -2106 1417.5)">
</image>
<image style="overflow:visible;" width="1133" height="1032" xlink:href="../../Library/CloudStorage/GoogleDrive-lucas.pretti@okfn.org/.shortcut-targets-by-id/0B79xBlVd-Nf6ZzMzUlZSTWwxV28/Open Knowledge All Team/Brand 2023/Illustrations/L 1500px - web transp/Icons/books.png"  transform="matrix(1 0 0 1 -2106 1417.5)">
</image>
<image style="overflow:visible;" width="1357" height="1143" xlink:href="../../Library/CloudStorage/GoogleDrive-lucas.pretti@okfn.org/.shortcut-targets-by-id/0B79xBlVd-Nf6ZzMzUlZSTWwxV28/Open Knowledge All Team/Brand 2023/Illustrations/L 1500px - web transp/Icons/campagne.png"  transform="matrix(1 0 0 1 -2106 1417.5)">
</image>
<image style="overflow:visible;" width="845" height="1103" xlink:href="../../Library/CloudStorage/GoogleDrive-lucas.pretti@okfn.org/.shortcut-targets-by-id/0B79xBlVd-Nf6ZzMzUlZSTWwxV28/Open Knowledge All Team/Brand 2023/Illustrations/L 1500px - web transp/Icons/case-study.png"  transform="matrix(1 0 0 1 -2106 1417.5)">
</image>
<image style="overflow:visible;" width="1265" height="951" xlink:href="../../Library/CloudStorage/GoogleDrive-lucas.pretti@okfn.org/.shortcut-targets-by-id/0B79xBlVd-Nf6ZzMzUlZSTWwxV28/Open Knowledge All Team/Brand 2023/Illustrations/L 1500px - web transp/Icons/collaboration.png"  transform="matrix(1 0 0 1 -2106 1417.5)">
</image>
<image style="overflow:visible;" width="1339" height="1035" xlink:href="../../Library/CloudStorage/GoogleDrive-lucas.pretti@okfn.org/.shortcut-targets-by-id/0B79xBlVd-Nf6ZzMzUlZSTWwxV28/Open Knowledge All Team/Brand 2023/Illustrations/L 1500px - web transp/Icons/connect-community.png"  transform="matrix(1 0 0 1 -2106 1417.5)">
</image>
<image style="overflow:visible;" width="1357" height="681" xlink:href="../../Library/CloudStorage/GoogleDrive-lucas.pretti@okfn.org/.shortcut-targets-by-id/0B79xBlVd-Nf6ZzMzUlZSTWwxV28/Open Knowledge All Team/Brand 2023/Illustrations/L 1500px - web transp/Icons/contact.png"  transform="matrix(1 0 0 1 -2106 1417.5)">
</image>
<image style="overflow:visible;" width="1059" height="1080" xlink:href="../../Library/CloudStorage/GoogleDrive-lucas.pretti@okfn.org/.shortcut-targets-by-id/0B79xBlVd-Nf6ZzMzUlZSTWwxV28/Open Knowledge All Team/Brand 2023/Illustrations/L 1500px - web transp/Icons/create-open-data.png"  transform="matrix(1 0 0 1 -2106 1417.5)">
</image>
<image style="overflow:visible;" width="1198" height="998" xlink:href="../../Library/CloudStorage/GoogleDrive-lucas.pretti@okfn.org/.shortcut-targets-by-id/0B79xBlVd-Nf6ZzMzUlZSTWwxV28/Open Knowledge All Team/Brand 2023/Illustrations/L 1500px - web transp/Icons/data.png"  transform="matrix(1 0 0 1 -2106 1417.5)">
</image>
<image style="overflow:visible;" width="1162" height="1032" xlink:href="../../Library/CloudStorage/GoogleDrive-lucas.pretti@okfn.org/.shortcut-targets-by-id/0B79xBlVd-Nf6ZzMzUlZSTWwxV28/Open Knowledge All Team/Brand 2023/Illustrations/L 1500px - web transp/Icons/funders.png"  transform="matrix(1 0 0 1 -2106 1417.5)">
</image>
<image style="overflow:visible;" width="1005" height="1001" xlink:href="../../Library/CloudStorage/GoogleDrive-lucas.pretti@okfn.org/.shortcut-targets-by-id/0B79xBlVd-Nf6ZzMzUlZSTWwxV28/Open Knowledge All Team/Brand 2023/Illustrations/L 1500px - web transp/Icons/governance.png"  transform="matrix(1 0 0 1 -2106 1417.5)">
</image>
<g>
	<path d="M937.1,506.7c-1.4,0-2.7,0-5.2,0c2.5,1.3,4,2.1,5.5,2.9c-0.1,0.4-0.2,0.7-0.2,1.1c-12.6-1.3-25.1-2.6-37.7-4.1
		c-13.3-1.6-26.5-3.2-39.8-5c-10.6-1.5-21.1-3.8-31.8-4.8c-11.9-1.1-23.8-1.3-35.8-1.6c-10.4-0.2-20.7-0.1-32.6-0.1
		c2.2,4.5,3.4,7.9,5.4,10.8c11.8,17.5,23.8,34.8,35.8,52.1c3.8,5.4,8.2,10.4,11.9,15.8c10.2,14.8,20.2,29.7,30.5,44.4
		c4.4,6.3,9.4,12.3,14,18.5c3.4,4.7,6.9,9.3,9.6,14.3c7.7,14.5,14.1,29.5,16.9,45.8c1.3,7.7,2,15.6,2.1,23.5
		c0.1,3.9-1.7,7.8-2.7,11.7c-2.6,10-5,20.1-8.1,30c-1.6,5.2-4.5,10.1-7,15.4c12.6-0.9,24.5-6.3,36.7-10.6c13-4.6,20.2-16.7,31-25.2
		c3.3,8,2,14.2-1,20.7c-6.8,14.4-20.2,20.2-33,27c-13,6.9-27.6,8.3-41.4,12.1c-7.6,2.1-14.9,5.1-22.6,6.7
		c-15.3,3.3-30.7,6.6-46.2,8.5c-15.9,2-32,2.8-48.1,3.4c-12.5,0.5-25,0.3-37.5-0.1c-9.3-0.3-18.6-1.4-27.8-2.3
		c-16.9-1.7-33.8-2.9-50.5-5.4c-13.5-2-26.8-5.2-40-8.5c-15.1-3.9-30.1-8.4-43.6-16.5c-9-5.4-18-10.8-26.2-17.2
		c-3.9-3.1-6.4-8.3-8.8-13c-1.9-3.6-0.2-6.9,2.9-8.6c17.4,8.7,34.7,17.3,51.9,25.9c0.4-0.5,0.7-1,1.1-1.5c-1.5-2.2-2.9-4.4-4.5-6.5
		c-12-15.8-13.9-34.1-13-53c0.5-11.7,6-21.8,10.2-32.2c11.2-28,30.2-50.9,47.9-74.8c11.9-16,23-32.7,35.7-48
		c14.4-17.3,20.7-38.1,30.1-58.8c-2.5,0.2-4.1,0.1-5.7,0.4c-16.7,3-33.5,5.5-50,9.3c-23.5,5.3-46.8,11.4-70,17.5
		c-15.1,4-30,8.7-45,12.9c-13.9,3.9-27.7,8-41.7,11.4c-4.3,1.1-9.2,1.7-12.8-2.6c-3.5-4.2-3.1-8.1,1.8-10.2
		c10.7-4.6,21.4-9.1,32.5-12.8c15.8-5.2,31.8-9.5,47.8-14.1c16.7-4.8,33.3-10.1,50.1-14.2c15.9-3.9,32.1-6.7,48.1-10
		c7.7-1.6,15.3-3.7,23-4.6c5.8-0.7,11.8-0.4,17.7,0c8.3,0.5,9.2,0.4,10.9-7.6c1.4-6.4,2.1-13,3.1-19.5c2.5-14.9,4.9-29.7,7.5-44.6
		c1.2-7.2,2.4-14.4,4-21.5c0.8-3.7,2.4-7.2,3.4-10.8c1.4-5,2.3-10.2,3.9-15.1c2.3-6.9,10.2-9.3,16-4.7c2.6,2.1,5.2,5.1,6.1,8.1
		c2.7,10.1,4.5,20.3,6.6,30.5c2.8,13.4,5,27,8.5,40.2c2.9,11.4,7.3,22.4,10.8,33.6c1.5,4.7,3.6,6.6,9,5.6
		c21.4-4.1,42.8-2.3,64.2,0.5c6.8,0.9,13.8,1.1,20.6,2.1c4.4,0.6,8.7,2,13,3c14.3,3.4,28.8,6.4,43,10.4c13.3,3.7,26.3,8.5,39.5,12.9
		C937.3,506.1,937.2,506.4,937.1,506.7z M825.9,786.4c1.9-3,2.6-5.5,4.3-6.9c8.1-6.7,14.4-15.2,17.9-24.8c3.7-10,5.1-20.9,7-31.5
		c3.7-20.5-2.8-39.2-10.9-57.3c-10.3-23.1-27-42.2-41-63c-9-13.4-18.9-26.2-28.1-39.4c-11.9-17.2-24.1-34.3-35.1-52.1
		c-11.3-18.4-20.4-38.1-26-59.2c-1.3-4.7-2.7-9.4-4.1-14.1c-1.6,4.7-2.4,9.3-3.1,14c-1.9,13.1-3.1,26.5-6,39.4
		c-2.2,10-6.3,19.6-10,29.2c-3.1,7.9-6.7,15.5-10.4,23.2c-1.1,2.3-3.1,4.2-5.3,7c0,0.2,0.2,1.9-0.5,2.9c-4.1,6.2-8.2,12.5-12.8,18.4
		c-11.8,15.2-23.9,30.1-35.6,45.4c-8.9,11.7-17.3,23.7-26.1,35.5c-10.7,14.3-17.9,30.6-23.8,47.2c-2.7,7.7-3.1,16.4-3.4,24.6
		c-0.3,7.5,0.1,15.3,1.9,22.5c3.4,14.7,14.2,24.4,25.1,33.9c0.8,0.7,2.1,1.1,3.2,1.2c9.7,1.5,19.4,2.5,29,4.5
		c24.7,5.2,49.9,6,74.9,7.4C747.4,796.8,787.4,792.1,825.9,786.4z"/>
	<path d="M575.5,1003.5c0.2,1.6,0.8,3.1,0.4,4c-1.4,2.8-2.6,6.3-4.9,7.8c-5.4,3.5-11.8,4.4-18.2,5.3c-12.8,1.8-25.1,1.8-37.8-1.3
		c-7.9-2-16.4-1.3-24.6-2.1c-9.5-1-19-2.9-28.5-3.3c-22.6-1-44.3-6.6-65.9-12.2c-15.1-3.9-29.6-10.2-44.7-14.1
		c-19.9-5-37.9-14.2-56-23.3c-15.5-7.8-31-15.9-45.4-25.3c-24.8-16.3-45.1-37.4-61-62.6c-7.6-12.1-16.1-23.9-19.4-38.1
		c-2.8-12.1-6-24.5-2.4-36.9c2.7-9.2,6-18.4,10.6-26.7c5.2-9.4,11.4-18.4,18.6-26.4c7.1-8,16.2-14.3,24-21.7
		c17-16.3,37.7-27.3,57-40.3c23.8-16,49.2-29.2,74.3-43c18.1-10,36.9-17.5,56.7-22.9c2.3-0.6,5.2-3.3,7.7,1.1
		c2.4,4.4,2.4,8.6-0.5,11.8c-3.2,3.5-7.5,6.3-11.7,8.7c-11.9,6.7-24.2,13-36.2,19.6c-12.6,7-25.3,13.9-37.7,21.2
		c-11.4,6.7-22.7,13.8-33.8,21c-12.8,8.3-25.5,16.6-37.9,25.4c-10.7,7.6-21.1,15.7-29.7,25.9c-7.8,9.2-16.5,17.7-23.5,27.5
		c-8.2,11.6-16.1,23.8-18.5,38.2c-1,6.2,0,12.9,0.9,19.3c3,22.7,16.8,38.6,32.7,53.7c20.4,19.2,45.4,30.5,69.8,43.1
		c31.9,16.4,66,26.8,100.3,36.2c20.4,5.6,41.3,9.8,62.2,13.9c17.2,3.4,34.6,5.7,51.9,8.8c9.6,1.7,19.1,4.8,28.7,5.8
		c13.3,1.4,26.8,1.4,40.2,2C573.9,1003.5,574.8,1003.5,575.5,1003.5z"/>
	<path d="M886.6,876.6c-5.6,2.3-9.7,4.4-14.1,5.9c-12.1,3.9-24.1,8.1-36.4,11.2c-11.3,2.9-22.9,4.6-34.4,6.9
		c-8.3,1.7-16.4,3.9-24.7,5.1c-8.4,1.2-17,1.4-25.5,2.1c-7.9,0.7-15.7,1.9-23.5,2.2c-8.1,0.3-16.2-0.2-24.2-0.2
		c-8.2,0-16.5,0.2-24.7,0.1c-8.2-0.1-16.4-0.3-24.6-0.5c-8.7-0.1-17.5,0.5-26.2-0.4c-21.6-2.3-43.2-5-64.7-8
		c-10.3-1.4-20.5-4.5-30.8-5.3c-7.3-0.6-13.9-3.4-20.7-4.6c-25.9-4.5-50.1-13.1-73.7-24.3c-7.5-3.5-15.7-5.7-22.6-10.1
		c-9.5-6.1-18.6-13-26.7-20.7c-14.7-13.9-23.5-31.6-30.1-50.5c-4.3-12.3-1.7-24,2.6-35.4c7.7-20.8,23-35.1,41.3-46.4
		c12.2-7.5,24.2-15.5,37.2-21.3c24.2-10.7,48.9-20.2,73.7-29.4c8.3-3.1,17.5-3.7,26.3-5.3c1.8-0.3,3.8,0.2,5.7,0.4
		c0.4,5.2-2.2,7.7-5.6,10.6c-10.5,9-23.5,12.5-35.8,17.8c-10.4,4.4-20.3,9.8-30.4,14.7c-9.9,4.7-20.1,8.7-29.7,14.1
		c-8.2,4.6-15.4,11-23.4,15.9c-16.2,10-30.4,22.7-39.5,39c-10.8,19.3-13.6,30.9,4.5,48.1c12.3,11.7,27.2,19.5,42.4,27
		c30,14.8,62.1,23,94.4,30c20.9,4.5,42.3,7.1,63.4,10.7c4.4,0.8,8.6,2.7,13.1,3.5c3.8,0.6,7.7,0.1,11.6,0.4c9.7,1,19.3,2.7,29,3.2
		c17.6,0.9,35.2,1,52.8,1.7c14.1,0.6,28.1,1.8,42.2,2.2c10,0.3,20-0.1,29.9-0.6c15.2-0.9,30.4-1.7,45.5-3.3
		c14.2-1.5,28.4-4.1,42.5-6.2c2.5-0.4,5-0.3,7.4-0.6c7-1,14-2.4,21.1-3.2C882.3,872.9,883.9,874.8,886.6,876.6z"/>
	<path d="M1097.8,964.6c5.8-10.3,16.8-13.3,25.3-19.5c14.9-10.8,30.3-20.9,45.2-31.7c6.4-4.6,12.6-9.5,18.2-15
		c20.5-20.4,38.1-43,49.6-69.9c13.1-30.7,8.2-60.1-7.4-88.2c-12.3-22.2-29.6-40-51.1-53.7c-9.5-6-18.2-13.3-27.8-19.2
		c-7.5-4.7-15.7-8.6-23.8-12.3c-19-8.7-37.8-17.7-57.3-25.3c-11.7-4.6-24.4-6.3-36.5-9.9c-12.5-3.7-24.7-8.6-37.3-11.9
		c-15.7-4.2-31.8-7.1-47.6-11c-9.5-2.3-18.9-5.3-28.3-8.3c-1.3-0.4-2.3-2.5-2.7-4c-0.2-0.7,1.5-2.1,2.5-2.7
		c11.7-5.8,23.8-3.3,35.8-1.1c8.3,1.5,16.6,2.5,24.8,4.2c8.1,1.7,16.1,4.1,24.2,6c17.9,4.2,36.2,7.4,53.8,12.7
		c14.1,4.2,27.4,11.1,41.2,16.3c32.3,12.1,61.4,29.8,88.4,50.8c20.6,16,36.9,36,49.5,58.9c10.2,18.5,18.3,38,22.3,58.9
		c3.4,17.8,4.8,35.8-0.1,53.7c-4.9,17.8-12.4,34.4-23.7,49c-5.5,7.2-13,12.9-19.5,19.3c-1.6,1.6-2.9,3.5-4.7,4.9
		c-4.5,3.7-9.2,7.3-13.9,10.8c-2.6,1.9-5.3,3.9-8.1,5.4c-12.2,6.6-24.2,13.4-36.7,19.4c-8.5,4.1-18.2,5.9-26.3,10.7
		c-6.8,4-14.1,2.2-20.8,4.8C1103.4,967.5,1100.6,965.5,1097.8,964.6z"/>
	<path d="M932.3,657.1c12.3,1.5,24.5,2.3,36.3,4.6c12.5,2.4,24.8,6.1,37.2,9.5c22.2,6,42.4,16.3,61.4,29.2
		c17.6,12,24.9,29.8,29.1,49.2c2.2,10.3,3.4,21.1,3,31.6c-0.4,9.8-3.2,19.6-10.4,27.4c-1.1,1.1-1,3.3-2,4.5
		c-5.6,6-11.3,11.8-17.1,17.5c-0.7,0.7-2.1,0.5-3.2,0.7c-0.6,1-1.1,2.9-2.3,3.5c-9.3,4.9-18.7,9.9-28.3,14.2
		c-8.6,3.8-17.6,6.7-26.5,10c-9.3,3.4-18.4,7.3-27.9,10c-7.3,2-14.9,3.1-22.6,1.9c-3.4-0.5-4.7-1.6-6.7-6.5
		c7.5-3.5,15.1-6.7,22.4-10.7c20.9-11.3,41.7-22.9,62.5-34.3c15.1-8.3,27.8-19.1,37.2-33.9c7.5-11.8,12-23.9,9.5-37.8
		c-0.7-3.9-2.5-8.2-5.2-11c-9.2-9.7-19.3-18.3-31.5-24.3c-6.4-3.2-12.6-7-19.1-10c-6.9-3.2-14-6-21.1-8.6
		c-8.7-3.2-17.5-6.1-26.3-9.1c-1.8-0.6-3.8-0.7-5.7-1.2c-7.2-1.9-14.4-3.8-21.5-6c-4.3-1.3-8.4-3.1-12.4-5.2
		c-4-2.2-8.2-4.5-7.2-10.5C934.2,660.3,933,658.8,932.3,657.1z"/>
	<path d="M943.2,1022.1c-3.7,2.1-7.5,4.5-11.6,6.5c-12.2,5.7-24.8,10-37.7,14c-9.3,2.9-18.6,5-28,5.8c-24.3,2-48.6,3.8-73,4.6
		c-18.9,0.6-37.8-0.3-56.7-1c-16.7-0.6-32.9-4.4-48.9-9.1c-7.5-2.2-14.6-6.6-18.3-15.4c2-0.5,4.1-1.6,5.9-1.3
		c26.3,4.3,52.8,5.8,79.4,5.7c15-0.1,30.1,1.6,45.1,1.6c28.5,0,57.1-0.3,85.3-5.6c16.3-3.1,32.6-6,48.9-9c1.1-0.2,2.3-0.2,3.3,0.2
		C938.9,1019.8,940.7,1020.9,943.2,1022.1z"/>
	<path d="M1049.2,533.1c4.7,0,9-0.4,13.1,0.1c10,1.3,20.1,2.6,30,4.6c14.9,3.2,30.1,5.9,44.5,10.8c26,8.7,52.4,16.5,76.9,29.4
		c13.3,7,25.8,15.3,36.5,25.9c2.4,2.3,3.5,6,5.2,9c-3.1-0.5-6.5-0.4-9.3-1.6c-5.6-2.3-10.9-5.3-16.4-7.9
		c-10.2-4.7-20.3-9.7-30.8-13.8c-12.7-5-25.5-9.7-38.6-13.6c-19.3-5.9-38.8-11-58.3-16.3c-10.2-2.8-20.4-5.3-30.7-7.9
		c-7.7-1.9-14.6-5.5-19.8-11.5C1050,538.5,1049.9,535.4,1049.2,533.1z"/>
	<path d="M367.7,1065c8.6,2.6,16.9,5.4,25.2,7.6c14.2,3.7,28.3,7.5,42.6,10.4c24.6,4.9,49.4,9,74.1,13.8c7.6,1.5,15,4.2,22.3,6.8
		c2,0.7,4.2,2.6,5,4.5c0.8,2,0.3,4.7-0.3,6.9c-0.2,0.8-2.6,1.4-3.9,1.2c-7.4-0.8-14.7-1.8-22-2.8c-10.5-1.4-21.1-2.3-31.5-4.3
		c-14.7-2.9-29.4-6.6-43.9-10.3c-13.5-3.4-26.8-7.1-40.1-11.1c-6.3-1.9-12.6-4.3-18.5-7.4C371.3,1077.7,366.5,1074,367.7,1065z"/>
	<path d="M323.8,742.2c8.7,5.2,6.7,12.5,5.1,18.2c-3.3,11.8-4.9,23.5-5.8,35.7c-1,14.2,4.6,25.6,12.9,35.6
		c6,7.2,13.6,13.1,21.1,18.8c9.2,7,19,13.3,28.5,19.8c2,1.4,4.5,2.1,6.5,3.5c3,2,5.5,4.6,4.3,8.5c-1.2,3.9-4.6,4.5-8.2,4.2
		c-8.7-0.7-15.5-5.5-22.5-10c-22.7-14.4-39.8-34-52.6-57.5c-5.3-9.7-7.4-19.8-6.3-30.8c1.4-13.2,2-26.7,10.1-38.1
		C319.1,747.3,321.5,744.8,323.8,742.2z"/>
	<path d="M333.6,584.4c-1.4,2.1-2.3,4.3-3.9,5.9c-2.6,2.6-5.4,5.4-8.6,7c-12.3,6.2-25.3,11.1-37,18.2c-15,9.1-28.9,20-43.2,30.1
		c-4.2,2.9-8.3,6-12.6,8.8c-3.7,2.4-10.7,0.7-13.2-3c-1.8-2.5-1.4-4.7,0.9-6.6c9.2-7.8,18-16.1,27.7-23.3c10.9-8,22-15.8,33.9-22.2
		c11.5-6.3,24-10.8,36.2-15.7c3.9-1.6,8.3-2.3,12.5-2.9C329.3,580.1,332.7,580,333.6,584.4z"/>
	<path d="M1039.9,1044c-2.4-14.4-4.7-28.6-6.8-41.5c-5.7-1.4-10.8-2-15.1-4.1c-2.3-1.1-3.8-4.8-4.9-7.6c-0.9-2.2-0.2-4,3.1-4.1
		c4.9-0.1,9.9-0.6,15.4-1.1c-1.3-15.4-3.2-30.3,1-45.2c7.4,5.8,10.4,13.2,10.7,22.3c0.2,6.8,1.2,13.6,2.2,20.3
		c0.2,1.2,2.1,2.4,3.5,3c4.6,1.9,9.6,3.3,14,5.6c1.3,0.7,2.2,4,1.8,5.7c-0.3,1.2-3.2,2.2-5,2.4c-3.8,0.5-7.6,0.4-11.8,0.6
		c0,2.6-0.3,4.9,0.1,7.1c1.8,9.6,3.8,19.2,5.6,28.9c0.4,2.2,0.5,4.7,0,6.9c-1.5,6.6-4.8,7.5-10.1,3.2
		C1042.3,1045.6,1041,1044.8,1039.9,1044z"/>
	<path d="M1306.9,671.9c0-16.4,0-32.4,0-49c5.2,1.6,5.6,5.8,7.1,8.9c5,9.9,5,20.9,5.6,31.7c0.4,8.1,0.3,8.3,8.1,8.3
		c6.3,0,11.4,1.8,14.9,7.7c-5.3,8.2-14.2,3.7-22.1,5.9c0.5,6.3,1,12.6,1.6,19c0.4,4,1.2,8,1,11.9c-0.1,2.1-2.1,4.1-3.2,6.1
		c-2.6-1.8-7.5,0.3-8.2-4.4c-1.5-9.7-3.1-19.4-3.9-29.1c-0.3-4.3-2.2-6-5.7-7.5c-2.5-1.1-4.9-2.7-7.1-4.3c-0.9-0.6-1.8-2.4-1.5-3.1
		c0.4-1,2-1.9,3.1-2C1299.9,671.7,1303.1,671.9,1306.9,671.9z"/>
	<path d="M401,550.9c-0.2,17.9,8.2,35.7,3.7,53.9c-1.2,0.3-1.5,0.5-1.8,0.4c-7.3-1-6.9-1-7.9-9c-1.8-13.8-3.9-27.6-6.2-41.4
		c-0.2-1.1-2.4-2.4-3.7-2.5c-4.1-0.3-8.3,0.2-12.4-0.1c-1.6-0.1-3-1.7-4.5-2.6c1-1.3,1.7-3.2,3-3.8c3.7-1.7,7.5-3.2,11.4-4.2
		c3.3-0.8,4.6-2.1,4.5-5.7c-0.4-11-0.4-22-0.4-33.1c0-1.7,0.7-3.3,1.9-5c4,13.2,8,26.5,12.3,40.9c4.1,1.4,12.2-3.5,16,5.6
		C412.9,549.3,406.2,548,401,550.9z"/>
	<path d="M140.3,935.2c7.7-2.8,12.1,1.3,16.3,7.3c14.2,20.6,33.1,36.4,54,49.7c4.8,3.1,10.7,4.6,15.9,7.1c3,1.4,7.1,3.2,5.6,7
		c-1.3,3.5-5.3,4.2-9.3,3.2c-11-2.8-20.6-8.4-29.9-14.6c-16.7-11.2-31.8-24.1-44.3-40C144.2,949,140.1,943.1,140.3,935.2z"/>
	<path d="M1289,950.4c-3.7-1.7-7.1-2.6-9.7-4.5c-2.4-1.7-3.1-4.7-0.9-7.4c5-6.2,10-12.4,15.1-18.6c3.3-4,5.6-4.2,8.6-0.2
		c1.9,2.6,3.7,5.6,4.4,8.7c0.8,3.3,0.8,6.8-2.5,9.5c-2.4,2-4,4.9-6.4,6.9C1295.2,946.9,1292.2,948.4,1289,950.4z"/>
	<path d="M1349,780.9c9.6,3.2,13.7,9.7,14.9,18.5c0.3,2.3,1.6,4.4,2,6.6c0.8,4,2.5,8.3-2.6,10.9c-0.5,0.3-0.9,0.9-1.3,1.5
		c-3.2,5.2-3.9,5.4-9.5,2.7c-5-2.4-7.4-6.8-5.2-10.7c4.5-8.1,4.6-16.4,2.2-25.1C1349.2,784,1349.2,782.7,1349,780.9z"/>
	<path d="M517.5,597.8c-1.3-0.6-3.9-1.2-5.8-2.7c-4.2-3.3-2.8-8.3,2.1-10.3c9.7-4.1,19.8-4.5,30-4.1c2.3,0.1,4.5,1.7,6.8,2.6
		c-1.8,3.3-2.9,8.8-5.5,9.6C536.6,595.3,527.6,596.1,517.5,597.8z"/>
	<path d="M590.2,1113.1c10.7,2.8,22.1-1.3,32.1,4.7c2,1.2,4.1,3.2,4.8,5.3c1.6,4.9,0.6,8.1-4.9,7.9c-5.4-0.2-11,0.4-16.3-0.5
		c-4.2-0.7-8.4-2.7-12-5C589.8,1123,589.3,1118.6,590.2,1113.1z"/>
	<path d="M732.1,1127.3c6.8-0.5,13.7-0.8,20.4-1.6c3.7-0.4,6.9,0.2,8.3,3.4c1.6,3.7,0.3,7.2-2.9,10c-8.8,7.7-24.8,5.8-31.2-4.1
		c-1-1.5-0.8-4.6,0-6.3c0.6-1.3,3.3-1.5,5.1-2.2C732,1126.8,732.1,1127,732.1,1127.3z"/>
	<path d="M662.2,1129.2c0.5-0.3,1.4-0.5,1.5-0.9c1-3.1,1.6-6.5,6.2-6.1c3.1,0.3,6.1,0.4,9.2,0.7c3.6,0.4,7.2,1.4,10.8,1.1
		c4.5-0.3,6,2.2,6.8,5.6c0.8,3.1-2.2,7.7-5.4,8.3c-5.1,0.9-10.2,2.4-15.2,2c-3.3-0.2-6.7-2.9-9.7-5
		C664.7,1133.9,663.8,1131.6,662.2,1129.2z"/>
	<path d="M1330.7,852.7c9.6,4.3,13.2,10.6,10.1,19.9c-1.2,3.6-4.8,8-8.1,9c-2.6,0.8-7.2-2.6-9.8-5.2c-2.7-2.7-2-6.7,0.1-10.1
		C1325.6,861.9,1328,857.4,1330.7,852.7z"/>
	<path d="M594.9,572.2c2.1,2,4.4,3.2,5,5c1.2,3.9,2.2,8.2-4.2,9.2c-5.4,0.8-10.7,3.1-15.6-1.1c-2.5-2.1-4.2-4.3-0.3-6.3
		C584.4,576.7,589.2,574.8,594.9,572.2z"/>
	<path d="M651.6,634.4c2.2,1,5.8,1.5,6.3,3.1c0.9,2.7-0.4,5.3-3.1,7.9c-7,6.5-13.4,13.7-19.3,21.3c-4.3,5.5-8.1,11.7-11,18.1
		c-1.9,4.2-3.4,9.7,0.7,13.6c4.2,4,9.5,3.1,14.6,1.3c15.3-5.3,28.1-13.6,35.9-28.5c0.8-1.6,3.6-2.3,5.5-3.4c0.7,2.1,1.8,4.1,2.1,6.3
		c1.1,8.4-4.9,13.5-9.6,19c-8.7,10.2-18.3,20-32.4,21.4c-15.8,1.5-33.4-11.1-31-30.4c1.4-11.8,7-21.9,15.3-30.5
		c4.3-4.4,8.5-8.8,12.7-13.3C641.8,636.5,646,634.6,651.6,634.4z"/>
</g>
</svg>
