<?xml version="1.0" encoding="utf-8"?>
<!-- Generator: Adobe Illustrator 27.4.1, SVG Export Plug-In . SVG Version: 6.00 Build 0)  -->
<svg version="1.1" id="Camada_1" xmlns="http://www.w3.org/2000/svg" xmlns:xlink="http://www.w3.org/1999/xlink" x="0px" y="0px"
	 viewBox="0 0 1500 1500" style="enable-background:new 0 0 1500 1500;" xml:space="preserve">
<image style="overflow:visible;" width="1450" height="993" xlink:href="../../Library/CloudStorage/GoogleDrive-lucas.pretti@okfn.org/.shortcut-targets-by-id/0B79xBlVd-Nf6ZzMzUlZSTWwxV28/Open Knowledge All Team/Brand 2023/Illustrations/L 1500px - web transp/Icons/board.png"  transform="matrix(1 0 0 1 -2106 1417.5)">
</image>
<image style="overflow:visible;" width="1133" height="1032" xlink:href="../../Library/CloudStorage/GoogleDrive-lucas.pretti@okfn.org/.shortcut-targets-by-id/0B79xBlVd-Nf6ZzMzUlZSTWwxV28/Open Knowledge All Team/Brand 2023/Illustrations/L 1500px - web transp/Icons/books.png"  transform="matrix(1 0 0 1 -2106 1417.5)">
</image>
<image style="overflow:visible;" width="1357" height="1143" xlink:href="../../Library/CloudStorage/GoogleDrive-lucas.pretti@okfn.org/.shortcut-targets-by-id/0B79xBlVd-Nf6ZzMzUlZSTWwxV28/Open Knowledge All Team/Brand 2023/Illustrations/L 1500px - web transp/Icons/campagne.png"  transform="matrix(1 0 0 1 -2106 1417.5)">
</image>
<image style="overflow:visible;" width="845" height="1103" xlink:href="../../Library/CloudStorage/GoogleDrive-lucas.pretti@okfn.org/.shortcut-targets-by-id/0B79xBlVd-Nf6ZzMzUlZSTWwxV28/Open Knowledge All Team/Brand 2023/Illustrations/L 1500px - web transp/Icons/case-study.png"  transform="matrix(1 0 0 1 -2106 1417.5)">
</image>
<image style="overflow:visible;" width="1265" height="951" xlink:href="../../Library/CloudStorage/GoogleDrive-lucas.pretti@okfn.org/.shortcut-targets-by-id/0B79xBlVd-Nf6ZzMzUlZSTWwxV28/Open Knowledge All Team/Brand 2023/Illustrations/L 1500px - web transp/Icons/collaboration.png"  transform="matrix(1 0 0 1 -2106 1417.5)">
</image>
<image style="overflow:visible;" width="1339" height="1035" xlink:href="../../Library/CloudStorage/GoogleDrive-lucas.pretti@okfn.org/.shortcut-targets-by-id/0B79xBlVd-Nf6ZzMzUlZSTWwxV28/Open Knowledge All Team/Brand 2023/Illustrations/L 1500px - web transp/Icons/connect-community.png"  transform="matrix(1 0 0 1 -2106 1417.5)">
</image>
<image style="overflow:visible;" width="1357" height="681" xlink:href="../../Library/CloudStorage/GoogleDrive-lucas.pretti@okfn.org/.shortcut-targets-by-id/0B79xBlVd-Nf6ZzMzUlZSTWwxV28/Open Knowledge All Team/Brand 2023/Illustrations/L 1500px - web transp/Icons/contact.png"  transform="matrix(1 0 0 1 -2106 1417.5)">
</image>
<image style="overflow:visible;" width="1059" height="1080" xlink:href="../../Library/CloudStorage/GoogleDrive-lucas.pretti@okfn.org/.shortcut-targets-by-id/0B79xBlVd-Nf6ZzMzUlZSTWwxV28/Open Knowledge All Team/Brand 2023/Illustrations/L 1500px - web transp/Icons/create-open-data.png"  transform="matrix(1 0 0 1 -2106 1417.5)">
</image>
<image style="overflow:visible;" width="1198" height="998" xlink:href="../../Library/CloudStorage/GoogleDrive-lucas.pretti@okfn.org/.shortcut-targets-by-id/0B79xBlVd-Nf6ZzMzUlZSTWwxV28/Open Knowledge All Team/Brand 2023/Illustrations/L 1500px - web transp/Icons/data.png"  transform="matrix(1 0 0 1 -2106 1417.5)">
</image>
<image style="overflow:visible;" width="1162" height="1032" xlink:href="../../Library/CloudStorage/GoogleDrive-lucas.pretti@okfn.org/.shortcut-targets-by-id/0B79xBlVd-Nf6ZzMzUlZSTWwxV28/Open Knowledge All Team/Brand 2023/Illustrations/L 1500px - web transp/Icons/funders.png"  transform="matrix(1 0 0 1 -2106 1417.5)">
</image>
<image style="overflow:visible;" width="1005" height="1001" xlink:href="../../Library/CloudStorage/GoogleDrive-lucas.pretti@okfn.org/.shortcut-targets-by-id/0B79xBlVd-Nf6ZzMzUlZSTWwxV28/Open Knowledge All Team/Brand 2023/Illustrations/L 1500px - web transp/Icons/governance.png"  transform="matrix(1 0 0 1 -2106 1417.5)">
</image>
<image style="overflow:visible;" width="1255" height="807" xlink:href="../../Library/CloudStorage/GoogleDrive-lucas.pretti@okfn.org/.shortcut-targets-by-id/0B79xBlVd-Nf6ZzMzUlZSTWwxV28/Open Knowledge All Team/Brand 2023/Illustrations/L 1500px - web transp/Icons/impact.png"  transform="matrix(1 0 0 1 -2106 1417.5)">
</image>
<g>
	<path d="M842.5,564.7c3.4,4.8,2.4,10,1.3,15.2c-2.8,13.3-5.9,26.5-8.1,39.9c-1.3,7.7,2.3,14.7,6.7,20.9c0.8,1.2,2.7,2,4.2,2.1
		c4.6,0.5,9.3,0.3,13.9,0.8c4.1,0.4,8.3,0.9,12.2,2.2c8.7,3,11.3,7.9,9.4,17c-1.6,7.6-2.2,15.1,1.8,22.3c1.4,2.6,3.1,3.9,6,2.7
		c3.4-1.4,7-2.3,10.1-4.3c10.1-6.5,22.1-3.4,28.8,5c4.9,6.2,9.8,12.8,17.9,15.3c2.9,0.9,6.3,1.7,9.2,1c9.7-2.2,19.1-5.2,26.6-12.5
		c10.6-10.3,21.7-20.2,26.9-34.8c0.8-2.2,2.7-4.1,3.8-6.2c1.9-3.6,4.1-6.8,8.7-5.6c4.4,1.1,7,4.3,8,8.6c2,8.7-1.9,16-6.3,22.9
		c-9.8,15.2-21.5,28.6-37.4,37.9c-1.1,0.6-1.9,1.7-2.7,2.4c9.4,4.6,18.5,9.3,27.8,13.5c4.3,1.9,9.1,2.9,13.7,4.2
		c16,4.2,31.9,9.1,46.3,17.4c13.4,7.7,26.3,15.9,37.1,27.5c17.8,19.2,31.9,40.7,44.3,63.5c7.5,13.8,14.4,27.9,21.2,42.1
		c6.4,13.4,12.5,27.1,18.4,40.7c3.6,8.3,6.6,16.8,9.7,25.3c0.6,1.8,0.4,3.9,0.5,5.8c0,0.3-0.1,0.8,0,0.9c6.7,6,6.6,14.7,9.1,22.4
		c1.2,3.8,1.8,7.9,3.4,11.4c3.4,7.6,1.7,15.6,2.6,23.3c0.2,2,2.7,5.1,4.5,5.4c8.5,1.1,11.6,8,15,13.8c10.8,18.8,15,39.7,18.3,60.8
		c2.2,13.9,3.6,27.8,1.1,41.7c-0.5,2.6-1.3,5.1-2.3,7.5c-2.5,6.4-8.6,4.2-13.6,5.3c15.9,39.2,3.8,70.9-27.3,98.4
		c7,0.3,13.4,0.8,19.8,0.9c10.2,0,20.4-0.1,30.5-0.5c12.9-0.4,25.8-1.1,38.7-1.7c8.2-0.4,16.4-0.5,24.6-1.2c3.4-0.3,6.9-1.4,10-2.8
		c5.6-2.4,13.1,3.5,11.5,10c-0.4,1.7-0.5,3.6-0.8,5.9c-8.3,1-16.9,2.4-25.4,3c-17.1,1.2-34.1,2.1-51.2,2.9
		c-11.2,0.6-22.5,1.1-33.7,1.1c-11.6,0.1-23.2-0.7-34.8-0.7c-11.6,0-23.1,0.2-34.7,0.6c-11,0.3-22.1,0.7-33.1,1.2
		c-6.3,0.3-12.6,1-18.9,1.4c-18.8,1.2-37.6,2.4-56.4,3.5c-14,0.8-28.1,2-42.1,2c-16,0-32-1.6-48-1.7c-19.8-0.2-39.7,0.4-59.5,0.9
		c-24.7,0.6-49.5,1.8-74.2,2.3c-26.7,0.5-53.4,0.6-80.1,0.5c-20.9,0-41.8-0.5-62.7-0.9c-25.6-0.5-51.1-1.4-76.7-1.7
		c-16.1-0.2-32.1,0.4-48.2,0.4c-24.2,0.1-48.4-0.1-72.5,0.1c-33,0.3-65.9,0.2-98.9,1.3c-26.8,1-53.5,4-80.3,5.2
		c-15.3,0.7-30.6-0.5-45.9-0.3c-20.2,0.2-40.5,1.4-60.7,1.2c-14.8-0.1-29.6-1.2-44.3-2.6c-8.2-0.8-15.1-4.9-21.4-12.7
		c8.2-0.6,14.8-1.5,21.5-1.6c27.4-0.4,54.8-0.5,82.2-0.7c23.1-0.2,46.2-0.1,69.3-0.4c8.7-0.1,17.4-0.9,26.5-1.9
		c-9.4-3-9.7-12.1-13.1-18.8c-7.9-15.5-15.2-31.4-22.3-47.2c-5.8-13-10.9-26.3-16.6-39.3c-5.6-12.8-11.7-25.3-17.3-38.2
		c-3.5-8-6-16.4-9.3-24.4c-3.3-7.7-7.4-15-10.7-22.7c-8.3-19.1-16.1-38.5-24.4-57.6c-7.1-16.3-14.7-32.3-22-48.5
		c-4.4-9.6-9-19.2-12.8-29c-3.6-9.7-5.6-20.2-3.4-30.2c1.9-8.7,8.4-15.7,17.1-19.5c5.6-2.5,11.3-5,17.2-6.7c3-0.9,6.5,0,9.7,0.3
		c2.7,0.2,5.4,1.2,8.1,1.1c31.2-1,62.4-2,93.7-3.2c7.6-0.3,15.2-1.6,22.9-2c16.8-1,33.6-1.5,50.3-2.7c25.2-1.8,50.4-4.1,75.7-6.2
		c4.3-0.4,8.6-0.9,12.9-0.8c5.5,0,8.1-2.9,10.1-7.6c6.4-15.2,17.3-26.8,29.4-37.6c19-16.8,40.1-30.6,61.3-44.2
		c11.9-7.7,24.2-14.6,36.3-22c3.7-2.3,7.7-4.4,10.6-7.4c9.2-9.4,20-16.5,31.1-23.3c3.3-2,4.5-4.6,4.8-8.5c0.9-10,0.5-19.7-4.7-28.6
		c-0.8-1.4-2.2-3-3.6-3.6c-26.3-10.1-48.6-25.9-66.9-47.2C595,621.9,590.1,605,587,587c-3.7-21.1-7.3-42.3-12.9-63
		c-4.1-15.1-10-29.8-18.7-43.3c-2.8-4.4-3.2-10.7-3.6-16.3c-0.4-6.9,0.3-13.8,0.7-20.7c0.2-3.7,1.6-5.1,5.7-5.9
		c1.7,14.6,9.1,27.1,14.8,40.2c6.7,15.4,13.2,31,19.1,46.8c3,8,4.8,16.4,7.1,24.7c5.1,18.8,9.4,37.9,15.3,56.4
		c2.5,7.8,7.7,15,12.8,21.7c4.9,6.3,11.2,11.7,17.1,17.2c11.8,11.2,25.3,20,40.7,25.6c9.7,3.6,19.5,5.1,29.8,2.5
		c8-2,15.8-4.5,23.6-7.2c13-4.4,24.6-11.2,36-18.1c12.9-7.8,25.4-16.8,33.8-30c2.7-4.2,5.7-8.3,8.3-12.6c0.4-0.7-0.6-2.1-0.4-3
		c2-7,4.2-13.8,6.1-20.8c2.2-7.8,4-15.6,6.3-23.3c0.6-2.2,2.1-4.3,3.7-5.9c2.9-2.7,6.3-4.9,9.3-7.4c7.9-6.7,11.2-15.7,13-25.5
		c2.1-10.9,3.4-21.8-1.2-32.4c-1.8-4.1-3.9-8.2-6.8-11.5c-6.2-6.9-12.8-6-21.6,2.3c-3.7,3.5-5.9,9.1-7.6,14.2
		c-2.2,6.3-6.3,8.7-12.3,5.8c-5.4-2.6-6.8-8.7-3.4-15.1c1.9-3.5,3.3-7.2,5.5-10.5c2.2-3.2,4.5-6.7,7.7-8.8c13-8.4,30-6.9,42.8,2.1
		c13.4,9.4,19.5,22.8,19.9,37.9c0.3,10.5-3.5,21.3-6.1,31.8C867.6,550,854.9,556.9,842.5,564.7z M841.4,1211.6
		c-1.7-5.6-2.9-10.3-4.5-15c-4.9-14-10.1-28-15-42c-1.5-4.4-2.1-9-3.5-13.4c-4.5-13.8-9.2-27.6-13.7-41.4
		c-5.3-16.4-10.1-32.9-15.8-49.2c-8.5-24.1-17.8-48-26.5-72c-8.3-22.9-17.4-45.4-33.8-64.1c-8.5-9.8-17.5-18.9-29.9-23.5
		c-16.7-6.2-34.2-8.5-51.8-9.7c-32.8-2.2-65.7-3.5-98.6-2.3c-23.3,0.8-46.7-0.1-69.9,1.4c-44.5,2.8-88.9,7.5-133.3,9.9
		c-34.5,1.9-69.2,1.4-103.8,1.9c-2.2,0-4.4-1.2-6.6-1.8c-1-0.3-2.3-1.1-3.1-0.8c-5.9,2.2-12.1,4-17.4,7.3c-2.9,1.7-5.7,5.9-5.9,9.2
		c-0.4,6.9-0.5,14.3,1.8,20.6c5.2,14.3,12,28,18.1,42c1,2.3,2.2,4.5,3.3,6.7c6.1,11.8,12.5,23.4,18.1,35.4
		c5.3,11.4,9.5,23.2,14.5,34.8c10.6,24.7,21.4,49.2,32.2,73.8c2.4,5.4,4.5,10.9,7,16.3c3.7,8,7.9,15.8,11.4,23.9
		c6.5,15.2,12.5,30.6,19,45.8c6.9,15.8,14.3,31.4,21.3,47.2c3.3,7.5,6.6,9.5,14.6,9.1c27.2-1.4,54.4-3.1,81.6-3.6
		c29.3-0.5,58.7,0.4,88,0.4c20.1,0,40.2-0.7,60.3-0.5c29.9,0.2,59.8,0.9,89.8,1.5c14,0.3,27.9,1.3,41.9,1.2
		c16.7-0.1,33.5-1.2,50.2-1.4c23.4-0.2,46.7,0.4,70.1,0.1c17.3-0.3,34.5-2,51.8-2.3c28.9-0.6,57.8-0.6,86.7-0.9
		c19.4-0.2,38.8,0.1,58.2-0.7c18.5-0.8,37-2.7,55.5-4c7-0.5,13.9-0.6,20.9-1.1c1-0.1,2.8-2,2.7-2.8c-1.1-9-1.8-18.2-4-27
		c-2-7.9-4.9-9-12.9-8.5c-23.5,1.5-47,3.1-70.5,4.4c-12.3,0.7-24.6,0.6-36.9,1.6c-13.1,1.1-26.1,3.6-39.1,4.4c-27,1.8-54,2.9-81,4.3
		c-9.8,0.5-19.7,1.2-29.5,1.5c-6.1,0.2-12.3-0.3-18.4,0c-5.7,0.3-11-0.1-15.3-4.7c2.4,7.8,4.9,15.6,7.3,23.4c-0.4,0.3-0.8,0.7-1.2,1
		c-1.4-0.8-3.1-1.4-4-2.5c-1.4-1.8-2.1-4.1-3.1-6.2c-2-4-2.3-8.7-6.7-11.7c-3.4-2.3-2.5-6.4,1.3-8.7c-2.5-3.4-5.2-6.6-7.3-10.3
		c-0.8-1.4-2.1-2.9-0.3-5.8c2.3-3.8-2.8-3-4.5-3.2c0-1.7,0.5-3.3-0.1-4.4c-1.2-2.4-3.4-4.5-4.3-7c-1-2.6-0.5-5.6-1.4-8.3
		c-1.5-4.5-3.1-9.2-5.5-13.3c-4.2-7.3-3.4-16.8-10.3-22.9c-0.5-0.4-0.2-1.8-0.2-2.7c0-1.7,0.5-3.6-0.1-5.1
		c-3.5-9.9-7.2-19.7-11-29.6c-2.2-5.7-4.8-11.1-6.7-16.9c-2.1-6.2-3.3-12.7-5.3-18.9c-2.8-8.9-6-17.7-9.1-26.5
		c-8.6-25-13.6-51.3-26.2-75c-2.3-4.3-3.8-9.2-5.4-13.9c-0.9-2.6-1-5.5-1.7-9.3c2.1,1.1,3,1.9,3.5,1.7c6.7-2.8,8.2,2.4,10,6.7
		c2.7,6.2,5.5,12.5,7.8,18.9c9.2,25.6,18.6,51.2,27.3,77c6.3,18.9,11.2,38.3,17.5,57.3c12.1,36.8,24.7,73.4,37.1,110.1
		c0.4,1.1,1.1,2.2,1.6,3c0.7-2,1-5,2.2-5.5c3.6-1.4,7.6-1.8,11.5-2.5C834.9,1212.1,837.5,1211.9,841.4,1211.6z M525.4,865.2
		c12.8,0,24.7-0.2,36.6,0c33.6,0.7,67.2,1.1,100.7,2.5c19.2,0.8,38.4,3.2,56.7,9.9c1.9,0.7,4.1,0.9,5.6,2.1
		c9.2,6.9,19.4,12.3,26.2,22.5c4.9,7.3,10.9,13.8,15.1,21.8c5.2,10,10.4,19.9,13.3,30.8c0.8,3,0.8,6.1,1.8,9
		c3.2,10,6.8,19.8,10,29.8c1.6,4.9,2.2,10,3.9,14.8c5.3,15.2,11.3,30.2,16.1,45.5c5.7,18.1,10,36.7,15.8,54.8c3,9.2,3,19.3,9.4,27.7
		c2.9,3.7,5.3,3.3,8.3,2.9c4.9-0.7,9.7-2,14.6-3.1c21.1-4.6,42.3-9.1,63.4-13.9c15.2-3.5,30.4-7.3,45.5-11.5
		c12-3.3,23.8-7.1,35.6-10.9c1.4-0.4,2.7-2.3,3.2-3.8c4.1-11.6,2.4-23.6,1.8-35.5c-0.7-15.4-1.8-30.9-2.7-46.3c-0.1-1.2,0-2.3,0-3.5
		c0.9-16.5-2.5-32.4-10.3-46.6c-9.2-16.8-17.1-33.9-21.7-52.3c-3.3-13.2-5.7-26.6-8.2-40c-0.9-5,3.6-9.5,7.8-7.7
		c5.4,2.4,10.5,5.6,12.2,12c0.6,2.4,1.1,4.8,1.8,7.1c4.5,14.9,8.9,29.8,13.6,44.6c4.5,14,9.2,27.9,14,41.8c3.4,9.7,6.9,19.4,10.6,29
		c3.4,9.1,7.3,18,10.6,27.1c1.9,5.3,3.1,10.9,4.6,16.2c15.4-2.7,29.5-5,43.5-7.5c15.9-2.9,31.6-6.7,47.6-8.6
		c20.1-2.5,40.3-3.4,60.5-5.2c1.9-0.2,5.2-1.7,5.2-2.7c0-5.4,0.2-11.2-1.4-16.2c-4.4-13.8-9.3-27.4-14.8-40.8
		c-11.3-27.5-22.8-54.9-34.9-82c-11.8-26.5-26.8-51.3-44.2-74.5c-7.1-9.4-14.2-18.6-25.2-24.4c-9.8-5.2-18.4-12.4-28.1-17.7
		c-8.4-4.5-17.5-7.9-26.6-11.1c-21.8-7.6-43.7-14.7-63.3-21.2c-7.1,5.5-12.1,9.5-17.2,13.4c-3.8,2.9-7.7,5.6-11.3,8.6
		c-5.4,4.6-10,10.3-15.9,14.1c-3.7,2.4-6.5,5.3-9.6,8.2c-11,10.6-22.2,21.2-34.3,30.5c-9.9,7.6-21.2,13.4-32.1,19.6
		c-7,4-14.4,7.4-21.8,10.8c-4.5,2-9.2,4.5-13.9,4.7c-12.3,0.5-24.7,2.5-37-0.7c-8.1-2.1-16.5-2.8-24.5-5.3
		c-15.5-4.8-29.8-12.3-42.4-22.5c-14.9-11.9-29.9-23.8-41.3-39.4c-2.7-3.6-5.5-6.4-10.6-2.9c-6.9,4.8-14.1,9.2-21.3,13.7
		c-8.1,5-16.4,9.9-24.6,14.9c-7.2,4.4-14.8,8.3-21.5,13.3c-8.7,6.5-16.8,13.9-24.8,21.1c-6,5.4-11.8,11.2-17.5,17
		c-3.7,3.8-6.9,8-10.2,12.1C527.3,862.3,526.6,863.4,525.4,865.2z M952.9,1205.4c0-0.1,0-0.3,0-0.4c52.2-4.2,104.3-8.3,156.9-12.5
		c-1.1-0.5-2-1-2.8-1.5c4.9,0.9,10.4,1.8,13.6,5c4.9,4.9,9.6,10.9,11.8,17.4c3.3,9.6,4.9,20,6.2,30.2c0.6,4.8,2.6,6.6,6.6,6.5
		c3.9-0.1,8-0.2,11.6-1.5c7.1-2.8,14-6.2,20.8-9.7c9.1-4.7,18.8-8.8,26.8-15c20.4-15.9,32.5-36.1,27.8-63.4
		c-1.7-9.6-1.6-9.6-11.6-11.1c-1.8-0.3-3.6-0.7-5.4-0.6c-12.7,0.4-25.1-1.6-37.4-4.9c-20.3-5.4-40.6-10.5-61.1-14.9
		c-19.5-4.1-39.2-7.3-58.9-10.6c-3.5-0.6-7.4-1.1-10.3,2.5c-2.4,3-5.6,3.3-9.4,2.8c-6.1-0.8-12.4-2.1-18.3-1.1
		c-21.2,3.7-42.4,8-63.5,12.5c-22.5,4.9-44.9,10.7-67.5,15.4c-10.7,2.2-21.7,2.7-32.5,4.2c-4.9,0.7-9.8,2.2-14.8,3.4
		c2.4,6.7,4.4,12.3,6.3,17.9c4,11.6,7.8,23.2,12,34.7c0.4,1.1,2.7,2.4,3.9,2.2c7.1-1,14.2-2.9,21.3-3.6c20.3-1.9,40.7-3.1,61.1-4.9
		c6.9-0.6,13.7-1.9,20.5-2.9c0.1,0.5,0.2,0.9,0.2,1.4C962.3,1203.8,957.6,1204.6,952.9,1205.4z M832,661.2c0,2,0,3.5,0,4.9
		c-0.4,11.2,0.5,22.6-1.4,33.6c-3.1,19-10.4,36.7-22.1,52.1c-3.9,5.1-9,11-17.6,8.1c10.6-17.3,17.4-36.2,23.2-55.5
		c4.3-14.3,6.7-29.2,10.4-43.6c0.9-3.4-0.1-5.5-1.7-8.2c-1.5-2.6-2.7-5.5-3.7-8.3c-1.1-3.2-1.7-6.5-2.5-9.7
		c-31.6,35.1-70.3,53.6-117.2,55.6c0.2,1.7,0.5,3.6,0.7,5.6c0.6,9.3,1.4,18.6,1.5,28c0.1,7.1-3.4,12.1-10.6,14.3
		c-1.6,0.5-3.1,1.9-4.5,3c-4.2,3.2-8.5,6.3-12.6,9.6c-4.2,3.3-8.4,6.8-12.7,10.3c3.4,3.5,6.2,6.8,9.3,9.7
		c10.9,9.9,21.5,20.4,33.2,29.3c15.1,11.6,33,17.4,51.7,19.3c12.3,1.2,25.6,2.3,37.1-1.2c21.4-6.5,42-16.4,60.2-29.7
		c24.6-17.9,48.2-37.2,72.3-55.9c4.4-3.4,9.1-6.6,11.9-8.6c-3.2-4.2-5.8-7.8-8.5-11.4c-3.2-4.3-6.5-8.5-9.8-12.8
		c-2.4-3.2-5.3-4-8.7-2.1c-7.4,4-15.1,7.9-23.6,4.6c-9-3.5-17.3-7.9-20.5-18.5c-2.2-7.3-3.6-15.9-14.3-15.9c-0.4,0-0.8-0.5-1.3-0.7
		C844.2,665.3,838.4,663.3,832,661.2z M1235.9,1133c3.4-4.9,7.2-10.5,6.9-17.8c-0.8-22.2-4.2-44-11.4-65.2
		c-2.2-6.4-6.9-9.8-13.3-10.5c-5.6-0.6-11.2-0.4-16.8,0c-6.9,0.5-13.8,1.6-20.7,2.3c-17.4,1.6-34.9,2.7-52.3,4.6
		c-8.9,1-17.6,3.3-26.4,4.8c-22.8,3.7-45.6,7.3-68.5,10.8c-3,0.4-4.3,1.5-4.9,4.4c-1.5,7.1-3.2,14.2-5,21.3c-1.2,4.7,0.7,6.2,5,6.8
		c16.6,2.3,33.3,4.6,49.8,7.4c21.4,3.7,42.9,7.5,64.2,11.9c18.2,3.7,36.3,8.5,54.5,12.3C1209.5,1128.8,1222.3,1130.7,1235.9,1133z"
		/>
	<path d="M1006.7,422c5.2,10.2,14.9,14.7,24.7,19.6c14.2,7,26.4,16.6,35,30.3c7.6,12.1,5.4,24.4-6,32.9c-3,2.3-6,4.7-9.9,7.9
		c5.3,2.7,8.9,4.1,12,6.2c5,3.5,10,7.2,14.3,11.5c8.8,8.7,2.8,22.9-3.2,28.6c-4.2,4-9,7.3-13.5,10.9c-1.1,0.9-2.3,1.9-3.2,3.1
		c-3.4,4.4-6,5.2-11,2.3c-3.4-2-3.9-5.2-3-9.4c1.7-8,8.6-11.4,13.7-16.1c7.5-6.8,7-17-1.9-21.6c-4.9-2.5-10-4.9-14.1-8.3
		c-7.2-5.9-7.8-11.9-2-18.3c3.7-4.2,6.8-8.9,10.1-13.5c3.1-4.5,3-9,0.4-14c-5.7-10.8-14.8-18-25.5-23c-10.5-5-20.5-10.2-27.4-20.1
		c-1.2-1.7-4-2.6-6.3-3.3c-5.7-1.7-4.5-5.7-3.5-9.6c2.3-8.8,5.1-17.5,7.3-26.3c4.4-17.4-3.5-36.9-21.7-44.3
		c-11.7-4.7-22.7-11.3-34.6-15.1c-13.5-4.4-27.7-6.5-41.6-9.8c-7-1.6-13.3-4.5-16.4-11.7c-0.7-1.7-1-3.8-0.9-5.8
		c0.2-9.7-4.8-15.6-13.3-19c-6.1-2.4-12.3-4.5-18.6-6.3c-9-2.6-18.1-1.6-27.2-0.2c-3,0.5-6.4-0.3-9.5-1c-5.2-1.2-10.3-2.5-15.3-4.3
		c-1.8-0.6-3.9-2.4-4.6-4.1c-1-2.5-1.3-5.5-1.2-8.3c0.3-8.6-2.7-16-7.8-22.6c-1.2-1.6-3.3-2.8-5.2-3.6c-10.6-4.4-21-2.8-31.7,0.5
		c-15.5,4.8-30.3,10.6-43.9,19.7c-7.7,5.2-16.7,8.5-25.3,12c-4.8,2-9.5-0.4-12.6-5c1.6-1,3.2-2.1,4.9-3.1c0-0.4,0-0.9,0.1-1.3
		c-1.9-0.3-3.8-1-5.6-1c-6.6,0.1-13.6-0.7-19.8,1c-8.6,2.5-16.7,6.8-24.9,10.6c-2.3,1.1-4.2,3.2-6.3,4.8c-6.2,5-10.6,10.9-9.7,19.5
		c0.2,1.5-0.8,3.1-1,3.7c-3.8,0.4-7.1,0.7-10.3,1.1c-9.5,1.2-17.3,5.8-24.4,12.1c-4.8,4.2-6.1,8.7-3.8,14.6
		c1.4,3.7,2.2,7.6,2.7,11.5c0.2,1.4-1,4-2.2,4.4c-9.5,3.4-17.1,9.6-24.5,16.2c-7.1,6.4-13.8,13-18.4,21.4
		c-8.7,15.6-6.4,34.8,5.3,48.2c2.4,2.8,3.9,6.4,6,10c-1.5,1.4-3.4,4.2-4.6,3.9c-3.6-0.9-7-2.7-10.2-4.7c-1.9-1.2-3.2-3.2-5.5-5.6
		c-4.7,7.6-9.1,14.5-13.5,21.6c-6.2,9.9-8.6,21.1-10.7,32.4c-2.1,11.3,4.4,19.3,10.3,27.6c4.7,6.7,8.9,13.6,9.2,22.2
		c0.4,11.8-4.6,20.9-13.3,28.2c-13.3,11.1-26,22.6-35.9,37.1c-16.2,23.8-17.9,48-4.5,73.4c3.5,6.6,6.5,13.1,14.4,16.4
		c3.2,1.3,5.9,5.6,5.5,11c-0.6,7.9,0.1,15.9,0.8,23.8c0.7,7.6,4.9,13.7,10.4,18.8c1.3,1.2,3.1,2.1,4.8,2.5
		c8.8,1.9,17.8,2.8,26.6-0.2c8.5-2.9,16.9-5.8,25.3-9c6.2-2.3,12.5-3.3,18.4-0.2c13.6,7.2,26.1,4.3,38.1-3.4
		c6.3-4.1,12.1-9,18.6-12.7c2.2-1.3,5.1-4.8,8.7-1.4c3.4,3.2,4.1,7.1,2.2,10.8c-8.9,17.1-24.1,25.3-42.4,26.7
		c-7.5,0.5-15.4-3.1-23-5.5c-3.4-1.1-6.1-1.3-9.4,0c-9.6,3.7-19.3,7.4-29.1,10.3c-12.9,3.8-26,3.9-38.5-2
		c-19.7-9.2-28.5-26-29.6-46.7c-0.5-8.9-2.5-15.5-8.3-22.8c-7.3-9.1-13-19.7-16.1-31.5c-5-19.4-3.8-38.2,4.6-56
		c4.6-9.8,11.7-18.6,18.8-26.8c8.9-10.2,19.3-19.2,28.6-29.1c2.9-3,4.8-7.2,6.4-11.1c2.6-6.5-1.1-11.9-4.1-17.3
		c-2.6-4.6-5.5-9-8.5-13.4c-7-10.4-5.1-21.6-3.3-32.8c2.8-17.5,12.6-31.6,22-45.9c1.9-2.9,3.9-5.8,6-8.5c2.4-3.1,2.8-6,2-10
		c-4.9-23.2-0.2-44,17.4-60.7c8.3-7.9,17.2-15,25.7-22.7c1.3-1.1,2.6-3.3,2.4-4.8c-2.3-15.4,7-29.2,24.5-35.3
		c5.5-1.9,10.8-4.7,16.1-7.3c1-0.5,1.7-1.9,2.2-3c9.3-19.9,25.2-30.8,46.7-34c0.8-0.1,1.7-0.3,2.5-0.2c2.8,0.4,5,2.2,8.6-0.2
		c2.4-1.6,7.7,1,11.6,1.8c0.6,0.1,1.1,1,1.7,1c7.2-0.4,10.9,4.1,13.5,10.5c6-4.2,12-7.7,17.1-12c11.4-9.6,25.2-13.8,38.9-18.6
		c24.9-8.7,55.8,0.1,71.5,18.9c4.3,5.1,6.5,12.2,9.1,18.6c1.1,2.6,1.9,3.7,4.8,3.5c30.3-2.1,55.4,10.2,77.4,29.6
		c3.4,3,5.3,7.8,7.3,12.1c1.3,2.8,2.4,4.7,5.7,5.3c32.3,5.8,61.1,20.5,88.5,37.5c18.8,11.7,28.6,29.9,26.1,53c-0.5,4.8-1.5,9.2-7,12
		C1010.6,413.4,1009.1,418.3,1006.7,422z"/>
	<path d="M499,591.1c1.6,1.3,2.6,2.2,3.7,3.1c3.2,2.8,4.7,6.1,3.8,10.5c-1.7,7.9-3.2,15.8-4.7,23.7c-0.4,1.9-0.4,4-0.1,6
		c1.2,10.3,4.2,11.7,13.2,6.7c7.8-4.4,19.9-3,23.2,3.6c1.7,3.4,1.6,7.6,2.5,11.4c0.9,3.7,1.7,7.5,3.2,10.9c4,9,8.7,10.4,19.1,6.6
		c5.6-2,11.2-3.9,16.9-5.5c4.7-1.3,7.6,2.2,10.8,4.8c0.5,0.4,0.7,2.2,0.3,2.7c-2.2,2.7-4.1,6.4-7.1,7.7c-17.1,7.5-34.3,8.8-51-1.7
		c-0.8-0.5-1.8-1.1-2.3-1.8c-3.7-5.8-7.6-11.4-10.7-17.5c-1.5-2.9-2.7-4.2-6.2-4c-10,0.4-19.3-1.5-25.5-10.5
		c-9.5-13.7-9.2-32.2,0.9-45.6C492.1,598,495.8,594.6,499,591.1z"/>
	<path d="M803.5,303.8c-6,0-12-0.4-17.9,0.1c-4.7,0.4-9.4,1.8-14,3.3c-1.6,0.5-2.6,2.9-4,4.2c-8.4,7.7-17.5,14.9-25.2,23.2
		c-9.5,10.3-18,21.6-27,32.5c-2.3,2.8-4.5,5.6-7.2,8c-1.3,1.2-4.6,2.3-5,1.8c-2-2.4-4.9-5.6-4.5-8c0.7-4.7,3.2-9.2,5.3-13.7
		c7.4-16.6,20.1-28.8,33.4-40.6c4.5-4,8.6-8.6,12-13.6c2.6-3.9-0.2-7.8-2-11.5c-0.9-1.9-2-3.8-2.5-5.9c-0.5-2.1,5.6-5.3,7.8-3.6
		c4.1,3.1,8.7,6.3,11.4,10.5c2.3,3.7,4,3.9,7.8,3.1c7.4-1.5,15-2.5,22.6-2.7c4.3-0.1,8.9,1.3,12.9,3.1c2.3,1,3.7,3.9,5.4,6
		c-2.1,1.3-4.2,2.8-6.3,4c-0.8,0.4-1.9,0.3-2.9,0.5C803.5,304.3,803.5,304,803.5,303.8z"/>
	<path d="M839.4,327.9c11.6-2.5,22,0.5,32.4,3.5c6.6,1.9,11.9,5.6,15.9,11.2c1.7,2.4,0.8,4.2-1.5,5.6c-3.6,2.3-8.2,1.3-11.7-1.2
		c-9.7-6.8-20.8-9.4-32.2-6.8c-6.9,1.5-13.3,5.7-19.8,8.9c-7.6,3.7-15.5,7.1-22.5,11.7c-12.6,8.3-24.6,17.5-36.9,26.2
		c-3.7,2.7-6.9,7.4-13.2,3.6c-1.1-8.6,2.9-16.9,9-22.1c15.9-13.4,33.4-24.8,53.3-31.7c1.5-0.5,3.3-0.4,4.8-1c1.5-0.6,3.6-1.6,4-2.9
		c1.2-3.9,2.4-8,2.4-12.1c0-4.5,2-7.5,5.8-8.6c3.2-0.9,9.2,5.2,9.9,9.3C839.2,323.3,839.2,325.1,839.4,327.9z"/>
	<path d="M346.3,715.9c15,9.9,26.1,21.3,32.8,36.3c2,4.4,1.9,9.7,3,14.6c1.6,7.3,3.7,14.5,4.9,21.8c0.6,3.3,0.2,7-0.8,10.2
		c-1.2,4-3.2,8-5.6,11.5c-1.6,2.2-4.7,4.9-6.9,4.7c-2.4-0.3-5.3-3.2-6.5-5.7c-5-10.9-7.7-22.5-9.4-34.4c-1.1-7.8-4.2-15.3-6.1-23
		c-1.4-5.6-2.5-11.4-3.7-17.1c-0.6-3-1.5-6.1-1.8-9.1C346,722.8,346.3,719.9,346.3,715.9z"/>
	<path d="M913.3,445.6c3.1-0.8,5.8-2.3,8.2-1.9c13.7,1.9,26.2,6.3,32.9,19.9c0.5,1,1.3,2.4,1,3.2c-2.6,7.4,3.1,8.9,7.7,11.2
		c12.2,5.9,15.8,13,13.6,26.4c-1.6,10.1-6.5,18.7-12.3,26.8c-3.8,5.4-16.7,6.6-21.2,2.3c-1.3-1.3-1.8-3.4-2.7-5.3
		c9.5-7.9,14.2-18.9,17.2-30.8c1.5-5.8-1.8-10.5-7.6-11.7c-1.6-0.3-3.3-0.6-4.9-0.9c-8.1-1.5-12-6.4-11.4-14.7
		c0.7-10.1-0.8-12.1-10.2-13.9c-3.9-0.7-8.9-0.3-8-6.8C915.8,448.5,914.5,447.4,913.3,445.6z"/>
	<path d="M677.6,519.4c-2.8,8.5-6,18.6-9.3,28.6c-1.1,3.3-2.4,6.6-3.3,9.9c-1.8,6.6,1.6,11.2,8.2,10.4c9.2-1.1,18.4-3.4,27.6-4.8
		c1.8-0.3,5.5,0.6,5.5,1.3c0.3,2.4,0.2,5.7-1.2,7.4c-6.6,7.8-16.2,9.3-25.5,9.6c-6.3,0.2-13.2-0.9-19-3.4
		c-10.9-4.7-18.4-12.6-13.6-25.7c3.6-9.8,7.4-19.5,10.3-29.6c1.6-5.5,1.3-11.5,1.8-17.3c0.2-1.9,0.2-5.4,0.7-5.5
		c3.1-0.5,6.6-1,9.3,0.1C676.7,503.7,675.8,511.1,677.6,519.4z"/>
	<path d="M933,562.6c5.5-4.7,13.8-3.2,18.3,3.9c3.5,5.5,4.3,11.5,2.3,17.6c-3.7,11.1-10.1,20-20.1,26.6c-9.9,6.6-19.9,5.8-29.9,1.9
		c-10.2-4-15-13.5-19.7-22.7c-0.3-0.5,1.2-2.8,2.3-3.1c6-2,10.4,1.6,14.5,5.2c2,1.7,3.6,3.9,5.3,6c3.7,4.3,5.9,4.8,10.7,1.8
		c10-6.4,15.6-16.2,18.9-27.1C936.4,569.8,934,566.1,933,562.6z"/>
	<path d="M1060.7,592.4c4.9-6.3,5.7-6.5,13.1-2.1c13.8,8.3,26.8,17.4,32.1,33.9c4.2,12.9-2.4,23.2-10.6,30.4
		c-5.8,5.1-12.3,9.7-20.8,9.1c-3.3-0.2-6.2-0.8-8.2-4.1c-1.9-3.3-1.5-5.9,1.9-7.3c9.2-4,13.9-11.9,18-20.4
		c2.6-5.3,0.6-10.1-2.7-14.1C1076.3,609.3,1068.5,601.2,1060.7,592.4z"/>
	<path d="M254.5,771.1c10.9,3,21.6,6.2,30.8,13.3c3.4,2.7,7.4,4.7,11.1,7c13.3,8.6,24.7,19.2,33.8,32.2c3.5,5.1,1.3,10.9-4.7,12.5
		c-7,1.9-11.9-1.7-16.4-6.1c-17-16.6-34-33.3-50.9-50.1c-2.1-2.1-3.3-5.1-5-7.7C253.6,771.9,254.1,771.5,254.5,771.1z"/>
	<path d="M659.8,616.8c5.3-7.7,12-5.1,18.7-4.6c6.7,0.5,13.7,0.5,20.1-1c15.9-3.8,30.7-10.5,43.8-20.7c2.4-1.8,4.8-4,7.5-4.8
		c2.3-0.7,5.6-0.4,7.5,0.9c2.1,1.4,1.9,4.1-0.1,6.5c-5.6,6.9-10.9,13.7-18.7,18.8c-13.8,8.9-28.7,14.5-44.8,14.4
		c-10.5-0.1-21.1-3.7-31.5-6.1C661.2,620,660.4,617.7,659.8,616.8z"/>
	<path d="M1057.8,672.8c4.7-6.8,7.7-7.4,15-3.5c12.2,6.5,15.5,16.5,12.8,23.6c-3.9,10.5-10.4,19.1-20.8,24.4
		c-9,4.5-18.5,5.6-28.3,4.2c-6.4-0.9-11.3-5.9-11.3-12c0-1.5,0.8-3.6,1.9-4.2c1.2-0.7,4.1-0.6,4.8,0.3c5.5,7.1,11.5,2.2,16.5,0.2
		c8.8-3.5,13.5-11.5,17.4-19.7c1.7-3.5,0.7-6.8-2.5-9.2C1061.4,675.7,1059.7,674.3,1057.8,672.8z"/>
	<path d="M871.5,392.8c-12.5,3.8-25,7.4-37.3,11.4c-8.8,2.9-17.4,6.3-25.9,9.7c-3,1.2-5.6,3.3-8.3,5.1c-2.9,2-5.4,1.9-7.9-0.7
		c-2.7-2.7-1.9-5.6,0-8c1.5-1.9,3.8-3.2,5.6-4.9c14.6-14.5,33.5-18.6,52.8-22.1c2.6-0.5,5.3-0.6,7.9-0.6
		C867,382.8,869.9,385.3,871.5,392.8z"/>
	<path d="M727,428.6c8.4,1.4,16.2,2.1,23.7,4.1c3.9,1,7.7,3.8,10.5,6.7c2.6,2.7,0.5,6.2-3.4,5.9c-5.2-0.4-10.4-0.8-15.5-1.9
		c-10.1-2.1-19.3-0.7-28.2,4.6c-7.7,4.6-15.6,9.4-25.1,9.2c-2.1-0.1-4.8,1.1-5.9-2.7c-1.1-3.6-0.1-6.6,2.1-8.4
		c7.7-6,14.9-13.3,25.2-15.1C716.1,430.2,721.8,429.4,727,428.6z"/>
	<path d="M658.4,383.4c-8.5-1.9-13-7.1-14.5-15.6c-1.5-8.3-2.5-16.8-4.9-24.9c-2-6.5-5.6-12.6-8.9-18.6c-1.5-2.7-5.5-5.4-2.1-8.1
		c2.3-1.8,7.5-2.2,10.1-0.9c11.5,5.9,19.7,15,20.2,28.6C658.8,357,658.4,370,658.4,383.4z"/>
	<path d="M805.3,449.7c3.3-13.8,12.5-18.8,23.5-22.5c13.7-4.7,27.5-4.4,41.3-1.4c3.3,0.7,6.4,3.8,8.7,6.6c2.1,2.5-1.8,6.8-5.7,6.5
		c-8.5-0.8-17-3.7-25.6-0.6c-9.1,3.2-18.1,6.7-27.3,9.5C815.6,449,810.6,449,805.3,449.7z"/>
	<path d="M953.2,629.9c3.8,0,7.3,0.4,10.6-0.1c2.6-0.4,5.6-1.3,7.6-3c5.7-4.9,9.6-11,12.2-18.3c1.4-4,5.4-7.2,8.3-10.6
		c0.2-0.2,1.7,0.5,2.3,1.1c0.6,0.5,0.6,1.5,1.1,2.1c2.5,3.2,7.3,6.5,7.1,9.5c-0.4,5.5-2.8,11.3-5.9,16.1c-6.9,11-16.9,17.1-30.4,16
		C959.5,642.2,953.2,636.6,953.2,629.9z"/>
	<path d="M880.6,364.6c0.9,0.3,2.4,0.9,2.5,0.7c1.8-3,4.3-3.5,6.5-1.1c2.3,2.5,5.2,5.6,5.5,8.7c0.3,3.2,1.1,4.7,3.7,6
		c11,5.7,20,13.4,24.1,25.4c0.9,2.7,1.8,7.1,0.4,8.6c-2.1,2.3-5.3,3.4-9.9,2.1c-4.9-1.4-3.7-3.6-4.3-6.3c-0.5-2.2-1-4.8-2.5-6.3
		c-7.3-7-14.7-13.9-24.7-17.3c-5.3-1.8-6.4-7-3.8-12C879.2,370.7,879.7,367.7,880.6,364.6z"/>
	<path d="M985.4,539.1c6.4-8.2,13.6-3.8,20.1-2.6c6.6,1.2,11.2,5.6,13.4,12c2.3,6.5-0.1,12.3-3.3,17.9c-3.7,6.5-9.6,8.7-16.9,6.5
		c-4-1.2-5.2-4.5-3.9-8.4c1.6-4.7,2.9-9.5,3.8-14.4c0.9-4.8-3.6-4.6-6.3-6.2C990,542.6,987.7,540.8,985.4,539.1z"/>
	<path d="M536.2,563c0.5,0.6,0.7,1.2,1.1,1.3c10.7,2,8.6,11.4,10.7,18.3c0.7,2.2,0.8,4.7,2,6.6c0.9,1.4,3.3,3,4.8,2.8
		c5.1-0.9,8,2.5,11.1,5.1c0.6,0.5-0.8,4.9-2.3,5.8c-8.1,5.1-29.9,0.1-30.5-14.2c-0.1-3.2-1.8-6.3-2-9.6
		C530.5,571.3,531,570.3,536.2,563z"/>
	<path d="M629.8,470.2c-7.5,1.2-14.7,2.2-21.8,3.6c-4.3,0.9-8.6,2.5-12.8,3.7c-6.4,1.8-9.1,0.6-12.6-5.3c2.4-5.3,7.1-8,12.2-10.1
		c8.8-3.7,17.9-4.8,27.3-2.9C629,460.5,630.5,462.8,629.8,470.2z"/>
	<path d="M713.9,488.1c-0.1-8.2,2.4-12,8.8-12.3c2.5-0.1,5.9,1.3,7.6,3.2c4.8,5.7,5.6,13.1,5.4,20.1c0,2.2-3,4.9-5.2,6.2
		c-3.9,2.4-8.6,2.1-11.1-1.8c-2.9-4.5-4.6-9.9-6.8-14.9C713,488.4,713.4,488.2,713.9,488.1z"/>
	<path d="M576.2,367.4c4-4.7,8.5-4.6,12-2.7c7.8,4.2,15.7,8.3,20.9,16.3c4.7,7.3,5.1,7,4,10.8c-6.9,2.1-12.1-0.5-16.8-5.4
		c-2.3-2.3-5.3-3.9-7.7-6.2C584.3,376.1,580.4,371.8,576.2,367.4z"/>
	<path d="M635.7,520.4c-2.4,2.7-4.5,6.3-7.6,8.3c-3.4,2.2-8.6-0.3-11.4-4.7c-1.9-3-3.4-6.4-4.5-9.9c-1.7-5.2,1.3-9.4,8.2-12.6
		c3.2-1.5,7.9,0.2,9.9,4.3C632.4,510,633.7,514.7,635.7,520.4z"/>
	<path d="M667.8,313.1c-0.9,0.4-1.7,0.7-2.5,1c-0.4-0.4-0.7-0.8-1.1-1.2c2.5-2.4,4.7-5.7,7.7-7.1c9.9-4.6,20.3-6.1,30.9-2.2
		c1.5,0.6,3.8,3.3,3.6,3.7c-1.1,1.9-3,4.7-4.7,4.8c-9.4,0.4-18.4,2.4-27.2,5.3C670.7,318.7,668.1,317.6,667.8,313.1z"/>
	<path d="M549.5,395.1c4.2-3.1,8.6-1.3,12.3,0.3c6.2,2.7,11.9,6.6,17.9,9.8c3.6,1.9,3.4,5.1,2.9,8.2c-0.2,0.9-2.2,2.2-3.2,2.1
		c-10.8-1-19.6-6.7-28-12.8C549.9,401.7,550.2,398.1,549.5,395.1z"/>
	<path d="M829.2,359.1c7.1-1.9,16.3,1.8,19.9,7.8c1.4,2.4-1,7.3-3.8,7.6C836.9,375.5,829.8,368.8,829.2,359.1z"/>
	<path d="M684.9,341.1c-1.1,0-2.7,0.5-3.4-0.1c-2.1-1.8-4.1-3.8-5.4-6.1c-0.3-0.5,2.2-3.2,3.8-4c5.4-2.5,10.9-5.1,16.7-0.7
		c3.4,2.6,3.3,6.8-0.7,8.5c-3.4,1.5-7.3,2.1-10.9,3.1C685,341.6,684.9,341.3,684.9,341.1z"/>
	<path d="M772.6,329.7c0.6-10,3.4-11.2,12.2-8c3.3,1.2,8.1,1.3,8.1,7c0,3-0.9,4.8-3.7,4.4C783.7,332.3,778.2,330.9,772.6,329.7z"/>
	<path d="M601.7,349.8c-2.5-1.6-3.9-2.5-5.4-3.4c-0.4,0.2-0.7,0.4-1.1,0.6c-1-5.8,4.1-8.3,7.1-12.1c4.4-5.6,8.3-1.4,13.1,0.8
		C610.6,340.7,606.1,345.4,601.7,349.8z"/>
	<path d="M612.7,364.8c-1.3-2-2.1-3.2-3-4.6c-0.6,1-1.1,1.9-1.7,2.8c-1-4.1-1.1-8,2.8-10.6c5.1-3.5,10-3.8,13.1-0.9
		c2.8,2.7,0.8,5.2-1.1,6.7C619.8,360.7,616.2,362.6,612.7,364.8z"/>
	<path d="M755.4,342.3c5.7-2,10.9-5.1,16.3-1.1c1.3,1,2.7,3.2,2.5,4.6c-0.2,1.6-1.8,3.7-3.3,4.4c-6.5,2.9-11.3,0.7-14-5.9
		C756.7,343.6,756.1,343.1,755.4,342.3z"/>
	<path d="M822,384.1c-6.1,0.1-10.2-3.5-10.7-8.3c-0.6-5.6,3.5-4.2,6.3-4.5c3.2-0.3,10.2,4.8,10.3,7.3C828,382,825.8,384.1,822,384.1
		z"/>
	<path d="M575.2,373.2c-0.4,3.1-6.6,8.9-8.8,7.6c-2.4-1.4-5-3.8-5.8-6.3c-0.8-2.5,6.5-9.1,8.8-8.8
		C572.1,366.2,575.5,370.5,575.2,373.2z"/>
	<path d="M515.3,1019.1c6.4-0.1,12.7-1.1,18.8-0.2c10.7,1.7,20.9,5.6,30.2,11.3c11.6,7.2,19,17.1,20.6,31.1
		c1.3,11.1-0.2,21.8-4.8,31.8c-5.2,11.3-13.6,19.8-24.5,26c-15.4,8.8-31.4,7.6-47.9,4.2c-10.6-2.2-20.1-6.5-28.2-13
		c-5.4-4.3-9-10.9-13.1-16.7c-12.2-17.2-8.1-40,9.1-58.9c5.4-5.9,11.3-7.4,18.3-7.2c1.7,0,4.8,1.2,4.9,2.1c0.3,2-0.4,4.9-1.8,6.1
		c-6.8,5.7-11.1,13-15.1,20.7c-5.5,10.6-4.8,21.4-1,31.9c4.5,12.5,21.3,22.8,34.5,22.5c10.4-0.2,20.7-1.1,29-8.3
		c4.4-3.9,8.4-8.3,12.6-12.5c1-1.1,2.1-2.2,2.9-3.4c1.6-2.7,4-5.3,4.5-8.2c1.1-6.8,4.9-13.1,3.1-20.6c-2.6-11.1-8.9-18.6-19.2-22.7
		c-5.3-2.1-11-3.3-16.5-4.9C525.4,1028.4,518.8,1027.6,515.3,1019.1z"/>
</g>
</svg>
