<?xml version="1.0" encoding="utf-8"?>
<!-- Generator: Adobe Illustrator 27.4.1, SVG Export Plug-In . SVG Version: 6.00 Build 0)  -->
<svg version="1.1" id="Camada_1" xmlns="http://www.w3.org/2000/svg" xmlns:xlink="http://www.w3.org/1999/xlink" x="0px" y="0px"
	 viewBox="0 0 1500 1500" style="enable-background:new 0 0 1500 1500;" xml:space="preserve">
<image style="overflow:visible;" width="1450" height="993" xlink:href="../../Library/CloudStorage/GoogleDrive-lucas.pretti@okfn.org/.shortcut-targets-by-id/0B79xBlVd-Nf6ZzMzUlZSTWwxV28/Open Knowledge All Team/Brand 2023/Illustrations/L 1500px - web transp/Icons/board.png"  transform="matrix(1 0 0 1 -2106 1417.5)">
</image>
<image style="overflow:visible;" width="1133" height="1032" xlink:href="../../Library/CloudStorage/GoogleDrive-lucas.pretti@okfn.org/.shortcut-targets-by-id/0B79xBlVd-Nf6ZzMzUlZSTWwxV28/Open Knowledge All Team/Brand 2023/Illustrations/L 1500px - web transp/Icons/books.png"  transform="matrix(1 0 0 1 -2106 1417.5)">
</image>
<image style="overflow:visible;" width="1357" height="1143" xlink:href="../../Library/CloudStorage/GoogleDrive-lucas.pretti@okfn.org/.shortcut-targets-by-id/0B79xBlVd-Nf6ZzMzUlZSTWwxV28/Open Knowledge All Team/Brand 2023/Illustrations/L 1500px - web transp/Icons/campagne.png"  transform="matrix(1 0 0 1 -2106 1417.5)">
</image>
<image style="overflow:visible;" width="845" height="1103" xlink:href="../../Library/CloudStorage/GoogleDrive-lucas.pretti@okfn.org/.shortcut-targets-by-id/0B79xBlVd-Nf6ZzMzUlZSTWwxV28/Open Knowledge All Team/Brand 2023/Illustrations/L 1500px - web transp/Icons/case-study.png"  transform="matrix(1 0 0 1 -2106 1417.5)">
</image>
<image style="overflow:visible;" width="1265" height="951" xlink:href="../../Library/CloudStorage/GoogleDrive-lucas.pretti@okfn.org/.shortcut-targets-by-id/0B79xBlVd-Nf6ZzMzUlZSTWwxV28/Open Knowledge All Team/Brand 2023/Illustrations/L 1500px - web transp/Icons/collaboration.png"  transform="matrix(1 0 0 1 -2106 1417.5)">
</image>
<image style="overflow:visible;" width="1339" height="1035" xlink:href="../../Library/CloudStorage/GoogleDrive-lucas.pretti@okfn.org/.shortcut-targets-by-id/0B79xBlVd-Nf6ZzMzUlZSTWwxV28/Open Knowledge All Team/Brand 2023/Illustrations/L 1500px - web transp/Icons/connect-community.png"  transform="matrix(1 0 0 1 -2106 1417.5)">
</image>
<image style="overflow:visible;" width="1357" height="681" xlink:href="../../Library/CloudStorage/GoogleDrive-lucas.pretti@okfn.org/.shortcut-targets-by-id/0B79xBlVd-Nf6ZzMzUlZSTWwxV28/Open Knowledge All Team/Brand 2023/Illustrations/L 1500px - web transp/Icons/contact.png"  transform="matrix(1 0 0 1 -2106 1417.5)">
</image>
<image style="overflow:visible;" width="1059" height="1080" xlink:href="../../Library/CloudStorage/GoogleDrive-lucas.pretti@okfn.org/.shortcut-targets-by-id/0B79xBlVd-Nf6ZzMzUlZSTWwxV28/Open Knowledge All Team/Brand 2023/Illustrations/L 1500px - web transp/Icons/create-open-data.png"  transform="matrix(1 0 0 1 -2106 1417.5)">
</image>
<image style="overflow:visible;" width="1198" height="998" xlink:href="../../Library/CloudStorage/GoogleDrive-lucas.pretti@okfn.org/.shortcut-targets-by-id/0B79xBlVd-Nf6ZzMzUlZSTWwxV28/Open Knowledge All Team/Brand 2023/Illustrations/L 1500px - web transp/Icons/data.png"  transform="matrix(1 0 0 1 -2106 1417.5)">
</image>
<image style="overflow:visible;" width="1162" height="1032" xlink:href="../../Library/CloudStorage/GoogleDrive-lucas.pretti@okfn.org/.shortcut-targets-by-id/0B79xBlVd-Nf6ZzMzUlZSTWwxV28/Open Knowledge All Team/Brand 2023/Illustrations/L 1500px - web transp/Icons/funders.png"  transform="matrix(1 0 0 1 -2106 1417.5)">
</image>
<image style="overflow:visible;" width="1005" height="1001" xlink:href="../../Library/CloudStorage/GoogleDrive-lucas.pretti@okfn.org/.shortcut-targets-by-id/0B79xBlVd-Nf6ZzMzUlZSTWwxV28/Open Knowledge All Team/Brand 2023/Illustrations/L 1500px - web transp/Icons/governance.png"  transform="matrix(1 0 0 1 -2106 1417.5)">
</image>
<image style="overflow:visible;" width="1255" height="807" xlink:href="../../Library/CloudStorage/GoogleDrive-lucas.pretti@okfn.org/.shortcut-targets-by-id/0B79xBlVd-Nf6ZzMzUlZSTWwxV28/Open Knowledge All Team/Brand 2023/Illustrations/L 1500px - web transp/Icons/impact.png"  transform="matrix(1 0 0 1 -2106 1417.5)">
</image>
<image style="overflow:visible;" width="1275" height="1127" xlink:href="../../Library/CloudStorage/GoogleDrive-lucas.pretti@okfn.org/.shortcut-targets-by-id/0B79xBlVd-Nf6ZzMzUlZSTWwxV28/Open Knowledge All Team/Brand 2023/Illustrations/L 1500px - web transp/Icons/jobs.png"  transform="matrix(1 0 0 1 -2106 1417.5)">
</image>
<g>
	<path d="M704.7,465.2c-2.2,7-8.9,8.5-14.7,9.8c-13.5,3-25.2,10.1-37.4,16c-12.8,6.2-25.7,12.6-37.8,20.1
		c-10.5,6.6-20.2,14.6-29.8,22.5c-8.4,6.9-16.1,14.6-24.2,21.9c-14.3,12.9-25.5,28.4-35.3,44.7c-6,10-10.5,21.1-14.4,32.1
		c-5.8,16.7-11.7,33.5-12.9,51.4c-0.9,13.4-2.9,26.7-3.3,40.1c-0.7,18.6,1.7,37,5.4,55.2c3.1,15,8.6,29.2,17,41.7
		c7.9,11.8,17.8,22.4,28,32.3c13.6,13.3,28.6,25.2,42.4,38.4c15.1,14.4,28.2,30.6,35.8,50.3c4.4,11.4,6.1,23.6,6.2,35.9
		c0.1,10.9,0.2,21.9,1.5,32.7c1.4,11.6,3.7,23.1,6.7,34.4c2.2,8.2,5.5,9.1,13.9,8.6c6.6-0.4,13.2,0.6,19.8,0.5
		c13.1-0.1,26.2-0.1,39.3-0.8c20.2-1.1,40.4-2.4,60.6-4.3c19.9-1.9,39.8-4.6,59.6-7.3c5.4-0.7,10.7-2.4,15.8-4.3
		c6.2-2.4,8.6-8.1,9.7-14c2.5-13.2,2.8-26.5,1.9-39.9c-0.7-9.7-1.8-19.7-0.7-29.2c1.9-16.1,3.7-32.2,10.4-47.7
		c9.2-21.3,21.7-40.6,32.7-60.7c9-16.5,17.9-33.2,25.9-50.3c13.1-27.9,19.7-57.4,19.3-88.2c-0.1-7.4-1.9-14.7-2.8-22.1
		c-1.7-13.2-3-26.4-5-39.5c-2.7-18.1-9-35.2-16.5-51.6c-6.7-14.6-14.3-29.1-23.4-42.2c-16.9-24.3-37-45.9-63.6-60.2
		c-9.2-4.9-19.1-8.7-28.9-12.4c-22.1-8.2-45.1-10.8-68.6-9.5c-6.9,0.4-12.8-1.7-17.3-7.2c-1-1.2-1.5-2.8-2.4-4.5
		c17.2-4.3,33.9-3.9,51-1.3c22,3.4,42.7,10,62.8,19.2c18.9,8.7,35.7,20.4,51.6,33.8c13.8,11.6,25.8,24.9,37.1,38.7
		c6.1,7.5,11.1,16.1,15.9,24.6c10.1,18.1,18.2,37.1,25,56.6c4.2,12.2,7.1,24.7,8.5,37.4c1.7,16,3.8,32.1,3.4,48.1
		c-0.5,19.3-2.3,38.7-8.7,57.2c-1.8,5.3-2.5,11.1-4.7,16.2c-3.3,7.8-7.4,15.3-11.4,22.9c-5.5,10.5-10.9,21-16.8,31.3
		c-6.1,10.6-12.7,20.9-18.9,31.4c-3.4,5.7-6,11.9-10.1,17c-5.7,7-7.3,15.5-10.4,23.4c-3.2,8.2-6,16.6-7.6,25.2
		c-1.5,7.8-1.5,16-1.6,24c-0.2,15.8,0.6,31.6-0.3,47.4c-0.6,10.5-2.7,21.1-5.7,31.2c-1.9,6.4-7.4,11.1-14.4,13.1
		c-2.5,0.7-5.1,1.2-7.7,1.7c7.3,14.1,5.4,28.8,5.1,43.5c-0.2,9.9,1.5,20,3.3,29.8c2,10.7,2.5,20.9-3.8,30.2
		c-4.8,7.1-5,14.1-1.3,21.6c1.5,3,2.8,6,3.9,9.1c2,5.1-0.2,9.8-1.2,14.8c-2.6,12.4-11.2,16.9-21.9,19.4c-18.9,4.5-38.1,5.8-57.5,5.6
		c-22.4-0.2-44.9-0.9-67.3-1.4c-4-0.1-7.9,0-12.3,0c2.4,6.7,6.5,11.5,12.1,15.1c14.1,9.1,29.6,13.8,46.3,13.4
		c9.3-0.2,18.8-1,27.9-3.3c6.6-1.6,12.5-5.8,18.6-9.2c3.9-2.2,7.4-5.1,11.2-7.5c4.6-3,7.2-1.9,8.6,3.3c2.8,10.5,1,14.2-7,21
		c-9.1,7.8-19.5,11.7-30.9,15.1c-16.2,4.8-32.1,4.9-47.8,0.4c-11.2-3.3-21.7-9-30.8-16.8c-8.7-7.6-15.3-16.6-19.6-27.2
		c-1.9-4.6-5.1-5.8-9.5-6.4c-4.6-0.7-9.2-1.6-13.4-3.5c-7.7-3.4-12.8-9.1-13.5-18.1c-0.6-7.8-2.8-15.5-2.4-23.2
		c0.5-10,2.5-20,4.6-29.9c1.5-6.8,0.7-12.2-4.7-17.1c-7.6-7-5.7-16.1-3.2-24.2c4.1-13.6,2.8-26.9,0.6-40.4c-0.3-1.7-2.6-3.6-4.5-4.5
		c-6.3-3-13.3-4.8-19-8.6c-4.4-2.9-8.6-7.6-10.8-12.5c-5.9-13.2-7.7-27.5-9.4-41.7c-2-17-3.5-34.1-6.4-50.9
		c-4.1-23.9-15.8-43.8-33.8-60.1c-15.5-14.1-31.4-27.8-46.1-42.7c-10.3-10.5-20.3-21.8-27.9-34.2c-6.7-11-11.6-23.7-14.4-36.3
		c-3.9-17.6-5.8-35.7-7.3-53.7c-1.2-14.7,0.2-29.5,3.4-44c2.4-11.3,3.8-22.9,7.1-33.9c3.3-11.3,8.1-22.1,12.5-33
		c10.4-26.5,27.7-48.1,47.2-68.5c19.5-20.4,41.9-36.9,65.4-52.1c7.2-4.7,15.1-8.5,23-12.1c13.6-6.1,27.3-11.9,41.1-17.2
		c6.4-2.4,13.2-4.3,20-4.7C693.9,460.2,700.6,458.4,704.7,465.2z M698,1184.7c2-1.2,3.7-2.4,5.5-3.2c16.6-7,33.2-13.9,49.7-20.8
		c28.5-11.9,57.4-22.8,83.5-39.8c4.3-2.8,4.5-5.5,3.9-9.8c-1-7.2-1.5-14.4-1.8-21.7c-0.2-6.1,0.6-12.2,0-18.2
		c-0.3-3.5-1.9-8-6.4-8.1c-14.5-0.3-29-1.1-43.6,0.7c-25.9,3.2-51.8,5.9-77.7,8.4c-8.1,0.8-16.3,0.6-24.4,0.4
		c-6.4-0.1-12.7-1-19.8-1.5c1,3.8,1.5,6.6,2.5,9.2c4.1,10.3,5,20.6,1.2,31.3c-3.2,9-4.7,17.6,4.4,25.3c3.4,2.8,5.3,4.7,9.4,2.8
		c1.2-0.5,2.5-0.8,3.7-1.3c25.6-11.8,52.5-19.7,79.8-26.4c2.7-0.7,5.5-0.8,9.8-1.5c-1.7,3.8-2.7,6.3-4,8.6c-1.2,2-2.5,4.5-4.3,5.2
		c-9.2,3.7-18.7,6.8-28,10.3c-21.6,8.1-43.2,16.3-64.8,24.7c-1.1,0.4-2.3,2.4-2.5,3.7c-1.4,13.8-1,27.5,1.6,41.1
		c1.6,8.6,4.3,11.5,13.2,11.9c15.4,0.6,30.8,0.9,46.2,1.1c21.3,0.4,42.5,1.2,63.8,0.6c11.5-0.3,23.1-2.8,34.4-5
		c5.7-1.1,10.5-8.6,9.7-14.1c-1.1-7.6-3-15.1-4.6-23c-11.2,4-21.8,7.3-32,11.7c-13.2,5.6-26.3,10.9-40.9,5.1
		c-0.1-2.1-0.3-3.7-0.4-5.5c2.7-0.7,5.4-1,7.7-2.1c19-8,37.5-17,57.6-22.2c7.5-1.9,12.8-5.9,13.8-14.9c0.5-4.5,1.3-8.6-0.3-11.9
		c-17.5,8.5-34.6,17.4-52.3,25c-20.9,9-42.2,16.9-63.4,25c-7.5,2.9-15.4,5-23,7.7c-3.3,1.1-4.6-1-5.7-3.2
		C698.9,1188.6,698.6,1186.8,698,1184.7z"/>
	<path d="M650.1,276.2c9.7-1.8,19.1-3.8,28.5-5.3c11.7-1.9,23.5-4.1,35.3-5c39.5-3.2,79-6.9,118.6-8.7c48.7-2.3,97.4-2.9,146.1-4.2
		c3-0.1,6.1,0.5,9.1,1.5c-11.3,0-22.6,0-33.9,0c0,0.2,0,0.3,0,0.5c12.5,0,25,0.4,37.5-0.1c6.9-0.3,13.3,2,20.1,2.5
		c21.6,1.3,43,3.6,64.6,5.5c0.6,0.1,1.2-0.2,1.8-0.9c-6.8-0.9-13.6-1.9-20.5-2.8c0-0.2,0-0.4,0-0.6c5.3,0.5,10.7,0.5,15.9,1.6
		c27.4,6,55.1,11.2,82.1,18.9c28.4,8.1,55.9,19.2,82.3,32.8c17.6,9.1,32.6,21.8,46.5,35.7c8.8,8.7,17.5,17.9,24.3,28.1
		c8.3,12.4,15.2,25.9,21.9,39.3c10.5,21,15.4,43.8,18.2,66.9c5.6,46.2-2.7,89.5-27.2,129.4c-4.2,6.8-9,13.2-13.8,19.6
		c-1.9,2.6-2.5,4.9-2,8.2c2.2,14.1,1.3,27.8-7.6,39.9c-12.7,17.1-29.5,22.7-49.9,18.3c-4.2-0.9-8.7-1.7-12.4-3.7
		c-7.3-4-13.2-1.5-19.9,1.6c-7.9,3.7-16.4,6.1-24.8,8.7c-8.5,2.6-17.1,5.2-25.8,6.9c-5.4,1.1-11.2,0.6-16.7,1.1
		c-2.2,0.2-4.2,1.7-6.4,2.1c-13.5,2.2-26.9,4.4-40.5,6.3c-2.2,0.3-4.5-1.3-6.9-1.9c-1.2-0.3-2.6-0.7-3.8-0.6
		c-14.5,1.6-28.9,3.8-43.5,4.6c-9.5,0.5-19.3-0.7-28.8-2.1c-4.8-0.7-9.2-3.6-13.8-5.4c-0.1-0.6-0.1-1.3-0.2-1.9
		c1.6-1.1,3-2.7,4.7-3.1c7.8-2,15.7-3.9,23.6-5.4c11.2-2.1,22.5-3.7,33.7-5.8c26.1-4.8,52.2-9.5,78.2-14.7
		c10.8-2.2,21.6-5.2,32.1-8.5c8.1-2.5,15.9-6.2,22.9-8.9c-1.4-8.7-3.5-17.2-3.8-25.7c-0.5-15.9,8.1-27.3,20.5-36.1
		c6.5-4.6,13.3-8.5,22-7.3c3.1,0.4,6.6-2.3,9.7-1.8c6.1,1,12.1,1.2,18.2,1.5c8.1,0.4,13,6.7,19,10.8c1,0.7,1.7,2,3.5,4.4
		c8.9-12,17.9-22.7,25.1-34.5c8.4-13.9,15.1-28.9,19.3-44.8c5.2-20,5.4-40.1,1.4-60.4c-7.3-37.4-25.5-68.8-52.2-95.6
		c-6.2-6.2-13.9-10.8-20.1-17c-13-13.1-29.5-20.1-45.8-27.4c-12.7-5.7-25.9-10.1-39-15c-13.6-5.1-27.3-10.3-41-15.2
		c-3.8-1.3-8.1-1.2-12-2.2c-13.2-3.3-26.3-7.1-39.5-10c-7.6-1.7-15.5-1.9-23.3-2.8c-8.2-1-16.3-2.2-24.5-2.9c-16-1.5-32-3.5-48-4.1
		c-19.8-0.8-39.6-0.8-59.4-0.5c-31.8,0.6-63.5,1.4-95.3,2.9c-26.2,1.2-52.5,3.4-78.7,5.4c-13.9,1-27.8,2.2-41.6,3.9
		c-13,1.6-25.9,4.1-38.8,6.2c-7,1.1-14.1,2.3-20.8,3.3c-3.8,7.2-7.2,15.2-11.9,22.1c-5.9,8.5-14.7,13.8-24.2,17.9
		c-2.4,1.1-4.7,2.4-7,3.7c-7.1,4.3-14.8,3.7-22.2,1.9c-8-1.9-15.9-4.6-23.7-7.4c-7.7-2.8-12.3-9.4-16.9-15.8
		c-8.5-12.2-11.8-26.2-11.2-40.5c0.2-5.8,4.5-11.7,7.7-17c4.6-7.8,12-12.3,19.9-16.8c8.4-4.8,17.6-6.8,26.5-7.5
		c15.2-1.2,29.8,2.4,41.7,13.5C640,261.6,647,267,650.1,276.2z M636.9,287.8c-0.4-2.1-0.8-4.3-1.1-6.4c-2-11.8-13.8-23.7-28-21.3
		c-5.7,1-11.4,1.7-17.2,2.5c-3.4,0.5-7.2,0.1-10.3,1.3c-10.8,3.9-17.4,12.5-22.9,21.8c-2.9,4.9-5,10.2-4,16.5
		c1.9,12.2,6.7,20.7,20.2,23.5c13.8,2.9,26.7,3.4,39.2-3.9c2.7-1.6,5.5-3.2,7.9-5.2C629.7,309.2,637.4,300.8,636.9,287.8z
		 M1290,648.6c0.4-14.2-2.5-25.6-15-32.2c-2.7-1.4-5.9-1.9-8.9-2.7c-5.1-1.4-10.3-3.6-15.5-3.7c-13.2-0.3-23.2,6.5-31.5,16.2
		c-10.9,12.7-11.4,30.4,5.1,41.5c7.9,5.3,16.5,7.4,25.2,10.1c10.1,3.1,19.4-1,27.4-5.1C1285.8,667.9,1291.6,659,1290,648.6z"/>
	<path d="M973.8,615c8.6-2.6,16.9-5.2,25.3-7.5c2.6-0.7,5.6-0.3,8.2-1.1c10.2-3.3,20.4-6.7,30.5-10.4c11.5-4.3,23-8.8,34.4-13.5
		c5.2-2.1,10.2-4.6,15.1-7.2c10.8-5.9,20.5-13.2,29-22.2c5.2-5.6,11.1-10.6,15.8-16.7c12-15.5,16.4-32.9,10.3-52.1
		c-3.8-12-13.8-18.7-22.8-26.3c-10.8-9-23.6-13.9-35.5-18.5c-8.2,6.8-16,13.3-23.8,19.8c-1,0.8-2,2-3.2,2.2
		c-11.9,2.2-23.2,6.8-36.1,4.8c-21-3.1-46.4-20.9-52.3-43.9c-1.3-5.1-2.4-10.3-4.3-15.2c-0.7-1.7-3.5-3.5-5.4-3.7
		c-14.7-1.7-29.5-3.1-44.2-4.3c-13.2-1.1-26.5-2.5-39.7-2.5c-22,0-44.1,0.3-66,1.7c-28.8,1.8-57.5,4.6-86.1,7.4
		c-47.2,4.7-93.3,14.6-138.8,27.6c-16.9,4.8-33.7,10.3-50.7,14.8c-9.7,2.6-19.8,4-29.6,6.1c-3.7,0.8-7.3,2.1-10.9,3.4
		c-18.6,6.6-37.6,12.5-55.8,20.3c-21,8.9-41.3,19.6-57.6,35.9c-8.1,8.1-17.4,15.7-21.2,27.2c-6.1,18.7-1.3,32.9,16.1,46.8
		c12.2,9.7,26.1,16,41,20.6c17.6,5.4,35,11.6,52.5,17.4c3.2,1.1,5.4,2.9,5,6.4c-0.5,4.2-3.9,4.1-6.8,3.7c-5.3-0.8-10.5-1.6-15.6-3
		c-16.6-4.7-33.5-8.7-49.6-14.7c-16-6-31.6-13.4-41.8-28.4c-3-4.4-6.6-8.3-10.1-12.3c-7.8-9.2-10.5-20.1-9.4-31.7
		c1.1-12.2,4.6-23.8,13-33.2c5.2-5.7,11.7-10.4,16.5-16.4c9.3-11.6,21.6-19,34.2-25.9c11.3-6.1,23.2-11.1,35.2-15.8
		c14.6-5.8,29.4-11.1,44.3-16.3c7-2.4,14.4-3.9,21.6-6c10.6-3.1,21.2-6.4,31.8-9.5c13.2-3.9,26.4-7.7,39.6-11.4
		c10-2.8,20-5.9,30.2-8c24.4-5.2,48.8-10.5,73.4-14.8c21.6-3.8,43.3-6.5,65-9c16.3-1.9,32.8-3.3,49.2-4.3
		c11.4-0.7,22.8-0.6,34.2-0.8c13.6-0.2,27.2-1,40.8-0.5c22.6,0.8,45.2,2.1,67.8,3.8c8.8,0.7,17.6,2.9,26.3,4.5
		c4.1,0.8,6.8,0.5,9.9-3.6c8.5-11,19.6-18.9,33.1-23c6.6-2,12.2-6.8,20-4.9c10,2.4,21,2.3,30.3,6.3c12.2,5.3,21.8,14.8,27,27.8
		c3.9,9.8,7.1,19.7,4.7,30.6c-0.7,3.2,0.8,5.5,4.5,7c37.3,15.4,62,42.3,72.5,81.4c3,11.4,2.6,23.2-1.8,34.7
		c-3.5,9.3-8.5,17.8-15.4,24.8c-5,5.1-10.9,9.5-16.7,13.8c-7.6,5.5-15,11.8-23.5,15.6c-12.8,5.7-26.1,10.4-39.6,14
		c-21.7,5.7-43.6,10.5-65.6,14.8c-7.1,1.4-14.8,0-22.2-0.2C974.8,621.4,973.5,618.5,973.8,615z M980.9,414.2
		c-2,9.2,3.7,16,12.9,20.7c1,0.5,2,1.2,3,1.8c8.9,4.7,18.3,8.3,28.3,8.5c9.7,0.2,18.9-2.7,27.9-6.7c7.3-3.3,11.9-8.5,15-15.4
		c5.6-12.2,4.5-36-15-47.4c-8.7-5.1-18.4-7.5-28.1-5.7c-7.8,1.5-15.7,4.7-22.6,8.8C989.8,386.1,980.3,396.2,980.9,414.2z"/>
	<path d="M312.5,373.6c-0.8-5-1.8-10.7-2.6-16.4c-2-14.8,4.2-26.4,14.7-36.3c6-5.7,12.3-9.7,20.9-10.3c3.2-0.2,6-3.3,9.2-4.5
		c4.4-1.6,9-3.2,13.6-3.8c10.3-1.4,20.8,0.3,29.7,5c7.2,3.8,13.4,10.1,19.1,16.1c3.1,3.3,5.7,3.8,9.5,2.7c12-3.7,24-7.6,36.1-11.2
		c15-4.5,30-8.8,45-13c5.3-1.5,10.7-2.5,16-3.5c6.8-1.3,14.9,5.1,15.7,11.9c0.4,2.9-0.8,4.2-3.5,5c-20.3,5.2-40.5,10.3-60.7,15.8
		c-13.9,3.8-27.7,8.2-41.5,12.4c-2.7,0.8-4.3,2.3-3,5.5c3.4,7.9,2.8,15.8,0.1,23.9c-5.6,17-17,28.9-32.5,37.1
		c-8.9,4.7-18.7,5.2-28.5,4.6c-17.9-1.2-31.9-10.6-44.5-22.5c-0.6-0.6-1.1-1.2-1.8-1.7c-0.4-0.3-0.9-0.5-0.7-0.4
		c-5.1,3-10,5.8-14.7,8.7c-15.5,9.5-31.2,18.7-46.2,28.9c-9.6,6.5-18.2,14.3-27.2,21.7c-10.4,8.6-21.1,16.8-30.6,26.3
		c-15.3,15.2-28.7,31.8-37.6,52.1c-6.5,14.9-5.3,29.3-2.8,43.9c3,17.5,12.3,32.2,23.7,45.8c12.7,15.1,28.2,26.9,44.6,37.4
		c22.6,14.5,46.2,27.1,71.7,35.9c21.8,7.6,43.7,15.3,66.9,18.1c13.7,1.6,27.4,3.5,41,5.7c6.2,1,12.3,2.9,18.4,4.5
		c5.1,1.4,7.2,5.7,8.3,10.2c0.3,1.2-2.1,4.3-3.5,4.5c-5.7,0.7-11.8-0.2-17.3,1.1c-11.9,2.9-23.5-0.2-35.2-0.5
		c-8-0.2-16-2.5-23.9-4.4c-7.9-1.9-15.6-4.3-23.3-6.8c-23.3-7.4-45.7-16.9-66.7-29.4c-14.2-8.5-29-16.4-42.5-25.9
		c-23.7-16.8-45.5-35.7-61.8-60.1c-16.4-24.6-23.9-51.8-21-81.5c0.4-4,2.4-7.9,3.9-11.7c9.7-23.7,24.4-44.2,43.5-60.7
		c20.1-17.3,41.5-33.3,63.6-48C272.6,393.6,292.7,384.3,312.5,373.6z M361.8,394.7c4.4-0.6,9.1-0.5,13.3-1.8
		c17.6-5.5,31.9-14.8,38.6-33.5c1.7-4.6,2.2-8.5,0.7-12.8c-1.5-4.4-3-8.9-5.1-13c-6.9-13.1-19.9-18.2-34.4-14.7
		c-8.3,2-14.5,7-21.2,11.5c-0.9,0.6-2.3,1.7-2.8,1.5c-6.3-3.5-8.9,0.7-12.5,4.8c-9.2,10.5-11.9,22.8-10.1,36
		c0.6,4.5,3.8,9.5,7.3,12.5C342.9,391.5,351.6,395.2,361.8,394.7z"/>
	<path d="M773.1,891.6c5.1-17.8,9.1-35,14.9-51.5c5.8-16.4,8.3-34.3,19.5-48.6c8.7,4.2,10,8.7,7.2,17.3c-5.5,17-10.3,34.3-15.4,51.5
		c-1.7,5.9-3.3,11.8-4.6,17.8c-3,13.5-6.3,27-8.7,40.7c-1.9,10.6-3.1,21.5-3.7,32.3c-0.7,11.4-0.2,22.9-0.4,34.3
		c-0.1,5.5-0.9,10.9-1,16.4c-0.2,9.4-0.2,18.8-0.2,28.2c0,3.4-1.3,5.2-4.8,4.5c-12-2.7-16.7-7.5-14.7-21.5c3.2-21.9,2-43.7,2.9-65.6
		c0.3-6.8,1-13.5,1.5-20.7c-18.3,2.5-35.9,5-53.7,7.5c1.7,11.2,3.8,23.3,5.4,35.5c2.4,18.1,4.8,36.2,6.7,54.3
		c0.5,4.8-0.7,9.8-1.3,14.8c-0.1,0.9-0.6,2-1.3,2.5c-4.7,3.5-15-1.3-15.6-7.3c-1.3-12.9-1.7-25.9-3.8-38.7
		c-4.6-29.1-9.2-58.1-15.3-86.9c-2.9-13.7-8.7-26.9-13.9-40c-8.2-20.8-18.9-40.3-32.7-58c-1.8-2.3-4.3-4.2-6.1-6.5
		c-0.7-0.9-0.7-2.4-1-3.6c1.2-0.2,2.7-0.8,3.6-0.4c5.5,2.8,11.7,5,16.2,9.1c11.7,10.6,18.9,24.7,27.1,37.9
		c9.5,15.3,14.8,32.2,20.9,48.8c1,2.6,2.2,3.8,5.1,3.3c12.9-2.2,25.9-4.3,38.9-6.4c3.1-0.5,6.3-0.8,9.4-0.9
		C760.5,891.5,766.9,891.6,773.1,891.6z M770,904c-21.2,2.8-41.5,9-63.2,6.9c0.6,2.5,1.3,4.1,1.3,5.7c0.2,4.4,2.4,5.1,6.2,4.3
		c6.4-1.3,12.8-2.4,19.1-3.7c11-2.3,22-4.9,33.2,1.2C767.8,913.6,768.8,909.3,770,904z"/>
	<path d="M636.3,775c0.6,1.4,1.5,3,1.9,4.7c0.9,3.7,1,7.4-2.7,9.8c-3.7,2.3-7.4,0.9-10.6-1.1c-2.5-1.6-4.6-4.1-6.5-6.4
		c-2.4-2.9-0.9-7,2.8-8.4c0.8-0.3,1.6-0.3,2.4-0.4c8-1,7.5-1.2,9.8-9c2-7,4.1-14.4,8-20.3c8.7-13.2,28.2-22,45.6-15.7
		c5.8,2.1,10.5,7.4,16.1,11.5c6.2-7.3,12.8-15,24.4-14.5c10.9,0.5,19.2,5.8,26.4,13.7c4-2.4,8-4.8,11.9-7.2
		c10.1-6.1,19.8-3.8,29.9,0.5c11.7,4.9,16.3,15,20.7,25.4c1.1,2.7,2.4,3.6,5.3,4.2c2.7,0.5,6.6,1.9,7.2,3.9c1.2,3.3,3,7.6-0.7,11.1
		c-1.1,1.1-1.4,3-2.4,4.2c-3.6,4.3-8.1,4.1-14.5,0.4c-5.4-3.1-6.2-8.5-7.2-13.6c-2.5-13.5-10-23.5-21.5-30.1
		c-7.2-4.2-20.1,3-21.4,11.4c-0.2,1.2,0.6,2.5,1.1,3.7c3.3,9.7,8,19.2,9.6,29.2c1.3,8.1-1,16.8-1.7,25.2c-0.1,1.7-0.4,3.3-0.5,4.9
		c-0.4,4.2-5.8,11.7-9.2,12.7c-5.5,1.5-10.5-1.1-14.7-6.1c-6.9-8.1-6.1-18.1-6.9-27.4c-1.1-12.4,0.7-24.8,6.6-36.2
		c0.7-1.3,0.5-4-0.4-5c-5-5.5-10-10.9-15.6-15.8c-3.1-2.7-6.8-2.1-9.6,1.5c-0.4,0.5-0.9,1-1.3,1.5c-9.5,11.6-9.2,11.4-2,24.4
		c3.7,6.6,6.7,13.7,8.9,21c1.3,4.4,0.7,9.5,0.5,14.2c-0.5,9.5,1.7,19.1-1.6,28.7c-1.7,5.1-4.6,7.6-9.2,8.5
		c-12.7,2.6-19.6-2.2-24.4-14.1c-4.7-11.7-6.5-24.2-4.6-36.7c1.4-8.6,4.4-17,6.5-25.5c0.4-1.6,0.9-3.8,0.1-4.8
		c-4.1-5.2-8.2-10.6-13.2-14.8c-6.7-5.7-13.9-5.2-20,1.4c-4.1,4.5-7.2,9.9-10.2,15.1c-2.8,4.8-4.6,10.2-7.3,15
		C641,771.4,638.4,773,636.3,775z M709.6,826.9c7-12,1.6-51-9.4-60.1c-1.2,7.7-2.4,14.4-3.2,21.2c-1.1,9,0.7,17.7,3.2,26.5
		C701.8,820.2,704.6,824.2,709.6,826.9z M757.3,819.6c5.2-8.9,2.8-40.3-4-51.8C751.4,785.7,747.5,802.8,757.3,819.6z"/>
	<path d="M305.6,931.3c5.8-2.4,11.6-4.2,16.9-7c21.6-11.3,43-23.1,64.6-34.5c9.8-5.1,19.9-9.7,29.8-14.6c6.5-3.2,11.3,1.4,16.5,3.7
		c2.6,1.1,2,9.6-0.8,11.7c-6,4.7-11.9,9.5-18.3,13.6c-10,6.5-20.2,12.8-30.6,18.5c-11.5,6.3-23,13.8-36.1,15.7
		c-10.4,1.5-21.4,3.6-31.9-1.8C312.2,934.9,307.6,934.8,305.6,931.3z"/>
	<path d="M958.8,918.3c6.3,1,11.2,1.2,15.8,2.5c8.1,2.2,16.7,3.9,23.9,8c5.2,3,11,5.2,15.7,8.7c6,4.5,11,10.4,16.5,15.7
		c4.7,4.6,9.9,8.9,14.1,14c5.3,6.5,10.3,13.3,14.5,20.5c1.4,2.4,0.6,7-0.8,9.7c-1.8,3.2-5.3,1.1-8.4,0.7
		c-11.3-1.4-19.1-8.9-27.8-14.8c-6.1-4.2-12.1-8.6-17.9-13.2c-10.5-8.1-20.9-16.3-29.2-26.9c-4.2-5.4-8.9-10.4-12.9-15.9
		C960.7,925.3,960.3,922.2,958.8,918.3z"/>
	<path d="M405,1016.2c5.6-5.9,10.9-9.6,16.9-13c6.1-3.4,11.1-8.9,16.3-13.7c10.5-9.8,20.8-19.9,31.3-29.8c3.2-3,6.8-5.9,10.6-8.1
		c1.8-1.1,4.4-1.5,4.8,2.6c0.4,4.6,3,9.2,2.5,13.6c-0.7,6-2.5,12.3-5.5,17.5c-4.7,8.2-10.5,16-16.5,23.4c-6,7.5-14.7,10.9-23.8,13.2
		c-9,2.2-18.2,3.9-27.1-0.3C411.3,1020.1,408.4,1018.2,405,1016.2z"/>
	<path d="M1101.8,882.4c-14.2,0-27.2-3.3-38.9-11.9c-9.2-6.8-19.2-12.6-28.4-19.4c-3.1-2.2-5.3-5.8-7.4-9.1
		c-1.5-2.4-0.7-4.7,2.6-4.8c5.6-0.2,11-1.3,16.7,0.9c4.6,1.8,10,1.5,14.9,2.5c5.1,1.1,10.3,2.1,14.9,4.2c8.7,3.9,17.4,8.1,25.4,13.2
		c4.7,3,8.6,7.7,11.9,12.3c4.1,5.7-0.2,11.8-8.2,12.3C1104.1,882.7,1102.9,882.5,1101.8,882.4z"/>
	<path d="M813.7,1078c-0.3,9.1-3.9,14.2-12.3,16.4c-18.7,4.9-37.5,9.2-56.1,14.5c-13.4,3.8-26.5,8.8-39.9,12.9
		c-6.1,1.9-12.5,3.2-18.8,4.5c-3.1,0.6-6.7,1.6-7.6-3.4c-0.1-0.3-1.3-0.4-0.8-0.2c0.2-2.1,0-3.9,0.6-5.1c0.8-1.5,2.1-3.1,3.6-3.6
		c16.5-6,32.9-13,49.8-17.5c26-7,52.4-12.3,78.6-18.3C811.6,1077.9,812.5,1078,813.7,1078z"/>
</g>
</svg>
