<?xml version="1.0" encoding="utf-8"?>
<!-- Generator: Adobe Illustrator 27.4.1, SVG Export Plug-In . SVG Version: 6.00 Build 0)  -->
<svg version="1.1" id="Camada_1" xmlns="http://www.w3.org/2000/svg" xmlns:xlink="http://www.w3.org/1999/xlink" x="0px" y="0px"
	 viewBox="0 0 1500 1500" style="enable-background:new 0 0 1500 1500;" xml:space="preserve">
<image style="overflow:visible;" width="1450" height="993" xlink:href="../../Library/CloudStorage/GoogleDrive-lucas.pretti@okfn.org/.shortcut-targets-by-id/0B79xBlVd-Nf6ZzMzUlZSTWwxV28/Open Knowledge All Team/Brand 2023/Illustrations/L 1500px - web transp/Icons/board.png"  transform="matrix(1 0 0 1 -2106 1417.5)">
</image>
<image style="overflow:visible;" width="1133" height="1032" xlink:href="../../Library/CloudStorage/GoogleDrive-lucas.pretti@okfn.org/.shortcut-targets-by-id/0B79xBlVd-Nf6ZzMzUlZSTWwxV28/Open Knowledge All Team/Brand 2023/Illustrations/L 1500px - web transp/Icons/books.png"  transform="matrix(1 0 0 1 -2106 1417.5)">
</image>
<image style="overflow:visible;" width="1357" height="1143" xlink:href="../../Library/CloudStorage/GoogleDrive-lucas.pretti@okfn.org/.shortcut-targets-by-id/0B79xBlVd-Nf6ZzMzUlZSTWwxV28/Open Knowledge All Team/Brand 2023/Illustrations/L 1500px - web transp/Icons/campagne.png"  transform="matrix(1 0 0 1 -2106 1417.5)">
</image>
<image style="overflow:visible;" width="845" height="1103" xlink:href="../../Library/CloudStorage/GoogleDrive-lucas.pretti@okfn.org/.shortcut-targets-by-id/0B79xBlVd-Nf6ZzMzUlZSTWwxV28/Open Knowledge All Team/Brand 2023/Illustrations/L 1500px - web transp/Icons/case-study.png"  transform="matrix(1 0 0 1 -2106 1417.5)">
</image>
<image style="overflow:visible;" width="1265" height="951" xlink:href="../../Library/CloudStorage/GoogleDrive-lucas.pretti@okfn.org/.shortcut-targets-by-id/0B79xBlVd-Nf6ZzMzUlZSTWwxV28/Open Knowledge All Team/Brand 2023/Illustrations/L 1500px - web transp/Icons/collaboration.png"  transform="matrix(1 0 0 1 -2106 1417.5)">
</image>
<image style="overflow:visible;" width="1339" height="1035" xlink:href="../../Library/CloudStorage/GoogleDrive-lucas.pretti@okfn.org/.shortcut-targets-by-id/0B79xBlVd-Nf6ZzMzUlZSTWwxV28/Open Knowledge All Team/Brand 2023/Illustrations/L 1500px - web transp/Icons/connect-community.png"  transform="matrix(1 0 0 1 -2106 1417.5)">
</image>
<image style="overflow:visible;" width="1357" height="681" xlink:href="../../Library/CloudStorage/GoogleDrive-lucas.pretti@okfn.org/.shortcut-targets-by-id/0B79xBlVd-Nf6ZzMzUlZSTWwxV28/Open Knowledge All Team/Brand 2023/Illustrations/L 1500px - web transp/Icons/contact.png"  transform="matrix(1 0 0 1 -2106 1417.5)">
</image>
<image style="overflow:visible;" width="1059" height="1080" xlink:href="../../Library/CloudStorage/GoogleDrive-lucas.pretti@okfn.org/.shortcut-targets-by-id/0B79xBlVd-Nf6ZzMzUlZSTWwxV28/Open Knowledge All Team/Brand 2023/Illustrations/L 1500px - web transp/Icons/create-open-data.png"  transform="matrix(1 0 0 1 -2106 1417.5)">
</image>
<image style="overflow:visible;" width="1198" height="998" xlink:href="../../Library/CloudStorage/GoogleDrive-lucas.pretti@okfn.org/.shortcut-targets-by-id/0B79xBlVd-Nf6ZzMzUlZSTWwxV28/Open Knowledge All Team/Brand 2023/Illustrations/L 1500px - web transp/Icons/data.png"  transform="matrix(1 0 0 1 -2106 1417.5)">
</image>
<image style="overflow:visible;" width="1162" height="1032" xlink:href="../../Library/CloudStorage/GoogleDrive-lucas.pretti@okfn.org/.shortcut-targets-by-id/0B79xBlVd-Nf6ZzMzUlZSTWwxV28/Open Knowledge All Team/Brand 2023/Illustrations/L 1500px - web transp/Icons/funders.png"  transform="matrix(1 0 0 1 -2106 1417.5)">
</image>
<image style="overflow:visible;" width="1005" height="1001" xlink:href="../../Library/CloudStorage/GoogleDrive-lucas.pretti@okfn.org/.shortcut-targets-by-id/0B79xBlVd-Nf6ZzMzUlZSTWwxV28/Open Knowledge All Team/Brand 2023/Illustrations/L 1500px - web transp/Icons/governance.png"  transform="matrix(1 0 0 1 -2106 1417.5)">
</image>
<image style="overflow:visible;" width="1255" height="807" xlink:href="../../Library/CloudStorage/GoogleDrive-lucas.pretti@okfn.org/.shortcut-targets-by-id/0B79xBlVd-Nf6ZzMzUlZSTWwxV28/Open Knowledge All Team/Brand 2023/Illustrations/L 1500px - web transp/Icons/impact.png"  transform="matrix(1 0 0 1 -2106 1417.5)">
</image>
<image style="overflow:visible;" width="1275" height="1127" xlink:href="../../Library/CloudStorage/GoogleDrive-lucas.pretti@okfn.org/.shortcut-targets-by-id/0B79xBlVd-Nf6ZzMzUlZSTWwxV28/Open Knowledge All Team/Brand 2023/Illustrations/L 1500px - web transp/Icons/jobs.png"  transform="matrix(1 0 0 1 -2106 1417.5)">
</image>
<image style="overflow:visible;" width="1246" height="1065" xlink:href="../../Library/CloudStorage/GoogleDrive-lucas.pretti@okfn.org/.shortcut-targets-by-id/0B79xBlVd-Nf6ZzMzUlZSTWwxV28/Open Knowledge All Team/Brand 2023/Illustrations/L 1500px - web transp/Icons/knowledge.png"  transform="matrix(1 0 0 1 -2106 1417.5)">
</image>
<g>
	<path d="M711.9,267.4c5.7-6.5,13.4-8.3,22.2-5.4c1.8,0.6,3.1,2.5,4.7,3.7c-1.7,1.2-3.4,2.4-5.1,3.5c-1.4,1-3.5,1.7-3.9,2.9
		c-1.3,4-2.3,8.2-2.7,12.5c-0.5,5.3-0.5,10.7-0.3,16c0.6,13.7,1.4,27.4,2.2,41.1c0.7,14.3,1.6,28.5,2.2,42.8
		c1.4,38.3,2.8,76.5,3.7,114.8c0.5,23.6,0.1,47.2,0.1,71.4c5.1,0,10.1,0,15.9,0c0-5.8,0.3-12-0.1-18.2c-0.6-8.7-1.9-17.3-2.6-26
		c-0.9-10.9-1.8-21.8-2.2-32.8c-0.3-8.5,0.4-17,0.2-25.5c-0.2-9.4-1.1-18.9-1.2-28.3c-0.2-22-0.1-44.1-0.2-66.1
		c0-9.5-0.3-19-0.5-28.6c-0.1-8.1,0-16.2-0.3-24.3c-0.6-14.6-1.5-29.1-2.2-43.7c-0.1-2,0.2-4,0.2-4.7c9-0.6,17.9-0.5,26.5-2
		c21.7-3.8,42.9-3,64.1,3.1c17.5,5,33.2,12.7,45.6,26.3c14.9,16.4,32.7,28.7,53.1,37.2c7.2,3,14.9,4.6,22.5,6.6
		c9,2.4,18.1,4.1,27,6.9c6.6,2,12.9,5.2,19.2,8c1,0.4,1.9,1.9,2,3c0.8,7.4-2.5,16.4-10.7,21.1c-11.8,6.6-24.4,9.4-37.4,11.6
		c-10.6,1.8-21.1,3.4-32.3,5.2c1.2,1.2,2.4,2.7,3.9,3.6c7.4,4.5,14.2,10,23,12.1c9.2,2.2,18.1,5.5,27.2,8.2c2.7,0.8,6.8,0.1,8.1,1.8
		c2.9,3.6,4.6,8.3,6.7,12.5c0.3,0.5,0.2,1.2,0.3,2.1c1.8,0,3.4,0,5.8,0c-1.9,5-4.9,9.4-9.3,11.5c-7.4,3.4-15.2,6.3-23.2,7.8
		c-9.5,1.8-19.5,1-29.1,2.8c-9.6,1.8-18.7-1.3-28-1.2c-20.7,0.3-36.6-9.8-50.5-23.3c-9.4-9.1-20.7-14.6-31.9-20.7
		c-10.5-5.7-21.5-9.3-33.2-10.4c-5.9-0.6-11.9,0.4-17.8,0.2c-3.4-0.1-6.7-1.2-10.5-1.9c0,5.1-0.2,11.5,0,17.8
		c1,25.4,2,50.9,3.1,76.3c0.2,3.8,1.5,7.5,1.7,11.3c1,20.8,1.8,41.7,2.8,62.5c0.1,1.2,1.1,2.7,2.1,3.4c2.2,1.4,4.6,2.6,7.1,3.5
		c8.9,3.2,14.7,10.6,21.7,16.4c6.9,5.7,13.9,11.4,20,17.9c9.6,10.3,18.5,21.3,27.5,32.1c7.9,9.4,15.7,19,23.5,28.5
		c8.9,10.7,18.1,21.3,26.6,32.2c9.5,12.2,18.8,24.6,27.4,37.4c2.7,4,4.7,3.8,7.9,1.8c3.1-1.9,5.9-4.6,9.2-5.8
		c15.2-5.6,30.1-12.2,46.3-15c9.3-1.6,16.9,2.6,25,5.2c12.3,3.9,21.2,12.7,30.4,21.2c14.3,13.3,23.5,29.9,32.7,46.7
		c3.8,7,9.1,13.3,13.3,20.1c4.5,7.2,8.6,14.6,13,21.9c9.4,15.6,18.7,31.4,28.5,46.8c7.3,11.5,15.4,22.4,22.9,33.8
		c8.4,13,16.5,26.1,24.7,39.2c8.5,13.7,16,28.1,25.6,41c16.4,21.8,34.2,42.6,51.2,63.9c10.2,12.7,20.1,25.6,30.2,38.4
		c4.9,6.2,10,12.2,14.7,18.5c3.1,4.2,5.6,8.8,8.4,13.2c5.7,9,11.6,17.7,16.9,26.9c3.6,6.3,2.2,11.8-3.1,15.2
		c-4.3,2.7-8.5,1.8-11.1-2.9c-7.1-12.4-13.8-25.3-22.4-36.6c-16.5-21.6-34.3-42.3-51.5-63.4c-15.9-19.5-32.1-38.7-47.4-58.6
		c-7.2-9.4-12.5-20.3-19-30.4c-13.3-20.6-26.9-41-40.1-61.7c-7.3-11.5-14.1-23.3-21.3-34.9c-7.5-12.3-15.1-24.6-22.9-36.7
		c-13.4-20.8-27.1-41.4-40.3-62.2c-8.5-13.4-19.2-24.5-30.9-35c-8.3-7.4-18.6-10.6-28.9-13.9c-1.9-0.6-4.4-0.2-6.4,0.3
		c-12.6,3.5-25.4,6.8-37.8,11c-5.6,1.9-10.4,5.9-15.8,8.4c-3.6,1.7-7.7,3.3-11.8,1.2c-2.5-1.3-5.3-2.7-7.1-4.9
		c-4.8-5.9-9.2-12.2-13.6-18.5c-26.9-38.8-59.2-73.1-90.2-108.4c-12.1-13.8-27.4-24.9-41.7-36.8c-6.2-5.2-14.3-6.8-22.4-7.6
		c-5.4-0.5-10.8-1.8-14.6-2.5c-3.1,2.9-5.2,5.5-7.9,7.4c-9.3,6.8-16.1,15.6-22.7,24.8c-10.4,14.4-21.2,28.6-32.4,42.4
		c-17.2,21.2-34.9,42-52.4,63c-15,18-29.3,36.4-42.2,55.9c-9.5,14.4-19.1,28.7-28.8,42.9c-3.1,4.5-6,9.5-10.1,12.9
		c-4.6,3.8-9.3,7.7-16.7,7c-13.2-1.2-26.8-1.2-39.2,4.2c-10.1,4.4-19.7,10-29.3,15.5c-7.6,4.4-15.1,9.1-22.1,14.3
		c-3.5,2.6-5.8,6.6-8.6,10c-14.9,18.3-29.8,36.6-44.6,54.9c-9.2,11.4-18.4,22.9-27.4,34.5c-2.7,3.5-4.7,7.5-7.1,11.2
		c0.4,0.5,0.7,1,1.1,1.5c8.1-4.8,16.1-9.7,24.3-14.4c11.3-6.5,22.7-12.9,34.2-19.2c7-3.8,13.9-7.9,21.3-10.7
		c15.7-6,31.8-10.7,48.7-10.9c5.2-0.1,10.9,0.3,15.7,2.2c24.6,10.1,50.6,14.2,76.6,18.2c7.7,1.2,15.4,2.4,23.1,3.8
		c1.5,0.3,2.8,1.4,4.1,2.1c-0.8,1.5-1.4,3.1-2.5,4.4c-3.9,4.9-10.1,4.1-15.1,4.9c-12,1.9-24.2,1.7-36-1.6c-15-4.2-30-8.3-44.6-13.5
		c-8-2.9-15.7-2.3-23.5-1.5c-7.1,0.7-14.2,2.2-20.9,4.5c-11.7,4-23.4,8.4-34.7,13.6c-13.5,6.3-26.5,13.7-39.7,20.8
		c-5.8,3.1-11.6,6.4-17.3,9.8c-8.2,4.8-16.4,9.9-24.7,14.6c-1.9,1.1-4.9,0.6-6.5,1.9c-2.4,1.9-4.2,4.6-5.9,7.2
		c-7.1,10.6-13.8,21.5-21.2,31.9c-25,35.3-50,70.7-75.4,105.7c-6.4,8.8-14.2,16.4-21.4,24.6c-2.5,2.9-4.9,6-8,9.7
		c3.2,0.2,6,0.6,8.8,0.5c8.5-0.3,17-0.3,25.4-1.2c13.6-1.3,26.8-0.2,40.1,2.9c24.3,5.5,49,6,73.5,4c41.1-3.3,82.2-7.5,123.3-11.4
		c9.3-0.9,18.7-0.8,26.1,5.3c4.8,4,8.3,10,11.5,15.6c3.6,6.4,8.3,8.9,15.7,9c31.3,0.4,62.6,1.1,93.9,2c19.3,0.5,38.6,1.8,57.8,2.1
		c14.4,0.2,28.9-1,43.4-1.2c46.4-0.5,92.8-0.8,139.2-1.1c19.3-0.1,38.1-3.1,56.4-8.9c0.6-0.2,1.4-0.2,1.9-0.6
		c7.4-4.8,16.2-6.8,23.6-12.2c5.3-3.9,13.4-5.1,20.3-5.5c30.2-1.6,60.5-2.1,90.7-3.7c24.4-1.3,48.8-3.7,73.2-5.3
		c27.9-1.8,55.8-2.7,83.7-4.8c22.3-1.7,44.5-3.1,66.8-1.4c5.5,0.4,11.4,0,15.5,5.3c2.8,3.5,2.4,7.3,0.8,10.6
		c-0.8,1.6-4.2,2.6-6.5,2.6c-8.3,0-16.6-1-24.9-0.7c-18.9,0.6-37.8,1.7-56.7,2.5c-28.4,1.3-56.8,2.2-85.1,3.8
		c-18.8,1.1-37.5,3.6-56.2,4.6c-12.4,0.7-24.9-0.2-37.4-0.1c-11.9,0.1-23.9,0.7-35.8,1c-5.5,0.1-11,0.4-16.5,0
		c-10-0.7-19.1,2.2-25.8,9.3c-13.4,14.2-31.1,16.9-48.9,19.6c-20.7,3.1-41.4,0.9-62.1,1c-37.7,0.1-75.5,1.4-113.2,1.9
		c-18.3,0.3-36.6,0.4-54.9,0.1c-26.1-0.5-52.2-1.5-78.2-2.5c-17-0.6-34.1-1.2-51.1-2.2c-7.1-0.4-14.4-0.8-21-2.9
		c-9.4-3-15.2-10.9-20.2-19.1c-5.4-8.7-6.7-9.1-16.9-7.7c-15,2.1-30.1,3.8-45.2,5.3c-18.3,1.8-36.6,3.6-54.9,4.8
		c-13.7,0.9-27.5,0.8-41.2,1.2c-23.2,0.6-45.9-3.7-68.7-6.7c-14.5-1.9-29.5,0-44.2,0.5c-9.5,0.3-19,0.6-27.9-3.4
		c-7.8-3.5-14.3-8.7-14.5-17.8c-0.1-4,2.4-8.6,5-12c5.4-7.1,11.9-13.4,17.5-20.4c4.9-6.1,9.2-12.6,13.6-19
		c11.6-16.4,23-32.9,34.7-49.3c13.4-18.8,26.8-37.6,40.2-56.4c5.8-8.1,12.3-15.8,16.9-24.6c6.1-11.6,14.5-21.6,20.6-33.3
		c6.2-12,14.4-23,22.4-34c10.4-14.3,21.3-28.4,32.4-42.2c9.5-11.7,19.5-23,29.6-34.3c2.8-3.1,6.4-5.5,9.6-8.2
		c8.3-7.2,17.6-12.9,27.5-17.9c14.7-7.5,29.7-13.3,46.7-11.5c5.1,0.5,10.3,0.2,15.5-0.1c6.9-0.4,12.5-3.8,16.4-9.4
		c8.4-12.1,16.5-24.4,24.8-36.6c9.4-13.8,18.4-27.9,28.2-41.3c7.4-10,15.8-19.3,23.7-28.9c7.7-9.3,15.3-18.7,22.9-28.1
		c4-4.9,8.2-9.6,12.2-14.5c7.2-9,14.4-18.1,21.5-27.2c9.9-12.9,19.6-26,29.6-38.9c7.5-9.7,17.3-16.9,27.5-23.5
		c1.5-0.9,3.4-1.2,4.3-1.5c0-13.5,0-26.8,0-40.2c0-7.4,0.1-14.8,0.2-22.2c0.1-11.6,0.4-23.3,0.3-34.9c-0.1-12.6-0.3-25.2-0.9-37.8
		c-1-23.5-2.1-47-3.3-70.5c-0.7-14.5-2-29.1-2.4-43.6c-0.2-9.3,0.8-18.7,1.1-28.1c0.1-4.1-0.4-8.3-0.1-12.4c0.3-4.3,1.4-8.5,2-12.7
		C711.5,271.4,711.6,269.7,711.9,267.4z M763.5,388.4c2.9-0.6,5.7-1.7,8.4-1.5c11.1,0.7,22.2,1.8,33.2,2.9c2.1,0.2,4.4,0.5,6.3,1.3
		c18.5,7.6,36.6,15.8,51.3,30.1c9.4,9.1,21.6,13.6,33.9,15.9c15.4,2.9,31.3,3.2,47.1,4.2c4.6,0.3,9.2-0.7,13.8-1.1
		c-2.3-1.2-4.6-1.2-6.6-1.9c-21.9-7-39.1-20.9-54.6-37.3c-2.7-2.9-4.7-6.8-6-10.6c-2.8-8.5,1.1-12.3,10-10.7
		c3.1,0.6,6.3,0.6,9.4,0.5c19.3-0.5,38.4-3,57.4-6.8c2.7-0.5,5.2-2.1,7.8-3.2c-8-2.3-16-2.9-23.6-5.2c-12.3-3.7-24.4-8.3-36.4-13
		c-3.4-1.3-6.3-4.1-9.4-6.3c-5.2-3.6-11-6.7-15.6-11c-7-6.5-13.3-13.9-19.9-21c-11.6-12.4-27.2-17.7-42.6-22.2
		c-11-3.2-22.9-3.9-34.4-4.1c-11.4-0.2-22.9,1.6-33.4,2.5C760.9,323.3,762.2,355.6,763.5,388.4z"/>
	<path d="M475.5,1100.7c2.8-3.3,4.4-5.5,6.2-7.3c16.6-17.2,32.8-34.6,49.9-51.3c9.8-9.6,21-17.8,31.4-26.9
		c8.9-7.9,17.1-16.7,26.2-24.3c15.1-12.7,30.3-25.5,46.3-37.2c14.4-10.4,30.7-15.4,49.1-13c16.2,2.1,32.6,3.4,47.9,9.3
		c11.4,4.4,22.1,10.6,33.3,15.8c11.7,5.4,23.5,10.8,35.5,15.5c18.3,7.3,35.9,15.5,51.7,27.5c10.3,7.8,22.9,9.7,35,12.8
		c14.1,3.5,28.3,7,42.2,11.3c4.7,1.4,8.8,5,12.8,8.2c2.5,2,2.5,4.9-1,6.3c-7.4,3-14.9,5.8-22.5,8.6c-4,1.5-8.1,3.5-12.3,3.8
		c-9.4,0.7-19,1.1-28.4,0.4c-13.4-1-26.7-2.6-39.9-4.8c-5.4-0.9-10.5-3.9-15.8-5.9c-2.3-0.9-4.6-1.7-7.6-1.8
		c3.7,5.5,7.5,11.1,11.2,16.7c8.7,13.2,17.4,26.4,25.9,39.7c2.5,3.9,6.4,8.2,3.6,13.2c-2.8,5-8.6,5.9-13.7,5.4
		c-5.7-0.6-11.3-2.5-16.7-4.5c-10.7-4-21.1-9-31.9-12.6c-15.3-5.1-30.5-10.4-43.8-19.9c-5.8-4.2-10.8-9.4-16.6-13.5
		c-9.7-7-19.7-13.6-29.7-20.2c-1.2-0.8-3.4-0.8-5-0.5c-11,2.3-22.1,4.6-33,7.3c-7.6,1.9-14.9,4.5-22.5,6.5
		c-8.1,2.1-16.2,3.9-24.4,5.6c-14.9,3.1-30.1,5.1-44.8,9.2c-14.2,3.9-27.9,9.6-41.7,14.9c-6.8,2.6-13.4,5.8-20.1,8.8
		c-6.3,2.9-12.5,1.5-18.9,0.2c-3.7-0.8-7.6-0.9-11.3-1.5C480.3,1101.9,478.5,1101.4,475.5,1100.7z M525.2,1075.8
		c5.8-1.6,11.6-3.1,17.4-4.9c2.3-0.7,4.4-1.9,6.6-3c1.3-0.7,2.3-1.9,3.7-2.2c1.9-0.5,4.1-0.2,6-0.6c2.4-0.6,4.5-2,6.9-2.4
		c6.3-0.9,12.9-0.6,18.9-2.4c9.3-2.7,19.7-2.3,27.5-9.2c0.3-0.3,1.2-0.6,1.4-0.4c3.2,4.2,7.1,0.4,8.3-0.8c5.8-5.7,13.3-6.6,20.4-8.4
		c13.7-3.4,27.5-6.3,41.2-9.6c8.8-2.1,16.7-1.3,23.1,5.9c0.8,0.9,1.7,1.6,2.6,2.3c15.8,11.5,31.2,23.7,47.7,34.3
		c10.3,6.7,22,11.5,33.4,16.2c11,4.5,22.7,7.3,33.8,11.8c4.9,2,9,3.4,14.1,0.4c-2.2-3.1-4.5-6.1-6.5-9.3
		c-8.5-13.3-17.2-26.5-25.1-40.2c-4-7-6.3-14.9-9.2-22.4c-0.5-1.4-0.1-3.2-0.1-4.9c4.2,1,7.6,1.5,10.8,2.8c10,4,19.9,8.3,29.8,12.4
		c1.2,0.5,2.6,0.6,3.9,0.6c13.4,0.6,26.8,0.8,40.2,1.7c9.3,0.7,17.9-1.5,26.5-4.6c-5.1-1.7-10.3-3-15.6-4.2
		c-17.2-3.9-34.2-8.8-50.2-16.4c-12.8-6-25.5-12.1-38.4-17.9c-8-3.6-16.7-5.8-24.3-9.9c-18.6-10-36.6-21.4-57.2-26.7
		c-10.5-2.7-21.5-3.6-32.3-5.3c-13.5-2.1-25.4,2.1-36.2,9.6c-8.6,5.9-16.6,12.8-24.8,19.2c-14.5,11.4-28.9,22.7-43.3,34.2
		c-3.9,3.1-7.3,6.8-11.2,9.9c-8.9,7.3-17.8,14.4-26.8,21.6c-5.9,4.7-12.1,9.1-17.8,14c-2.6,2.2-4.5,5.3-6.8,8
		c-3.9,2.5-7.7,5-11.6,7.5c4.4-0.8,8.1-2.4,11.7-4.2C524.4,1077.8,524.7,1076.6,525.2,1075.8z"/>
	<path d="M1153.7,1094.9c-11.7-6.8-22.2-14.6-35.5-16.8c-2.2-0.4-3.9-3.4-6.1-3.9c-7.2-1.3-13.1-6-20.8-6.9
		c-5.6-0.6-11.1-5.7-15.9-9.6c-8.3-6.9-16.1-14.6-24-22c-4.2-3.9-8.9-7.6-12.2-12.2c-5.1-7.2-10-14.8-13.6-22.9
		c-4.8-10.9-13.5-18.6-20.2-27.9c-3.4-4.6-4.5-10.8-6.6-16.3c-1.4-3.7-2.7-7.4-4.3-10.9c-2.5-5.3-1.7-10.1,3.1-13.5
		c1.2-0.9,3.9-1.2,5.1-0.4c6.1,3.6,12.5,7.1,17.9,11.7c10.5,8.8,20.6,18.1,30.6,27.5c12.7,11.9,25.6,23.8,37.7,36.3
		c16.6,17.2,32.4,35.2,48.8,52.6c6,6.4,12.7,12.2,19.1,18.3c1.2,1.1,2.4,2.3,3.5,3.5c3.9,4.4,3.1,8.6-2.1,11.2
		C1156.8,1093.5,1155.1,1094.2,1153.7,1094.9z M1016.8,955.2c-0.5,0.4-1.1,0.7-1.6,1.1c2,3.4,3.8,7,6,10.2c6.9,10.1,14.2,20,21,30.2
		c4.2,6.2,7.1,13.2,11.8,18.9c6.4,7.8,14.7,14,20.9,21.9c10.7,13.6,26.4,17.5,41.4,23.1c0.3-0.3,0.7-0.7,1-1
		C1083.8,1024.9,1050.3,990,1016.8,955.2z"/>
	<path d="M749.1,796.3c-0.2-3.5-0.2-7-0.8-10.5c-1.4-8.2-3.3-16.4-4.6-24.6c-1.4-9.1-2.6-18.3-3.5-27.6c-0.5-4.7-0.4-9.5-0.1-14.2
		c0.4-5.5,2.8-6,7.9-5.3c3.7,0.5,5.2,2.5,7.3,4.8c16.8,18.2,33.9,36.1,50.3,54.7c10.4,11.8,19.6,24.8,29.7,36.9
		c6.2,7.4,13,14.2,19.7,21.1c13.4,13.7,27.2,26.9,40.1,41.1c6.2,6.8,10.5,15.3,15.7,23c-3.4,4.1-5.8,4.4-10.1,0.4
		c-6.7-6.2-13-12.8-19.5-19.3c-15.2-15.1-30.6-30.1-45.4-45.5c-6.3-6.6-11.2-14.4-16.9-21.5c-7.2-8.9-14.5-17.8-22-26.4
		c-11.5-13.1-23.2-26.1-34.9-39.1c-1.5-1.7-3.2-3.4-6.2-5c-0.1,2.2-0.6,4.4-0.3,6.5c0.9,8.9,2.2,17.8,3.1,26.7
		C759.3,781.5,756.9,789.6,749.1,796.3z"/>
	<path d="M591.8,792.4c9.9-6.6,21.1-11.9,34.3-11.7c8.3,0.1,16.9-1.2,24.8,0.6c13.3,3,26.8,6,38.4,14.1c3.4,2.4,7.4,3.9,11.3,5.6
		c11.5,5,22.5,11.7,35.9,10.9c3.6-0.2,4.9,3.2,3.3,6.5c-3.9,8.3-17.7,11.7-25.4,10.3c-11.2-2.1-20.6-7.2-30.3-12.8
		c-13-7.5-26.8-13.6-40.5-19.8c-4-1.8-8.8-2.1-13.3-2.3C617.4,793.1,604.4,792.8,591.8,792.4z"/>
	<path d="M916.6,849.1c6-9.2,15.1-8.3,23.8-8.6c13-0.5,25.9-0.5,38.6,3.3c6.4,1.9,13.7,1.1,20.5,1.8c8.5,0.8,16.9,2.2,25.4,2.5
		c7.2,0.2,14.4-0.8,21.6-1c2.1-0.1,5.2,0.1,6,1.4c1,1.6,1.2,5.2,0.1,6.6c-3.6,4.4-7.9,8.3-12.2,12.2c-2.7,2.5-5.6,6.1-8.8,6.6
		c-5.7,0.9-12.1,0.9-17.6-0.6c-9.3-2.6-18-7.4-27.2-10.1c-13.9-4-27.9-7.3-42-10.3c-7.1-1.5-14.4-1.6-21.6-2.4
		C920.9,850.2,918.9,849.6,916.6,849.1z"/>
	<path d="M534.9,862.7c9.6,3.9,19.2,7.9,28.8,11.7c3.3,1.3,6.7,2.5,10.1,3.6c14.2,4.3,26.3,12.5,38.9,20c15.5,9.1,28.4,21.2,40.7,34
		c1.4,1.5,2.1,5.5,1.1,7.1c-1.1,1.7-3.8,4.3-7.2,2c-4.9-3.3-9.9-6.4-15-9.3c-7.2-4.1-14.2-8.4-21.7-11.9c-8-3.8-15.9-7.1-22.5-13.4
		c-4.8-4.6-11.1-7.7-16.7-11.4c-10.2-6.8-20.7-13.2-30.6-20.4c-3.2-2.3-4.9-6.7-7.2-10.1C534,863.9,534.4,863.3,534.9,862.7z"/>
	<path d="M952.8,1070.5c4.8-3.6,8.4-1.5,11.2,0c13.4,7,26.7,14.2,39.8,21.7c18.5,10.7,35.1,23.8,48.8,40.3c2.3,2.7,4.9,6,5.2,9.2
		c0.3,2.6-1.9,6.3-4.2,8c-2.9,2.4-7.1,4.5-10.7,0.9c-5.1-5-9.5-10.7-14.8-15.5c-12.5-11.4-25.1-22.7-38-33.7
		C978.1,1091.1,965.7,1081.2,952.8,1070.5z"/>
	<path d="M933.4,573.2c-9.6-4.9-17.8-9.3-26-13.3c-2.9-1.5-6.2-2.3-9.3-3.5c-14.2-5.7-28.6-11.1-42.6-17.2c-3.7-1.6-6.6-5.4-9.5-8.6
		c-1.9-2.1-1.7-3.6,1.3-6.1c8.8-7.3,18.1-5.3,27.8-3.6c19.8,3.5,35,14.2,46.8,30.1c4.1,5.5,7.4,11.5,10.9,17.4
		C933.3,569.2,933.1,570.6,933.4,573.2z"/>
	<path d="M628,467.9c-6.5,6.6-15,8.2-23.4,8.7c-14.5,0.9-29.1,1.1-43.6,1.3c-9.1,0.2-18.2,0-28.4,0c0.8-1.9,1.1-3.3,1.9-4.1
		c7.6-7.3,16.6-12.2,26.8-14.5c7.5-1.7,15.3-3.5,22.8-3.2c10.6,0.4,21.3,2.2,31.7,4.5C620.1,461.6,623.7,465.2,628,467.9z"/>
	<path d="M573,584.5c2.4-9.7,7.2-17.4,13.6-24.1c6.2-6.5,12.2-13.7,19.6-18.5c7.6-4.9,16.7-7.6,25.4-10.6c1.8-0.6,5.8,1.6,6.8,3.5
		c0.9,1.9,0.1,6.1-1.5,7.4c-7.9,6.2-16.3,11.8-24.5,17.5c-6.4,4.4-12.8,8.7-19.2,13c-5.7,3.9-11.4,7.8-17.2,11.6
		C575.4,584.6,574.5,584.4,573,584.5z"/>
	<path d="M920.3,1100.1c4.1,1.9,7.8,2.9,10.4,5c7.9,6.3,15.1,13.5,23.1,19.7c3.7,2.9,3.3,5.5,1.7,8.9c-2.1,4.4-8.7,7-12.3,4.1
		c-10.1-8.1-19.8-16.6-29.5-25.2c-2-1.8-3.3-4.6-1-7C914.8,1103.5,917.6,1102,920.3,1100.1z"/>
</g>
</svg>
