<?xml version="1.0" encoding="utf-8"?>
<!-- Generator: Adobe Illustrator 27.4.1, SVG Export Plug-In . SVG Version: 6.00 Build 0)  -->
<svg version="1.1" id="Camada_1" xmlns="http://www.w3.org/2000/svg" xmlns:xlink="http://www.w3.org/1999/xlink" x="0px" y="0px"
	 viewBox="0 0 1500 1500" style="enable-background:new 0 0 1500 1500;" xml:space="preserve">
<image style="overflow:visible;" width="1450" height="993" xlink:href="../../Library/CloudStorage/GoogleDrive-lucas.pretti@okfn.org/.shortcut-targets-by-id/0B79xBlVd-Nf6ZzMzUlZSTWwxV28/Open Knowledge All Team/Brand 2023/Illustrations/L 1500px - web transp/Icons/board.png"  transform="matrix(1 0 0 1 -2106 1417.5)">
</image>
<image style="overflow:visible;" width="1133" height="1032" xlink:href="../../Library/CloudStorage/GoogleDrive-lucas.pretti@okfn.org/.shortcut-targets-by-id/0B79xBlVd-Nf6ZzMzUlZSTWwxV28/Open Knowledge All Team/Brand 2023/Illustrations/L 1500px - web transp/Icons/books.png"  transform="matrix(1 0 0 1 -2106 1417.5)">
</image>
<image style="overflow:visible;" width="1357" height="1143" xlink:href="../../Library/CloudStorage/GoogleDrive-lucas.pretti@okfn.org/.shortcut-targets-by-id/0B79xBlVd-Nf6ZzMzUlZSTWwxV28/Open Knowledge All Team/Brand 2023/Illustrations/L 1500px - web transp/Icons/campagne.png"  transform="matrix(1 0 0 1 -2106 1417.5)">
</image>
<image style="overflow:visible;" width="845" height="1103" xlink:href="../../Library/CloudStorage/GoogleDrive-lucas.pretti@okfn.org/.shortcut-targets-by-id/0B79xBlVd-Nf6ZzMzUlZSTWwxV28/Open Knowledge All Team/Brand 2023/Illustrations/L 1500px - web transp/Icons/case-study.png"  transform="matrix(1 0 0 1 -2106 1417.5)">
</image>
<image style="overflow:visible;" width="1265" height="951" xlink:href="../../Library/CloudStorage/GoogleDrive-lucas.pretti@okfn.org/.shortcut-targets-by-id/0B79xBlVd-Nf6ZzMzUlZSTWwxV28/Open Knowledge All Team/Brand 2023/Illustrations/L 1500px - web transp/Icons/collaboration.png"  transform="matrix(1 0 0 1 -2106 1417.5)">
</image>
<image style="overflow:visible;" width="1339" height="1035" xlink:href="../../Library/CloudStorage/GoogleDrive-lucas.pretti@okfn.org/.shortcut-targets-by-id/0B79xBlVd-Nf6ZzMzUlZSTWwxV28/Open Knowledge All Team/Brand 2023/Illustrations/L 1500px - web transp/Icons/connect-community.png"  transform="matrix(1 0 0 1 -2106 1417.5)">
</image>
<image style="overflow:visible;" width="1357" height="681" xlink:href="../../Library/CloudStorage/GoogleDrive-lucas.pretti@okfn.org/.shortcut-targets-by-id/0B79xBlVd-Nf6ZzMzUlZSTWwxV28/Open Knowledge All Team/Brand 2023/Illustrations/L 1500px - web transp/Icons/contact.png"  transform="matrix(1 0 0 1 -2106 1417.5)">
</image>
<image style="overflow:visible;" width="1059" height="1080" xlink:href="../../Library/CloudStorage/GoogleDrive-lucas.pretti@okfn.org/.shortcut-targets-by-id/0B79xBlVd-Nf6ZzMzUlZSTWwxV28/Open Knowledge All Team/Brand 2023/Illustrations/L 1500px - web transp/Icons/create-open-data.png"  transform="matrix(1 0 0 1 -2106 1417.5)">
</image>
<image style="overflow:visible;" width="1198" height="998" xlink:href="../../Library/CloudStorage/GoogleDrive-lucas.pretti@okfn.org/.shortcut-targets-by-id/0B79xBlVd-Nf6ZzMzUlZSTWwxV28/Open Knowledge All Team/Brand 2023/Illustrations/L 1500px - web transp/Icons/data.png"  transform="matrix(1 0 0 1 -2106 1417.5)">
</image>
<image style="overflow:visible;" width="1162" height="1032" xlink:href="../../Library/CloudStorage/GoogleDrive-lucas.pretti@okfn.org/.shortcut-targets-by-id/0B79xBlVd-Nf6ZzMzUlZSTWwxV28/Open Knowledge All Team/Brand 2023/Illustrations/L 1500px - web transp/Icons/funders.png"  transform="matrix(1 0 0 1 -2106 1417.5)">
</image>
<image style="overflow:visible;" width="1005" height="1001" xlink:href="../../Library/CloudStorage/GoogleDrive-lucas.pretti@okfn.org/.shortcut-targets-by-id/0B79xBlVd-Nf6ZzMzUlZSTWwxV28/Open Knowledge All Team/Brand 2023/Illustrations/L 1500px - web transp/Icons/governance.png"  transform="matrix(1 0 0 1 -2106 1417.5)">
</image>
<image style="overflow:visible;" width="1255" height="807" xlink:href="../../Library/CloudStorage/GoogleDrive-lucas.pretti@okfn.org/.shortcut-targets-by-id/0B79xBlVd-Nf6ZzMzUlZSTWwxV28/Open Knowledge All Team/Brand 2023/Illustrations/L 1500px - web transp/Icons/impact.png"  transform="matrix(1 0 0 1 -2106 1417.5)">
</image>
<image style="overflow:visible;" width="1275" height="1127" xlink:href="../../Library/CloudStorage/GoogleDrive-lucas.pretti@okfn.org/.shortcut-targets-by-id/0B79xBlVd-Nf6ZzMzUlZSTWwxV28/Open Knowledge All Team/Brand 2023/Illustrations/L 1500px - web transp/Icons/jobs.png"  transform="matrix(1 0 0 1 -2106 1417.5)">
</image>
<image style="overflow:visible;" width="1246" height="1065" xlink:href="../../Library/CloudStorage/GoogleDrive-lucas.pretti@okfn.org/.shortcut-targets-by-id/0B79xBlVd-Nf6ZzMzUlZSTWwxV28/Open Knowledge All Team/Brand 2023/Illustrations/L 1500px - web transp/Icons/knowledge.png"  transform="matrix(1 0 0 1 -2106 1417.5)">
</image>
<image style="overflow:visible;" width="1163" height="1026" xlink:href="../../Library/CloudStorage/GoogleDrive-lucas.pretti@okfn.org/.shortcut-targets-by-id/0B79xBlVd-Nf6ZzMzUlZSTWwxV28/Open Knowledge All Team/Brand 2023/Illustrations/L 1500px - web transp/Icons/mission.png"  transform="matrix(1 0 0 1 -2106 1417.5)">
</image>
<g>
	<path d="M903.6,1054.1c5.8,5.3,5.1,9.8,4,14.7c-1.8,8-3.4,16.2-4.5,24.4c-0.9,7,2.4,12.5,8.1,16.6c2,1.4,3.9,3.1,6,4.5
		c4.6,3.1,7.2,3,9.8-2c2.4-4.5,4.5-9.5,5-14.5c2.2-20.6,2.3-41.1-2.7-61.4c-3-12.1-8.3-23.2-14.7-33.7c-4-6.5-10.9-10-17.9-11.8
		c-18.6-4.9-28.6-0.3-40.2,15.2c-15.1,20.1-17.9,43.2-17.6,67.2c0.2,19.1,3.9,37.9,10.9,55.3c6.9,17.3,15.4,34.8,30.1,47.1
		c11.3,9.4,25.7,13.9,40.6,11.4c6.1-1,12-5.1,17.2-8.8c16.5-11.9,28.2-27.7,32.3-47.6c3.5-17.5,5.2-35.4,6.5-53.2
		c1.8-23.2,2.7-46.4,3.5-69.6c0.6-18.1,0.5-36.2,0.6-54.3c0.1-10.4-0.2-20.9-0.1-31.3c0.1-20.3-1.2-40.6-2-61
		c-1-23.7-1.9-47.3-2.6-71c-0.6-20.5-0.9-41.1-1.3-61.6c-0.5-27.2-0.9-54.4-1.6-81.5c-0.3-12.8-2-25.5-2-38.3
		c-0.1-20.2,0.1-40.4,1.2-60.6c2.4-43.4,8.6-86.2,26-126.5c8.9-20.6,17.9-41.4,32.2-58.9c13.2-16.2,28.6-30.1,48.1-38.7
		c3.7-1.6,6.5-5.4,10.3-6.4c15.5-4.2,30.9-9.4,47.3-6.6c3.3,0.6,6.7,3.4,8.9,6.1c2.2,2.8-0.7,5.9-5.1,6.6c-10,1.7-19.9,3.6-29.8,5.5
		c-13,2.4-23.4,10-33.7,17.5c-18.7,13.7-34.7,30.3-43.1,51.9c-8.9,22.8-20.4,44.7-25.9,68.9c-5,22.1-8.6,44.2-10.4,66.7
		c-1.2,15.2-2.8,30.4-3.7,45.7c-0.4,7,0.4,14.1,0.5,21.1c0,4.8-0.9,9.6-0.7,14.3c0.4,8.9,1.7,17.7,2.1,26.6
		c0.4,9.4,0.1,18.9,0.4,28.3c0.5,17.3,1.2,34.6,1.7,52c0.6,22.2,1.3,44.5,1.7,66.7c0.2,10-0.7,19.9-0.5,29.9
		c0.2,9.3,1.3,18.5,1.8,27.8c0.6,13.3,1.1,26.5,1.6,39.8c0.3,8.6,1,17.3,0.9,25.9c-0.1,19.6-0.4,39.2-0.7,58.8
		c-0.1,6.7-0.2,13.3-0.6,20c-1,16.7-2.2,33.3-3.2,50c-0.8,12.8-1.1,25.7-2.3,38.5c-1,11.2-2.7,22.3-4.6,33.4
		c-1.6,9.3-2.9,18.8-6.1,27.5c-7,18.9-18.9,34.8-35,46.8c-8.1,6-18.3,9.3-27.8,13c-3.7,1.4-8.5,2.4-12.3-1.3
		c-0.6-0.6-2.3-0.2-3.4-0.4c-7.8-1.5-15.6-3-23.4-4.6c-2.4-0.5-4.8-1.7-7.2-1.8c-7-0.4-10.7-5.8-15.5-9.5c-1.3-1-2.2-2.7-3.6-3.3
		c-4.7-1.9-7-5.8-9.3-9.9c-6.1-11.1-12.2-22.2-18-33.4c-1.8-3.5-2.7-7.4-3.8-11.2c-7.1-23.6-10.4-47.5-7.5-72.1
		c2.6-22.5,8.9-43.5,26.1-59.4c5.3-4.9,11.9-8.6,18.5-11.5c12.8-5.7,25.8-10.3,40.5-7.7c15.2,2.7,27.9,9.2,35.1,22.7
		c5.1,9.6,7.2,20.9,10.9,31.4c3.6,10.2,3.5,20.8,3.2,31.3c-0.3,11.4-0.7,22.8-1.7,34.2c-0.5,5.9-2.4,11.7-3.8,17.4
		c-3.1,12.3-23.1,21.5-33.7,16.5c-3-1.4-6.1-2.7-9.4-3.4c-5.8-1.4-6.8-7-10.1-10.6c-5.5-6.1-7.2-13-5.8-21.1
		c2.1-11.8,6.3-22.7,12.2-33C901.1,1057.7,902.3,1056,903.6,1054.1z"/>
	<path d="M1086.8,299c-2.6,9-9.8,9.5-15.8,10.3c-14.7,1.9-29.6,2.4-44.4,4c-24.2,2.7-48.4,6.1-72.6,8.9c-9.3,1.1-18.7,1.3-28.1,1.8
		c-17.2,0.9-34.4,1.8-51.6,2.5c-22.5,0.8-45.1,1.7-67.6,2c-22.9,0.4-45.8,0.1-68.7,0.2c-15.8,0.1-31.6,0.6-47.4,0.4
		c-8.7-0.1-17.5-1.7-26.2-1.6c-10.7,0-21.5,0.9-32.2,1.7c-14.6,1.1-29.1,2.6-43.7,3.9c-6.2,0.6-12.5,0.9-18.7,1.6
		c-7,0.8-12.9,3.7-17.9,9c-5.6,5.9-12.2,10.8-17.6,16.8c-8.1,9.1-16,18.4-23.2,28.2c-8.8,11.9-13.5,25.9-19,39.6
		c-9.2,22.9-14.5,46.6-18.7,70.7c-2.9,16.4-6.2,32.8-9.1,49.2c-0.6,3.5,0,7.2-0.1,10.8c-0.7,18.7-1.4,37.5-2.1,56.2
		c-0.3,7.1-0.9,14.2-1,21.3c-0.1,8.5,0.3,17.1,0.5,25.6c0.4,14.7,0.6,29.4,1.2,44.2c0.4,9.4,1.6,18.8,2.2,28.2
		c0.6,9.7,0.3,19.4,1.2,29c1.9,21.4,4.3,42.8,6.5,64.2c2.3,23.3,4.1,46.6,1.5,70.1c-1,8.8-2,17.7-1.9,26.5c0,7.5-3.7,13.2-6.6,19.4
		c-2.3,4.8-9.7,5.5-14,1.9c-1.3-1.1-3.5-1.2-6-2c6.3-14.6,6.6-29.9,7.1-45.1c0.9-28-0.6-55.9-3.8-83.7c-2.9-25.3-5.4-50.7-6.8-76.1
		c-2-37.9-3.7-75.8-3.9-113.8c-0.1-24.9,2.2-49.8,4-74.6c0.9-12.1,2.5-24.2,4.7-36.1c4.1-22.5,7.8-45.2,13.8-67.2
		c4.2-15.2,11.7-29.6,18.2-44.2c8.3-18.6,21.3-33.9,35.6-48.1c3.8-3.7,8.3-6.6,12.4-10c3.9-3.2,7.9-6.3,11.6-9.8
		c0.6-0.6-0.1-2.8-0.5-4.1c-0.4-1.3-1.2-2.5-1.8-3.7c1.1,0.2,2.3,0.7,3.2,0.4c2-0.7,3.8-1.9,5.8-2.8c10.2-4.7,21-7.2,32.1-8.7
		c21.4-2.9,42.8-6.9,64.3-8.7c18-1.5,36.3-0.5,54.4-0.7c43.8-0.4,87.6-0.9,131.4-1.4c23.2-0.3,46.5-0.2,69.7-1
		c22.4-0.7,44.9-2.1,67.3-3.6c26.4-1.7,52.7-3.9,79.1-5.5c9.4-0.6,19-0.6,28.4,0C1077,295.4,1081.8,297.6,1086.8,299z"/>
	<path d="M318.1,1068.8c-1.1,2-2.4,3.3-2.3,4.5c1.4,16.5,1.1,33.2,6.9,49.1c5.7,15.5,14.9,28.3,29.3,35.9
		c16.9,8.9,34.9,13.7,54.6,12c19.5-1.7,39.2-1.2,58.8-2.1c20.5-0.9,41-2.7,61.5-3.5c23.7-1,47.5-1.5,71.2-1.9
		c16.9-0.3,33.9-0.6,50.8,0.2c22.2,1,44.6,1.8,66.5,5c27.3,4,54.2,10.2,81.2,15.9c10.4,2.2,20.7,5,30.8,8.2c2.5,0.8,5.5,3.9,5.9,6.3
		c0.5,2.7-2.4,4.5-5.7,5.5c-6.9,2.3-13.1-0.1-19.6-1.2c-23.4-4-46.8-7.6-70-12.5c-21.3-4.5-42.8-5.7-64.4-6
		c-27.7-0.5-55.5-1.1-83.2-1c-19.7,0.1-39.5,1.2-59.2,2c-18.1,0.7-36.2,1.6-54.4,2.4c-12.6,0.5-25.1,0.9-37.7,1.5
		c-10.9,0.5-21.7,1.3-32.6,1.8c-33.8,1.6-60.2-12.7-81.3-38c-23.4-28-33.9-60.2-31-96.7c1.2-15.3,7.9-28.4,16.1-40.9
		c16.9-25.9,41.6-41.1,70.4-50.3c14.4-4.6,29.4-4.9,44.3-5.2c8.1-0.2,16.2-1.6,24.4-1.9c21.3-0.9,42.5-1.4,63.8-2.5
		c9.8-0.5,19.5-2.1,29.3-2.8c20.2-1.5,40.4-2.8,60.6-3.9c21.6-1.1,43.3-2.4,64.9-2.7c29.2-0.3,58.2,2.9,87.1,6.4
		c33.2,4,65.5,11.4,97.3,21.5c1.2,0.4,2.9,2.7,2.7,3.7c-0.7,2.9-1.7,6.6-3.8,7.9c-2.8,1.7-6.9,2.2-10.2,1.7
		c-26.9-4.1-53.7-8.8-80.6-12.8c-15.7-2.3-31.5-4.4-47.4-5.3c-17.6-1-35.4-0.8-53-0.7c-21.2,0.1-42.5,0.2-63.7,1
		c-18.3,0.7-36.5,2.5-54.7,3.3c-15.4,0.6-30.9,0.6-46.3,0.5c-16.2-0.1-32.4-0.4-48.6-1c-4.9-0.2-9.9-1-14.6-2.2
		c-3.4-0.9-5.4-0.8-8,2.3c-4,4.8-10.4,5.4-16.2,6.6c-13.7,2.9-26.6,7.8-38.3,15.8c-2.9,2-5.8,3.9-8.9,5.5
		c-9.8,5.3-17.2,13.5-24.5,21.6c-9.1,10.1-12.5,23.3-17.9,35.3C316.7,1060.7,318.1,1065.7,318.1,1068.8z"/>
	<path d="M1002.5,555.7c-1-0.3-1.8-0.6-2.5-0.9c-0.1-0.5-0.1-1-0.2-1.5c7.9-2.2,15.6-5.5,23.6-6.5c18.1-2.2,36.4-3.2,54.6-4.7
		c2.4-0.2,4.7-1.1,7.5-1.8c-3.4-4.6-6.6-7.9-8.7-11.9c-8.8-16.8-14-34.5-15.1-53.6c-1.6-26.3,3.6-50.8,18.3-72.8
		c4.2-6.2,9.3-12.8,15.6-16.4c17.4-9.9,32.7-5.1,44.8,10.2c6.9,8.7,12.6,18.5,14,29.9c0.9,7.6,1.1,15.5,0.6,23.2
		c-0.4,6.2-2.4,12.3-3.8,18.4c-1.2,5.3-3.6,9.8-8,13.3c-5.3,4.3-12.2,4.1-16.6-1c-2.6-3.1-0.8-9.6,3.1-11.8c1.2-0.6,2.8-1.5,3.1-2.6
		c7.2-25.1,1.6-49.7-19.1-67.5c-3.3-2.9-6.4-3.3-10.1,0c-10.4,9.3-15.3,21.4-19.1,34.3c-7.8,26.5-7.4,52.4,4.5,77.7
		c6.4,13.6,15.2,25.1,28.5,32.4c3.4,1.9,8.3,1.8,12.4,1.5c14.4-0.8,24.3-9,33-19.8c15.6-19.6,20.1-42.6,21.7-66.7
		c1-14.8,1.2-29.6-1.3-44.2c-1.7-9.9-4.1-19.7-6.7-29.4c-5-18.6-14.2-35.2-25.2-50.9c-1.5-2.1-2.6-4.5-3.3-7
		c-0.6-2.2,5.6-6.8,8.2-5.8c3.2,1.2,6.4,2.7,9.1,4.8c20.5,16.1,28.2,39.6,35.9,63c1.6,4.7,3.3,9.5,3.7,14.4
		c1.8,23.2,2.7,46.5-0.8,69.7c-2.9,19.8-8.9,38.5-21.3,54.6c-15.7,20.2-35.8,32.1-62,32.4c-1.2,0-2.6-0.3-3.5,0.2
		c-9.6,5.5-19.8,1.4-29.7,1.9c-24.4,1.2-48.9,1.8-72.6,8.8c-5.1,1.5-14.8-5.6-14.5-10.9C1000.3,557.7,1001.6,556.8,1002.5,555.7z"/>
	<path d="M532.4,867.4c-7.9,2.6-12.2-1.5-15.5-7.1c-1.5-2.6-1.6-4.7,1.7-6.5c4.9-2.8,9.8-4.1,15.6-4.3c31.7-1.1,63.5-2.9,95.2-4.1
		c19.5-0.7,38.9-0.8,58.4-1.2c43.3-0.8,86.5-1.5,129.8-2.5c19.4-0.5,38.8-2.1,58.3-2.6c13.1-0.3,26.3,0.5,39.4,1
		c3.9,0.2,10.3,10.7,8.4,14c-1.3,2.1-4.1,4.5-6.4,4.6c-6.4,0.4-12.8-0.5-19.2-0.5c-15.9,0-31.9,0-47.8,0.4
		c-13.4,0.3-26.8,1.5-40.2,1.6c-23.4,0.2-46.9-0.4-70.3-0.2c-14.3,0.1-28.6,0.9-42.8,1.3c-20.8,0.5-41.6,0.6-62.3,1.5
		c-17.9,0.7-35.8,2.4-53.7,3.2C564.5,866.7,548.1,866.9,532.4,867.4z"/>
	<path d="M553.1,798.4c24.6-0.9,49.1-2.1,73.7-2.5c27.3-0.4,54.6,0.3,81.8-0.2c15.3-0.3,30.5-2.5,45.7-3.3c18.3-0.9,36.7-1.3,55-1.9
		c11.8-0.4,23.5-0.9,35.3-1.1c12.2-0.2,24.5,0,36.7-0.2c7.8-0.2,15.5-1,23.3-1.4c7.7-0.4,13.5,7.1,10.8,14.3c-0.6,1.5-3.2,3.1-5,3.2
		c-17.7,0.8-35.5,1.3-53.2,1.8c-27.9,0.7-55.7,1.2-83.6,2.1c-20.6,0.7-41.2,2.1-61.8,2.8c-17.7,0.5-35.5,0.1-53.2,0.7
		c-28.4,0.9-56.7,2.5-85.1,3.3c-13.2,0.4-26.5-0.1-39.7-0.5c-4.6-0.1-8.6-2.2-10.6-7c-1.4-3.4-1.1-6.3,2.8-7c9-1.5,18-2.6,27-3.9
		C553,797.9,553,798.2,553.1,798.4z"/>
	<path d="M902.1,591.8c-21.7,0-43.4,0-65.1,0c-20.1,0-40.2-0.7-60.2-0.1c-25.1,0.8-50.1,2.5-75.1,4.2c-13.4,0.9-26.7,2.6-40.1,3.4
		c-7.3,0.5-14.6,0.2-21.9-0.1c-5.7-0.2-10-3.1-13.2-7.7c-2.6-3.8-1.5-7.1,3.2-7.6c6.7-0.7,13.6-0.6,20.3-1
		c29.6-1.7,59.1-3.7,88.7-5.2c11.8-0.6,23.7-0.1,35.6-0.5c7.8-0.2,15.5-1.5,23.2-1.7c19.5-0.6,39.1-0.7,58.6-1.3
		c17.9-0.6,35.8-1.9,53.6-2.6c2.7-0.1,7.7,0.8,7.8,1.7c0.5,4.9,6.7,9.8,0.8,14.9c-0.9,0.8-2.1,1.4-3.3,1.6
		c-4.3,0.5-8.6,0.8-12.9,1.2C902.1,591.1,902.1,591.4,902.1,591.8z"/>
	<path d="M692.5,460.6c-8.6,0.6-17.3,1.6-25.9,1.7c-4.5,0.1-9.4-0.4-13.5-2c-2.5-1-4.3-4.6-5.4-7.5c-1-2.7,0.9-4.6,4.1-4.8
		c12.9-1,25.8-2.2,38.7-3.2c19.4-1.6,38.8-3.3,58.2-4.7c22.5-1.6,45.1-3.2,67.7-4.5c29.3-1.7,58.5-3.1,87.8-4.7c1.5-0.1,3,0,4.5,0.1
		c6.5,0.8,9.9,7.3,6.3,12.9c-1.1,1.6-4.1,2.8-6.2,2.8c-12.1,0.5-24.2,0.4-36.3,0.9c-12.9,0.5-25.8,1.4-38.8,2.3
		c-26.3,1.8-52.7,3.5-79,5.5c-19.3,1.5-38.5,3.5-57.7,5.3c-1.5,0.1-3,0-4.5,0C692.5,460.8,692.5,460.7,692.5,460.6z"/>
	<path d="M855.9,670.7c0.6,1.7,1.6,3.1,1.4,4.3c-0.4,2.2-1.1,5.6-2.5,6.1c-6.7,2.6-13.6,5.7-20.5,6.3c-23.7,1.9-47.5,3.1-71.2,4
		c-22.8,0.9-45.6,1-68.3,1.7c-21.9,0.7-43.8,1.7-65.8,2.6c-2.3,0.1-4.6,0.7-6.9,0.8c-5.1,0.2-9.5-2.7-11.4-7.3
		c-1.5-3.6,0.2-6.2,4.2-7c37-7.4,74.5-6.1,111.9-7c21.2-0.5,42.5-1.5,63.7-2.4c18.9-0.8,37.8-1.9,56.8-2.7
		C850.1,670.1,853.1,670.5,855.9,670.7z"/>
	<path d="M723.4,482.6c12.9-1,25.8-2.1,38.6-2.8c9.2-0.5,18.4-0.4,27.7-0.8c7.4-0.3,14.9-1,22.3-1.2c3.3-0.1,6.6,0.3,9.9,0.8
		c4.6,0.7,9,8.3,7.3,12.6c-0.5,1.3-2,2.8-3.3,3c-6.5,1-13,1.8-19.6,2.2c-8.4,0.4-16.9,0-25.3,0.6c-17.7,1.3-35.3,3.2-53,4.7
		c-9.4,0.8-18.9,1.1-28.3,1.9c-12.6,1.1-25.1,2.7-37.6,3.8c-6.4,0.5-12.9,0.4-19.4,0.4c-4.9,0-10.4-4.7-10.5-9.4
		c-0.1-3.7,2.5-6.3,6-6.9c8.7-1.5,17.4-2.7,26.1-3.6c17.5-1.8,35-3.4,52.6-5c2.2-0.2,4.3-0.3,6.5-0.5
		C723.4,482.5,723.4,482.5,723.4,482.6z"/>
	<path d="M701,734.9c-23.4,1.7-46.7,3.6-70.1,4.9c-8.4,0.5-16.8-0.3-25.2-0.6c-4.2-0.2-6-3.2-7.1-6.7c-0.7-2,1.9-5.7,4-6
		c18.3-2.3,36.6-5,54.9-6.9c14.5-1.5,29-2.2,43.6-3c17.3-0.9,34.6-1.6,52-2.3c3-0.1,6,0.1,9,0.2c7.8,0.4,7-0.2,7.9,7.5
		c0.6,4.7-2.3,7.6-7.8,8c-18.8,1.5-37.7,2.9-56.5,4.4C704,734.7,702.5,734.8,701,734.9z"/>
	<path d="M518.3,561.6c7,0.8,11.4,4.8,15.2,9.6c3.7,4.7,7.3,9.5,10.8,14c10.8-1.9,16-10.8,23.3-17c11.6-9.7,23-19.5,34.6-29.2
		c0.7-0.6,2.5-1.1,3-0.7c0.8,0.7,1.6,2.2,1.5,3.3c-0.7,7.1-3,13.4-7.9,18.9c-8.8,9.7-17.9,19.3-25.8,29.7
		c-6.3,8.3-10.9,17.7-16.3,26.7c-0.2,0.4-0.6,0.7-1,1.2c-9.4-4.8-15.5-12.4-20.7-21.3c-4.1-7.2-8.8-14.2-14-20.6
		C517.1,571.5,516.4,567,518.3,561.6z"/>
	<path d="M539.1,449.8c15.6-3,17.5,7.3,19.2,18.6c5.5-5.4,10.3-10,15.1-14.6c2.3-2.2,4.6-4,7.9-5.4c4-1.7,9-4.5,10.2-10.4
		c0.5-2.5,3.1-5.7,5.3-6.3c2.8-0.8,7.7,0.2,8.3,3.3c0.7,3.6,0,8.4-2,11.4c-7.8,11.7-16.5,22.8-24.5,34.4
		c-4.6,6.7-9.9,13.1-11.4,21.6c-1.1,5.8-6.4,6.7-11,3.1c-5.9-4.7-7.6-11.6-9.6-18c-3.3-10.9-5.4-22.1-7.9-33.3
		C538.3,452.6,539,450.8,539.1,449.8z"/>
	<path d="M514.5,678.5c6.5-2.3,9.2,0.9,11.6,5.1c3.3,5.9,6.8,11.7,10.2,17.4c16.6-12.4,27.3-31.4,46.6-40.4c5.1,4.8,4.8,9.5,0,14.4
		c-8.3,8.5-16.8,17-24.5,26.1c-5.3,6.3-9.7,13.4-14.2,20.3c-1,1.5-1,3.7-1.4,5.7c-0.8,4-4.2,5.6-6.6,2.5c-3.4-4.5-6.1-9.7-8.4-14.9
		c-4.4-9.7-8.3-19.5-12.2-29.4C514.7,683.1,514.8,680.7,514.5,678.5z"/>
</g>
</svg>
