<?xml version="1.0" encoding="utf-8"?>
<!-- Generator: Adobe Illustrator 27.4.1, SVG Export Plug-In . SVG Version: 6.00 Build 0)  -->
<svg version="1.1" id="Camada_1" xmlns="http://www.w3.org/2000/svg" xmlns:xlink="http://www.w3.org/1999/xlink" x="0px" y="0px"
	 viewBox="0 0 1500 1500" style="enable-background:new 0 0 1500 1500;" xml:space="preserve">
<image style="overflow:visible;" width="1450" height="993" xlink:href="../../Library/CloudStorage/GoogleDrive-lucas.pretti@okfn.org/.shortcut-targets-by-id/0B79xBlVd-Nf6ZzMzUlZSTWwxV28/Open Knowledge All Team/Brand 2023/Illustrations/L 1500px - web transp/Icons/board.png"  transform="matrix(1 0 0 1 -3164.6372 4237.4756)">
</image>
<image style="overflow:visible;" width="1133" height="1032" xlink:href="../../Library/CloudStorage/GoogleDrive-lucas.pretti@okfn.org/.shortcut-targets-by-id/0B79xBlVd-Nf6ZzMzUlZSTWwxV28/Open Knowledge All Team/Brand 2023/Illustrations/L 1500px - web transp/Icons/books.png"  transform="matrix(1 0 0 1 -3164.6372 4237.4756)">
</image>
<image style="overflow:visible;" width="1357" height="1143" xlink:href="../../Library/CloudStorage/GoogleDrive-lucas.pretti@okfn.org/.shortcut-targets-by-id/0B79xBlVd-Nf6ZzMzUlZSTWwxV28/Open Knowledge All Team/Brand 2023/Illustrations/L 1500px - web transp/Icons/campagne.png"  transform="matrix(1 0 0 1 -3164.6372 4237.4756)">
</image>
<image style="overflow:visible;" width="845" height="1103" xlink:href="../../Library/CloudStorage/GoogleDrive-lucas.pretti@okfn.org/.shortcut-targets-by-id/0B79xBlVd-Nf6ZzMzUlZSTWwxV28/Open Knowledge All Team/Brand 2023/Illustrations/L 1500px - web transp/Icons/case-study.png"  transform="matrix(1 0 0 1 -3164.6372 4237.4756)">
</image>
<image style="overflow:visible;" width="1265" height="951" xlink:href="../../Library/CloudStorage/GoogleDrive-lucas.pretti@okfn.org/.shortcut-targets-by-id/0B79xBlVd-Nf6ZzMzUlZSTWwxV28/Open Knowledge All Team/Brand 2023/Illustrations/L 1500px - web transp/Icons/collaboration.png"  transform="matrix(1 0 0 1 -3164.6372 4237.4756)">
</image>
<image style="overflow:visible;" width="1339" height="1035" xlink:href="../../Library/CloudStorage/GoogleDrive-lucas.pretti@okfn.org/.shortcut-targets-by-id/0B79xBlVd-Nf6ZzMzUlZSTWwxV28/Open Knowledge All Team/Brand 2023/Illustrations/L 1500px - web transp/Icons/connect-community.png"  transform="matrix(1 0 0 1 -3164.6372 4237.4756)">
</image>
<image style="overflow:visible;" width="1357" height="681" xlink:href="../../Library/CloudStorage/GoogleDrive-lucas.pretti@okfn.org/.shortcut-targets-by-id/0B79xBlVd-Nf6ZzMzUlZSTWwxV28/Open Knowledge All Team/Brand 2023/Illustrations/L 1500px - web transp/Icons/contact.png"  transform="matrix(1 0 0 1 -3164.6372 4237.4756)">
</image>
<image style="overflow:visible;" width="1059" height="1080" xlink:href="../../Library/CloudStorage/GoogleDrive-lucas.pretti@okfn.org/.shortcut-targets-by-id/0B79xBlVd-Nf6ZzMzUlZSTWwxV28/Open Knowledge All Team/Brand 2023/Illustrations/L 1500px - web transp/Icons/create-open-data.png"  transform="matrix(1 0 0 1 -3164.6372 4237.4756)">
</image>
<image style="overflow:visible;" width="1198" height="998" xlink:href="../../Library/CloudStorage/GoogleDrive-lucas.pretti@okfn.org/.shortcut-targets-by-id/0B79xBlVd-Nf6ZzMzUlZSTWwxV28/Open Knowledge All Team/Brand 2023/Illustrations/L 1500px - web transp/Icons/data.png"  transform="matrix(1 0 0 1 -3164.6372 4237.4756)">
</image>
<image style="overflow:visible;" width="1162" height="1032" xlink:href="../../Library/CloudStorage/GoogleDrive-lucas.pretti@okfn.org/.shortcut-targets-by-id/0B79xBlVd-Nf6ZzMzUlZSTWwxV28/Open Knowledge All Team/Brand 2023/Illustrations/L 1500px - web transp/Icons/funders.png"  transform="matrix(1 0 0 1 -3164.6372 4237.4756)">
</image>
<image style="overflow:visible;" width="1005" height="1001" xlink:href="../../Library/CloudStorage/GoogleDrive-lucas.pretti@okfn.org/.shortcut-targets-by-id/0B79xBlVd-Nf6ZzMzUlZSTWwxV28/Open Knowledge All Team/Brand 2023/Illustrations/L 1500px - web transp/Icons/governance.png"  transform="matrix(1 0 0 1 -3164.6372 4237.4756)">
</image>
<image style="overflow:visible;" width="1255" height="807" xlink:href="../../Library/CloudStorage/GoogleDrive-lucas.pretti@okfn.org/.shortcut-targets-by-id/0B79xBlVd-Nf6ZzMzUlZSTWwxV28/Open Knowledge All Team/Brand 2023/Illustrations/L 1500px - web transp/Icons/impact.png"  transform="matrix(1 0 0 1 -3164.6372 4237.4756)">
</image>
<image style="overflow:visible;" width="1275" height="1127" xlink:href="../../Library/CloudStorage/GoogleDrive-lucas.pretti@okfn.org/.shortcut-targets-by-id/0B79xBlVd-Nf6ZzMzUlZSTWwxV28/Open Knowledge All Team/Brand 2023/Illustrations/L 1500px - web transp/Icons/jobs.png"  transform="matrix(1 0 0 1 -3164.6372 4237.4756)">
</image>
<image style="overflow:visible;" width="1246" height="1065" xlink:href="../../Library/CloudStorage/GoogleDrive-lucas.pretti@okfn.org/.shortcut-targets-by-id/0B79xBlVd-Nf6ZzMzUlZSTWwxV28/Open Knowledge All Team/Brand 2023/Illustrations/L 1500px - web transp/Icons/knowledge.png"  transform="matrix(1 0 0 1 -3164.6372 4237.4756)">
</image>
<image style="overflow:visible;" width="1163" height="1026" xlink:href="../../Library/CloudStorage/GoogleDrive-lucas.pretti@okfn.org/.shortcut-targets-by-id/0B79xBlVd-Nf6ZzMzUlZSTWwxV28/Open Knowledge All Team/Brand 2023/Illustrations/L 1500px - web transp/Icons/mission.png"  transform="matrix(1 0 0 1 -3164.6372 4237.4756)">
</image>
<image style="overflow:visible;" width="943" height="914" xlink:href="../../Library/CloudStorage/GoogleDrive-lucas.pretti@okfn.org/.shortcut-targets-by-id/0B79xBlVd-Nf6ZzMzUlZSTWwxV28/Open Knowledge All Team/Brand 2023/Illustrations/L 1500px - web transp/Icons/policy.png"  transform="matrix(1 0 0 1 -3164.6372 4237.4756)">
</image>
<g>
	<path d="M117.9,1104.5c-6-4.9-10.1-10.5-9.9-18.4c0.3-13.6-0.3-27.3,0.7-40.9c1.3-17.8,9.8-33.3,18.2-48.7
		c5.9-10.8,12.1-21.4,17.7-32.4c2.3-4.5,3.6-9.6,5-14.5c11.3-37.3,16-75.5,13.5-114.5c-1.2-18.8-2.3-37.6-3-56.3
		c-1.2-31.1,3.6-61.3,12.5-91.1c7.1-23.7,18.3-44.9,34-63.8c9.7-11.7,23.2-17.5,36.9-23c25.5-10.3,51.9-16.8,79.3-18.8
		c14.9-1.1,29.9-2.1,44.8-2.1c5.7,0,11.7,2.5,16.9,5c1.8,0.9,2.4,5.2,2.7,8.1c0.3,3.1-2.5,3.7-4.9,3.6c-20.3-0.9-40.3,1.2-60.4,3.8
		c-21,2.7-41.5,6.9-61.2,14.5c-10,3.9-20,8.4-29.1,14.1c-12.2,7.6-20.3,19.2-27.3,31.7c-14.4,25.6-19.6,54-25.3,82.2
		c-4.3,21.1-5.1,42.4-4,63.9c1.2,23.1,2.1,46.2,2.8,69.3c0.2,7.1-0.7,14.1-1.1,21.2c0.4,0.1,0.8,0.2,1.2,0.3
		c3.2-7.5,6.8-14.9,9.6-22.6c6.8-18.5,10.2-37.8,12.8-57.3c2.3-17,4.6-33.9,7-50.9c0.3-2.2,1.3-4.4,2.1-6.8
		c6.5,8.1,3.8,17.5,4.4,25.9c1.1,15.1,0.8,30.5-0.1,45.6c-0.7,11.2-3.2,22.3-5.3,33.4c-6.7,35.4-24.9,66-41.2,97.3
		c-11.5,22-23.6,43.6-34.8,65.7c-7.7,15.1-8.2,31.7-8.1,48.3c0,2.6,0.3,5.1,0.6,8.8c8.5-16.7,16.4-32.2,24.3-47.8
		c8.3-16.5,16.9-32.7,28.7-47.2c14.5-17.8,31.9-31.4,53.4-39.7c3.8-1.4,5.7-3.7,6.5-7.3c3.2-14.6,6.3-29.3,9.4-43.9
		c6.9-32.4,8-65.3,8.3-98.3c0.3-27.8,5-54.8,13.7-81.2c4.8-14.3,13.6-26.4,23.6-37.2c4.3-4.6,11-6.9,16.9-9.9
		c1.1-0.5,3.8,0.4,4.5,1.5c0.9,1.4,1.3,4.1,0.5,5.3c-2.8,4.1-6.2,7.7-9.4,11.5c-11.4,13.6-21.6,28.3-24.7,45.9
		c-4,22.2-6.3,44.7-8.5,67.1c-1.1,11.8,0.1,23.7-0.7,35.6c-1,15.2-2,30.4-4.6,45.4c-2.5,14.4-7,28.5-10.8,42.7
		c-0.8,2.9-2.7,5.4-4.2,8.3c37.5-30.7,51.4-71.5,51.3-117.8c4.5-2.1,7.8-0.1,8.8,2.9c2.3,7,4.9,14.4,4.8,21.5
		c-0.2,19.4-4.9,38.1-12.7,56c-4.8,11-12.6,19.9-20.6,28.6c-0.6,0.7-1.3,1.4-3,3.2c2.6-0.8,3.9-0.9,4.9-1.5
		c10.2-5.3,20.3-10.6,30.4-16.1c4.1-2.2,6.4,0.8,8.3,3c1.5,1.8,2.7,5.5,1.9,7.3c-1.4,3.1-4.1,6.1-7,8c-9.2,6.2-18.7,11.8-28.6,17.9
		c4,3.1,8.3,7,13.1,10c10.6,6.7,20.5,14.2,28.3,24.1c5.8,7.3,10.4,15.5,16.5,22.4c8.2,9.3,17.1,18,26,26.7c10,9.9,21.5,17.7,34,24.2
		c9.6,5,20.1,5.3,31.6,7.2c-2.4-3.6-4-6.4-6-8.9c-11.7-15.1-23.5-30.2-31.6-47.6c-10.3-22.1-14.8-45.2-13.3-69.7
		c1.3-20.5,6.7-39.8,12.8-59.1c0.6-1.9,1.3-3.9,2.4-5.4c3-4,1.3-6.6-2.2-9c-6.3-4.3-12.5-8.6-18.7-13.1c-1.5-1.1-3-2.7-3.8-4.4
		c-1.1-2.3-2.5-5.5,0.6-7.1c1.6-0.8,4.6-0.3,6.3,0.6c9.5,5.5,19,11,28.1,17.1c10.9,7.3,23,10.1,35.6,11.4c2.3,0.2,4.6,0.7,6.8,0.3
		c10.7-1.9,16.5-10,16.3-22.2c-2.7-0.3-5.5-0.4-8.2-0.9c-5.3-0.9-9.5-3.8-12.8-8.1c-3.1-4-3.2-9.5,0.1-13.3
		c5.6-6.5,12.3-10.7,21.5-8.6c0.6,0.1,1.3,0.2,1.9,0.3c0.9-1.8,2.1-3.3,2.3-5c0.9-7.9,6.5-10.5,13.1-12.3c3.4-1,6.9-2.4,9.9-4.2
		c5.1-3.1,6.4-9.9,3.3-15c-1.9-3.3-3.9-6.5-5.8-9.8c-5.7-9.8-11.5-19.5-16.9-29.4c-4.8-8.7-6.7-17.9-5.5-27.9
		c0.9-8.2,1.3-16.6,1.5-24.9c0.2-9.5-4.4-17.6-7.8-26c-1.9-4.7-1.7-5.5,3-8.4c3.2,3.6,6.6,7.4,10.1,11.2c8.4,9.4,11.9,20.5,11.4,33
		c-0.4,8.6-1.4,17.2-0.8,25.8c0.8,11.1,5.3,21.1,12.2,30.1c7.4,9.7,13.7,20,16.4,32.2c1.5,6.7-1.1,12.6-7.2,15.8
		c-4,2.1-8,4.1-12.2,5.6c-5.7,2-9.3,5.8-10.6,11.5c-1.7,7.6-2.7,15.4-4.6,22.9c-2.6,10.1-5.2,20.3-8.8,30
		c-3,8.3-10.7,12.1-18.8,12.8c-9.5,0.8-19.1-0.1-28.6-0.8c-4.3-0.3-8.6-1.9-13.6-3.1c-1.6,6.2-3.5,12.6-4.9,19.2
		c-1.8,8.6-3,17.3-4.5,25.9c-0.1,0.8-0.4,1.6-0.4,2.4c-0.3,19.8-0.5,39.5,7.5,58.4c7.4,17.6,15.4,34.7,27.7,49.7
		c10.8,13.2,20.4,27.2,30.3,41.1c4.1,5.8,7.5,12.1,11.2,18.1c0.7,1.2,1.6,2.2,3,4.1c0.7-2.9,1.4-4.7,1.6-6.6
		c2.6-28.4,17.3-49.5,39-66.9c13.6-10.9,26.6-22.7,39.6-34.4c2.8-2.5,5.5-3.1,9-2.2c14.5,3.5,19,17.8,15.8,30.8
		c-0.3,1.4-0.8,2.8-1.4,5.1c7.6-4.5,14.3-8.6,21.1-12.6c1.4-0.9,2.8-1.7,4.3-2.5c6.7-3.2,6.8-3.2,5.4-10.7c-0.7-3.5-1.6-7-2.9-10.4
		c-5.5-15.1-0.6-26.8,13.7-32.8c4.9-2.1,9.7-4.3,14.6-6.5c0.1-0.1,0.2-0.2,0.8-0.8c-3.3-2-6.8-3.6-9.6-6.1c-3-2.7-6.2-5.7-7.9-9.3
		c-9.1-19.3-4.7-36.8,7.8-53.1c4.1-5.4,9.6-9,16.1-10.4c21.7-4.6,42.3-1.7,61.6,9.5c0.9,0.5,1.8,1,2.5,1.6c2.9,2.8,6,5.5,8.6,8.6
		c5.5,6.7,10.3,14.1,10.6,23.1c0.2,6.6-0.7,13.2-1.2,20.4c0.7,0.1,2.3,0.1,3.8,0.4c6.3,1.4,13.5,1.5,18.5,4.9
		c4.6,3.1,7.2,9.5,9.8,14.9c2,4.2,2.5,9.1,3.9,13.7c4.1,12.8,4,26.1,5,39.4c0.7,9.2-3.1,15.1-10.5,19.7c-5.4,3.4-5.2,6.5,0.2,10.6
		c16.4,12.5,26.8,28.9,30.9,49.1c1.2,5.7,1.2,11.6,1.9,17.9c59.1,21.1,119.5,40.2,178.6,65.8c5.5-7.6,11.5-15.9,17.4-24.3
		c0.6-0.9,1.1-2.4,0.8-3.2c-2.1-4.7,0.7-7.8,3-11.3c8.4-12.7,16.6-25.6,24.9-38.4c6.8-10.4,13.7-20.8,20.8-31.1
		c20.5-29.6,43.3-57.3,66.4-84.9c14.6-17.5,32.7-28.6,52.8-37.6c2.3-1,4.5-2.7,6.8-2.9c2.3-0.2,6,0.4,6.8,1.9c1.1,1.9,1,6.3-0.4,7.5
		c-10.8,9.2-22.2,17.7-33,26.9c-6.3,5.4-12.3,11.2-17.7,17.5c-9.4,11-18.5,22.2-27.2,33.7c-11.5,15.1-22.7,30.4-33.7,46
		c-5.7,8.1-10.5,16.8-15.7,25.2c-10.6,17-21.4,33.9-31.8,50.9c-0.7,1.2-0.1,4.4,1,5.4c6.4,5.6,12.7,11.2,19.7,16
		c17.5,12.1,35,24.2,53.1,35.3c19.3,11.8,39.2,22.6,59,33.6c1.4,0.8,4.2,0.3,5.6-0.7c11.6-7.8,21.1-17.9,28.5-29.7
		c14.4-22.8,28.4-45.8,42.7-68.6c4.2-6.7,9-13.1,13.5-19.7c0.7-1,1-2.4,1.5-3.6c4.8,0.6,7.9,2.4,9.6,7.5c1.4,4.2-1.1,6.4-2.6,8.9
		c-8.6,14.3-17.8,28.3-26,42.8c-3.1,5.5-4.3,12.1-6.5,18.1c-0.7,2-1.9,3.8-3,5.7c-1.6,2.7-3.7,5.1-4.8,7.9
		c-4.4,11.3-10.3,21.6-18.7,30.5c-4.6,4.9-8.6,10.4-12.6,15.9c-1,1.4-1.1,3.6-1.6,5.4c-8.5,1.7-14.9-3.4-21-6.1
		c-10,12.7-19.3,25.3-29.7,37.1c-3.8,4.4-10.1,6.6-15.2,9.7c-0.8,0.5-1.8,0.8-2.7,1.3c-6.9,4.1-9.7,3.7-14.9-1.7
		c13.9-19.1,27.7-38.1,42.1-57.8c-43.7-24.9-86.2-48.9-124.6-80.3c-5.2,8.1-10.1,15.5-14.6,23.1c-3,5-5.4,10.2-8.2,15.3
		c-2.7,4.9-5.6,6.1-10,2.7c-4.1-3.2-6.8-8.1-10.6-11.8c-2.1-2.1-5-3.6-7.8-4.7c-14.8-5.7-29.6-11.3-44.5-16.9
		c-8.3-3.1-16.7-6-25.1-9.1c-12.8-4.7-25.5-9.6-38.3-14.2c-10.3-3.7-20.7-7.1-31-10.6c-1.4-0.5-2.8-1.1-4.1-1.7
		c-6-2.7-11.7-6.1-18-8.1c-7.4-2.4-11.4-8.7-16.6-13.4c-2.2-2-2.7-6.6-2.9-10.1c-0.7-14.1-2.1-28-9.4-40.4
		c-3.2-5.6-7.2-10.7-11.7-17.1c-1.3,3.3-2.1,5.3-3,7.3c-1.9,4.2-3.5,8.6-6,12.5c-1,1.6-4.3,2.9-6.2,2.6c-14-2.3-28-4.7-41.8-7.8
		c-5.4-1.2-10.6-3.7-15.4-6.5c-5.4-3.1-11.3-3.4-15.3,4.7c-4.9,10-1.4,18,6.3,24.4c0.9,0.8,2.1,1.8,2.3,2.9
		c1.1,6.2,1.5,12.5,3.1,18.6c5.1,19.2,12.6,37.5,31.2,47.3c7.9,4.2,17.7,5,27.8,7.6c-0.8-2.5-1.2-3.2-1.3-3.9
		c-0.1-1.5-0.6-3.6,0.2-4.3c0.9-0.9,3.1-0.9,4.5-0.6c9.2,2.3,17,7.5,24.2,13.4c26.2,21.3,52.4,42.6,78.4,64.2
		c15.3,12.8,30.2,26.1,45.3,39.1c3,2.6,6.4,4.8,9.3,7.5c4.7,4.4,9.2,9.1,13.7,13.7c2.9,2.9,5.9,5.8,8.3,9c1.9,2.6,3.3,5.6,4.2,8.7
		c0.7,2.8-6,5.9-9.4,4.3c-2.5-1.2-5.2-2.3-7.3-4c-10.5-8.3-20.9-16.7-31.2-25.3c-7.6-6.3-15.1-12.9-22.5-19.4
		c-14.4-12.6-28.6-25.4-43.1-37.9c-8.4-7.2-17.4-13.8-26-21c-6.2-5.2-11.9-10.8-18.6-15.8c1.3,3.1,2.8,6.1,3.8,9.3
		c0.5,1.7,0.9,4.2,0,5.6c-2.6,4.2-5.5,8.3-8.9,11.8c-4.2,4.3-9.9,1.8-14.7,1.7c-10.7-0.2-16.3-8.1-20.2-16.8
		c-3.8-8.5-7.1-17.2-9.8-26.1c-1.7-5.7-5.3-8.5-10.2-10.4c-19.9-7.9-33-22.8-41.1-41.9c-3.4-8-6.7-16.3-6.9-25.6
		c-0.1-5.8-3.2-11.6-5.3-17.3c-0.1-0.4-3.1-0.3-4.3,0.4c-2.4,1.4-4.1,4-6.6,4.9c-9.4,3.6-18.9,7-28.6,9.9
		c-5.5,1.7-10.3-0.6-14.2-4.8c2.2-3.6,38.6-15.2,49.3-15.7c-0.4-3.9-0.2-8.1-1.6-11.6c-0.7-1.8-4.3-2.6-6.7-3.7
		c-1.9-0.9-3.8-1.8-5.8-2.2c-1.7-0.3-3.8-0.2-5.3,0.5c-9,4.3-17.9,8.9-26.9,13.2c-5.2,2.5-9.4,1.7-12.2-1.8c-1.7-2.2-2.5-4.1,1-5.8
		c10.6-5,21.2-10.2,31.8-15.3c1.5-0.7,3-1.4,5-2.3c-2-6.1-4-12-6.1-18.4c-10.9,6.5-21.4,12.9-32,19c-3.4,2-7.4,3.2-10.6,5.4
		c-3.5,2.4-6.6,5.4-9.6,8.5c-0.6,0.6,0,2.8,0.6,4c6.1,12.1,6.4,24.8,3.9,37.7c-1.5,8-5.2,10.7-12.5,10.2c-3.6-0.2-4.6-1.2-4.2-5.2
		c1.1-10.4,1.4-20.9,2-31.3c0-0.6-0.2-1.3-0.5-3.1c-2.4,2.6-4.1,4.6-5.9,6.6c-2.9,3.3-6.8,3.2-11.1-0.1c-4.2-3.3-4.7-6.1-1.9-10
		c9-12,18.5-23.6,26.9-36c3.9-5.7,5.4-13,8.1-19.5c-0.6-0.4-1.2-0.7-1.8-1.1c-1.8,1.6-3.5,3.2-5.3,4.7c-11.7,10.1-23.7,20-35.2,30.3
		c-10.2,9.1-17.8,20-24.2,32.5c-7.2,14.1-7.8,30-14.4,43.8c-4.6,9.5-1.2,17.8-0.3,26.6c1.7,15.2,0.4,30.3-4.1,44.7
		c-2,6.4-6.5,12.3-10.6,17.9c-4.8,6.4-10.6,11.9-15.7,18.1c-2.7,3.3-5.4,7-7,10.9c-4.8,12-9.4,24.1-13.1,36.5
		c-1.5,5.1-0.6,10.9-0.8,16.3c-0.2,6.2-3.2,9.2-9.8,9.6c-4.5,0.2-8-3.5-8.4-9.2c-0.8-10.6-0.2-21,4.1-30.8
		c4.5-10.3,8.3-21.1,13.9-30.9c4-7.1,9.8-13.5,15.6-19.4c11.7-11.9,16.8-26,16.8-42.4c0-19-1.1-37.9-9.2-55.2
		c-5.3-11.3-13-21.6-19.7-32.3c-0.6-0.9-2-1.6-3.1-1.7c-18.7-0.3-36.1-4.4-52.8-13.5c-28-15.3-50.8-36-69.9-61.1
		c-4.4-5.8-7.5-12.8-12.5-17.9c-9.9-10-20.6-19.2-31.5-28.1c-2-1.6-6.8-1.3-9.6-0.1c-15.1,6.5-30.7,12.1-44.5,20.8
		c-10.4,6.6-19,16.6-27,26.2c-15.6,18.7-26.3,40.6-38.8,61.4c-7,11.6-11.7,23.9-16.9,36.2c-8.7,20.6-17.7,40.9-24.7,62.2
		c-5.4,16.7-12.8,32.7-18.9,49.2c-2.6,7.1-4.1,14.7-6.1,22c-3.5,12.1-7.1,24.2-10.4,36.4c-1.3,4.8-9.8,7.1-13.6,5.5
		c-1.4-0.6-2.5-4-2.2-5.9c1-6.2,2.9-12.3,4.1-18.5c5.6-29,15-56.9,24.7-84.7C102.8,1145.1,110.4,1125,117.9,1104.5z M763.2,990.5
		c-0.5-20.1-0.7-20-8.7-39.4c-1.5-3.5-3.5-5.2-6.8-5.3c-3.4-0.1-6.9,0.1-10.3,0.9c-9.9,2.2-19.6,5.1-29.5,7.1
		c-13.2,2.5-26.6,4.2-39.8,6.6c-8.1,1.5-16.1,4.3-24.2,5.7c-7.5,1.3-14,10.8-11.9,18.1c4.1,14.4,8,28.9,11.9,43.5
		c1.5,5.4,2.9,6.5,8.1,5.3c3-0.7,6-1.8,9.1-2.4c17.7-3.7,35.4-7.2,53.1-10.9c14.9-3.1,29.8-6.4,44.7-9.6c3.1-0.7,4.4-2.3,4.3-5.5
		C763.1,999.9,763.2,995.2,763.2,990.5z M713.7,936.5c-0.4-0.4-0.9-0.9-1.3-1.3c0-2.3-0.8-5,0.1-7c4.3-9.5,4.7-19.1,0.3-28.5
		c-3.8-8.1-7.3-16.7-17.8-18.5c-2.9-0.5-5.8-1.3-8.8-1.7c-12.5-1.8-25-0.3-32.7,10.1c-12.1,16.4-13.8,33.8,0.3,51
		c2.2,2.7,6.8,5.7,9.8,5.3C680.5,943.4,697,939.8,713.7,936.5z M731.2,1164.6c4.5,10.8,9.4,21.2,13.2,31.9c2,5.6,6,5.3,9.9,5.3
		c4.5,0.1,8.2-5.6,6.7-9.8c-2.3-6.9-4.8-13.8-7.8-20.4c-1-2.2-3.7-4.4-6-4.9C742,1165.4,736.7,1165.2,731.2,1164.6z M735.9,1050.7
		c1-2.3,2.4-4.6,3.1-7.1c1-3.3-4.4-10.6-7.6-10c-8.5,1.5-16.9,3.4-25.3,5.2c0,0.4-0.1,0.9-0.1,1.3
		C715.8,1043.6,725.6,1047.1,735.9,1050.7z M475,824.5c-3.8,0-7.2-0.5-10.3,0.1c-3.8,0.7-6.3,3.8-5.5,7.5c0.5,2.1,3.2,4.9,5.2,5.2
		c10.7,1.4,9.9,2.9,10.5-7.8C475.1,828.2,475,826.9,475,824.5z"/>
	<path d="M1097.3,506.8c0.2,3.3-3.4,4.6-6.2,5.7c-9.1,3.4-18.4,6.5-27.7,9.3c-5.5,1.7-11.4,2.5-17,4.1c-13.1,3.6-26,7.9-39.3,10.8
		c-12.5,2.7-25.4,4-38.1,5.8c-14.4,2.1-28.8,4.3-43.3,6.2c-11.9,1.5-23.8,3.8-35.6,3.4c-13.8-0.5-24.8,5.4-36.1,11.3
		c-19.3,10.1-38.5,20.3-57.5,30.9c-19.6,10.9-38.7,22.7-58.4,33.5c-11,6-22.7,10.9-34.1,16.3c-3.3,1.6-6.5,3.4-9.8,4.7
		c-6.4,2.5-11.3,0.3-13.3-6.2c-1.1-3.4-1.5-7,1.3-10.3c16-18.2,31.9-36.5,48-54.6c8.6-9.6,17.7-18.8,26.5-28.2
		c-0.2-0.4-0.3-0.8-0.5-1.2c-7.3,1.3-14.6,2.7-21.9,4c-0.3,0.1-0.6,0.2-1,0.3c-6.8,0.3-13.7,0.6-20.5,1c-4.7,0.3-9.3,0.8-13.9,1.1
		c-5.3,0.4-10.6,0.8-15.9,1.1c-5.1,0.3-10.2,0.8-15.3,0.7c-18-0.4-36.1-0.2-54-1.8c-27.6-2.4-55.2-5.9-82.7-9.4
		c-9.7-1.2-19.3-3.7-28.8-5.9c-10-2.4-19.8-6.4-29.9-7.5c-19.9-2.1-38.3-8.7-55.6-17.9c-12.6-6.8-24-15.9-35.6-24.6
		c-17.3-12.9-29.9-29.8-40.5-48.3c-12-20.9-18.9-43-18.6-67.5c0.3-28.1,11.9-50.5,31.9-69c20.5-18.9,42.9-35.5,68.3-47.2
		c16.8-7.8,34.6-13.5,52.1-19.6c13.1-4.5,26.4-8.9,39.9-12c23.6-5.5,47.3-11.2,71.3-14.6c32.5-4.5,65.2-7.2,97.9-10
		c24.5-2.1,49-3,73.5-4.5c5.6-0.3,11.1-1.4,16.8-0.6c-0.9-0.3-1.7-0.5-2.6-0.8c0-0.3,0.1-0.6,0.1-0.9c14,2.3,27.9,4.6,42.3,6.9
		c-0.2,4.8-3.3,6.9-7.1,7.4c-8.8,1.1-17.7,1.7-26.6,2.3c-8.9,0.6-17.9,1-26.8,1.6c-14.9,1-29.8,1.7-44.7,3
		c-19.1,1.7-38,4.2-57.1,5.9c-30.9,2.8-61.3,8.1-91.5,15.2c-11.2,2.6-22.5,4.5-33.6,7.6c-14.2,3.9-28.2,8.9-42.3,13
		c-21.3,6.3-41.9,14.6-61.3,25.3c-12.2,6.8-23.1,16-34.2,24.6c-6.8,5.2-13,11.2-19.3,17.1c-21.9,20.8-32.8,45.8-29.9,76.4
		c2.6,27.3,18.2,46.9,37.5,64.2c14.2,12.7,29.9,23.6,47.9,30.2c14.8,5.4,30.2,9.1,45.3,13.5c31.9,9.3,64.6,14.4,97.6,17.7
		c21.5,2.2,43,3.7,64.6,4.6c13.8,0.6,27.7-0.3,41.5-0.8c16.5-0.6,33.1-1.2,49.5-2.5c14.9-1.2,29.7-3.3,44.5-5.3
		c7.3-1,13.6-0.4,19.2,5.1c4.5,4.5,5.1,11.5,0.7,16.1c-9.1,9.4-17.8,19.1-26.8,28.6c-8.2,8.8-16.5,17.5-24.8,26.2
		c-5.1,5.3-10.5,10.5-15.6,15.8c-1.6,1.7-2.8,3.9-4.2,5.8c0.3,0.3,0.5,0.7,0.8,1c6.1-3.2,12.3-6.2,18.3-9.5
		c13.2-7.2,26.5-14.5,39.6-22c8.6-5,16.9-10.6,25.4-15.8c6.5-3.9,13-7.7,19.6-11.5c3.9-2.2,7.9-4.2,11.9-6.3
		c12.5-6.6,25-13.2,37.6-19.7c1.2-0.6,3.3-1.3,4.1-0.7c8.4,6,17.1,1.1,25.3,0.3c16-1.7,32-4.7,47.8-7.7c20.5-3.8,41.3-6,61-13.6
		c8-3.1,16.6-4.7,24.6-7.6c16.7-5.9,33.8-11.1,49.7-18.7c17.5-8.4,33.6-20.2,45.6-35.5c17.2-22,33.1-45,33.5-75.1
		c0.2-15.1-3.9-28.5-11-41.4c-7.7-14-17.7-26.5-30-36.4c-9.3-7.6-20.3-13.4-31.3-18.2c-22.3-9.6-45-18.1-67.7-26.9
		c-14.4-5.6-29.5-8.9-44.8-10.7c-16.9-2-33.2-6.3-49.2-12c-7.8-2.8-16.6-3-24.8-4.7c-10.9-2.2-21.7-4.7-32.6-6.9
		c-5.4-1.1-10.8-1.6-16.2-2.6c-6.8-1.3-9.8-5.5-10.8-12.2c-0.6-3.9,1.7-3.6,3.9-3.9c12.8-1.6,25.4,0.2,38.1,2.5
		c8.9,1.7,18,1.7,27,3.1c7,1.1,13.7,3.2,20.6,4.6c8.9,1.9,17.9,3.5,26.8,5.4c17.5,3.7,35.5,6.3,52.5,11.6
		c25.8,8.1,51.3,17.2,76.3,27.5c19,7.9,34.4,21.1,48.3,36.8c18.7,21.1,30.1,45.3,37.1,72c5.2,20.1,3.2,40.1-2.4,60
		c-5.8,20.7-19,36.9-31.6,53.4c-5.1,6.6-11.7,11.8-19.9,15.3c-6,2.6-10.9,7.8-16.5,11.6C1101.5,506.4,1099.4,506.3,1097.3,506.8z"/>
	<path d="M1426.8,1257.8c-1.9-3.8-3-8.6-6-11.1c-9-7.4-11.2-18.4-16-28c-7.8-15.7-14.1-32.2-21.6-48.2
		c-7.7-16.4-16.1-32.4-24.2-48.6c-4.3-8.6-8-17.6-13-25.8c-6.5-10.8-14-21-21.2-31.4c-9.2-13.3-18.4-26.6-28-39.6
		c-6.7-9.2-14.1-17.9-21.1-27c-4.7-6.1-8.6-12.9-13.9-18.4c-14.9-15.6-30.4-30.6-45.7-45.8c-14.7-14.7-29.6-29.2-44.2-44
		c-2.6-2.6-4.4-6.2-6.1-9.6c-0.6-1.2-0.5-3.6,0.3-4.3c0.9-0.8,3.3-0.9,4.5-0.3c5.2,2.6,10.2,5.5,15.2,8.3
		c17.8,10,32.9,23.8,48.5,36.8c16.9,14.1,33.6,28.6,48.6,44.6c13,13.9,23.6,30,35.3,45.2c3.3,4.3,6.9,8.5,10.1,13
		c5.4,7.5,10.9,15,15.8,22.9c9.8,15.7,19.9,31.3,28.7,47.5c9,16.6,16.7,33.9,25,50.9c4,8.2,8.1,16.4,11.6,24.8
		c2.4,5.7,3.6,11.9,5.7,17.7c0.7,2.1,2.9,3.6,3.6,5.7c1.9,4.9,3.4,10,5,15c1.5,4.5,4.3,9,4.1,13.4c-0.3,9.8,8,18,4.8,28
		c-0.9,2.8-2.7,5.4-4.1,8C1428,1257.6,1427.4,1257.7,1426.8,1257.8z"/>
	<path d="M978.3,636.6c5.5,7.6,1.8,13.8-2.3,19.8c-10.4,15.1-17,31.9-22.2,49.4c-1.9,6.5-2,13.5-3.9,20c-4.9,17-14.7,30.9-28.2,42.2
		c-1.4,1.2-2.8,2.3-4.1,3.6c-7.5,7.6-8.2,12.3-0.7,19.9c5.9,6,13.2,10.5,19.9,15.7c3.1,2.4,6.6,4.5,9.1,7.5c2.5,3,5.1,3.4,8.3,2.1
		c8.3-3.4,16.6-2.8,25-0.6c7.3,1.9,11.5,6.4,10.3,13.6c-0.6,3.3-4.6,7.4-7.9,8.6c-7.5,2.8-15.5,4.1-23.6,6.1c-3.2,15,8,33.8,23.2,38
		c13.1,3.7,26.2,7.6,39.3,11.3c13.9,4,22.4,13.4,26.2,27c2.8,10.1,4.4,20.5,6.6,31.1c19.5-19.3,43.4-32.6,70.5-40.3
		c3.3,6.4,0.4,12.1-7.3,16.5c-12.6,7.1-25.1,14.2-37.2,22.1c-9.3,6.1-17.9,13.2-26.8,19.9c-0.9,0.7-1.7,2-2,3.1
		c-2.8,10.9-5.1,21.9-8.2,32.7c-5.1,17.3-10.8,34.5-16.3,51.7c-0.6,1.7-1.2,3.7-2.4,4.9c-1.4,1.4-3.5,2.1-5.3,3.1
		c-0.6-1.8-2.1-3.7-1.8-5.4c1.5-9.9,3.1-19.7,5.2-29.5c3.6-16.4,7.6-32.7,11.3-49.1c0.5-2.3-0.5-4.9-0.4-7.4
		c0.2-2.2,1.6-4.3,1.6-6.4c0.1-16.7-1.2-33.3-6.9-49.1c-1.3-3.7-2.9-7.6-5.4-10.5c-2.2-2.5-5.6-4.4-8.8-5.5
		c-17.3-5.8-35.6-8.8-51.2-19c-10.6-6.9-16.8-16.9-19.2-29.2c-1.7-8.5-2.9-17.1-4.3-25.6c-1.3-7.7-5.3-13.4-12.1-17.3
		c-9.9-5.7-18.6-12.7-25.2-22.3c-6.1-9-6-17,1.2-24.9c3.6-3.9,8.1-6.9,11.6-10.9c10.2-11.8,19.1-24.5,21.6-40.3
		c3.6-22.9,13.4-43.1,26.6-61.8C965.9,645.3,970.5,639.3,978.3,636.6z M956.5,836.8c5.4-1.3,10.6-2.2,15.5-4
		c1.7-0.6,3.3-3.4,3.5-5.3c0.1-1.2-2.6-3.8-4-3.8c-5.9,0.2-11.8,1.1-17.7,1.8C954.8,829.9,955.6,833.1,956.5,836.8z"/>
	<path d="M469.9,374.3c19.7-0.1,39.4-1.3,59,0.1c31.3,2.2,62.5,0.7,93.7,0.4c35.8-0.3,71.6-0.9,107.3-1.4
		c31.6-0.4,63.1-0.8,94.7-1.2c30.1-0.4,60.2-0.9,90.2-1c26.6-0.2,53.2,0,79.8,0.1c6.9,0,11.7,7.3,9,13.7c-0.4,0.9-2.4,1.6-3.7,1.6
		c-15.5,0.3-30.9,0.5-46.4,0.7c-13.4,0.2-26.8,0.5-40.2,0.6c-3.1,0-6.3-0.3-9.5-0.3c-13.5,0-27.1,0.2-40.6,0.1
		c-10.3,0-20.5-0.6-30.8-0.5c-27.8,0.2-55.5,0.7-83.3,1c-17.8,0.2-35.6,0.1-53.4,0.4c-21.8,0.3-43.6,1.1-65.4,1.4
		c-27.2,0.4-54.5,0.6-81.7,0.7c-15.9,0.1-31.9,0.1-47.8-0.5c-7.7-0.3-16,0.1-22.8-4.8c-3.4-2.5-6.3-5.7-9.4-8.6
		C469.2,376,469.6,375.1,469.9,374.3z"/>
	<path d="M979.4,631.1c1.6-3.3,2.1-6.1,3.8-7.6c15.3-14.5,33.7-23.3,53.6-29.8c20.2-6.6,40.8-5.5,61.4-4.9
		c20.3,0.7,40.1,5,58.4,13.6c26.6,12.7,49.6,30,63.6,57.3c7.2,14,12.9,28.4,16.5,43.6c1.3,5.7,0.5,12,0.3,18
		c-0.1,6.6,0.4,13.5-1.1,19.8c-2.3,9.3-5.6,18.4-9.5,27.2c-7.4,16.6-14.6,33-13.9,51.8c0.3,7.6-0.7,15.3-1.5,22.8
		c-0.5,4.9-7.2,10.2-12.2,10.2c-3.6-18.4-6.1-37-2.3-55.4c2.5-12.1,7.3-23.8,12.1-35.3c11.1-26.4,9.3-52.6-0.6-78.7
		c-4.1-10.7-8.9-21.2-14.6-31c-7.5-12.8-18.9-22.2-30.9-30.8c-13.3-9.6-28.1-15.5-44-19.1c-16.1-3.6-32.3-3.9-48.6-3
		c-17.8,1-34.2,7.2-50.4,14.1c-4.5,1.9-8.5,5.2-13,7.4c-7.1,3.3-14.4,6.2-21.6,9.2C983.8,631.1,982.6,630.9,979.4,631.1z"/>
	<path d="M1067.7,732.3c1.1-3,2.1-5.6,2.8-7.5c-3.4-2.8-6.7-4.8-9.1-7.5c-8.5-9.8-19.9-15.3-30.8-21.8
		c-13.7-8.1-24.1-19.7-33.3-32.5c-2.3-3.2-4.8-6.4-7.1-9.7c-2.6-3.9-1.6-5.7,2.9-6.3c6.2-0.8,10.9,1,15.4,5.6
		c9.9,10,20.2,19.6,30.9,28.7c6.5,5.5,14.1,9.5,21.1,14.4c6.2,4.4,12.2,9.2,18.2,13.8c1.5-1.7,3.6-4.2,6.5-7.5
		c-5.1-7.2-10.6-15.8-16.9-23.5c-5.3-6.5-11.6-12.4-17.8-18.1c-3.4-3.1-4.8-5.5-0.1-8.3c12,9.2,24.5,17.9,36,27.8
		c5.3,4.5,8.6,11.3,13,16.8c1.3,1.6,3.3,3.6,5.1,3.8c19.1,1.6,23.8,14.7,27,29c1.6,7.2,1.4,14.1-3.1,20.9c-4.1,6.2-6,13.7-9.4,20.3
		c-3.5,6.7-8.8,10.5-17,8.7c-1.5-0.3-3.4,0.8-4.7,1.2c-0.3,4.5-0.2,8.4-0.9,12.3c-2.1,11.9-4,23.9-7.1,35.6
		c-1.5,5.8-5.5,10.9-8.3,16.3c-1.3,2.4-2.3,5-3.8,7.3c-7.2,10.6-17.3,17.2-29.7,20.4c-9.9,2.6-19.8,5.5-29.8,7.5
		c-8,1.6-15.3-1.1-22.8-6.8c6.8-1.7,12.7-2.9,18.4-4.7c10.3-3.2,21-5.6,30.4-10.5c6.9-3.6,12.7-10.2,17.6-16.5
		c11.7-15.4,17.7-33.3,20.4-52.4c0.4-2.8,0.5-5.8,1.7-8.2c1.2-2.4,3.6-6,5.7-6.1c10.9-0.5,16.4-6.9,20.7-15.9
		c5.9-12.5,9.2-25,2.7-38.2c-2.5-5-5.3-10.2-11.7-11.4c-6.6-1.2-9.4,3.6-12.7,7.8c-3.4,4.3-6.7,8.7-10.3,12.7
		C1075.3,733,1072.2,735.1,1067.7,732.3z"/>
	<path d="M552.8,319.5c6.4-6.5,15-5.9,22.9-6.9c6.1-0.7,12.2-0.7,18.4-0.9c40.1-1.4,80.3-2.9,120.4-4.1c15.8-0.5,31.5-0.3,47.3-0.4
		c24.1-0.1,48.2-0.3,72.2-0.4c17.4,0,34.9,0.1,52.3,0.1c4.5,0,6.2,3.4,7,6.5c0.8,3.3,0.1,7-0.2,10.5c0,0.3-2,0.7-3,0.7
		c-23.6-0.3-47.2-0.9-70.8-0.9c-24.4,0-48.8,0.5-73.2,0.7c-25.3,0.2-50.7-0.1-76,0.6c-20.6,0.6-41.1,2.7-61.7,3.6
		c-13.7,0.6-27.5,0.9-41.2,0.5C561.2,328.9,555.2,326.8,552.8,319.5z"/>
	<path d="M556.5,438.5c12.8,0,24.9,0.4,36.9-0.1c40.9-1.6,81.8-3.8,122.7-5.2c29.4-1,58.9-1.4,88.3-1.9c25.2-0.4,50.5-0.6,75.7-0.8
		c10-0.1,19.9,0,30.2,0c2.4,5.6-1,12.8-7.7,13.4c-11.9,1-23.8,1.6-35.7,2c-7.9,0.3-15.7-0.3-23.6-0.2c-8.4,0.1-16.8,0.6-25.2,0.8
		c-8.5,0.2-16.9,0.1-25.4,0.2c-8.6,0.1-17.2,0.4-25.8,0.6c-7.4,0.2-14.8,0.4-22.2,0.5c-11.1,0.3-22.2,0.3-33.3,0.9
		c-38.2,2-76.3,4.9-114.6,6c-10.6,0.3-22.1,0.8-32.5-4.9C559.4,447.2,558,443.6,556.5,438.5z"/>
	<path d="M221.3,1287c-3.8-1.7-6.9-2.4-9.2-4.2c-4.4-3.4-2.2-7.8-0.5-11.7c8.4-19.3,17.3-38.4,25.4-57.8c9.6-22.8,18.4-46,27.9-68.9
		c5-12.1,10.4-24.1,16.1-35.9c1.4-3,4.3-5.5,7-7.6c3.7-2.8,8-0.7,7.9,3.9c-0.1,4.4-1.3,8.8-2.5,13.1c-4.4,14.9-8.9,29.8-13.8,44.6
		c-2.7,8-6.3,15.7-9.5,23.6c-5.9,14.6-11.4,29.4-17.6,43.9c-7.2,17-14.7,33.8-22.6,50.5C228.4,1283.3,224.2,1284.8,221.3,1287z"/>
	<path d="M329,905.8c7.9-9,9.9-20.3,11.5-31.5c2.6-17.9,4.2-36,6.1-52.4c-8.4-4.3-16.3-7-22.4-11.8c-16.1-12.6-22.6-29.5-18.8-49.9
		c0.9-5.1,2.1-10.1,3.3-15.1c2.1-8.6,8.1-14.4,14.9-19.3c5.5-3.9,22.3-1.8,26.7,3.4c1,1.1,0.5,4.1-0.1,5.9c-0.9,2.5-2.8,2.6-5.2,1.1
		c-7.1-4.7-6.8-4.1-13.3,1.6c-10.2,9-10.8,20.6-10.8,32.7c0,8.3,0.7,16.5,5.4,23.8c0.6,1,1.1,2.3,2,2.8c8.6,4.4,16.2,11.1,26.9,10.7
		c7.3-0.3,10.9,3.5,10.1,10.6c-1.6,16.3-3.3,32.6-5.7,48.9c-1.1,7.5-2.9,15.3-6.3,22c-3.4,6.6-8.2,13-15.7,16c-2.5,1-5.3,1.5-8,2.2
		C329.5,906.9,329.2,906.4,329,905.8z"/>
	<path d="M551.7,1225.4c-0.4,1.2-1.5,3-1.6,4.9c-0.4,9.6-0.6,19.3-0.6,28.9c0,2.6,1.1,5.3,0.9,7.9c-0.2,2-1,4.5-2.5,5.7
		c-0.8,0.6-4.5-0.7-5.1-2c-2-4.4-4.5-9.2-4.5-13.8c0.2-20.3,1.2-40.5,2.1-60.8c0.2-4.8,1-9.6,1.6-14.3c2-13.5,10.5-21.3,22.2-27.4
		c15.5-8.2,30.3-17.7,41.9-31.5c3.7-4.4,10-6.9,15.5-9.5c10.6-5,21.7-8.3,33.4-9.4c2.3-0.2,6.1,0.6,6.8,2.1c0.9,2,0.3,5.8-1.1,7.5
		c-2,2.4-5.2,3.9-8.1,5.2c-11.3,4.8-22.7,9.1-33.9,14c-2.5,1.1-4.9,3.7-6.3,6.2c-5.4,9.8-13.9,16.3-23.2,22.1
		c-8.3,5.1-16.5,10.5-24.9,15.4c-7.9,4.5-11.2,11.5-11.9,20c-0.6,7.8-1.1,15.6-1.5,23.4C550.7,1221.7,551.3,1223.4,551.7,1225.4z"/>
	<path d="M410.5,1174.2c5.2,3.6-1.5,8.7,1.3,13.1c1.1-1.4,2.1-2.7,3.2-4.1c4.9,9.2-1.7,15.4-6.2,21.2
		c-14.3,18.3-33.5,29.7-55.7,36.4c-14.3,4.4-26,0.1-36.9-8.7c-0.6-0.5-1.1-1.7-0.9-2.4c0.2-0.8,1.2-1.4,2-1.9c0.2-0.2,0.7,0,1,0
		c16.7,3.6,30.5-4.3,43.4-12.4c14.2-8.9,27.1-19.8,40.2-30.3C405.2,1182.5,407.3,1178.2,410.5,1174.2z"/>
	<path d="M398.5,643.2c2.7-3.5,5.2-2.3,7.9-0.5c11.4,7.6,15.7,18.7,16.6,31.8c1.1,16.1-5.3,30.3-11.6,44.5
		c-2.3,5.2-5.9,9.9-9.1,14.7c-2.8,4.4-15.2,11.6-20.9,12.3c11.5-18.7,18.2-39.3,22.4-60.5C406.8,671.3,406.5,656.8,398.5,643.2z"/>
	<path d="M497,692.6c0.1-19.2-3.8-37.6-12.7-54.7c-4.9-9.3-11.3-17.6-20.9-22.8c-7-3.9-15.2-6.2-19.5-15.3c2.7-0.2,5.8-1.3,8.3-0.5
		c30.1,8.5,48.8,28.7,57.3,58.2c2.2,7.6,2.7,15.8,3,23.8C512.9,688.3,505.4,695.3,497,692.6z"/>
	<path d="M1131.2,672.4c15.5,4.9,27.3,13.1,35.9,25.5c10.1,14.6,14.4,30.6,10,48.2c-1.4,5.4-3.7,10.1-9.7,12.8
		c-3,1.3-4.8-0.1-5.9-1.1c-1.2-1.2-1.8-4.3-1.1-5.8c6.2-14.1,3.7-27.6-1.5-41.4c-2.7-7.2-7.3-12.6-12.4-17.5
		c-5-4.8-11.1-8.5-16.6-12.7c0.8-0.9,1.7-1.9,2.5-2.8c0.8-0.1,1.6-0.1,2.8-0.2C1133.9,675.6,1132.8,674.3,1131.2,672.4z"/>
	<path d="M433.7,696.4c6-14.6,7.6-29.5,7.2-44.8c-0.3-9.5-4.7-17.1-11-23.8c2.1-3.7,5.3-2.4,7.5-1.2c10.4,5.5,19.7,12,19.7,25.6
		c0,1.6,0.8,3.2,1.1,4.8c2.6,11.3-2.1,21.5-5.4,31.7C450.6,695.1,444.1,697.3,433.7,696.4z"/>
	<path d="M1157.4,791.5c1.4,6.3,3.3,11.5,3.5,16.7c0.3,7.3,2.6,13.5,6.1,19.6c4.9,8.6,9.5,17.4,14.3,26c1.9,3.5,3.1,6.9-1,9.5
		c-2.3,1.4-8.7-2.6-10.2-5.5c-4.1-8.1-8.6-16-12.8-24c-3.3-6.3-7.1-12.5-9.2-19.2C1145.3,805.9,1148,798.2,1157.4,791.5z"/>
	<path d="M1120.5,786.7c0.4,5.6,0.5,11.2,1.2,16.7c0.6,4.4,1.7,8.7,3.1,12.9c3.8,11.6,7.9,23.2,11.7,34.8c0.5,1.6,0.5,4.5-0.5,5.3
		c-1.1,0.9-4.1,0.8-5.4-0.1c-3.5-2.5-7.3-5.1-9.5-8.6c-10.7-16.8-11.7-35-6.2-53.8c0.8-2.7,2.6-5.2,4-7.7
		C1119.5,786.4,1120,786.5,1120.5,786.7z"/>
	<path d="M517.7,896.9c10.1-3.5,17.5-0.5,21.5,7.8c3.6,7.5,7.3,14.9,10.6,22.5c1.1,2.5,3.6,5.1,0.1,8.4c-3.6,3.4-7,1.9-10.3,0.6
		c-1.8-0.7-3.6-2.5-4.5-4.2C529.3,920.5,523.7,908.9,517.7,896.9z"/>
	<path d="M549.2,814.7c2-1.4,4-2.7,6-4.1c1.6-1.1,3-3,4.7-3.2c9.5-1.2,19.1-2.5,28.7-2.7c4.2-0.1,8.5,2.5,12.5,4.3
		c1,0.4,1.9,2.8,1.6,3.8c-0.6,1.4-2.3,3.2-3.6,3.3c-15.2,0.8-30.3,1.5-45.5,1.8c-1.8,0-6.5,0.7-5.5-4
		C548.5,814.2,548.8,814.4,549.2,814.7z"/>
	<path d="M550,854.6c3.9,2.2,7.9,4.1,11.5,6.6c7.2,5,14.3,10.2,21.3,15.6c2.5,2,6.5,4,3.5,8.3c-2.9,4.1-7.3,2.1-9.9,0.4
		c-11.2-7.4-22-15.5-32.8-23.5c-0.7-0.5-0.8-3.5-0.1-4.1C545.1,856.6,547.3,855.9,550,854.6z"/>
	<path d="M371.8,657.8c8.9,11.8,7.9,23.4,1.8,35.2c-3.6,7-8.4,8.7-16.5,5.9c2.6-6.8,5.3-13.5,7.7-20.3
		C367.3,671.9,369.4,665.2,371.8,657.8z"/>
	<path d="M971.6,724c1.8-5.8-0.1-11.5,5.4-15c4.7-2.9,8.6-2.4,11.8,2c5.2,7.3,2,18.6-5.8,22.8c-3.3,1.8-5.7-0.6-6.9-1.7
		C973.8,730,972.8,726.4,971.6,724z"/>
	<path d="M437.1,732.5c0.5-2.8,1.2-5.5,1.4-8.3c0.4-4.1,2.4-6.4,6.6-6.6c4.6-0.2,8.4,2,9.2,6c1.2,5.4,1.3,11.2-2.5,16.1
		c-2.4,3.2-5.4,4.9-9.4,3.6c-4-1.3-4.9-4.6-5.1-8.3c0-0.8,0-1.7,0-2.5C437.3,732.5,437.2,732.5,437.1,732.5z"/>
	<path d="M1010.8,817c-0.6,1.3-1.6,3.2-2.5,5.1c-1.6-1.5-3.5-2.9-4.8-4.6c-2.3-2.9-4.6-5.9-6.3-9.1c-0.8-1.5-0.5-3.7-0.7-5.6
		c1.6-0.1,3.5-0.8,4.8-0.2C1006.7,805.4,1010,810,1010.8,817z"/>
</g>
</svg>
