<?xml version="1.0" encoding="utf-8"?>
<!-- Generator: Adobe Illustrator 27.4.1, SVG Export Plug-In . SVG Version: 6.00 Build 0)  -->
<svg version="1.1" id="Camada_1" xmlns="http://www.w3.org/2000/svg" xmlns:xlink="http://www.w3.org/1999/xlink" x="0px" y="0px"
	 viewBox="0 0 1500 1500" style="enable-background:new 0 0 1500 1500;" xml:space="preserve">
<image style="overflow:visible;" width="1450" height="993" xlink:href="../../Library/CloudStorage/GoogleDrive-lucas.pretti@okfn.org/.shortcut-targets-by-id/0B79xBlVd-Nf6ZzMzUlZSTWwxV28/Open Knowledge All Team/Brand 2023/Illustrations/L 1500px - web transp/Icons/board.png"  transform="matrix(1 0 0 1 -3164.6372 4237.4756)">
</image>
<image style="overflow:visible;" width="1133" height="1032" xlink:href="../../Library/CloudStorage/GoogleDrive-lucas.pretti@okfn.org/.shortcut-targets-by-id/0B79xBlVd-Nf6ZzMzUlZSTWwxV28/Open Knowledge All Team/Brand 2023/Illustrations/L 1500px - web transp/Icons/books.png"  transform="matrix(1 0 0 1 -3164.6372 4237.4756)">
</image>
<image style="overflow:visible;" width="1357" height="1143" xlink:href="../../Library/CloudStorage/GoogleDrive-lucas.pretti@okfn.org/.shortcut-targets-by-id/0B79xBlVd-Nf6ZzMzUlZSTWwxV28/Open Knowledge All Team/Brand 2023/Illustrations/L 1500px - web transp/Icons/campagne.png"  transform="matrix(1 0 0 1 -3164.6372 4237.4756)">
</image>
<image style="overflow:visible;" width="845" height="1103" xlink:href="../../Library/CloudStorage/GoogleDrive-lucas.pretti@okfn.org/.shortcut-targets-by-id/0B79xBlVd-Nf6ZzMzUlZSTWwxV28/Open Knowledge All Team/Brand 2023/Illustrations/L 1500px - web transp/Icons/case-study.png"  transform="matrix(1 0 0 1 -3164.6372 4237.4756)">
</image>
<image style="overflow:visible;" width="1265" height="951" xlink:href="../../Library/CloudStorage/GoogleDrive-lucas.pretti@okfn.org/.shortcut-targets-by-id/0B79xBlVd-Nf6ZzMzUlZSTWwxV28/Open Knowledge All Team/Brand 2023/Illustrations/L 1500px - web transp/Icons/collaboration.png"  transform="matrix(1 0 0 1 -3164.6372 4237.4756)">
</image>
<image style="overflow:visible;" width="1339" height="1035" xlink:href="../../Library/CloudStorage/GoogleDrive-lucas.pretti@okfn.org/.shortcut-targets-by-id/0B79xBlVd-Nf6ZzMzUlZSTWwxV28/Open Knowledge All Team/Brand 2023/Illustrations/L 1500px - web transp/Icons/connect-community.png"  transform="matrix(1 0 0 1 -3164.6372 4237.4756)">
</image>
<image style="overflow:visible;" width="1357" height="681" xlink:href="../../Library/CloudStorage/GoogleDrive-lucas.pretti@okfn.org/.shortcut-targets-by-id/0B79xBlVd-Nf6ZzMzUlZSTWwxV28/Open Knowledge All Team/Brand 2023/Illustrations/L 1500px - web transp/Icons/contact.png"  transform="matrix(1 0 0 1 -3164.6372 4237.4756)">
</image>
<image style="overflow:visible;" width="1059" height="1080" xlink:href="../../Library/CloudStorage/GoogleDrive-lucas.pretti@okfn.org/.shortcut-targets-by-id/0B79xBlVd-Nf6ZzMzUlZSTWwxV28/Open Knowledge All Team/Brand 2023/Illustrations/L 1500px - web transp/Icons/create-open-data.png"  transform="matrix(1 0 0 1 -3164.6372 4237.4756)">
</image>
<image style="overflow:visible;" width="1198" height="998" xlink:href="../../Library/CloudStorage/GoogleDrive-lucas.pretti@okfn.org/.shortcut-targets-by-id/0B79xBlVd-Nf6ZzMzUlZSTWwxV28/Open Knowledge All Team/Brand 2023/Illustrations/L 1500px - web transp/Icons/data.png"  transform="matrix(1 0 0 1 -3164.6372 4237.4756)">
</image>
<image style="overflow:visible;" width="1162" height="1032" xlink:href="../../Library/CloudStorage/GoogleDrive-lucas.pretti@okfn.org/.shortcut-targets-by-id/0B79xBlVd-Nf6ZzMzUlZSTWwxV28/Open Knowledge All Team/Brand 2023/Illustrations/L 1500px - web transp/Icons/funders.png"  transform="matrix(1 0 0 1 -3164.6372 4237.4756)">
</image>
<image style="overflow:visible;" width="1005" height="1001" xlink:href="../../Library/CloudStorage/GoogleDrive-lucas.pretti@okfn.org/.shortcut-targets-by-id/0B79xBlVd-Nf6ZzMzUlZSTWwxV28/Open Knowledge All Team/Brand 2023/Illustrations/L 1500px - web transp/Icons/governance.png"  transform="matrix(1 0 0 1 -3164.6372 4237.4756)">
</image>
<image style="overflow:visible;" width="1255" height="807" xlink:href="../../Library/CloudStorage/GoogleDrive-lucas.pretti@okfn.org/.shortcut-targets-by-id/0B79xBlVd-Nf6ZzMzUlZSTWwxV28/Open Knowledge All Team/Brand 2023/Illustrations/L 1500px - web transp/Icons/impact.png"  transform="matrix(1 0 0 1 -3164.6372 4237.4756)">
</image>
<image style="overflow:visible;" width="1275" height="1127" xlink:href="../../Library/CloudStorage/GoogleDrive-lucas.pretti@okfn.org/.shortcut-targets-by-id/0B79xBlVd-Nf6ZzMzUlZSTWwxV28/Open Knowledge All Team/Brand 2023/Illustrations/L 1500px - web transp/Icons/jobs.png"  transform="matrix(1 0 0 1 -3164.6372 4237.4756)">
</image>
<image style="overflow:visible;" width="1246" height="1065" xlink:href="../../Library/CloudStorage/GoogleDrive-lucas.pretti@okfn.org/.shortcut-targets-by-id/0B79xBlVd-Nf6ZzMzUlZSTWwxV28/Open Knowledge All Team/Brand 2023/Illustrations/L 1500px - web transp/Icons/knowledge.png"  transform="matrix(1 0 0 1 -3164.6372 4237.4756)">
</image>
<image style="overflow:visible;" width="1163" height="1026" xlink:href="../../Library/CloudStorage/GoogleDrive-lucas.pretti@okfn.org/.shortcut-targets-by-id/0B79xBlVd-Nf6ZzMzUlZSTWwxV28/Open Knowledge All Team/Brand 2023/Illustrations/L 1500px - web transp/Icons/mission.png"  transform="matrix(1 0 0 1 -3164.6372 4237.4756)">
</image>
<image style="overflow:visible;" width="943" height="914" xlink:href="../../Library/CloudStorage/GoogleDrive-lucas.pretti@okfn.org/.shortcut-targets-by-id/0B79xBlVd-Nf6ZzMzUlZSTWwxV28/Open Knowledge All Team/Brand 2023/Illustrations/L 1500px - web transp/Icons/policy.png"  transform="matrix(1 0 0 1 -3164.6372 4237.4756)">
</image>
<image style="overflow:visible;" width="1413" height="1197" xlink:href="../../Library/CloudStorage/GoogleDrive-lucas.pretti@okfn.org/.shortcut-targets-by-id/0B79xBlVd-Nf6ZzMzUlZSTWwxV28/Open Knowledge All Team/Brand 2023/Illustrations/L 1500px - web transp/Icons/press.png"  transform="matrix(1 0 0 1 -3164.6372 4237.4756)">
</image>
<g>
	<path d="M203.6,1141c-12.9-12.9-25.8-25.4-38.2-38.2c-16.3-16.9-28.1-37-39.8-57.2c-19.3-33.2-23-68.9-18.6-106.1
		c1.8-15.3,4.1-30.7,10.3-45.1c6.5-14.9,13.4-29.7,23.8-42.5c3.6-4.5,5.6-10.5,9.8-14.1c11.6-10.2,23.9-19.6,36.1-29
		c4.5-3.5,9.3-6.5,14.2-9.4c3.1-1.8,7.1-2.4,9.9-4.5c3.6-2.7,7.4-3.9,11.5-5.3c5.8-2,11.1-5.7,16.6-8.5c4-2,7.9-4.2,12.1-5.5
		c19.1-6.2,38.3-12.4,57.5-18.1c6.8-2,13.9-2.7,21.6-4.2c-0.9-2.4-1.4-4.2-2.2-5.9c-8.7-17.9-17.5-35.7-26.3-53.6
		c-2.8-5.7-5.9-11.2-8.2-17.1c-0.7-1.9,0.9-4.6,1.5-7.4c-0.1-0.1-0.9-0.6-2.1-1.4c3.7-3.5,6.8-7.7,10.9-10c5.6-3.1,12.1-4.6,18-7.1
		c6-2.5,5.5-2.5,3.4-8.8c-2.1-6.2-3.4-12.6-4.6-19.1c-0.2-1.2,1.1-3.5,2.3-4.1c13.4-6.8,26.9-13.6,40.6-19.8
		c9.5-4.4,19.2-8.5,29.1-11.7c9-2.9,19.4,2,24.2,10.1c2.9,5,7.1,9.7,4.6,16.4c4.9-0.3,9.5-0.8,14.1-0.8c7.3-0.1,14.1,1.9,18.6,8
		c3.9,5.4,7.2,11.3,10.2,17.3c6.9,13.6,13.7,27.3,20.2,41.2c4.1,8.7,7.4,17.7,11.4,26.5c6.3,13.6,13,26.9,19.3,40.5
		c4.7,10.1,8.9,20.3,13.5,30.4c0.9,2,3,3.5,4,5.5c6.1,13,11.8,26.2,17.9,39.2c2.5,5.4,5.2,10.8,8.5,15.8c3.1,4.8,2.5,15.6-2,19.4
		c-2.9,2.5-5.8,5-9,7.1c-3.2,2-6.7,3.5-10.4,5.3c2.2,2.8,1.8,7.8,7.5,6.4c0.1,9.6-7.1,13.5-13.4,17.5c-5.7,3.6-12.2,6-18.4,8.8
		c-10.3,4.6-20.7,9.1-31.1,13.4c-4.4,1.8-9.1,3.2-13.8,4.3c-5.1,1.2-9.6,0.3-11.9-5.3c-1-2.3-2.3-4.4-3.4-6.3
		c-9.4,2.4-18.7,5.1-28.1,7c-5.1,1-10.6,0.9-15.8,0.4c-2.3-0.3-5.2-2.5-6.4-4.7c-11.6-21.3-23-42.7-34-64.4
		c-2.3-4.5-4.5-5.7-9.2-4.7c-15.5,3.3-29.9,9.3-43.5,17.4c-8.8,5.3-18.4,9.3-27.2,14.6c-19.3,11.4-36.7,25.1-51.4,42.2
		c-7.9,9.3-12.5,20.3-14.2,31.5c-3.4,22.7-7.2,45.7-0.7,68.5c4.1,14.2,8.5,28.3,14,42c11.8,29,32.3,50.6,59.7,65.4
		c8.4,4.6,16.2,9.7,22.9,16.7c1.8,1.8,4.9,3,7.5,3.2c21.8,1.2,43.5,1.1,65.3,0.1c23.6-1.1,47.2-0.8,70.8-1.1c1.1,0,2.3-0.2,3.7-0.3
		c0-7.4,0-14.6,0-22.3c-2.2-0.2-4.3-0.5-6.4-0.7c-14-1.7-28.1-3.1-42.1-5.1c-9.5-1.4-15-7-15.6-14.8c-0.6-7.4,4.6-16.6,11.4-19.7
		c10-4.5,20.4-7,31.5-6.4c1.3,0.1,2.7-0.2,4,0.1c3.1,0.9,7.6,1.3,8.8,3.5c1.1,2.1-1.5,6-4.4,7.8c-1.6,1-3.7,1.3-5.6,1.8
		c-9.3,2.4-18.6,4.8-27.8,7.3c-1,0.3-1.8,1.5-2.7,2.3c1.1,0.6,2.2,1.4,3.4,1.7c19.1,3.9,38.5,3.9,57.9,3.7
		c12.8-0.2,25.6,1.2,38.5,1.2c24.1,0,48.1-0.2,72.2-0.8c11.1-0.3,22.1-2.1,33.2-2.9c4-0.3,6.2-2.3,8.1-5.4c1.2-2,2.7-3.7,4.8-6.7
		c-4.2-0.8-7.8-2.2-11.4-2.2c-19.8-0.1-39.6,0-59.4,0.2c-13.8,0.2-27.6,1-41.4,0.9c-8.9-0.1-17.9-1.4-26.8-2.3
		c-4.7-0.5-9.7-0.5-13.9-2.3c-3.6-1.5-6.2-5.2-9.2-7.9c0.1-0.5,0.3-1.1,0.4-1.6c7.1-1,14.2-2.5,21.4-2.8c23.1-0.8,46.2-1.1,69.3-1.7
		c12.8-0.3,25.6-1.3,38.4-1.1c11.1,0.2,22.2,0.2,33,3.9c10.3,3.6,17.6,11.3,17.8,22.2c0.1,4.1-3.1,8.4-5.4,12.3
		c-1.9,3.1-4.7,5.6-7.1,8.3c-3.9,4.3-9.3,1.8-13.9,2.7c-2.7,0.5-5.6-0.1-8.4,0.1c-8.1,0.5-16.2,1.2-24.3,1.8
		c0.8,5.9,1.3,11.3,2.3,16.6c0.2,1.2,2,3,3.3,3.1c17.2,2,34.6,2.5,51.5,5.8c28.5,5.4,54.9,15.7,75.9,37.1
		c11.4,11.6,19.6,24.8,22.9,40.9c0.8,4.1,2.8,8,3.8,12.1c0.4,1.6,0.1,3.6-0.7,5c-0.4,0.7-2.8,1-3.9,0.6c-9.3-3.4-18.1-7.3-20.8-18.4
		c-1.5-6.3-3.8-12.3-5.6-18.6c-3.5-12.5-11.8-20.3-23.4-25.6c-15.3-6.9-31.1-11.8-47.7-13.3c-22.1-1.9-44.3-2.6-66.5-3.6
		c-8.7-0.4-17.4-0.2-26.1,0.2c-4.9,0.2-9.8,1.4-14.7,1.6c-15.5,0.7-31.1,1-46.6,1.8c-6.7,0.3-13.3,1.8-20,2.2
		c-5.9,0.4-11.9-0.1-17.8-0.1c-7.5,0-15,0.3-22.6,0.4c-13.8,0.1-27.6,0.1-41.4,0.3c-9.9,0.1-19.8,0.8-29.7,0.5
		c-15.9-0.5-31.8-2-47.7-2.4c-9.4-0.3-18.9,0.9-28.4,1c-22.3,0.1-44.5,0.3-66.7-3c-10.6-1.6-21.6,0.1-31.7,4.4
		c-2.3,1-4.2,3.1-6.2,4.8c-9.3,7.7-18.3,15.7-25.3,25.6c-5.6,8-11.1,16.1-16.6,24.3c-2.8,4.2-7,5.3-12,2.9c-5.1-2.4-7.4-6.7-5-11.2
		c2.9-5.6,6.7-10.6,10-16c1.9-3.2,3.6-6.5,5.4-9.8c3.5-6.2,6.2-13.1,10.9-18.3c6.6-7.5,13.9-15,22.4-20c6.6-3.9,15.4-4,23.2-5.7
		C200.8,1141.2,202.4,1141.1,203.6,1141z M309.7,670.9c0.4,0.6,0.7,1.2,1.1,1.7c7.4,10.6,16.1,20.5,21.9,31.9
		c9.4,18.6,17.1,38.2,25.2,57.4c4.9,11.6,8.6,23.6,13.7,35c7.7,17,16.1,33.7,24.6,50.4c8.5,16.7,17.4,33.2,26,49.9
		c1.5,3,3.6,4.3,6.9,3.3c7.1-2.2,14.6-3.7,21.3-6.9c19.8-9.2,39.1-19.2,58.8-28.5c9.3-4.4,18.9-7.9,29.1-12.1
		c-2.6-5.8-5.1-11.4-7.5-17c0.4-0.3,0.9-0.5,1.3-0.8c1.1,1.4,2.2,2.9,3.7,4.8c-0.4-2.4-0.3-4.4-1.1-5.9c-5.1-11-10.1-22-15.5-32.8
		c-8.2-16.1-17.2-31.7-24.9-48c-8.9-18.6-16.6-37.7-25.2-56.4c-9.6-21-19.5-41.9-29.5-62.7c-1-2.1-3.5-3.9-5.7-5
		c-7-3.5-14.3-1-21.4-0.1c-12.2,1.6-23.7,5.6-35,10.7c-8,3.6-16.3,6.5-24.3,10.1c-8.6,3.8-17,8.1-25.5,12.2
		C321.8,665.3,315.8,668.1,309.7,670.9z M358.8,823.3c-2.7-6.1-5.8-12.2-8.3-18.5c-4.1-10-7.8-20.2-11.8-30.2
		c-0.6-1.4-2.4-3.3-3.4-3.2c-5.7,0.7-11.6,1.3-17,3.3c-8.3,3-16.2,7.4-24.5,10.7c-6.2,2.4-12.8,3.8-19,6
		c-23.3,8.5-46.5,16.9-65.9,33.3c-12.8,10.8-27.1,20-39.2,31.5c-12.6,12-20.5,27.6-27.5,43.6c-0.9,1.9-2,3.8-2.5,5.9
		c-1.5,5.7-3,11.4-4.1,17.2c-1.9,9.6-4.4,19.2-5,28.9c-0.7,12.6,0.4,25.3,0.4,37.9c0.1,20.1,5.8,39,14.1,56.9
		c5.5,11.9,13,23.2,20.7,33.9c14.6,20.3,32,38.1,51.5,53.9c5,4.1,9.5,9,17.6,8.5c14.1-0.8,28.2,0.4,42.4,0.3c7.3,0,14.6-1,23.2-1.6
		c-8.6-6-15.8-11.7-23.6-16.3c-13.9-8.2-25.2-19.5-35.4-31.5c-14.8-17.4-26.7-36.7-33.9-58.9c-10-31.1-15.8-62.1-7.8-94.7
		c4-16.3,9.4-31.9,20.6-44.3c9.4-10.3,20.2-19.5,31.3-27.9c8.6-6.4,18.9-10.6,28.3-16.1c16-9.3,33-16.3,50.7-21.6
		C339.7,827.8,349,825.8,358.8,823.3z M578.7,1118.4c-32.3,0-64.1,0-95.5,0c0.3,6.7,0.6,12.1,0.8,17.6c0.1,3.2,1,5,4.8,4.5
		c3.1-0.5,6.3-0.4,9.4-0.6c25.5-1.4,51.1-2.8,76.6-4.3c1.3-0.1,3.6-1.6,3.7-2.6C578.9,1128.3,578.7,1123.7,578.7,1118.4z M346,637.5
		c18-7.2,35.9-14.3,53.8-21.4c-0.8-1-1.9-2.1-2.7-3.3c-0.9-1.3-1.9-2.7-2.2-4.2c-1.1-4.8-6-7.6-10.4-5.6
		c-12.6,5.5-25.2,11.1-37.8,16.7c-1.8,0.8-3.6,2-4.8,3.4c-0.8,1-1.2,3-0.8,4.1C342.5,630.9,344.5,634.4,346,637.5z M474.9,905.5
		c2.7-1.1,5-2,7.3-3.1c10.3-5,20.4-10.4,30.8-15.2c7.4-3.4,7.6-3,5.5-11.9c-16,7.3-31.8,14.5-47.9,21.9
		C472.2,900.5,473.4,902.7,474.9,905.5z"/>
	<path d="M152.3,1232.5c2.6-7.8,8.8-5,13.8-5.4c18.9-1.5,37.8-3.3,56.7-4.2c16.6-0.8,33.2-0.8,49.7-0.7c21.5,0,43.1,0.5,64.6,0.7
		c33.9,0.4,67.8,0.6,101.7,1.2c25.2,0.5,50.5,1.8,75.7,2.2c14.6,0.2,29.2-0.7,43.8-1.1c13.9-0.3,27.9-0.5,41.8-0.8
		c13.3-0.3,26.6-0.4,39.9-0.8c19.7-0.7,39.4-1.5,59-2.5c6.7-0.3,12.2,1.5,15.5,7.6c3.3,6-0.2,11.6-7.1,11.8
		c-24.1,0.4-48.2,0.7-72.3,1.2c-20.1,0.4-40.2,0.8-60.4,1.2c-15.2,0.3-30.5,0.6-45.7,0.8c-10.3,0.1-20.5,0.2-30.8,0
		c-11.7-0.2-23.3-1-34.9-1.3c-21.1-0.5-42.3-0.6-63.4-1.1c-28.4-0.7-56.8-1.7-85.2-2.3c-15.6-0.3-31.3,0.3-47-0.2
		c-28.5-0.9-56.8,1.3-85.2,3.9c-4.6,0.4-9.3-0.1-13.9,0.2C160.4,1243.3,155.7,1238.6,152.3,1232.5z"/>
	<path d="M559,971.6c0.7,5.8,1.2,10.2,1.7,14.1c10.1,4.9,20.2,9.7,30.3,14.6c2.8,1.4,5.1,1.7,8.1-0.6c2.3-1.7,6.3-2.2,9.3-1.9
		c6.3,0.7,12.4,7.7,13.5,14.4c1.2,7.3-2.6,16.3-8.3,19.4c-6.4,3.5-15.5,0.7-18.7-5.8c-0.6-1.2-1.6-2.3-1.6-3.5
		c-0.1-7.4-5.7-8.6-11-10.5c-3.4-1.2-6.7-2.9-10-4.6c-3.1-1.6-6.3-3.2-9.1-5.2c-2.6-1.9-4.8-4.4-6.9-6.4c-4.9,2.9-9.7,5.8-14.9,8.9
		c6.9,5.2,4.2,13.3,6.1,20.1c0.7,2.5,1.4,5.3,2.9,7.4c6.3,8.4,2.5,21.5-7.4,24.6c-6.9,2.2-13.6-1-17.4-8.3
		c-4.1-7.8-2.3-15.2,4.5-20.5c1-0.8,2-2.5,1.9-3.7c-0.6-5.6-1.6-11.2-2.4-16.8c-5-1.8-10.3-3.7-14.9-5.3c-6.6,4-13.2,8.3-20,12
		c-2.5,1.4-5.7,1.8-8.6,1.9c-0.9,0-1.9-2.4-3.2-4.2c0.4-0.2-0.5,0.2-1.8,0.8c2.4-6.2,7.8-8.3,12.4-11.1c4.7-2.8,9.7-5.1,14.5-7.6
		c-1.5-5.7-2.9-11.3-4.4-17.3c-7.6,5-15.6,3.8-23.9,2.1c-8-1.6-16.1-2.1-24.1-3.5c-4.1-0.7-9.5-0.2-9.2-7.8
		c-1.7,1.2-2.8,1.8-3.5,2.7c-1,1.3-1.6,2.9-2.7,4.2c-6.6,8.3-11.2,10.7-20.6,3.2c-3.1-2.5-6-4.5-6.9-9c-1.2-5.8,1.6-9.5,5.2-12.5
		c5-4.1,10.8-7,17.8-5c7.7,2.2,8.7,8.3,8.7,15.1c0.8,0.1,1.7,0.5,2,0.2c7.1-6.4,15.6-3.5,23.4-3.1c9.1,0.5,18.1,2.1,27,4
		c2.5,0.6,4.5,3.9,6.7,6c0.6,0.6,1.2,1.2,2.4,2.5c-0.5-9.6,7.3-17.2,16.3-20.7c9.3-3.6,16.7,0.3,23.9,5c3.7,2.4,6,1.9,9.1-0.7
		c8.6-7.3,18-13.3,29-16.8c6.5-2.1,11.2-6.6,13.3-13.5c1.6-5.1,4.7-8.5,10.2-9.7c9-2,18.2,1.7,22.2,9.4c3.1,5.9,0.3,15.5-6,21
		c-6.9,6-11.4,6.3-19.4,1.7c-1.4-0.8-3.9-1-5.3-0.3C585.4,957.8,571.9,964.9,559,971.6z M543,979c0.1-4-7.6-12.2-11.6-12.2
		c-4-0.1-13.4,8.7-13.4,12.6c-0.1,5.4,5.9,10.9,12,11.1C534.2,990.6,542.9,982.9,543,979z"/>
	<path d="M1196.3,540.4c1.3,5.3,2.5,10.1,3.7,14.9c1.5,5.8-0.9,10.3-5.4,13.2c-5.5,3.5-11.6,6.3-17.8,9.6c-0.5-2.7-0.4-4.8-1.2-6.4
		c-2.4-4.6-3-8.3,3.2-10.3c0.8-0.2,1.4-2.1,1.4-3.2c0-2.3-0.4-4.6-0.6-6.9c-0.8-6.3-1.8-7.1-8.4-6.9c-2.5-5.1,2.1-10.6,7.5-13.2
		c4.9-2.4,10.1-4.1,15.3-6.1c0-0.7,0.1-1.3,0-1.7c-6.8-15.9-13.6-31.9-20.5-47.8c-1.5-3.5-0.4-5.7,2.3-8.2
		c5.7-5.3,10.9-4.9,14.6,2.1c4.9,9.2,9.9,18.4,14,28c2.5,5.6,3.3,11.9,5.1,17.8c0.7,2.3,1.9,4.4,3.2,6.4c2.5,3.7,0.5,9.4-4.9,12.6
		C1203.9,536.6,1200,538.5,1196.3,540.4z"/>
	<path d="M1013.8,506.8c0.4-0.3,1.2-0.8,2.2-1.5c-0.6-0.4-1-0.7-1.1-0.7c-16.4,6.1-32.9,12.2-49.2,18.5c-5.6,2.1-12-0.7-13.2-6.3
		c-0.2-1.1,0.3-2.7,1.1-3.5c3.8-4.1,7.5-7.9,13.6-9.2c6.6-1.3,12.8-4.3,19.2-6.1c6.8-1.9,13.8-3.1,20.6-4.9c2-0.5,4.5-0.9,3.6-4.6
		c-0.8-3.6,0.5-6.9,4.6-8.3c3.9-1.3,6.4,0.6,8.5,3.4c5.6,7.2,9.8,14.9,12.1,24.1c2.4,9.6,8.4,18.3,12.7,27.4
		c3.4,7.3,1.2,12.1-6.6,14.4c-4.6,1.4-8.5,0-10.8-4.3c-3.3-6.2-8-12.4-8.9-19c-0.7-4.8-2-8.5-4.2-12.4
		C1016.6,511.5,1015.2,509.2,1013.8,506.8z"/>
	<path d="M1060.5,288.7c1.4-0.8,2.1-1.3,2.3-1.4c-2.8-4.4-5.7-8.7-8.5-13.1c-1.8-2.9-3-5.7-7.4-6.5c-2.6-0.5-4.8-4.2-6.9-6.7
		c-0.3-0.4,0.4-2.4,1.2-2.8c1.8-1,3.8-1.6,5.8-2c0.5-0.1,1.3,1.3,1.9,1.3c10.7,0.2,15,8.5,19.8,16c1.8,2.8,3.2,3.7,6.8,1.9
		c7.8-3.9,16-0.4,20.9,7.8c3.2,5.3,6.8,10.3,10,15.6c0.8,1.3,1.1,3,1.5,4.6c2.4,11.5,9.5,21,13.9,31.6c1.6,3.8,2.7,6.9,0.1,11.2
		c-6,10.2-8.8,7.9-14.1-0.6c-5.2-8.2-9.7-16.8-13.7-25.7c-3.9-8.5-10-15.9-15.2-23.8c-0.5-0.8-1.3-1.7-2.2-2
		C1071.4,292.3,1066.2,290.7,1060.5,288.7z"/>
	<path d="M1260.2,788.3c0.7,5.9,1.3,10.5,1.7,15.1c0.2,3.1,1.5,4.3,4.7,4.4c8.3,0.1,16.6,0.5,24.9,0.9c6.1,0.3,12.5,0.2,16.4,6.3
		c2.5,3.9,3.8,7.9,1.1,11.7c-5.4,0.5-10.3,1-15.2,1.5c-1.2,0.1-2.4,0.3-3.5,0c-13.1-4.3-26.7-4.8-40.3-4.6c-3.3,0.1-6.9-1.1-9.9-2.7
		c-3.5-1.9-3.3-3.1-1.4-7.1c0.3-0.7-0.7-2-1.4-3.9c3.4-1,6.8-2,10.4-3c0-4.5,0.2-9.6-0.2-14.6c-0.1-1-2.7-2.3-4.2-2.5
		c-5.1-0.5-9.4-6.1-7.3-10.7c0.8-1.6,3.2-3.3,5.1-3.5c8.6-0.7,17.2-1.3,25.8-1.2c3.6,0,7.2,1.8,10.7,3c0.7,0.2,1.8,1.6,1.6,2.1
		c-1.1,3.3-2,6.9-4,9.7c-0.9,1.2-4.1,1.3-6.1,1.2C1266.4,790.1,1263.6,789.1,1260.2,788.3z"/>
	<path d="M1118.6,592.4c5.7-3.2,11-6.4,16.6-9.1c1.4-0.7,4.3-0.4,5.2,0.6c2,2.1,3.3,4.9,4.5,7.6c0.3,0.8-0.5,2.8-1.3,3.1
		c-6.4,2.6-12.8,5-19.3,7.3c-0.9,0.3-2.7,0-3.1-0.7c-2.7-4.6-6.6-2.6-10.2-2.1c-7.3,1-10.7-2.1-10.4-9.5c0.3-8.5-1.4-9.7-9.7-9
		c-5.6,0.4-10.8,1.2-16.2,3c-8.2,2.8-19.9-5.2-22.7-14.8c-0.7-2.3-1.7-5.2-0.9-7.1c1-2.3,3.7-5.5,5.7-5.4c2.8,0.1,5.6,2.5,8.3,4.2
		c5.4,3.5,10.6,7.2,16.1,10.6c0.7,0.4,2.3-0.7,3.5-1.2c4.8-1.8,9.4-4.4,14.3-5.1c2.5-0.4,5.6,2.5,8.2,4.3c0.5,0.4-0.5,2.8-0.6,3.3
		c3.4,3,7.4,5.1,9.3,8.4C1117.7,584,1121,587.7,1118.6,592.4z"/>
	<path d="M1196.3,642.6c0-0.8,0-1.7,0-3.4c4.5,3.8,10.5,5.4,9.5,12.6c0,0.3,0.1,0.7,0.3,0.9c6.5,7.1,2.3,14.7,1,22.2
		c-0.4,1.9-1.6,4.4-3.2,5.3c-8.7,5.3-18.2,8.6-28.1,4.2c-7.8-3.4-14.3-11.6-14-23.2c0.3-12.6,8.3-18.8,17.3-24.1
		c3.7-2.2,9.5-1.8,13.3,2.4c1,1.1,1.8,2.4,2.7,3.6C1195.4,643,1195.9,642.8,1196.3,642.6z M1196.5,662.6c0.1-5.3-5.8-12.4-10.4-12.5
		c-5.2-0.1-13,8-13.2,13.6c-0.2,4.7,3.7,8.6,8.5,8.6C1190.4,672.2,1196.3,668.4,1196.5,662.6z"/>
	<path d="M1078.5,772.1c6.4-0.4,11.6-1,16.7-1.1c11.2-0.2,22.5-0.2,33.7-0.2c6.1,0,11.2,9.1,7.3,13.8c-1.5,1.8-5.5,2.3-8.3,2
		c-3.1-0.3-4.1,0.7-5.1,3.2c-1.7,4-3.6,7.8-5.5,11.7c-2.4-0.2-4.9-0.5-7.9-0.8c0,5.1,0,9.8,0,14.6c0,0.5,0,1-0.1,1.4
		c-1.5,4.3-5.3,5-9,5.6c-3.6,0.6-7.5,1.5-9.1-3c-0.7-2-0.1-4.5-0.1-7.2c8.6-0.2,12-6.7,14.6-12.5c0-5.3,0-9.7,0-14.7
		C1095.3,785.3,1082.4,789.7,1078.5,772.1z"/>
	<path d="M1176.2,770c15.3,0,27.9-0.1,40.5,0.1c2,0,5.3,1.4,5.7,2.8c0.9,3.7-0.3,7.4-3.7,10c-5.5,4.1-11.9,4.7-18.4,4.1
		c-11.2-1-22.5-2.6-33.7,0.2c-1.2,0.3-2.9,0.4-3.9-0.1c-2.9-1.6-6.9-3.1-7.9-5.6c-1.5-3.5,2.4-6.6,5.4-7.6
		C1166.1,771.8,1172.5,770.8,1176.2,770z"/>
	<path d="M1132.6,378c9.5,0.8,14.9,6.5,18.9,14.7c4.1,8.6,8.8,17,13.6,25.3c2.9,5.1-0.3,8.4-3.1,11.7c-3.4,4.2-8.1,2.2-11.8,1
		c-2-0.7-3.2-4.4-4.4-6.9c-4.8-10.5-9.5-21.1-14.2-31.7C1129.4,387.3,1129.8,381.5,1132.6,378z"/>
	<path d="M888.8,566.7c1.3-12,8.5-18.7,17.8-24c3-1.8,5.5-4.7,7.8-7.5c5.2-6.2,15.1-9.3,22.4-6.3c1.1,0.5,2.5,2.4,2.3,3.3
		c-0.7,3.4-1.1,7.8-3.4,9.7c-8.3,7.1-17.3,13.2-26,19.8c-2,1.5-3.8,3.3-5.3,5.3c-5.6,7.4-8,7.5-14.4,0.7
		C889.6,567.2,889,566.9,888.8,566.7z"/>
	<path d="M885.9,828.5c-5.9,0.6-12,1.8-18.2,1.7c-4.4,0-8.7-1.8-8.6-7.7c0-0.5-0.2-1-0.4-1.4c-0.1-0.2-0.5-0.3-1.3-0.7
		c-0.2,1-0.4,1.9-1,4.3c-3.3-2.7-6.5-4.6-8.6-7.3c-5.9-7.6-11.5-15.5-16.9-23.5c-2.7-3.9-1.1-8.4,2.9-10.9c0.6-0.4,0.6-1.7,1.2-3.6
		c2.1,1.7,4.1,3,5.6,4.7c5.5,6.5,11.1,12.9,16.1,19.7c2.2,3,3.9,7,4.4,10.7c0.4,3.4,0.7,4,4,2.7c5.4-2,10.9-3.1,16.7,0
		C886,819.6,886.7,822.8,885.9,828.5z"/>
	<path d="M955.3,793c7.8,3.1,15.5,5.5,22.3,9.4c2.7,1.6,3.8,6.4,5,10c0.2,0.6-2.8,2.9-4.6,3.2c-3.6,0.6-6.3,1.1-6.2,5.7
		c0,1-2.4,2.8-3.8,2.8c-7.8,0.4-15.6,0.5-23.4,0.4c-4.7-0.1-9.4-0.9-14.6-1.5c0.9-2.8,1.4-4.4,2-6.3c-0.7-0.2-1.5-0.4-2.8-0.7
		c9.5-7.4,21-3,32.4-6.3C954.4,806.3,954,800.7,955.3,793z"/>
	<path d="M868.1,674c9,7.4,11,18.8,15.5,28.7c3.3,7.2,5.8,14.8,8.7,22.2c0.6,1.5,1.1,3.1,1.3,4.6c0.3,2.1,1.7,4.4-1.8,5.7
		c-3,1.1-5.1,1.5-8.1-0.4c-9.8-6.4-11.1-17.3-14.9-26.8c-2-4.9-3-10.2-4.4-15.3C862.3,685.9,862.8,679.5,868.1,674z"/>
	<path d="M870.3,643.7c-1.1,0.2-2.4,0.4-3.7,0.8c-5.3,1.5-10.6-1.7-10.7-7.2c-0.1-5.4,0.1-11.1,1.7-16.1c2.4-7.6,6-14.7,9.2-22
		c1-2.3,8.1-4.2,10.6-3.2c2.1,0.9,5,7.9,4.2,10.4c-3,8.6-6.2,17.1-9,25.8C871.6,635.7,871.2,639.5,870.3,643.7z"/>
	<path d="M785.6,646.7c-0.6,5.7-1.1,10.3-1.5,15c-0.6,7-0.5,13.9,2.4,20.6c1.2,2.8,1.3,6.2,1.4,9.3c0,1.3-1,3.2-2.1,3.8
		c-1.1,0.6-3.2,0.2-4.3-0.5c-8.3-5.3-11.5-13.7-12-22.8c-0.5-9.4,0.2-18.9,0.9-28.4c0.5-6.7,3.9-7.7,9.6-3.9
		C783,641.8,787.1,642.7,785.6,646.7z"/>
	<path d="M1126.3,820.4c2.4-0.6,4.7-1.5,7.1-1.6c23.3-1.2,46.6-2.2,69.8-3.2c1.6-0.1,3.7-0.2,4.9,0.6c1.6,1.2,3.1,3.2,3.4,5.1
		c0.1,0.9-2.5,3-4.1,3.2c-5.4,0.6-10.9,0.5-16.3,0.8c-11.9,0.6-23.9,1.7-35.8,1.9c-7.7,0.1-15.4-0.7-23.1-1.6
		c-2.2-0.3-4.2-2.4-6.3-3.6C1126,821.4,1126.2,820.9,1126.3,820.4z"/>
	<path d="M961.5,387.8c1.7,0,3.2,0.4,3.6-0.1c4.8-6.9,11.8-6.8,16.1,0.7c4.6,8.1,9,16.3,12.7,24.8c0.9,2.2-0.4,6.8-2.3,8.4
		c-2.1,1.9-5,4.3-9.3,2.2c-11.2-5.4-12.9-16.6-16.6-26.4c-0.9-2.3,0-5.2-3.2-6.4C961.8,391,961.9,389.2,961.5,387.8z"/>
	<path d="M916.4,460.8C933.7,446,956,448,976,442.5c0.4,0.6,0.7,1.2,1.1,1.7c-2.7,3.3-5.1,7.1-8.3,9.7c-3.2,2.5-7.2,3.9-11.1,5.3
		c-8.2,3.1-16.7,5.5-24.6,9.1C922.4,473.1,920.3,472.6,916.4,460.8z"/>
	<path d="M857.1,509c-5.5-10.5-5-15.2,3.8-21c7.6-5,15.9-8.9,24.2-12.6c3.2-1.5,7.1-2.3,10.6,1c4.5,4.1,4.4,9.7-1.1,12.6
		c-7.8,4.1-15.8,7.8-23.7,11.7c-1.3,0.7-2.5,1.6-3.8,2.4C863.8,505,860.5,507,857.1,509z"/>
	<path d="M794.2,572.5c0.1-4.9-5.3-6.2-3.4-10.7c0.8-2,0.3-4.7,1.3-6.4c6.8-11.1,15.1-21.1,26.1-28.3c2.4-1.5,6.9-2.5,8.9-1.3
		c3.1,2,2.9,6.5,1.2,9.9c-1.2,2.4-3.2,4.6-5.2,6.4c-8.5,7.5-16.3,15.5-21.6,25.8C800.5,569.9,797.3,570.6,794.2,572.5z"/>
	<path d="M1368.6,835.3c0.9,0.2,1.8,0.3,3.1,0.6c-0.1-1-0.2-1.8-0.5-4.1c4.8,4.2,9.9,7.1,12.4,11.4c4.4,7.7,7.8,16.1,10.4,24.6
		c1.2,4.1-0.1,9-0.9,13.5c-0.3,1.7-2.6,4.5-3.5,4.3c-2.8-0.5-5.8-1.8-8-3.6c-1.3-1.1-1.9-3.9-1.8-5.9c0.1-8.6-3.1-16-7-23.5
		c-2.7-5-4-10.8-5.9-16.2C1367.4,836,1368,835.6,1368.6,835.3z"/>
	<path d="M960.7,324c5.4-3.3,10.3-6.3,15.1-9.3c-3-7.1-8.6-14-3.1-24.3c3.6,3.6,6.6,6,8.7,9c2.1,3.1,3.4,6.8,4.4,9
		c4.9,0.5,8.9,0.4,12.6,1.5c4.1,1.2,4.6,3.9,1.4,6.9c-2.5,2.4-5.5,4.4-8.5,6c-5.3,2.7-10.8,5.2-16.4,7.2
		C968,332.5,966.4,331.7,960.7,324z"/>
	<path d="M968.1,902.2c-7.5,1.4-14.4,2.3-21.1,4c-10.4,2.6-19-2.1-21.9-12.3c-0.4-1.4-1.4-2.6-2.5-4.5c6-0.5,11.6-1.3,17.3-1.4
		c7.3-0.2,14.6-0.1,21.8,0.4c6.4,0.5,9.1,5,7.4,11.2C968.7,900.7,968.2,901.9,968.1,902.2z"/>
	<path d="M894.8,902.4c-10.7,0-21.6,0.2-32.6-0.1c-3.1-0.1-6.6-0.6-9-2.3c-2.5-1.7-5.3-5.1-5.2-7.5c0.2-2.2,4-5.9,6.4-6
		c10.6-0.6,21.3-0.8,31.9,0.1C893.6,887.2,896.5,893.1,894.8,902.4z"/>
	<path d="M1057,890c3.4,8.7-2.7,15-10.9,15.1c-7.7,0.1-15.5,0.8-23.2,0c-2.7-0.3-5.7-3.7-7.4-6.4c-1-1.6,0.4-4.7,0.8-7.5
		c0.2,0-0.6-0.1-1.4-0.2c0-0.4,0-0.7,0-1.1C1028.9,890,1043,890,1057,890z"/>
	<path d="M467.1,1006.3c5.8,0.1,14.7,5.5,14.2,15.8c-0.3,5.5-7.4,13.3-12.8,13.4c-5.6,0.1-16.6-8.3-16.4-12.6
		C452.5,1014.6,460,1006.3,467.1,1006.3z"/>
	<path d="M816.9,756.7c0.4,3-0.1,4.7-3.4,5.7c-3.4,1-6.5,2.2-8.6-1.8c-4.6-8.8-9.5-17.5-13.2-26.7c-1.2-2.9,0.7-7.3,2.1-10.7
		c0.3-0.7,4.6-0.7,6.4,0.2c1.8,1,3,3.4,4.1,5.5c3.7,7,7.4,14.1,10.9,21.2C816,752.2,816.3,754.5,816.9,756.7z"/>
	<path d="M1089.9,738.3c8.1,0.5,16.2,0.9,24.3,1.6c4.6,0.4,6.4,3.3,5.9,7.9c-0.6,5.1-2.8,7-7.1,7.8c-9.5,1.9-18.1-1.7-26.7-4.1
		c-2.6-0.7-4.9-4.4-6.1-7.3C1079.3,742.1,1086.3,737.6,1089.9,738.3z"/>
	<path d="M776.6,621.3c-1.3-10.3-1-20.2,3.4-29.7c1.7-3.6,3.6-7.4,8-7.1c4.9,0.4,7,4.7,6.9,9c-0.2,5.7-1.4,11.3-2.4,17
		c-0.3,2-1.4,4-1.7,6c-0.9,5.7-6.1,8.2-11.1,5.3C778.8,621.4,777.6,621.4,776.6,621.3z"/>
	<path d="M1053.5,289.4c-3.8,3.1-7.2,6.6-11.3,9c-5.7,3.3-12.1,5.6-18,8.6c-5.4,2.8-10.3,1.1-15-1.3c-0.7-0.3-0.6-4.1,0.3-5.1
		c2.1-2.2,4.9-3.7,7.6-5.2c5.4-2.9,10.9-5.6,16.4-8.4C1040.2,283.8,1046.6,282.3,1053.5,289.4z"/>
	<path d="M1161.8,544.1c-0.2,6.4-3.6,10-9.5,12.2c-6.6,2.5-12.9,6-19.7,8c-6.3,1.8-10.8,0.5-11.8-5c-0.2-1.2,0-2.9,0.8-3.6
		c1.6-1.6,3.6-3,5.6-3.9c7.6-3.1,15.5-5.8,23-9.1C1154.6,540.7,1158.2,541.6,1161.8,544.1z"/>
	<path d="M1338.4,817.2c6.8,1.6,13.6,2.8,20.3,4.8c4.7,1.4,7,9.1,4.5,13.2c-0.5,0.8-1.4,1.7-2.1,1.9c-3.4,0.4-7.1,1.6-10.3,0.7
		c-5.8-1.6-11.6-4-16.8-7.1c-2.1-1.3-4.3-5.8-3.6-7.7C1331.5,820.3,1333.7,816.2,1338.4,817.2z"/>
	<path d="M942.7,343.8c1.5-0.4,2.7-0.4,3-0.9c3.9-6,9.4-7.2,13.2-1.9c4.5,6.4,10.9,12.7,8.4,21.7c-0.7,2.4-3.7,4.5-6.1,5.8
		c-1.3,0.7-3.9-0.2-5.5-1.1c-3.5-2-5.2-5.3-6.4-9.2C947.8,353.3,945.1,348.9,942.7,343.8z"/>
	<path d="M926.5,780.4c-3.2-2.1-6.6-3.8-9.4-6.3c-4.4-4-8.4-8.5-12.6-12.8c-1-1.1-2.4-2.3-2.6-3.6c-0.3-2.4-0.9-6.1,0.3-7.2
		c3-2.6,7.2-2.9,10.5,0.1c5.7,5.3,11.2,10.9,16.6,16.6c1.4,1.5,2.2,3.7,2.9,5.7C933.8,777.7,932.2,779.7,926.5,780.4z"/>
	<path d="M990.9,810.5c12-3,23.2-5.1,34.7-1.3c3.6,1.2,5.9,8.4,3.7,11.6c-0.6,0.9-2.2,1.4-3.3,1.5c-6.5,0.3-12.9,0.6-19.4,0.6
		c-5.9,0-10.7-3.8-12.5-9.2C993.7,812.7,992.5,812,990.9,810.5z"/>
	<path d="M1095.9,895.7c2.1-1.3,3.7-2.4,5.8-3.7c-1.7,0-2.9,0-4.2,0c-0.9-2,8.5-3.1,17.7-2.6c6.1,0.4,12.3,0.1,18.9,0.1
		c-0.6,2.9-0.9,5.3-1.7,7.5c-2.3,6.8-8.4,7.7-14,7.6c-5.9-0.1-12.3,2-17.6-2.9c-1.8-1.6-4.5-2.3-2.4-5.4
		C1097.7,896.2,1097.1,896,1095.9,895.7z"/>
	<path d="M1159,757.4c-1.6-0.6-5.1-0.9-7.2-2.7c-2-1.7-4.1-5.9-3.3-7.5c1.4-2.8,5-5.9,7.9-6.1c7.4-0.7,14.9,0,22.3,0.3
		c0.7,0,1.5,0.5,2,1.1c2.9,2.9,0.8,5.9-0.2,8.6c-0.7,1.9-2.6,4.3-4.3,4.6C1171.2,756.7,1165.8,756.8,1159,757.4z"/>
	<path d="M1046.8,815.1c1.5-0.7,2.6-1.1,4.5-2c-2-0.4-3.2-0.6-4.2-0.8c9.8-3.7,19.9-5.1,30.4-2.3c5.3,1.4,7.5,7.6,3.9,11.7
		c-0.5,0.5-1.1,1.2-1.7,1.3c-4.3,0.9-8.7,1.8-13,2.5c-6.9,1.1-14.4-2.7-17.6-8.7C1048.8,816.2,1047.8,815.8,1046.8,815.1z"/>
	<path d="M653.2,1023.8c1-1.6,2-3.3,3.1-4.8c1.2-1.5,2.6-3.1,4.1-4.3c2.8-2.2,6.1-6.1,9.4-3.5c3,2.3,5.5,6.8,5.9,10.6
		c0.7,6.8-3.3,12.3-8.3,16.7c-2.8,2.4-11.3-1-12.4-6c-0.6-2.7-0.7-5.5-1-8.2C653.7,1024.1,653.5,1024,653.2,1023.8z"/>
	<path d="M1213,745.1c-0.5-1.2-0.9-2-1.5-3.4c7.8-0.4,15.1-1,22.3-1.2c1.3,0,3.3,1.3,3.9,2.5c2.9,6.6-0.7,12.5-7.8,13.5
		c-3.4,0.5-6.9,0.7-10.4,1.1c-4.4,0.5-7.2-1.8-9.5-5.1C1207.4,748.5,1208.1,746.5,1213,745.1z"/>
	<path d="M611.6,876.7c-1,5.3-3.6,8.5-7.6,9.5c-4.2,1.1-8.6,2.5-12.2-2.8c-3.2-4.7-2.1-9.5-2.1-14.1c0-1.8,5.2-4.3,8.3-4.9
		c2.1-0.4,5.2-3.4,7.3,0.4C607.5,868.7,609.5,872.8,611.6,876.7z"/>
	<path d="M1000,435.7c2.8,2.5,5.5,3.9,6.9,6.2c2,3.3,3.7,7.2,4.4,11c0.3,1.6-1.7,4.2-3.3,5.5c-7.2,5.8-12.9,3.9-15.7-4.8
		c-0.4-1.3-0.9-2.5-1.2-3.8c-0.6-2.5-2.3-6.3-1.3-7.5C992.2,439.6,996,438.1,1000,435.7z"/>
	<path d="M797.2,870.5c-0.3,0.2-0.9,0.8-2.1,1.8c-0.1-1.1-0.3-1.6-0.1-1.9c3.1-5.6,5.7-11.7,9.7-16.7c3.9-5,7.2-4.9,12.2-1.1
		c2.3,1.8,3,4.1,1,6.9c-2.3,3.2-3.9,7.1-6.6,9.9c-2.4,2.5-5.7,4.4-9,5.6C801.4,875.3,799.2,872.3,797.2,870.5z"/>
	<path d="M1065.2,752.6c1.3,6.7,2.9,13.6,3.9,20.6c0.3,2.1,0.1,4.8-3.2,5.9c-4.2,1.4-7.3-0.8-9-3.4c-4.3-6.4-7.6-13.4-1.9-20.7
		c1-1.3,3.5-1.5,5.3-1.9C1061.5,752.6,1062.7,752.7,1065.2,752.6z"/>
	<path d="M825.4,901.3c-5.1-0.3-10.9-0.3-16.6-1.1c-4.1-0.6-7.3-3.2-7.4-8c-0.1-6.4,6.1-9.7,13.1-7.1c1.4,0.5,2.8,1,4.2,1.2
		c5.3,0.7,8.1,4.8,7.1,10C825.6,897.6,825.6,899,825.4,901.3z"/>
	<path d="M1182.1,891.8c7.8-0.5,15.7-0.9,23.6-1.4c2.4,5.7,1.1,13.6-3.5,15.4c-3.1,1.2-7.3,0.9-10.7,0c-3.1-0.8-6.5-2.7-8.5-5.2
		C1181.5,899,1182.3,895.5,1182.1,891.8z"/>
	<path d="M1275.7,757.9c-3-1.2-7.4-2.4-11.2-4.5c-4.8-2.6-3.7-4.2-2.1-9.4c1.3-4.3,3.9-3.3,5.9-3.3c5.9-0.2,11.6,0.9,15.9,5.5
		c4.6,5,3,9.7-3.7,11.2C1279.3,757.7,1278.2,757.6,1275.7,757.9z"/>
	<path d="M1352.1,891.1c2.3-0.7,3.6-1.2,5.1-1.6c-0.5-1-0.9-1.8-1.9-3.7c8.2-0.3,15.7-1.1,23.1-0.7c4.5,0.2,3.8,5.2,4.1,8.2
		c0.3,2.6-1.1,5.8-4.9,5.4c-6.1-0.6-12.2-1.1-18.2-2.4C1357,895.7,1354.9,893.2,1352.1,891.1z"/>
	<path d="M1253.9,613c-3.7,10.5-11.9,14.8-18.8,20.4c-3.4,2.8-6.4,6.5-11.5,5.5c-1.4-0.3-2.8-1.1-4.2-1.6c0.7-1.6,0.9-3.6,2-4.6
		c6.9-5.8,13.8-11.6,21.2-16.7C1245.4,614.1,1249.6,614.1,1253.9,613z"/>
	<path d="M1155.8,490c0,0.3-0.1,0.7-0.1,1c-0.4,2.9-11.3,10.2-15.8,9c-3.3-0.8-6-4.6-8.6-7.4c-0.4-0.4,1-3.5,2.2-4.2
		c4.2-2.3,8.5-4.4,13.1-5.9C1152.5,480.8,1156,483.7,1155.8,490z"/>
	<path d="M1072.2,509.4c1.9,1.6,4.5,2.8,4.5,3.9c-0.1,3.3,2.7,7.4-1.5,9.9c-3.7,2.2-7.5,4.2-11.5,5.8c-2.7,1.1-7.7-2.6-9.4-6.7
		c-1.4-3.2,0.5-4.9,3.2-6.2C1062.3,513.9,1067,511.7,1072.2,509.4z"/>
	<path d="M1140.4,658.9c-7-0.3-13.3-0.4-19.4-1.1c-2.1-0.3-3.9-2.3-5.8-3.6c1.9-1.5,3.8-4.3,5.8-4.4c8.6-0.3,17.3,0,25.9,0.4
		c1,0,2.8,2.1,2.8,3.2c-0.1,1.5-1.2,3.6-2.5,4.2C1145,658.5,1142.2,658.6,1140.4,658.9z"/>
	<path d="M1254.6,895.7c1.9-0.7,3.6-1.4,5.2-2c0-0.3,0-0.6,0-0.9c-2.2-0.2-4.5-0.4-6.7-0.6c0-0.5-0.1-1-0.1-1.6
		c9.5-0.7,18.9-1.3,28.4-2c0.1,0.3,0.2,0.6,0.3,0.9c-0.9,0.8-1.9,1.5-2.8,2.3c0.4,0.1,0.8,0.2,1.2,0.3c-0.4,1.5-0.4,3.3-1.2,4.5
		c-5.2,7.8-10.2,9.9-16.2,6.3C1259.7,901.2,1257.3,898.2,1254.6,895.7z"/>
	<path d="M819.5,837.1c6-4.3,11.9-8.5,17.8-12.7c6.5,5.9,7.9,12.5,3.1,16.3c-2.8,2.3-7.3,3.8-10.9,3.6c-3.3-0.2-6.5-3.2-9.7-5
		C819.7,838.6,819.6,837.9,819.5,837.1z"/>
	<path d="M1115.2,495.1c0.5,1,1.9,2.3,1.9,3.6c-0.2,4.6-1.7,8.8-6,11.2c-1.9,1.1-3.8,2-5.8,2.9c-4.5,2.3-6.8,1.6-9.2-2.8
		c-3.4-6.2-2.9-7.6,3.7-10.4c3.8-1.6,7.8-2.7,11.8-4C1112.3,495.4,1113.2,495.4,1115.2,495.1z"/>
	<path d="M991.7,278c7,7.2,5.6,12.6,1.7,15.7c-5.9,4.8-10.3,3.4-16.9-5.6c0.7-0.8,1.5-1.7,2.6-2.8c-1.1-0.4-2-0.8-3.3-1.3
		C981.2,282,986.3,280.1,991.7,278z"/>
	<path d="M1298,781.7c-0.7,0-0.9,0.1-1,0c-9.7-2.3-13.3-9.6-9-18.8c1.9-4.2,7-4.9,9.5-1C1301.5,768.3,1301.8,774.8,1298,781.7z"/>
	<path d="M1231.1,672.4c4.9,3.1,10.2,5.9,14.9,9.6c1.2,0.9,0.4,4.4,0.5,6.8c-2.1,0-4.4,0.6-6.3,0c-3.4-1.1-6.6-2.8-9.8-4.4
		c-1.2-0.6-2.6-1.2-3.1-2.3c-1.1-2-2.2-4.4-2.1-6.5C1225.3,674.6,1228.3,673.9,1231.1,672.4z"/>
	<path d="M647.7,956.3c4.3-2,8.8-5.7,13-5.3c3.6,0.3,6,5.6,4.9,10.5c-0.8,3.8-5,7.2-10,6.8c-5.9-0.5-4.3-7.3-7.9-9.9
		C647.6,957.7,647.6,957,647.7,956.3z"/>
	<path d="M386.7,1014.4c0-3.1,3.7-5.9,7.6-5.9c3.6,0.1,8,6.4,7.8,11.3c-0.2,4.4-3.4,7.4-7.7,7.4
		C390.6,1027.1,386.6,1020.4,386.7,1014.4z"/>
	<path d="M1156.2,588.6c-2.1-4.3-4.5-7.9-5.4-12c-0.5-2,8.5-7.8,10.2-6.8c2.6,1.6,6.3,4,6.6,6.4
		C1168.1,582.8,1162.3,585,1156.2,588.6z"/>
	<path d="M1333.5,891.3c-4.5,2.8-8.9,5.9-13.6,8.2c-4.9,2.4-10.9-0.7-9.9-5.1c0.5-2.1,3.3-3.6,5.3-5.5c-0.3-0.1-1.1-0.5-2.2-1
		c2.6-0.4,5-0.8,7.4-1.1c1.8-0.2,3.9-1.4,4.6,1.8c0.1,0.5,2,0.6,3.1,0.7c1.7,0.2,3.4,0.4,5.1,0.6
		C1333.4,890.4,1333.5,890.8,1333.5,891.3z"/>
	<path d="M1018.7,270.6c1.7-4.9,8.9-10.4,13-9.9c1.2,0.2,3,1.5,3.2,2.6c0.4,2.6,1,5.9-0.2,8c-3.3,5.8-8.6,5.9-13.3,1
		C1020.8,271.6,1019.8,271.2,1018.7,270.6z"/>
	<path d="M1015.2,277c-0.2,4.1-3.6,8.1-7.3,6.9c-3.1-1-5.9-4.1-7.8-7c-1.1-1.7,6.8-7.7,10.1-7.2
		C1014.2,270.2,1015.7,273.2,1015.2,277z"/>
	<path d="M1216,606.6c-0.1,6.8-3.1,11.3-6.1,10.3c-1.8-0.6-3.7-3.3-4.1-5.4c-0.7-3.4,4.2-9.8,6.3-8.8
		C1214,603.6,1215.4,605.9,1216,606.6z"/>
	<path d="M1153.1,701.9c0-3.1,1.9-6,5.3-5.7c2,0.2,5.5,3.8,5.2,5.1c-0.5,2.5-3.1,5.6-5.4,6.3
		C1156.1,708.2,1152.6,706.4,1153.1,701.9z"/>
	<path d="M393.8,812.8c7.3-10,18-14.7,28.6-19.5c17.4-7.9,35.1-15.2,52.6-22.8c3.8-1.7,7.2-4.2,10.9-5.9c1.1-0.5,3.5,0,4.3,0.9
		c2.7,3.2,1.9,9.4-1.1,12.3c-10.1,10.1-23.7,13.4-36,19.3c-14.8,7.2-29.4,14.6-44,22.1c-4.3,2.2-10.2,0.9-13.6-3.7
		C395,814.7,394.5,813.8,393.8,812.8z"/>
	<path d="M501.9,844.9c-6.7-0.1-9.1-4.1-11.7-8c-4.9-7.6-9.1-15.5-9.3-24.7c-0.1-2.2,1.6-5.3,3.4-6.5c2.6-1.7,5.7-0.8,7.7,2.1
		c2.5,3.9,5.1,7.7,7.5,11.6c2.5,4.1,5,8.3,7.2,12.5c1.2,2.4,3.3,5.7,2.5,7.3C507.9,841.7,504.4,843,501.9,844.9z"/>
	<path d="M470,856.9c-3-1.8-6.2-2.6-7.4-4.6c-5.1-8.4-9.7-17.2-14-26c-0.6-1.3,0.8-4.9,2.3-5.8c3-1.8,6.9-2.2,9.5,0.9
		c3.6,4.3,6.8,9,10,13.6c1.9,2.7,3.7,5.5,5.3,8.4c1.3,2.5,3.6,6.1,2.7,7.6C476.9,853.6,473.2,854.8,470,856.9z"/>
	<path d="M418.2,840.4c0.7,0,1.6,0.3,2,0c6-4.8,6.7-4.9,11.3,1c5.6,7.3,10.8,14.8,16.1,22.2c2.4,3.3,2.7,6.4-0.9,9
		c-3.3,2.4-7.8,1.9-10.2-1.2c-2.1-2.7-3.8-5.8-5.7-8.7c-4.6-7-9.1-14-13.7-21C417.5,841.2,417.9,840.8,418.2,840.4z"/>
	<path d="M176.6,1044.5c-2.3,0.9-4.1,2.3-5.1,1.9c-3.3-1.6-7.9-3.2-9-6.1c-4.5-10.9-8.9-22-11.2-33.4c-2.3-11.6-2.4-23.7-3-35.6
		c-0.4-7.7,0-15.5,0.2-23.3c0.1-3.1,0.4-6.3,1-9.3c1.1-5.6,3.9-10.5,3.6-16.9c-0.3-6.8,3.8-13.8,6-20.6c0.6-1.9,1.2-4,2.4-5.4
		c3.8-4.4,7.9-8.6,13-9.9c-2.7,6.8-4.7,14.2-8.4,20.5c-5.1,8.7-5.9,18.4-8.3,27.7c-1.5,6.1,0.2,12.9-0.4,19.2
		c-1.6,15.3,4.1,29.5,6,44.2c0.9,6.6,3.5,13,5.6,19.4c2.4,7.2,5.2,14.3,7.5,21.6C177.1,1040.6,176.6,1043,176.6,1044.5z"/>
</g>
</svg>
