<?xml version="1.0" encoding="utf-8"?>
<!-- Generator: Adobe Illustrator 27.4.1, SVG Export Plug-In . SVG Version: 6.00 Build 0)  -->
<svg version="1.1" id="Camada_1" xmlns="http://www.w3.org/2000/svg" xmlns:xlink="http://www.w3.org/1999/xlink" x="0px" y="0px"
	 viewBox="0 0 1500 1500" style="enable-background:new 0 0 1500 1500;" xml:space="preserve">
<image style="overflow:visible;" width="1450" height="993" xlink:href="../../Library/CloudStorage/GoogleDrive-lucas.pretti@okfn.org/.shortcut-targets-by-id/0B79xBlVd-Nf6ZzMzUlZSTWwxV28/Open Knowledge All Team/Brand 2023/Illustrations/L 1500px - web transp/Icons/board.png"  transform="matrix(1 0 0 1 -3164.6372 4237.4756)">
</image>
<image style="overflow:visible;" width="1133" height="1032" xlink:href="../../Library/CloudStorage/GoogleDrive-lucas.pretti@okfn.org/.shortcut-targets-by-id/0B79xBlVd-Nf6ZzMzUlZSTWwxV28/Open Knowledge All Team/Brand 2023/Illustrations/L 1500px - web transp/Icons/books.png"  transform="matrix(1 0 0 1 -3164.6372 4237.4756)">
</image>
<image style="overflow:visible;" width="1357" height="1143" xlink:href="../../Library/CloudStorage/GoogleDrive-lucas.pretti@okfn.org/.shortcut-targets-by-id/0B79xBlVd-Nf6ZzMzUlZSTWwxV28/Open Knowledge All Team/Brand 2023/Illustrations/L 1500px - web transp/Icons/campagne.png"  transform="matrix(1 0 0 1 -3164.6372 4237.4756)">
</image>
<image style="overflow:visible;" width="845" height="1103" xlink:href="../../Library/CloudStorage/GoogleDrive-lucas.pretti@okfn.org/.shortcut-targets-by-id/0B79xBlVd-Nf6ZzMzUlZSTWwxV28/Open Knowledge All Team/Brand 2023/Illustrations/L 1500px - web transp/Icons/case-study.png"  transform="matrix(1 0 0 1 -3164.6372 4237.4756)">
</image>
<image style="overflow:visible;" width="1265" height="951" xlink:href="../../Library/CloudStorage/GoogleDrive-lucas.pretti@okfn.org/.shortcut-targets-by-id/0B79xBlVd-Nf6ZzMzUlZSTWwxV28/Open Knowledge All Team/Brand 2023/Illustrations/L 1500px - web transp/Icons/collaboration.png"  transform="matrix(1 0 0 1 -3164.6372 4237.4756)">
</image>
<image style="overflow:visible;" width="1339" height="1035" xlink:href="../../Library/CloudStorage/GoogleDrive-lucas.pretti@okfn.org/.shortcut-targets-by-id/0B79xBlVd-Nf6ZzMzUlZSTWwxV28/Open Knowledge All Team/Brand 2023/Illustrations/L 1500px - web transp/Icons/connect-community.png"  transform="matrix(1 0 0 1 -3164.6372 4237.4756)">
</image>
<image style="overflow:visible;" width="1357" height="681" xlink:href="../../Library/CloudStorage/GoogleDrive-lucas.pretti@okfn.org/.shortcut-targets-by-id/0B79xBlVd-Nf6ZzMzUlZSTWwxV28/Open Knowledge All Team/Brand 2023/Illustrations/L 1500px - web transp/Icons/contact.png"  transform="matrix(1 0 0 1 -3164.6372 4237.4756)">
</image>
<image style="overflow:visible;" width="1059" height="1080" xlink:href="../../Library/CloudStorage/GoogleDrive-lucas.pretti@okfn.org/.shortcut-targets-by-id/0B79xBlVd-Nf6ZzMzUlZSTWwxV28/Open Knowledge All Team/Brand 2023/Illustrations/L 1500px - web transp/Icons/create-open-data.png"  transform="matrix(1 0 0 1 -3164.6372 4237.4756)">
</image>
<image style="overflow:visible;" width="1198" height="998" xlink:href="../../Library/CloudStorage/GoogleDrive-lucas.pretti@okfn.org/.shortcut-targets-by-id/0B79xBlVd-Nf6ZzMzUlZSTWwxV28/Open Knowledge All Team/Brand 2023/Illustrations/L 1500px - web transp/Icons/data.png"  transform="matrix(1 0 0 1 -3164.6372 4237.4756)">
</image>
<image style="overflow:visible;" width="1162" height="1032" xlink:href="../../Library/CloudStorage/GoogleDrive-lucas.pretti@okfn.org/.shortcut-targets-by-id/0B79xBlVd-Nf6ZzMzUlZSTWwxV28/Open Knowledge All Team/Brand 2023/Illustrations/L 1500px - web transp/Icons/funders.png"  transform="matrix(1 0 0 1 -3164.6372 4237.4756)">
</image>
<image style="overflow:visible;" width="1005" height="1001" xlink:href="../../Library/CloudStorage/GoogleDrive-lucas.pretti@okfn.org/.shortcut-targets-by-id/0B79xBlVd-Nf6ZzMzUlZSTWwxV28/Open Knowledge All Team/Brand 2023/Illustrations/L 1500px - web transp/Icons/governance.png"  transform="matrix(1 0 0 1 -3164.6372 4237.4756)">
</image>
<image style="overflow:visible;" width="1255" height="807" xlink:href="../../Library/CloudStorage/GoogleDrive-lucas.pretti@okfn.org/.shortcut-targets-by-id/0B79xBlVd-Nf6ZzMzUlZSTWwxV28/Open Knowledge All Team/Brand 2023/Illustrations/L 1500px - web transp/Icons/impact.png"  transform="matrix(1 0 0 1 -3164.6372 4237.4756)">
</image>
<image style="overflow:visible;" width="1275" height="1127" xlink:href="../../Library/CloudStorage/GoogleDrive-lucas.pretti@okfn.org/.shortcut-targets-by-id/0B79xBlVd-Nf6ZzMzUlZSTWwxV28/Open Knowledge All Team/Brand 2023/Illustrations/L 1500px - web transp/Icons/jobs.png"  transform="matrix(1 0 0 1 -3164.6372 4237.4756)">
</image>
<image style="overflow:visible;" width="1246" height="1065" xlink:href="../../Library/CloudStorage/GoogleDrive-lucas.pretti@okfn.org/.shortcut-targets-by-id/0B79xBlVd-Nf6ZzMzUlZSTWwxV28/Open Knowledge All Team/Brand 2023/Illustrations/L 1500px - web transp/Icons/knowledge.png"  transform="matrix(1 0 0 1 -3164.6372 4237.4756)">
</image>
<image style="overflow:visible;" width="1163" height="1026" xlink:href="../../Library/CloudStorage/GoogleDrive-lucas.pretti@okfn.org/.shortcut-targets-by-id/0B79xBlVd-Nf6ZzMzUlZSTWwxV28/Open Knowledge All Team/Brand 2023/Illustrations/L 1500px - web transp/Icons/mission.png"  transform="matrix(1 0 0 1 -3164.6372 4237.4756)">
</image>
<image style="overflow:visible;" width="943" height="914" xlink:href="../../Library/CloudStorage/GoogleDrive-lucas.pretti@okfn.org/.shortcut-targets-by-id/0B79xBlVd-Nf6ZzMzUlZSTWwxV28/Open Knowledge All Team/Brand 2023/Illustrations/L 1500px - web transp/Icons/policy.png"  transform="matrix(1 0 0 1 -3164.6372 4237.4756)">
</image>
<image style="overflow:visible;" width="1413" height="1197" xlink:href="../../Library/CloudStorage/GoogleDrive-lucas.pretti@okfn.org/.shortcut-targets-by-id/0B79xBlVd-Nf6ZzMzUlZSTWwxV28/Open Knowledge All Team/Brand 2023/Illustrations/L 1500px - web transp/Icons/press.png"  transform="matrix(1 0 0 1 -3164.6372 4237.4756)">
</image>
<image style="overflow:visible;" width="1302" height="998" xlink:href="../../Library/CloudStorage/GoogleDrive-lucas.pretti@okfn.org/.shortcut-targets-by-id/0B79xBlVd-Nf6ZzMzUlZSTWwxV28/Open Knowledge All Team/Brand 2023/Illustrations/L 1500px - web transp/Icons/reproducible-research.png"  transform="matrix(1 0 0 1 -3164.6372 4237.4756)">
</image>
<image style="overflow:visible;" width="948" height="1047" xlink:href="../../Library/CloudStorage/GoogleDrive-lucas.pretti@okfn.org/.shortcut-targets-by-id/0B79xBlVd-Nf6ZzMzUlZSTWwxV28/Open Knowledge All Team/Brand 2023/Illustrations/L 1500px - web transp/Icons/service.png"  transform="matrix(1 0 0 1 -3164.6372 4237.4756)">
</image>
<g>
	<path d="M1356.6,910c-5.7-1.8-9.9-3.3-14.1-4.5c-1-0.3-2.5,0.3-3.5,0.9c-8.9,5-17.6,10.4-26.6,15.2c-9.5,5.1-19.2,10-29.1,14.4
		c-5.9,2.6-12.2,4.2-18.5,6.3c2.1,6.5,12.2,8.8,7.5,17.9c-4,0.2-7.6-0.6-9.8-4.6c-0.6-1.1-1.4-2.2-2.4-3.1c-5.4-5.1-6.9-12.5-3.4-19
		c0.8-1.4,2.6-2.5,4.2-3.3c17.4-9.4,34.9-18.7,52.3-28c0.3-0.1,0.4-0.5,1.2-1.3c-4.2-0.5-7.9-1.1-11.7-1.3
		c-25.8-1.5-51.4-1-76.5,5.7c-8.5,2.3-16.5,6.1-24.8,8.9c-14.2,4.6-28.5,8.8-42.7,13.5c-7.2,2.4-14,5.7-21.3,8
		c-7.1,2.2-14.5,3.4-21.6,5.4c-16.6,4.5-33.7,3.2-50.6,3.3c-6.9,0-13.9-1.1-20.8-1.2c-5.9-0.1-11.8,1.2-17.6,0.9
		c-9.5-0.5-19-2.1-28.6-2.5c-19.9-1-39.8-1.6-59.6-2.2c-7.6-0.2-15.2-0.7-22.7-0.3c-8.8,0.5-17.9,0.6-26.3,3
		c-6.7,1.9-13.3,3.5-20.2,3.1c-3.2-0.1-6.6-1.2-9.4-2.7c-13.4-7.3-26.6-14.8-39.9-22.4c-9.1-5.3-18-10.9-27.2-16.2
		c-1.4-0.8-3.8-1-5.4-0.5c-14.1,4.9-28,10.3-42.1,15c-5,1.6-10.7,2.5-15.8,1.8c-3.7-0.5-7.2-4.1-10.5-6.7c-1.8-1.3-3-3.4-5-5.7
		c2.6-0.7,5.1-1.2,7.4-2.1c20.8-8.3,41.9-16.1,62.4-25.3c14.5-6.5,28.1-15.2,42.2-22.6c17.1-9,35.6-14.1,54.6-16.6
		c26.8-3.6,53.9-5.9,80.7-9.6c19.7-2.7,39.4-6.5,58.9-10.4c9.7-1.9,19.2-5.2,28.7-8.1c2-0.6,3.9-1.9,5.7-3.1
		c10.1-6.9,13.1-17.2,7-27.9c-3.6-6.3-8.8-11.8-13.3-17.6c-0.3,0.7-0.7,1.4-1,2.1c-2.7,0.5-5.5,1.2-8.2,1.5
		c-10.8,1-21.6,2.4-32.4,2.5c-10,0.1-20.1-1.2-30.1-2.2c-2.8-0.3-5.5-1.7-9.4-2.9c1.9-1,3.4-2.5,5-2.7c10.4-1.5,20.8-2.7,31.1-4.1
		c3.8-0.5,7.7-1,11.5-1.4c0-0.4,0-0.9,0-1.3c-1.6,0-3.3,0.1-4.9,0c-13.6-0.8-27.2-1.7-40.9-2.3c-18.8-0.8-37.7-2.2-56.5-1.6
		c-21.9,0.6-43.6,3.2-65.5,4.5c-7.4,0.4-14.8-0.8-22.3-0.7c-7.9,0.1-15.9,0.8-23.8,1.3c-14.4,1-28.7,2.1-43.1-0.7
		c-19.1-3.7-38.4-6-57.3-10.2c-14-3.1-28.1-4.8-42.4-5.9c-9.6-0.7-19.1-2-28.7-2.8c-3.1-0.3-6.3,0.5-9.4,0.3
		c-17.4-1.2-34.7,1.1-52,2.7c-9.6,0.9-19.3,1.9-28.8,3.7c-7.8,1.5-15.3,4.7-23.2,6.3c-25.4,5.3-49.5,14.6-73.5,23.9
		c-21,8.1-41.9,16.7-63,24.8c-5.4,2.1-11.1,3.3-17.4,5.2c4,6.1,2.3,12.1,2.2,18.2c-0.1,6.5,2.7,12.9,3.8,19.5
		c2.4,14.7,4.7,29.5,6.7,44.3c2.1,15,3.8,30,5.6,44.9c2.3,18.8,4.7,37.5,6.6,56.3c1.5,14.8,2.6,29.7,3.1,44.6
		c0.6,17.2,0.3,34.5,0.6,51.7c0,2,1.9,4.1,1.7,6c-0.4,4.4-0.7,9.1-2.7,12.9c-4.9,9.5-12.7,16.3-22.4,21.1
		c-14.7,7.3-30.3,12.2-45.9,17.1c-10.7,3.3-21,7.7-31.6,11.3c-17,5.7-34.1,11.2-51.1,16.8c-4.2,1.4-9.2,1.7-12.4,4.4
		c-5.3,4.5-11.5,4.2-17.4,5.5c-5.1,1.1-9.5,0.1-11.8-5.5c-0.4-1.1-2-1.6-3.8-3.1c4.4-2.7,8.3-5.6,12.5-7.5c9-3.9,18.1-7.3,27.3-10.6
		c24.3-8.8,48.8-17.4,73.1-26.1c5.9-2.1,11.9-4,17.5-6.7c13.2-6.6,26.3-13.6,39.3-20.8c3.3-1.8,5.1-4.3,4.8-9.5
		c-1.4-22.5-1.3-45.1-2.2-67.6c-1-23.4-3.6-46.6-8-69.7c-2.5-13.2-2.9-26.7-4.5-40.1c-1.3-10.9-3-21.7-4.4-32.6
		c-1.4-11.4-2.6-22.7-4.1-34.1c-1.3-10.2-2.7-20.3-4.5-30.4c-0.2-1.4-2.3-3.6-3.6-3.6c-7.9,0.1-16-0.1-23.7,1.5
		c-11.2,2.3-22,6.3-33.1,9.1c-15.8,4-31.6,7.6-47.5,11.2c-8.6,1.9-17.2,3.5-25.8,5.2c-16.7,3.4-33.4,7.1-50.1,10.2
		c-7.3,1.3-14.9,1.7-22.3,2.1c-6.9,0.4-11.5-3.7-12.7-10c-0.2-1.3-1.7-2.4-3.5-4.8c14-2.9,27.2-5.6,40.4-8.5
		c5.7-1.2,11.2-2.9,16.8-4.5c27.3-7.4,54.6-14.7,81.9-22.1c5.1-1.4,10-3.6,15.2-5c12.3-3.4,24.5-7,36.9-9.6
		c10.8-2.2,21.8-3.2,32.8-4.4c5-0.6,9.7,0.1,13.6,4.1c1.1,1.2,4,1.8,5.5,1.3c11.5-4.2,22.8-8.9,34.3-13.3c29-11.1,57.9-22.8,87.2-33
		c14.7-5.1,30.3-7.5,45.4-11.2c10.8-2.6,21.5-5.7,32.3-8.1c4.9-1.1,10.1-0.8,15-1.8c18.6-3.7,37.4-5.4,56.4-4.4
		c3.5,0.2,7,1,11.5,1.7c-1.2-2.5-1.8-3.8-2.5-5.1c-5-9.1-4.6-18.8-0.6-27.5c5.5-11.7,4-23.7,3.7-35.7c-0.6-25.3-1.6-50.5-2.1-75.8
		c-0.2-9.8,0.4-19.6,1.1-29.4c0.4-5.9,1.5-11.7,2.5-17.5c2.7-16.1,13.3-25.7,27.2-32.2c26.8-12.5,54.3-22.7,84.7-22.6
		c9.3,0,18.6-2.5,28-3c13.9-0.9,27.8-0.9,41.8-1.5c17.9-0.8,34.4,5.5,50.7,11.1c12,4.1,23.6,9.6,34.5,16.1
		c8.4,5,13.7,13.7,15.1,23.7c0.6,4.5-0.4,9.3-0.5,14c-0.3,9.9-0.8,19.7-0.8,29.6c-0.1,15-0.4,29.9,0.3,44.9
		c0.8,18.4,2.7,36.7,3.8,55.1c0.7,11.3,0.7,22.6,0.8,33.9c0,3-4.1,5.6-7.3,5.3c-1.5-0.1-3.3,0.1-4.7,0.7c-3.5,1.5-6.5,0.5-6.8-3.1
		c-0.5-7.9-0.3-15.8-0.6-23.7c-0.3-8.2,0.8-16.9-1.6-24.4c-6.2-19-3.7-38.5-4.8-57.8c-0.6-11.4-0.1-22.8-0.1-34.6
		c-1.1,0.4-2,0.5-2.2,0.9c-3.8,9.5-13,12.2-20.8,16.5c-10,5.5-20.2,10.6-30.3,15.9c-9.5,4.9-19.9,6.8-30.4,7.8
		c-12.9,1.2-25.9,2.3-38.8,2.5c-21.1,0.3-42-0.9-62.8-5.3c-17.4-3.7-34.4-8.2-50.1-16.6c-2.6-1.4-4.8-3.3-7.8-5.4
		c-0.2,1.7-0.5,2.9-0.4,4.1c1.1,14.3,2.4,28.6,3.5,43c0.9,11.9,2.3,23.9,2.1,35.8c-0.2,8.5-2.8,16.9-4.1,25.3
		c-1.6,9.9-5.3,19.6-4.2,29.9c0.2,1.5-1.3,3.2-2.1,5c0.4,0.1,1.1,0.3,1.9,0.5c19.1,3.4,38.5,5.9,57.4,10.3
		c33.6,7.8,67.6,9,101.7,8.2c19.4-0.5,38.8-2,58.3-3c16.1-0.8,32.2-1.7,48.4-1.9c18.8-0.3,37.6,0.3,56.4,0.3
		c5.5,0,10.1-1.9,13.1-7.2c4.1-7.1,6.6-14.2,1.3-21.7c-2.1-2.9-4.5-5.9-7.6-7.6c-7.9-4.3-11.5-11.7-15.4-19
		c-6.1-11.3-8-23.9-10.1-36.4c-1.5-8.7-3-17.4-5-25.9c-2.7-11.9-3.9-23.6,3.1-34.6c5.9-9.4,14.3-15.5,24.1-20.8
		c15.4-8.3,32-12.8,48.6-17.7c29.4-8.7,59.7-9.6,90-9.1c6.4,0.1,12.7,2.3,19,4.1c1.6,0.4,2.6,2.9,4.7,5.5c-4.6,0.5-7.4,0.5-10.1,1.2
		c-2.4,0.6-4.5,2.6-6.9,3c-10.8,1.5-21.6,3.6-32.5,3.7c-19.5,0.3-38.5,3.3-57,8.7c-13.3,3.9-25.8,10.3-38.9,15.2
		c-10.4,3.9-19.7,9.2-27.4,17.3c-6,6.3-8.6,16.6-4.2,22.6c3,4.1,7.7,7.1,11.9,10.3c12.6,9.5,27.7,12.6,42.4,16.6
		c29.6,8,60.1,8.4,90.2,7.3c22.9-0.8,45.7-6.8,68.5-10.6c12.5-2,24.8-4.9,36.3-10.4c4-1.9,8.2-3.7,11.8-6.3
		c3.6-2.6,5.5-6.3,6.2-11.3c2.3-14.7-8.5-22-17-29.5c-7.1-6.2-17.1-8.9-25.6-13.7c-7.1-4-14.8-4.8-22.4-4.8
		c-9.4,0-10.6-7.3-15.3-13.2c11.4-2.9,21.6-5.6,32.5-1.8c13.4,4.7,26.4,10.5,36.9,20.1c9.7,8.8,17.3,19.5,20.1,32.6
		c1.5,7.2,2,14.6,2.9,21.9c0.1,0.7-0.1,1.5,0.2,2c8.5,13.1,5.5,28.2,7.2,42.4c1.4,11.7,2.1,23.6,4.9,35c3.4,13.7,2.6,26.2-4.1,38.6
		c-2.9,5.4-5.3,11-8,16.5c-2.7,5.4-2.7,11.1-0.4,16.3c5.8,13,9.6,26.6,11.8,40.6c1.1,7,0.7,14.2,1,21.4c0,1.1,0,2.3,0,3.5
		c4.3,0,8.3,0.2,12.2,0c13.3-0.6,26,1,38,7.5c6.9,3.8,14.2,6.8,17.3,14.6c1.1,2.7,1.3,5.9,1.2,8.8c0,0.7-3.1,2.3-4.2,1.9
		c-3.9-1.4-8.1-2.8-11-5.4c-8.6-7.6-19.3-8.9-29.7-10c-7.7-0.8-15.6,1-23.4,0.7c-7.6-0.2-9.9,5-12.5,10.2c-1.9,4-3.6,8.1-5.4,12.2
		c-0.4,0.9-0.8,1.9-1.1,2.8c1,0.3,2.1,0.9,3.1,0.9c19-0.1,38-1.3,56.9-0.2c13.8,0.8,27.6,4.1,41.1,7.3c5.6,1.3,10.7,5.2,15.6,8.4
		c5,3.3,5.3,9.4,1.3,13.7c0.9,2.3,2,4.5,2.6,6.9c1.8,7.3,1.1,9.1-5.1,13.4c-12.1,8.5-24.2,16.9-36.4,25.3c-16,11-32,22.2-48.2,32.9
		c-8.2,5.4-17.1,9.9-25.6,15c-4.5,2.7-8.6,6.2-13.4,8.4c-13.6,6.4-27.5,12.4-41.3,18.5c-18.6,8.2-38.4,10.4-58.4,11.5
		c-8.8,0.4-17.4,2.6-26.1,4c-0.9,0.2-2.5,0.7-2.6,1.1c-0.6,7.1-7.5,6.2-11.4,8.6c-8.5,5.4-17.7,9.6-26.6,14.2
		c-15.1,7.9-30.5,15.4-45.3,23.9c-13,7.5-25.6,15.9-38,24.4c-19.2,13.2-38.6,25.9-59.9,35.4c-11.7,5.2-23.6,10.3-35.9,14.2
		c-6.1,2-13.2,1.7-19.8,1.5c-10.6-0.2-20.8-1.9-30.8-6c-9.9-4.1-20.8-5.5-30.9-9.2c-10.9-4-21.1-9.6-32-13.7
		c-10.6-4.1-21.7-6.9-32.5-10.8c-9-3.2-17.8-7-26.5-10.8c-8.6-3.8-16.9-8.5-25.6-12c-13.8-5.6-27.8-10.5-41.6-15.9
		c-7.4-2.9-14.5-6.4-21.8-9.2c-8.3-3.2-16.9-5.8-25.2-9c-9.3-3.6-18.5-7.4-27.7-11.4c-8.2-3.6-16-8-24.3-11.4
		c-4.6-1.9-7.6-5.5-11.5-7.9c-9-5.5-18.8-9.7-29.8-9.7c-3.6,0-7.3-0.2-10.8-0.8c-6-0.9-11.3,1.1-16.6,3.2c-10.7,4.1-21,10-32,12.2
		c-11.3,2.3-21.3,7.5-32.2,10.3c-9.5,2.5-12.7-0.2-14.7-9.8c-1.2-5.9,1.1-7.6,5.5-9.4c8.2-3.5,16.2-7.6,24.5-10.8
		c8.1-3.1,16.4-5.6,24.7-8.1c5.6-1.7,11.3-2.8,16.9-4.3c7.1-1.9,14-4.1,21.1-6.1c6.8-1.9,13.7-3.7,20.6-5.5c0.8-0.2,1.9,0.3,2.8,0.6
		c3.3,1.3,6.4,3.3,9.8,3.9c12.3,2.1,22.5,9.2,33.8,13.7c4.9,2,9.7,4.4,14.5,6.6c2,1,4.1,1.9,6.1,3c7.2,3.9,14.2,8.2,21.5,11.7
		c5.4,2.6,11.2,4.1,16.8,6.4c3.5,1.4,7,3,9.9,5.3c2.3,1.8,4.7,1.7,7,2.5c5.7,1.9,10.6,5.9,16,8.7c5,2.6,10.1,5,15.4,7
		c8,3,16.3,5,23.7,9.7c2.2,1.4,5.3,1.4,7.9,2c0.4,0.1,1.1-0.1,1.3,0.1c7.8,7.4,18.8,7.2,27.7,12c8.8,4.9,17.8,9.5,27,13.8
		c13.3,6.2,26.7,12.2,40.3,17.7c8.5,3.4,17.5,5.7,26.3,8.4c8.9,2.7,17.8,5.3,26.7,8c6.5,2,12.9,4.9,19.5,5.7
		c5.4,0.6,11.5-0.2,16.5-2.3c25.9-10.9,51.1-23.5,74.1-39.9c0.9-0.6,2.1-0.8,1.8-1.8c-11.5,0.8-22.9,1.6-34.4,2.6
		c-7.5,0.6-15.1,1.3-22.6,2.5c-7.5,1.2-11.6-3.2-16-9c2.5-0.9,4.6-1.9,6.7-2.4c14.3-3.3,28.6-6.2,42.8-9.8
		c18.7-4.7,37.9-7.2,56.6-12.3c18.7-5.1,36.3-12.2,53.5-20.5c0.4-0.2,0.7-0.5,0.9-1.5c-2.6,0.4-5.3,0.9-7.9,1.2
		c-18.5,2.4-36.9,5-55.4,7.1c-20.7,2.4-41.4,4.4-62.1,6.4c-7.7,0.7-15.5,0.9-23.3,1.3c-9.1,0.5-18.3,1.8-27.3,1.1
		c-15.1-1.1-21.7-2.3-29.9-13.4c3.9-0.2,7.5-0.2,11-0.6c37.2-4.2,74.4-8.5,111.6-12.8c20.3-2.3,40.7-4.3,61-7.1
		c12.3-1.7,24.4-5.4,36.6-7.2c26.5-4,52.9-8.4,79.5-10.7c21.4-1.8,40.6-9.3,59.9-17.6c27.5-11.8,51-29.9,75.3-46.8
		c4.2-2.9,8.6-5.7,13-8.3c19.4-11.4,38.8-22.7,58.1-34C1352.5,913,1353.8,912,1356.6,910z M1233,752.2c-6.5,2.2-13.8,5.1-21.3,7.2
		c-5.7,1.5-11.6,2.1-17.5,2.9c-12.1,1.6-24.3,3.7-36.5,4.3c-14.4,0.7-28.8,0.7-43.2-0.1c-7.3-0.4-14.5-3.2-22.5-5.1
		c1.7-1.3,2.3-1.9,3-2.3c1.6-1,3.1-2.9,4.7-3c18.4-0.7,36.7-0.8,55-4.1c24.7-4.5,49.6-7.8,73.5-16.1c7.5-2.6,13.3-6.3,15.5-14.5
		c0.9-3.3,2.5-6.6,4.3-9.5c2.7-4.5,2.6-9,1.7-13.9c-2.1-11.8-4.2-23.6-5.6-35.4c-1-8.7-0.9-17.5-1.3-27.1c-2.6,1.6-4.5,2.7-6.4,3.9
		c-8.2,5.3-16.1,10.9-25.9,13.4c-20.7,5.1-41.2,10.8-61.9,16.1c-16.6,4.2-33.6,4.7-50.7,3.8c-8.1-0.4-16.2-0.1-24.3-0.3
		c-9.3-0.3-18.6-0.3-27.8-1.4c-7.1-0.8-14.3-2.6-21-5c-11.2-3.9-22.3-8.2-33-13.1c-6-2.7-11.3-7.1-17-10.8
		c1.7,14,3.7,28.1,16.8,37.3c8.8,6.2,14.2,14.8,16.9,25.1c1.3,5,2.3,10.1,4,14.9c1.7,5,2.5,9.8-0.3,14.9c2,0.4,3.7,0.6,5.3,1
		c10.5,2.8,21.8,4.4,30.3,11.7c6.7,5.8,12.7,12.7,17.6,20.1c5.5,8.5,10.3,17.8,11.4,28.3c0.5,4.8,0.6,9.7,0.3,14.5
		c-0.2,3.4-0.3,7.4-1.9,10.2c-5.2,9-15,12.2-23.8,15.9c-6.3,2.7-13.6,3-20.5,4.3c-14,2.7-27.8,5.8-41.9,8
		c-17.7,2.7-35.6,4.4-53.3,6.7c-18,2.3-36.1,4.3-54.1,7.3c-19.7,3.2-38.4,9.5-55.3,20.6c-5.9,3.9-12.3,6.9-19.5,10.8
		c11.9,6.1,22.6,11.8,33.4,17.2c7,3.4,14,7.9,21.4,9c11.1,1.7,22.5,1.1,33.8,1c10.3-0.1,20.6-1.4,30.9-1.2c26.7,0.7,53.5,1.9,80.2,3
		c17.2,0.7,34.4,2,51.6,2.3c14.4,0.2,29.1,0.7,43.3-1.4c33.6-5,65.4-16.5,96.6-29.5c5.4-2.2,8.7-5.1,6.1-11.7
		c-5.5,1.1-11.1,2.3-16.7,3.2c-19,3.1-37.9,0.8-56.7-1.2c-4.8-0.5-9.7-1.1-14.4-2.1c-6.3-1.3-12.1-3.6-16-9.6
		c14.1-2.4,27.9-1.3,41.6-3.8c22-4,44.5-5.3,66.6-8.4c7.6-1.1,14.9-4.4,22.3-6.5c5.6-1.6,9.9-4,12.7-9.8c5.6-11.7,4.3-23.6,4-36.3
		c-18.2,7.4-36.4,11.6-54.9,11.8c-18,0.1-36.4,0.5-53.9-7c7.1-2.7,14.3-5,21.6-6.2c8.9-1.4,17.9-1.6,26.8-2.9
		c19.5-2.9,39.1-5.1,57.7-12C1240.9,778.4,1237,765.4,1233,752.2z M803.2,575.8c8.3-0.9,17.6-1.4,26.7-3c15.3-2.6,29-9.7,42.7-16.6
		c4.8-2.4,10.2-4.3,14.1-7.8c4.4-4,6.8-10.1,11-14.2c7.2-7,4.9-14.9-0.6-20.3c-6.6-6.6-13.3-13.3-23.1-15.9
		c-8.6-2.3-16.5-7-25.1-8.8c-10.3-2.1-20.9-2.8-31.4-2.9c-12.5-0.1-25,1-37.5,1.7c-25.5,1.4-50,7.2-73.9,16.2
		c-0.8,0.3-2.2,0.5-2.2,0.9c-0.6,4.7-4.9,4.4-7.8,5.7c-5.9,2.7-12.2,4.6-17.8,7.8c-6.7,3.8-13.4,7.9-19.2,13.1
		c-5.1,4.5-4.8,9.1,0.3,13.8c4.3,4,9.3,7.7,14.5,10.3c27.3,13.4,56.8,18.4,86.9,20C774.7,576.4,788.5,575.8,803.2,575.8z"/>
	<path d="M1129.9,514.4c-5.5,0.5-10.8,0.9-17.1,1.5c-1.7-34.1-3.4-67.6-5.1-100.9c-9,10.1-20.3,17-32.5,22.3
		c-8.4,3.7-17.2,6.9-26.2,8.6c-12,2.3-24.3,3.6-36.5,4.3c-12.5,0.7-25.3,1.5-37.7,0c-20.2-2.4-40.2-6.5-60.3-10.2
		c-14.5-2.6-28.4-7.2-41.2-14.7c-2.4-1.4-4.7-3-7.9-5.1c0.4,8.1,0.6,15.4,1,22.8c0.3,5.5,1,10.9,1.3,16.4c0.1,2.5,1.9,5.9-2.6,6.8
		c-4.1,0.9-8.5,0.9-10.5-2.9c-2.3-4.4-4.1-9.5-4.4-14.4c-0.9-15.1-0.8-30.2-1.5-45.3c-0.2-5.4-1.6-10.8-2.2-16.2
		c-0.9-7.8,3.1-13.8,7.7-19.4c4-4.9,8.7-9.2,13-13.7c7.6-8,18-11.3,27.6-15.5c18.1-8,36.8-14.5,56.8-16.4c3.7-0.4,7.4-1.9,11.1-2.1
		c2.4-0.1,4.9,1.5,7.3,1.8c2.7,0.3,5.5,0.1,9,0.1c3-2.8,11.2-2.3,17.2,1.2c1.1-0.9,2-2,2.9-2.1c9.3-1.3,18.7-1.4,28-1.9
		c14.4-0.8,26.3,6.2,39.6,8.5c5.4,1,10.7,3,16,4.3c7.1,1.7,13.4,4.5,18,10.6c1.9,2.5,4.2,4.7,6.6,6.9c2.1,2,4.3,2.2,5.9-1
		c0.4,0.5,0.8,1.4,1.4,1.7c9.5,4.6,9,14,9.5,21.9c1.2,20.1,0.9,40.2,1.7,60.3c1.1,25.8,2.6,51.5,4,77.3
		C1129.9,511.3,1129.9,512.6,1129.9,514.4z M861,387.7c1.1,1.9,2.5,3.3,2.9,5c1.2,5.1,4.6,7.9,9.1,10.1
		c20.9,10.3,43.5,15.3,66.2,19.2c19.8,3.4,39.8,5,59.8,4c16-0.9,32.2-1.9,47.8-5c12.3-2.5,24-8.3,36-12.5c5.2-1.8,8.9-5.4,12.3-9.5
		c5.2-6.4,8.5-13.1,8.8-22c0.3-10.2-3.4-19-13-22.3c-14.3-4.9-28.4-10.7-43.1-13.9c-14.8-3.3-30.1-5.3-45.2-5.3
		c-14.6,0-29.3,3.2-43.9,4.9c-23.5,2.7-45.2,10.6-66.4,20.9C879.4,367.4,869.5,376.5,861,387.7z"/>
	<path d="M166.2,1024.1c0.9,3.6,1.9,6.2,2.3,9c1.2,8.8,1.9,17.6,3.3,26.3c1.6,10.5,3.2,21.1,5.8,31.4c4.5,17.7,9.9,35.2,14.7,52.8
		c1.1,3.9,3.2,8.3-2.5,10.8c-3.2-1.7-4.8-6-9.3-5.1c-0.5,0.1-1.6-1.6-2.1-2.6c-2.5-5.1-5.1-10.1-7.2-15.4c-0.9-2.3-0.7-5.1-1-7.6
		c-0.8-1-2.5-2.1-2.8-3.5c-1.2-5.9-1.3-12-3-17.7c-0.9-3-4-5.3-1.6-9c0.1-0.1-1.4-1.3-1.5-1.3c-0.3-3.7-1.3-7.2-0.7-10.3
		c0.9-4.4-1.9-7.8-1.8-11.8c0.1-1.5,1.2-3,1.8-4.6c-4.9-9-4-19.4-6.4-29c-2.4-9.5,0.9-20-5.2-28.6c-0.2-0.2-0.4-0.6-0.3-0.9
		c2.9-11.2-1.8-21.8-2.6-32.7c-0.4-4.8-0.6-9.6-1.2-14.4c-0.6-4.9-2.1-9.7-2.4-14.6c-0.5-8.4-0.4-16.9-0.6-25.3c0-2.5,0.3-5,0-7.5
		c-0.7-5.9,2.1-10.9,4.3-15.9c1.3-3,5.3-2.6,6.9,0.9c1.6,3.7,2.9,7.8,3.3,11.8c0.8,9.9,0.8,20,1.6,29.9c1.2,14.7,2.8,29.3,4.4,44
		c1.4,12.5,3,25.1,4.4,37.6C167,1022.1,166.3,1023.5,166.2,1024.1z"/>
	<path d="M867.6,613.8c1.1,1,2.4,2.2,4.3,4.1c-2.1,2.1-4.1,4.1-6.2,6.3c0.2,0.1,0.9,0.6,2.3,1.6c-8.4,2.4-16.1,4.9-23.9,6.7
		c-4.7,1.1-9.7,1-14.5,1.4c-0.3,0-0.8-0.2-0.9,0c-5.9,7.4-14.4,4.8-21.8,5.3c-18.2,1.2-36.5,2.6-54.8,2c-14.2-0.5-28.4-3.2-42.4-6.1
		c-9.2-2-18.3-5.9-24.7-13.1c-4.4-4.9-7.3-11.2-10.9-16.9c0.4-0.4,0.7-0.8,1.1-1.2c2.1,1.2,4.2,2.4,6.3,3.7
		c18.1,11.8,38.5,15.9,59.4,16.5c24.1,0.7,48.2-0.3,72.3-1.2c11.6-0.4,23.1-2,34.6-3.7C854.4,618,860.7,615.7,867.6,613.8z"/>
	<path d="M1099.2,460c-8.3,5-16.4,10.4-25.1,14.7c-5.9,3-12.6,4.2-18.7,6.7c-16.5,6.6-34,8.4-51.5,10.2c-19.9,2.1-39.5,1-58.2-7.4
		c-5.9-2.6-11.4-10-8.2-16.7c15.6,4.6,31.2,10.1,48,8.3c4.6-0.5,9.3-1.1,13.9-1.1c18.6-0.1,36.6-3.9,54.4-8.6c9.1-2.4,18-6,27.2-8
		c5.7-1.2,11.8-0.2,17.7-0.2C1098.9,458.6,1099.1,459.3,1099.2,460z"/>
	<path d="M877.3,664.6c-4,11.2-12.2,15.7-21,19.4c-26.8,11.2-54.9,15.6-83.8,14.4c-9.2-0.4-18.5-2.6-27.2-5.4
		c-4.8-1.6-8.9-6.1-12.8-9.8c-1.3-1.3-0.9-4.2-1.4-6.9c7,1.8,13.2,3,19.1,5c9,3,18.2,2.8,27.3,2.2c19.7-1.3,39.4-2.7,58.5-8.6
		c8.8-2.8,17.7-5.4,26.6-7.7C867,665.8,871.6,665.5,877.3,664.6z"/>
	<path d="M1172.3,611.5c5.8-5,11.9-9.6,17.2-14.9c5.5-5.5,5.1-9-0.4-14.4c-1.5-1.5-3.4-2.6-5.6-4.3c9.6-3.5,17.4,5,21.3,12.8
		c4.1,8.3-3.4,19.4-17,26.3C1184.1,618.7,1174.5,615.1,1172.3,611.5z"/>
	<path d="M968.4,513.8c3.6-5.8,8.8-4.8,13.8-5.1c5.4-0.3,10.8-1.8,16.2-2.5c7.5-1,15.1-1.7,22.6-2.5c0.4,0.4,0.7,0.8,1.1,1.2
		c-2.6,2.7-4.9,6.1-8,8.1c-9.5,6-20.2,8.6-31.3,8.6C976.8,521.6,971,519.9,968.4,513.8z"/>
	<path d="M985.1,808.5c-0.1,1.2,0,2.6-0.5,3.8c-0.6,1.5-1.8,4.1-2.5,4c-2.1-0.3-5.4-1.2-5.8-2.6c-2.4-7.4-4.1-14.9-6-22.5
		c-0.4-1.6-0.8-3.3-0.8-4.9c-0.1-4.9-0.8-9.9,0.1-14.6c0.6-3.1,3.9-2.4,5,0.2c2.7,6.3,5.4,12.8,7.3,19.4
		C983.5,796.8,984.1,802.6,985.1,808.5z"/>
	<path d="M851.4,817.7c-6.5-2.4-8.5-6.5-9.2-11.5c-0.9-6.1-1.9-12.1-2.7-18.2c-0.1-1.2,0.7-2.8,1.6-3.6c0.5-0.4,2.7,0.2,3.2,1
		c2.6,4.3,5.3,8.7,7.1,13.4c1.2,3.2,1.4,6.9,1.4,10.3C852.9,811.8,852,814.6,851.4,817.7z"/>
	<path d="M1007.2,698.7c2.1-1.5,3.2-2.4,4.4-3.2c-0.1,0.5-0.2,0.9-0.3,1.4c4.4,1.7,8.7,3.9,13.2,4.9c22.1,4.8,44.6,5.4,67,2.8
		c17.1-2,34.1-5.1,51.3-7.1c11.6-1.3,23.2-1.8,34.9-2.2c3.5-0.1,8.4,0,8.6,4.6c0.1,1.6-4.8,4.4-7.8,5.1
		c-21.2,4.9-42.4,9.8-63.8,13.8c-24.5,4.5-49.1,5.7-73.8,0.6c-10.2-2.1-19.6-6.2-27.5-13.1C1011.1,704.2,1009.5,701.5,1007.2,698.7z
		"/>
	<path d="M1081.5,876.9c-5.2,1-10.3,2.7-15.5,2.8c-6.7,0.2-13.8,0.1-20.2-1.8c-9.8-2.8-19.2-7.1-28.7-11c-1-0.4-2.2-3.2-1.8-3.9
		c1.1-1.6,3.1-3.6,4.7-3.6c3.4,0,6.7,1.3,10.1,2c15.2,3.5,30.4,7.1,45.6,10.7c2.1,0.5,3.9,1.7,5.9,2.6
		C1081.6,875.5,1081.5,876.2,1081.5,876.9z"/>
</g>
</svg>
