<?xml version="1.0" encoding="utf-8"?>
<!-- Generator: Adobe Illustrator 27.4.1, SVG Export Plug-In . SVG Version: 6.00 Build 0)  -->
<svg version="1.1" id="Camada_1" xmlns="http://www.w3.org/2000/svg" xmlns:xlink="http://www.w3.org/1999/xlink" x="0px" y="0px"
	 viewBox="0 0 1500 1500" style="enable-background:new 0 0 1500 1500;" xml:space="preserve">
<image style="overflow:visible;" width="1450" height="993" xlink:href="../../Library/CloudStorage/GoogleDrive-lucas.pretti@okfn.org/.shortcut-targets-by-id/0B79xBlVd-Nf6ZzMzUlZSTWwxV28/Open Knowledge All Team/Brand 2023/Illustrations/L 1500px - web transp/Icons/board.png"  transform="matrix(1 0 0 1 -3164.6372 4237.4756)">
</image>
<image style="overflow:visible;" width="1133" height="1032" xlink:href="../../Library/CloudStorage/GoogleDrive-lucas.pretti@okfn.org/.shortcut-targets-by-id/0B79xBlVd-Nf6ZzMzUlZSTWwxV28/Open Knowledge All Team/Brand 2023/Illustrations/L 1500px - web transp/Icons/books.png"  transform="matrix(1 0 0 1 -3164.6372 4237.4756)">
</image>
<image style="overflow:visible;" width="1357" height="1143" xlink:href="../../Library/CloudStorage/GoogleDrive-lucas.pretti@okfn.org/.shortcut-targets-by-id/0B79xBlVd-Nf6ZzMzUlZSTWwxV28/Open Knowledge All Team/Brand 2023/Illustrations/L 1500px - web transp/Icons/campagne.png"  transform="matrix(1 0 0 1 -3164.6372 4237.4756)">
</image>
<image style="overflow:visible;" width="845" height="1103" xlink:href="../../Library/CloudStorage/GoogleDrive-lucas.pretti@okfn.org/.shortcut-targets-by-id/0B79xBlVd-Nf6ZzMzUlZSTWwxV28/Open Knowledge All Team/Brand 2023/Illustrations/L 1500px - web transp/Icons/case-study.png"  transform="matrix(1 0 0 1 -3164.6372 4237.4756)">
</image>
<image style="overflow:visible;" width="1265" height="951" xlink:href="../../Library/CloudStorage/GoogleDrive-lucas.pretti@okfn.org/.shortcut-targets-by-id/0B79xBlVd-Nf6ZzMzUlZSTWwxV28/Open Knowledge All Team/Brand 2023/Illustrations/L 1500px - web transp/Icons/collaboration.png"  transform="matrix(1 0 0 1 -3164.6372 4237.4756)">
</image>
<image style="overflow:visible;" width="1339" height="1035" xlink:href="../../Library/CloudStorage/GoogleDrive-lucas.pretti@okfn.org/.shortcut-targets-by-id/0B79xBlVd-Nf6ZzMzUlZSTWwxV28/Open Knowledge All Team/Brand 2023/Illustrations/L 1500px - web transp/Icons/connect-community.png"  transform="matrix(1 0 0 1 -3164.6372 4237.4756)">
</image>
<image style="overflow:visible;" width="1357" height="681" xlink:href="../../Library/CloudStorage/GoogleDrive-lucas.pretti@okfn.org/.shortcut-targets-by-id/0B79xBlVd-Nf6ZzMzUlZSTWwxV28/Open Knowledge All Team/Brand 2023/Illustrations/L 1500px - web transp/Icons/contact.png"  transform="matrix(1 0 0 1 -3164.6372 4237.4756)">
</image>
<image style="overflow:visible;" width="1059" height="1080" xlink:href="../../Library/CloudStorage/GoogleDrive-lucas.pretti@okfn.org/.shortcut-targets-by-id/0B79xBlVd-Nf6ZzMzUlZSTWwxV28/Open Knowledge All Team/Brand 2023/Illustrations/L 1500px - web transp/Icons/create-open-data.png"  transform="matrix(1 0 0 1 -3164.6372 4237.4756)">
</image>
<image style="overflow:visible;" width="1198" height="998" xlink:href="../../Library/CloudStorage/GoogleDrive-lucas.pretti@okfn.org/.shortcut-targets-by-id/0B79xBlVd-Nf6ZzMzUlZSTWwxV28/Open Knowledge All Team/Brand 2023/Illustrations/L 1500px - web transp/Icons/data.png"  transform="matrix(1 0 0 1 -3164.6372 4237.4756)">
</image>
<image style="overflow:visible;" width="1162" height="1032" xlink:href="../../Library/CloudStorage/GoogleDrive-lucas.pretti@okfn.org/.shortcut-targets-by-id/0B79xBlVd-Nf6ZzMzUlZSTWwxV28/Open Knowledge All Team/Brand 2023/Illustrations/L 1500px - web transp/Icons/funders.png"  transform="matrix(1 0 0 1 -3164.6372 4237.4756)">
</image>
<image style="overflow:visible;" width="1005" height="1001" xlink:href="../../Library/CloudStorage/GoogleDrive-lucas.pretti@okfn.org/.shortcut-targets-by-id/0B79xBlVd-Nf6ZzMzUlZSTWwxV28/Open Knowledge All Team/Brand 2023/Illustrations/L 1500px - web transp/Icons/governance.png"  transform="matrix(1 0 0 1 -3164.6372 4237.4756)">
</image>
<image style="overflow:visible;" width="1255" height="807" xlink:href="../../Library/CloudStorage/GoogleDrive-lucas.pretti@okfn.org/.shortcut-targets-by-id/0B79xBlVd-Nf6ZzMzUlZSTWwxV28/Open Knowledge All Team/Brand 2023/Illustrations/L 1500px - web transp/Icons/impact.png"  transform="matrix(1 0 0 1 -3164.6372 4237.4756)">
</image>
<image style="overflow:visible;" width="1275" height="1127" xlink:href="../../Library/CloudStorage/GoogleDrive-lucas.pretti@okfn.org/.shortcut-targets-by-id/0B79xBlVd-Nf6ZzMzUlZSTWwxV28/Open Knowledge All Team/Brand 2023/Illustrations/L 1500px - web transp/Icons/jobs.png"  transform="matrix(1 0 0 1 -3164.6372 4237.4756)">
</image>
<image style="overflow:visible;" width="1246" height="1065" xlink:href="../../Library/CloudStorage/GoogleDrive-lucas.pretti@okfn.org/.shortcut-targets-by-id/0B79xBlVd-Nf6ZzMzUlZSTWwxV28/Open Knowledge All Team/Brand 2023/Illustrations/L 1500px - web transp/Icons/knowledge.png"  transform="matrix(1 0 0 1 -3164.6372 4237.4756)">
</image>
<image style="overflow:visible;" width="1163" height="1026" xlink:href="../../Library/CloudStorage/GoogleDrive-lucas.pretti@okfn.org/.shortcut-targets-by-id/0B79xBlVd-Nf6ZzMzUlZSTWwxV28/Open Knowledge All Team/Brand 2023/Illustrations/L 1500px - web transp/Icons/mission.png"  transform="matrix(1 0 0 1 -3164.6372 4237.4756)">
</image>
<image style="overflow:visible;" width="943" height="914" xlink:href="../../Library/CloudStorage/GoogleDrive-lucas.pretti@okfn.org/.shortcut-targets-by-id/0B79xBlVd-Nf6ZzMzUlZSTWwxV28/Open Knowledge All Team/Brand 2023/Illustrations/L 1500px - web transp/Icons/policy.png"  transform="matrix(1 0 0 1 -3164.6372 4237.4756)">
</image>
<image style="overflow:visible;" width="1413" height="1197" xlink:href="../../Library/CloudStorage/GoogleDrive-lucas.pretti@okfn.org/.shortcut-targets-by-id/0B79xBlVd-Nf6ZzMzUlZSTWwxV28/Open Knowledge All Team/Brand 2023/Illustrations/L 1500px - web transp/Icons/press.png"  transform="matrix(1 0 0 1 -3164.6372 4237.4756)">
</image>
<image style="overflow:visible;" width="1302" height="998" xlink:href="../../Library/CloudStorage/GoogleDrive-lucas.pretti@okfn.org/.shortcut-targets-by-id/0B79xBlVd-Nf6ZzMzUlZSTWwxV28/Open Knowledge All Team/Brand 2023/Illustrations/L 1500px - web transp/Icons/reproducible-research.png"  transform="matrix(1 0 0 1 -3164.6372 4237.4756)">
</image>
<image style="overflow:visible;" width="948" height="1047" xlink:href="../../Library/CloudStorage/GoogleDrive-lucas.pretti@okfn.org/.shortcut-targets-by-id/0B79xBlVd-Nf6ZzMzUlZSTWwxV28/Open Knowledge All Team/Brand 2023/Illustrations/L 1500px - web transp/Icons/service.png"  transform="matrix(1 0 0 1 -3164.6372 4237.4756)">
</image>
<image style="overflow:visible;" width="1266" height="879" xlink:href="../../Library/CloudStorage/GoogleDrive-lucas.pretti@okfn.org/.shortcut-targets-by-id/0B79xBlVd-Nf6ZzMzUlZSTWwxV28/Open Knowledge All Team/Brand 2023/Illustrations/L 1500px - web transp/Icons/support.png"  transform="matrix(1 0 0 1 -3164.6372 4237.4756)">
</image>
<image style="overflow:visible;" width="1366" height="1085" xlink:href="../../Library/CloudStorage/GoogleDrive-lucas.pretti@okfn.org/.shortcut-targets-by-id/0B79xBlVd-Nf6ZzMzUlZSTWwxV28/Open Knowledge All Team/Brand 2023/Illustrations/L 1500px - web transp/Icons/team.png"  transform="matrix(1 0 0 1 -3164.6372 4237.4756)">
</image>
<g>
	<path d="M648.4,543.9c-1.1-3.2-2.5-5.7-3-8.5c-3.9-23.3-6.9-46.8-11.5-69.9c-6.7-33-21.7-62-45.7-86c-8.1-8.1-16.2-16.4-25-23.6
		c-15-12.4-30.7-23.7-49.9-29.3c-8.1-2.3-15.4-7.3-23.5-9.4c-10.2-2.7-20.8-4.2-31.3-5.5c-9.7-1.2-19.5-2-29.2-2
		c-11.5,0-23.2,0.5-34.6,1.9c-14,1.7-28.2,3.5-41.9,7c-28.8,7.3-54.5,21.1-77.3,40.2c-5,4.2-10.7,8-12.9,16c8.8,1.6,17.4,3.1,26,4.7
		c14.5,2.7,29.1,5.2,43.5,8.1c13.5,2.7,26.9,5.9,40.3,9c2.5,0.6,4.9,1.9,7.3,2.9c0.4,0.2,0.7,0.9,1.1,0.9c8.8,0.5,16.5,5.3,25.1,6.6
		c9,1.4,18,3,26.9,5c7.3,1.7,11.2,7.4,14.9,13.6c5.4,9.1,11.5,17.7,17.4,26.5c6.1,9.1,10.8,18.1,7.3,30c-2.8,9.6-3,19.9-4.7,29.9
		c-1,6.2-2.5,12.3-3.9,18.4c-3.1,13.5-6.1,27.1-9.6,40.5c-3.1,11.6-7,22.9-10.2,34.4c-2.6,9.3-4.4,18.8-6.8,28.1
		c-2.8,11.2-5.9,22.3-8.8,33.4c-0.3,1.3-0.6,2.6-0.9,3.9c-1.7,8.6-1.5,8.9,6.5,12.9c9.7,4.9,20,7.7,30.7,9.8c13.9,2.7,27.8,5,42,4.7
		c23.4-0.4,44.3,7.7,64.2,19.1c19,10.9,36.1,24.3,52.9,38.2c0.5,0.4,1.1,0.7,1.2,0.8c7.2-6.3,14.1-12.6,21.3-18.3
		c5-3.9,10.3-7.5,16-10.2c7.4-3.4,15.3-5.9,23.1-8.5c5.4-1.8,10.8-1.2,16.3,0.3c9.4,2.7,17.9,7.2,25.3,13.6c2.3,2,4.2,2.4,7,0.5
		c7.1-5,14-10.2,23.5-9.8c1.1,0,2.3-3.4,3.8-5.6c11.5-7.5,23.5-15.3,36.7-23.9c-10.5-6.3-19.8-11.7-28.8-17.5
		c-15.7-10.2-31.5-20.3-46.9-31c-18.4-12.8-36.4-26.4-50.7-43.8c-8.4-10.3-15.1-22-22.5-33.1c-0.5-0.7-0.7-1.5-1-2.3
		c-2.5-6-1.5-9.8,3.4-13.4c4.6-3.3,8.5-3.1,13.2,1.8c4.9,5.1,9.5,10.7,13.8,16.4c6.3,8.3,12.2,16.8,20.7,23.4
		c11.3,8.9,21.8,18.8,32.9,28c9,7.5,18.5,14.4,27.6,21.7c5.7,4.5,11.1,9.3,16.9,13.7c4.8,3.6,10,6.5,14.8,10
		c6.9,5,13.7,10.4,20.4,15.5c8.2-5.9,16.7-12,25.2-18.1c13.8-9.8,27.8-19.4,41.3-29.4c15.5-11.5,30.7-23.5,46-35.3
		c8.1-6.3,16.2-12.5,24.4-18.8c14.8-11.4,29.4-22.9,44.3-34c10-7.4,20.5-14,30.8-21.1c15.3-10.5,30.5-21.2,46-31.5
		c21.8-14.4,43.8-28.5,65.6-42.8c10-6.6,19.9-13.4,29.8-20.1c0.6-0.4,1.1-0.9,1.7-1c4.4-1.1,5.5-3.3,4.7-8.2
		c-2.1-13.4,5.8-19.1,16.1-22.4c4.1-1.3,7.8-4.6,12.6-3.3c0.1,0,0.3-0.1,0.4-0.3c6.7-9.8,19-7.5,27.9-12.8
		c8.2-4.9,17.9-6.2,26.6-10.7c15.1-7.8,31.5-13.3,48.4-16.2c7.1-1.2,13.6,0.6,18,6.9c4.8,6.9,5.8,14.4,1,21.6
		c-6.7,10.1-13.7,20-21.2,29.5c-14.1,17.9-28.5,35.6-42.9,53.2c-7.1,8.6-14.6,16.9-21.6,25.5c-3.6,4.5-9.1,4.9-13.2,1.1
		c-2.3-2.2-4.7-4.2-7.4-6.7c-5.5,4.7-10.6,9.6-16.3,13.8c-3,2.2-7.1,2.9-10.6,4.5c-4.7,2.2-9.8,4-14,7
		c-12.5,8.8-24.5,18.1-36.8,27.1c-12.2,8.9-24.4,17.6-36.7,26.3c-12.2,8.6-24.2,17.6-36.8,25.6c-24.6,15.6-47.6,33.3-70.7,51
		c-17.3,13.2-35.2,25.6-52.7,38.5c-9.7,7.2-19.2,14.6-28.8,21.9c-9.5,7.2-19,14.3-28.7,21.6c13.4,5,23.8,13.8,34.3,22.5
		c5.7,4.7,11.8,9,17.6,13.5c4.8,3.8,9.5,7.7,14.2,11.7c12.8,10.8,25.6,21.6,38.5,32.3c10.2,8.5,20.3,17,30.8,25.1
		c8.2,6.4,17,12,25.3,18.2c12.3,9.3,24.4,18.9,36.7,28.2c16.1,12.1,32.6,23.9,48.6,36.1c11.6,8.8,22.8,18.1,34.1,27.3
		c5.8,4.8,11.7,9.5,17.1,14.8c5.1,4.9,9.1,11,14.3,15.7c11.2,10.3,22.7,20.2,34.4,29.9c22.1,18.2,43.8,36.8,61.1,60
		c4.3,5.8,8.9,11.7,11.6,18.2c4.4,10.6,4.4,22,1.7,33.1c-3.3,13.5-6.1,27.5-11.6,40.2c-12.1,28.2-32.6,46.5-63.8,53
		c-27.1,5.6-51-0.5-74-13.8c-10.9-6.3-22.1-12.3-32.4-19.5c-16.1-11.2-31.7-23-47.2-34.9c-18.6-14.3-37-28.8-55.2-43.6
		c-17.8-14.5-35-29.6-52.6-44.3c-17.9-14.9-35.9-29.5-53.8-44.4c-11.6-9.7-23.1-19.5-34.4-29.6c-17.7-15.8-35.3-31.7-52.8-47.8
		c-14.7-13.5-29.1-27.2-43.6-40.9c-1.7-1.6-3.4-3-4.5-3.9c-3,2.4-5.1,5.2-7.9,6.3c-11.2,4.4-22.5,9.2-34.1,11.9
		c-7,1.6-14.9-0.3-22.4-0.6c-3-0.1-6.2-0.4-8.9,0.5c-2.6,0.8-6.4,2.6-6.9,4.7c-1.6,7.3-7.2,11.7-10.8,17.6c-1.6,2.6-3.3,5.2-4.3,8.1
		c-2,6-3.5,12.1-5.1,18.1c-0.8,3.2-1.2,6.6-2.2,9.7c-1.2,3.9-2.9,7.6-4.4,11.4c-1.2,2.9-2.3,5.9-4.1,8.4c-1.9,2.7-4.8,4.7-6.9,7.3
		c-1.2,1.5-1.8,3.5-3,5.7c1.3-0.3,2.2-0.5,3-0.7c-0.1,0.3-0.2,0.6-0.3,0.8c-8.9,12-19.2,22.8-31.4,31.5c-9.4,6.7-19.2,13-28.7,19.6
		c-19.7,13.8-39.4,27.7-59.1,41.4c-11.4,7.9-23.1,15.4-34.4,23.5c-10.7,7.7-21,15.9-31.6,23.7c-9.1,6.7-18.3,13.1-27.4,19.8
		c-12.3,8.9-24.2,18.4-36.9,26.8c-9.7,6.5-20,12.1-30.4,17.4c-8.2,4.2-16.8,7.6-25.4,11.1c-4,1.6-8.1,3.5-12.2,4
		c-10.1,1-19.8,4.4-30.3,2.6c-13.9-2.5-28.3-2.6-41.8-6.3c-9.4-2.6-17.9-9.2-26.3-14.8c-6.2-4.1-12.2-8.9-17.1-14.4
		c-24.1-27-30.5-57.7-18.7-92.2c4.4-13.1,11.3-24.8,19.1-35.9c8.5-12.1,17.7-24,28.1-34.6c13.1-13.3,27.3-25.6,41.6-37.6
		c11.3-9.4,23.4-17.8,35.2-26.5c12-8.9,24.1-17.6,36.1-26.4c11.6-8.5,23-17.1,34.8-25.3c11.3-7.8,22.8-15.3,34.4-22.7
		c7-4.4,14.4-8.2,21.4-12.6c4.9-3,9.2-7,14-10c11.3-6.8,22.5-13.8,34.2-19.8c11.7-6,23.3-12.8,36.6-14.5c10-1.3,20.1-2.3,30.2-3.1
		c9.6-0.7,19-2.2,27.3-7.6c5.2-3.4,7.9-8.3,9.3-14c1.2-4.8,1.5-9.8,2.6-14.5c0.7-2.9-0.1-4.1-2.5-6c-5.7-4.5-10.6-10.1-16.5-14.3
		c-12.2-8.6-24.9-16.4-37.2-24.8c-9.8-6.8-21-10.9-32.3-13c-12.8-2.3-26.1-1.5-39.1-2.5c-5.7-0.4-11.3-2.2-17-3.1
		c-14.5-2.4-29.1-4.9-41.2-13.7c-8.1-5.9-16.5-11.5-21.3-21.4c-2.2-4.6-1.1-7.8-0.2-11.3c8.7-35.2,17.7-70.4,26.6-105.6
		c0.2-0.8,0.3-1.6,0.5-2.8c-12-3-23.8-6.2-35.7-8.8c-16.2-3.6-32.6-6.7-48.9-9.9c-19.7-3.9-39.4-7.8-59-11.7
		c-14.8-2.9-29.7-5.6-44.4-8.8c-4-0.8-7.6-3-11.5-4.2c-5.2-1.6-6.8-0.5-5.4,4.9c1.8,7.1,3.5,14.5,7.1,20.7
		c12.4,21.3,29.1,39,49.4,53.2c9.1,6.3,17.7,13.4,27,19.5c5.1,3.4,10.9,5.7,16.6,7.9c9.6,3.7,19.4,6.9,29.1,10.5
		c4.8,1.8,9.5,3.9,14.1,6.1c2.9,1.3,3,6.5,0.6,11.1c-2.8,5.4-8.3,6.4-13.2,6c-9.8-0.7-19.5-1.9-28.8-6.1c-2.9-1.3-6.7-1.7-10.2-3
		c-11.3-4.3-22.4-8.7-31.8-16.8c-6.1-5.3-13.3-9.2-19.6-14.3c-6.4-5.2-12.3-11-18.3-16.7c-12.3-11.9-22.2-25.6-28-41.8
		c-5.3-15-8.6-30.3-5.5-46.3c0.4-2.3,0.2-6.1,1.5-6.7c3.5-1.7,7.6-2.6,11.6-2.9c18.4-1.4,36,4,54,6.2c10.3,1.2,20.5,3.2,30.6,5.4
		c5.5,1.2,10.7,4.4,16.2,5.4c9.6,1.8,19.5,2.3,29.2,3.9c9.2,1.5,18.3,3.7,27.5,5.4c7.9,1.5,15.9,2.6,23.9,4c1.1,0.2,1.9,1.5,2.8,2.3
		c0.3,0.3,0.5,0.9,0.8,1.2c3.2,3,18.4,5.6,21.7,3.1c1.6-1.2,2.4-3.9,2.9-6.1c1.7-7.4,2.9-15,4.5-22.4c1.6-7.1,3.8-14.1,5.3-21.2
		c1.5-7.6,2.7-15.4,3.5-23.1c0.1-1.2-2.5-2.6-3.5-4.2c-4.3-6.8-9.4-13.4-12.4-20.8c-3.2-7.9-8.1-11.3-16.4-12.3
		c-7.7-0.9-15.1-3.7-22.7-5.5c-17.3-4.2-34.5-8.5-51.8-12.5c-20-4.7-40.1-9.2-60.1-13.8c-11.6-2.7-23.2-5.3-34.8-8.3
		c-6.7-1.7-12-10.1-8.8-15.8c5.9-10.6,8.8-23,19-31.1c5.4-4.3,9.5-10.2,14.9-14.5c9.9-7.9,20.3-14.8,32.8-18.4
		c7.3-2.1,13.7-7.3,20.7-10.4c6.3-2.8,12.8-5.7,19.6-6.9c16.8-3,33.7-5.2,50.6-7.4c7.9-1,15.8-1.6,23.7-1.5c8.3,0.1,16.7,0.8,25,2
		c13.4,2,26.9,4,40.1,7c20.5,4.7,39.8,12.4,57.4,24.2c15.5,10.4,29.5,22.5,42.8,35.6c29,28.5,47.7,62.6,56.5,102
		c4.9,21.9,7.8,44.2,11.6,66.3c0.6,3.4,1.2,6.9,1.4,10.3c0.2,3.1-0.5,5.6-4.3,6.4C652.3,539.4,651.1,541.5,648.4,543.9z
		 M662.6,932.7c-2.2-7.3-1-13.2,4-18.1c5.6-5.4,11.2-10.9,17.1-15.9c3.4-2.9,7.3-5.2,11.2-7.2c8.3-4.4,17.6-3.7,26.4-3.2
		c12.3,0.7,24,0,35.5-5.2c13.1-5.9,20.1-17.3,15.5-30.7c-5.4-15.8-11.8-31.4-19.3-46.3c-6.6-13.1-14.9-25.4-23.1-37.6
		c-9.7-14.4-22.2-26.1-37.6-34.2c-3.4-1.8-8.2-2.9-11.8-2.1c-4.3,1-8.4,4-12,6.9c-9.5,7.6-18.5,15.7-27.9,23.3
		c-6.8,5.4-8.9,12.2-8.1,20.6c0.6,5.9,0.8,12.1-3,17.2c-3.9,5.2-8.1,10.1-12.3,15c-4.7,5.4-9,11.3-16,14.5
		c-13.1,5.8-27.4,6-40.9,9.5c-7.7,2-16,2.5-23,5.9c-15.9,7.7-31.7,16.1-46.7,25.5c-23.3,14.6-46,30.1-68.7,45.5
		c-14.3,9.7-28.2,20.1-42.2,30.2c-8.9,6.4-18,12.6-26.6,19.4c-16.6,13-33.1,26.2-49.3,39.8c-10.7,8.9-21.3,18-31,28
		c-7.7,8-14,17.2-20.5,26.3c-9.3,12.9-18,26-23.8,41.2c-6.4,16.8-8.2,33.2-1.6,50.4c6.4,16.7,16.2,30,34,35
		c18,5.1,36.2,8.3,55.1,5.7c20.7-2.8,39.2-10.9,57.3-20.7c0.3-0.1,0.6-0.1,1-0.1c-0.4,0.7-0.7,1.4-1.5,3.1c6-3.5,11.4-6.3,16.4-9.7
		c19.6-13.1,39.2-26.2,58.5-39.7c8.7-6.1,16.5-13.6,25.1-20c18.9-14,37.8-27.9,57-41.5c22.8-16.2,45.7-32.1,68.8-47.9
		c18.6-12.7,34.9-28,50.3-44.3c1.2-1.3,2.3-2.9,2.9-4.5c4.6-11.5,9.2-23,13.6-34.6c0.4-1-0.2-2.4-0.3-3.6c-0.3,0.1-0.6,0.1-0.9,0.2
		C663.8,929.7,663.3,931,662.6,932.7z M783.3,809.7c1.5-3.1,2.4-5.4,3.7-7.4c1.3-1.9,3.4-3.3,4.4-5.4c1.8-3.7,5-7.7,2.2-12
		c-4.8-7-10.2-13.5-15.2-20.3c-7-9.5-15.1-17.8-24.9-24.2c-3.3-2.2-9.4-0.7-11.9,3c-2.3,3.5,1.5,4.8,3,6.9
		c7.2,10.3,15.2,20.1,21.4,31c7.8,13.8,14.2,28.4,21,42.8c6,12.8,10.3,25.9,6,40.3c-0.3,1.1,0.2,3.3,1.1,3.8
		c2.8,1.9,4.1,6.3,8.8,5.4c0.8-0.2,2.1,1.3,3.1,2.2c8.1,8,15.8,16.3,24.2,24c11.7,10.9,23.8,21.3,35.8,32c14,12.5,27.7,25.4,42,37.6
		c15.6,13.3,31.6,26.1,47.4,39.1c10.5,8.6,21,17.1,31.4,25.7c21.2,17.6,42.2,35.4,63.5,52.8c15,12.3,30.4,24.2,45.7,36.2
		c11.3,8.9,22.4,18.1,34.2,26.2c13,8.8,26.9,16.5,40.3,24.7c14.7,9,30.9,11.5,47.8,11.3c10.9-0.1,21-3.8,30.6-7.9
		c14.3-6.2,27.5-14.5,33.3-30.4c2.7-7.3,5.5-14.6,7.4-22.2c3.1-12.5,2.1-24.9-4.8-36.1c-3.9-6.4-9-12.3-14.2-17.7
		c-12.4-13-24.9-25.9-38-38.2c-7.8-7.4-17.2-13.1-25.2-20.3c-15.8-14.2-30.5-29.7-46.9-43.2c-20.2-16.8-41.7-32.1-62.6-48.1
		c-11.9-9.1-23.7-18.3-35.6-27.4c-21.5-16.3-43.2-32.3-64.5-48.8c-11.3-8.8-21.7-18.6-32.8-27.7c-16.4-13.3-33.1-26.1-49.5-39.4
		c-16.6-13.5-33-27.2-48.9-40.4c-7.5,5.6-14.1,10.5-20.8,15.4c-9,6.5-18,13-27,19.6c-1.2,0.9-2.3,2.5-2.4,3.9
		c-0.4,3.9-0.2,7.9-0.4,11.8c0,1.1-0.3,2.5-1,3.2c-4.9,4.9-9.8,9.8-14.9,14.5c-1.4,1.3-3.3,2.4-5.1,2.8
		C791.8,809.5,788.4,809.4,783.3,809.7z M1188,437.2c-3.2,2.3-6.3,4.2-9,6.5c-7.2,6.2-13.8,13.2-21.6,18.7
		c-14.3,10.1-29.3,19.3-44,28.9c-11.1,7.3-22.2,14.6-33.3,22c-18.3,12.2-36.7,24.1-54.6,36.8c-23.9,16.8-47.4,34.1-71,51.3
		c-12.3,9-24.4,18.5-36.5,27.8c-13.2,10.1-26.3,20.3-39.8,30.1c-17.2,12.5-34.7,24.6-52.1,36.9c-10.3,7.3-20.6,14.7-31,21.7
		c-5.6,3.8-11.5,6.9-16.7,10c9.9,10.5,19.3,20.5,28.8,30.6c8.4-6.4,17.5-13.7,26.9-20.5c11.7-8.4,23.9-16.2,35.5-24.7
		c14.5-10.6,28.6-21.8,43-32.5c30.4-22.6,60.7-45.4,91.4-67.6c26.2-19,52.8-37.4,79.4-55.8c14.9-10.3,30.1-20,45.1-30.3
		c19.6-13.5,39-27.3,58.6-40.7c2.1-1.4,4.9-1.8,8.7-3.1c2.2-3.2,5.3-7.7,8.5-12.2c0.5-0.7,1.4-1.6,2.2-1.6c4.7,0,9.7-0.9,12.9,4.2
		c1,1.6,2.8,2.6,4.2,3.9c20.8-22,79.9-94.7,81.6-101.4c-7.4,2.5-14.1,4.4-20.5,7c-14.9,6.1-29.6,12.6-44.5,18.8
		c-4.6,1.9-9.4,3.3-14,5.2c-11.3,4.8-22.7,9.4-33.7,15C1183.5,426.8,1183.8,427.4,1188,437.2z"/>
	<path d="M512.9,524.9c1.9-0.2,3.9-0.3,5.8-0.8c1.7-0.4,3.4-2,4.9-1.7c4.2,0.6,8.3,1.9,12.4,3c8.3,2.3,16.7,4.5,24.9,7
		c6.2,1.9,12.4,3.9,18.4,6.5c3.7,1.6,7.1,4.2,10.2,6.9c1,0.9,0.9,3.6,0.6,5.4c-3.1,19-6,38.1-9.7,57c-2.7,14.2-6.4,28.1-10,42.1
		c-0.9,3.3-2.7,6.5-4.8,9.3c-1,1.3-3.7,1.9-5.5,1.7c-6.4-0.7-12.9-1.7-19.2-3.1c-13.6-3-27.2-6.2-40.8-9.6c-3.2-0.8-6.3-2-9.4-3.4
		c-6.8-3.1-9.2-7.1-8.7-14.5c1-14.4,3.1-28.6,7.9-42.3c3.3-9.5,7-18.9,10-28.5c3.1-10.1,5.4-20.5,8.3-30.7c0.6-2.2,2.2-4.1,3.3-6.2
		C512,523.6,512.4,524.3,512.9,524.9z M524.2,535.1c-0.5,0.8-0.8,1.2-0.9,1.7c-3.6,16-6.1,32.3-10.9,48c-5,16.6-10,33-11.9,50.8
		c4.4,1,8.9,2.2,13.4,3.2c10.5,2.3,21.1,4.4,31.6,6.7c2.7,0.6,4-0.4,4.7-3c3.5-13.6,7.3-27.1,10.6-40.8c1.8-7.4,2.7-15,4.2-22.5
		c0.5-2.5,2.3-4.8,2.7-7.3c1-6.4,1.2-12.9,2.5-19.2c0.9-4.2-0.8-5.1-4.2-6c-12.5-3.2-25-6.6-37.5-10
		C527.1,536.1,525.7,535.6,524.2,535.1z"/>
	<path d="M456.4,400.5c-4.9-1.5-9.8-3.3-14.8-4.6c-25.1-6.7-50.2-13.1-75.2-19.9c-9.7-2.6-19.3-5.8-28.9-9.1
		c-2.6-0.9-4.8-3.3-7.7-5.5c4.5-0.6,8.9-1,13.3-1.8c17.5-3.1,33.8,2.9,50.2,7.3c15.3,4.1,30.5,8,45.5,12.9c6.1,2,11.9,5.9,17,10
		c1.9,1.5,1.7,5.7,2.5,8.7C457.6,399.1,457,399.8,456.4,400.5z"/>
	<path d="M459.2,959.2c-0.7,2.4-1.2,3.8-1.6,5.2c2.9,0.3,6.5,1.8,8.5,0.6c5.6-3.3,11.2-2.9,17.1-2.4c4.3,0.3,8.9,4.7,9.9,9.1
		c0.3,1.4,1.2,2.7,1.7,4.1c3.1,8.4-0.6,15.2-6,20.7c-7.4,7.5-15.3,14.5-23.7,20.9c-17.3,13.2-35,26.1-52.7,38.8
		c-7,5-14.7,8.9-21.8,13.6c-3.4,2.2-6,5.6-9.4,7.8c-7.5,4.8-15.3,9.2-23.1,13.6c-9.4,5.3-18.8,10.6-28.4,15.6
		c-4.8,2.5-9.9,4.7-15,6.6c-9.9,3.6-19.7,0.7-25.9-7.5c-3.5-4.6-2.7-13.6,2.4-19.4c14.5-16.3,29.3-32.3,47.7-44.5
		c7.6-5.1,14.3-11.4,21.7-16.8c11.1-7.9,22.4-15.5,33.7-23.2c12.8-8.7,25.5-17.4,38.4-26c5.4-3.6,11.2-6.5,16.7-9.9
		C452.5,964.2,455.4,961.8,459.2,959.2z M478.2,968.9c-6.4,4.2-11.5,8.3-18.5,7.9c-0.9,0-1.9,0.4-2.6,0.9
		c-7.2,5.3-13.9,11.4-21.5,16c-13.4,8.2-24.6,19.9-39.8,25.2c-0.7,0.3-1.3,1-2,1.5c-4.6,4-9,8.3-13.9,12
		c-15.1,11.8-30.7,22.9-45.4,35.1c-10.2,8.5-19.1,18.6-28.5,28c0.3,0.5,0.7,0.9,1,1.4c9.3-4.3,18.7-8.4,27.9-12.9
		c4.3-2.1,8.2-4.9,12.4-7.1c8.6-4.6,17.3-8.8,25.8-13.5c2.9-1.6,5.3-4,8.1-5.8c15.1-9.9,30.8-19.2,45.4-29.8
		c14.1-10.3,27.2-22.1,40.7-33.3c5.2-4.3,10.1-8.7,12.8-15.5C481.8,974.7,479,972.5,478.2,968.9z"/>
	<path d="M510.6,876.8c3-0.5,4.6-1.1,6.1-1c1.5,0.1,3.1,0.7,4.3,1.5c34.5,22.9,59.2,54,76.3,91.4c1.9,4.1,3.8,8.1,5.6,12.2
		c2.1,4.7,0.8,9.2-3,10.4c-3.9,1.3-10.3-1.8-11.4-5.6c-4.9-17.7-13.9-33.5-23.9-48.5c-10.6-15.7-23.7-29.6-38.3-41.9
		c-4.7-3.9-9.1-8.2-13.3-12.7C511.7,881.2,511.4,878.6,510.6,876.8z"/>
	<path d="M1056.3,1032.9c0.2-2,0.4-3.9,0.6-6.6c5.7-3.5,11.8-1.5,17.5,2.1c18.1,11.5,35.8,23.5,51.1,38.7c0.5,0.5,1.3,0.9,2.4,1.7
		c2.9-11.3,10.7-19,17.8-27c1.9-2.1,1.3-3.5-0.5-5c-22.9-18.6-45.7-37.2-68.7-55.7c-12.3-9.8-25.1-19-37.3-28.9
		c-19.1-15.6-38-31.5-56.7-47.5c-14.8-12.7-29.3-25.8-44.1-38.5c-6.1-5.3-12.6-10.1-18.8-15.3c-5.9-4.9-11.9-9.8-17.6-14.9
		c-3.1-2.8-6.5-5.5-8.6-9c-1.5-2.4-1-6-1.6-10.7c4.4,0.9,8.1,1,11.3,2.3c18.1,7.4,32.8,19.8,46.3,33.5
		c16.4,16.7,33.9,32.1,51.9,47.1c12.3,10.3,24.5,20.9,37,31c14.2,11.5,28.6,22.8,43,33.9c15.9,12.3,32,24.3,47.9,36.6
		c11.1,8.6,22,17.4,32.8,26.4c2.3,1.9,4.5,4.6,5.3,7.4c1.8,5.9-1.3,10.2-7.2,12c-2.1,0.6-4.1,1.8-5.7,3.2
		c-8.3,7.7-12.5,17.3-13.9,28.4c-0.9,7.3-9.9,13-16,9.3c-7.2-4.4-13.8-10-20.2-15.5c-11.5-10-22.5-20.6-36.4-27.5
		c-4.9-2.4-8.8-6.9-13.2-10.4C1055.3,1033.6,1055.8,1033.3,1056.3,1032.9z"/>
	<path d="M1244,1095.9c0.1,22.6-19.9,40.5-37,43.4c-7.8,1.3-16.2,0.1-24.2-1.1c-3.3-0.5-6.6-3.5-8.9-6.2c-4.2-5-8.1-10.3-11.2-16
		c-2-3.7-2.5-8.2-3.2-12.5c-1.6-10-1.6-20.1,3.7-29c2.3-3.9,6.7-6.5,10.2-9.7c1.6-1.5,3.7-2.7,4.6-4.5c4.5-9.4,11.2-14.9,22.2-15.6
		c17.8-1.1,27.8,4.5,36.5,20.2C1242.5,1075.3,1242.4,1086.6,1244,1095.9z M1173.9,1083.2c-0.5,0.1-1.1,0.2-1.6,0.3
		c0,3.5-0.5,7.1,0.1,10.5c0.8,4.4,2,8.9,4.1,12.8c4.3,8.2,9.7,15.5,20.2,16.1c3.8,0.2,7.6,0.6,11.5,0.6
		c12.4-0.1,21.1-10.1,19.8-22.3c-0.4-3.1-0.5-6.3-1-9.4c-1.4-8.4-3.3-16.7-9.5-23.2c-4.8-5.1-10.3-8.2-17.8-8.2
		c-6.4,0-10.1,1.2-12.6,7.3c-2.6,6.4-4.6,13-11.1,16.9C1175.5,1084.3,1174.7,1083.8,1173.9,1083.2z"/>
	<path d="M830.4,846.1c1.3-2.5,2.3-4.5,3.3-6.5c1.8,1,3.6,2,5.3,3.2c3.6,2.5,7.3,4.9,10.8,7.6c8.1,6.4,15.3,14.2,24.2,19.1
		c8.9,4.9,15.9,11.7,23.7,17.8c11,8.6,21.5,17.8,32.5,26.4c11.6,9,23.5,17.6,35.1,26.5c14.1,10.7,28.3,21.4,42.2,32.4
		c2.5,2,4.8,4.7,6.1,7.6c0.9,2.1-0.1,5-0.2,7.6c-2-0.2-4.3,0.2-5.9-0.7c-3.7-2.3-7-5.3-10.7-7.7c-6.3-4-13-7.3-19-11.8
		c-16.8-12.6-33.6-25.3-50-38.5c-25.8-20.7-51.2-41.8-76.8-62.8c-5.8-4.7-11.5-9.6-17-14.6C832.6,850.3,831.7,848.1,830.4,846.1z"/>
	<path d="M560,576.3c-1,4.9-5.1,5.8-8.6,4.8c-5.2-1.5-10-4.3-14.9-6.6c-3.1-1.5-2.8-4.7-1.6-6.7c0.7-1.2,3.9-1.9,5.7-1.5
		C549.9,568.2,553.2,568.8,560,576.3z"/>
	<path d="M524.2,596.5c2-0.6,4-1.9,5.5-1.5c5.3,1.6,11.1,2.3,15.1,7.1c2.3,2.7,2,4.1-0.9,5.7C535.2,612.6,524.3,606,524.2,596.5z"/>
	<path d="M521.9,614.7c7.6-1.4,13.4,1.6,17.9,8.1c-1.7,4-5.3,5.9-9.6,5.1c-3.1-0.6-7-1.9-8.6-4.3
		C520.3,621.6,521.7,617.7,521.9,614.7z"/>
</g>
</svg>
