<?xml version="1.0" encoding="utf-8"?>
<!-- Generator: Adobe Illustrator 27.4.1, SVG Export Plug-In . SVG Version: 6.00 Build 0)  -->
<svg version="1.1" id="Camada_1" xmlns="http://www.w3.org/2000/svg" xmlns:xlink="http://www.w3.org/1999/xlink" x="0px" y="0px"
	 viewBox="0 0 1500 1500" style="enable-background:new 0 0 1500 1500;" xml:space="preserve">
<image style="overflow:visible;" width="1450" height="993" xlink:href="../../Library/CloudStorage/GoogleDrive-lucas.pretti@okfn.org/.shortcut-targets-by-id/0B79xBlVd-Nf6ZzMzUlZSTWwxV28/Open Knowledge All Team/Brand 2023/Illustrations/L 1500px - web transp/Icons/board.png"  transform="matrix(1 0 0 1 -3164.6372 4237.4756)">
</image>
<image style="overflow:visible;" width="1133" height="1032" xlink:href="../../Library/CloudStorage/GoogleDrive-lucas.pretti@okfn.org/.shortcut-targets-by-id/0B79xBlVd-Nf6ZzMzUlZSTWwxV28/Open Knowledge All Team/Brand 2023/Illustrations/L 1500px - web transp/Icons/books.png"  transform="matrix(1 0 0 1 -3164.6372 4237.4756)">
</image>
<image style="overflow:visible;" width="1357" height="1143" xlink:href="../../Library/CloudStorage/GoogleDrive-lucas.pretti@okfn.org/.shortcut-targets-by-id/0B79xBlVd-Nf6ZzMzUlZSTWwxV28/Open Knowledge All Team/Brand 2023/Illustrations/L 1500px - web transp/Icons/campagne.png"  transform="matrix(1 0 0 1 -3164.6372 4237.4756)">
</image>
<image style="overflow:visible;" width="845" height="1103" xlink:href="../../Library/CloudStorage/GoogleDrive-lucas.pretti@okfn.org/.shortcut-targets-by-id/0B79xBlVd-Nf6ZzMzUlZSTWwxV28/Open Knowledge All Team/Brand 2023/Illustrations/L 1500px - web transp/Icons/case-study.png"  transform="matrix(1 0 0 1 -3164.6372 4237.4756)">
</image>
<image style="overflow:visible;" width="1265" height="951" xlink:href="../../Library/CloudStorage/GoogleDrive-lucas.pretti@okfn.org/.shortcut-targets-by-id/0B79xBlVd-Nf6ZzMzUlZSTWwxV28/Open Knowledge All Team/Brand 2023/Illustrations/L 1500px - web transp/Icons/collaboration.png"  transform="matrix(1 0 0 1 -3164.6372 4237.4756)">
</image>
<image style="overflow:visible;" width="1339" height="1035" xlink:href="../../Library/CloudStorage/GoogleDrive-lucas.pretti@okfn.org/.shortcut-targets-by-id/0B79xBlVd-Nf6ZzMzUlZSTWwxV28/Open Knowledge All Team/Brand 2023/Illustrations/L 1500px - web transp/Icons/connect-community.png"  transform="matrix(1 0 0 1 -3164.6372 4237.4756)">
</image>
<image style="overflow:visible;" width="1357" height="681" xlink:href="../../Library/CloudStorage/GoogleDrive-lucas.pretti@okfn.org/.shortcut-targets-by-id/0B79xBlVd-Nf6ZzMzUlZSTWwxV28/Open Knowledge All Team/Brand 2023/Illustrations/L 1500px - web transp/Icons/contact.png"  transform="matrix(1 0 0 1 -3164.6372 4237.4756)">
</image>
<image style="overflow:visible;" width="1059" height="1080" xlink:href="../../Library/CloudStorage/GoogleDrive-lucas.pretti@okfn.org/.shortcut-targets-by-id/0B79xBlVd-Nf6ZzMzUlZSTWwxV28/Open Knowledge All Team/Brand 2023/Illustrations/L 1500px - web transp/Icons/create-open-data.png"  transform="matrix(1 0 0 1 -3164.6372 4237.4756)">
</image>
<image style="overflow:visible;" width="1198" height="998" xlink:href="../../Library/CloudStorage/GoogleDrive-lucas.pretti@okfn.org/.shortcut-targets-by-id/0B79xBlVd-Nf6ZzMzUlZSTWwxV28/Open Knowledge All Team/Brand 2023/Illustrations/L 1500px - web transp/Icons/data.png"  transform="matrix(1 0 0 1 -3164.6372 4237.4756)">
</image>
<image style="overflow:visible;" width="1162" height="1032" xlink:href="../../Library/CloudStorage/GoogleDrive-lucas.pretti@okfn.org/.shortcut-targets-by-id/0B79xBlVd-Nf6ZzMzUlZSTWwxV28/Open Knowledge All Team/Brand 2023/Illustrations/L 1500px - web transp/Icons/funders.png"  transform="matrix(1 0 0 1 -3164.6372 4237.4756)">
</image>
<image style="overflow:visible;" width="1005" height="1001" xlink:href="../../Library/CloudStorage/GoogleDrive-lucas.pretti@okfn.org/.shortcut-targets-by-id/0B79xBlVd-Nf6ZzMzUlZSTWwxV28/Open Knowledge All Team/Brand 2023/Illustrations/L 1500px - web transp/Icons/governance.png"  transform="matrix(1 0 0 1 -3164.6372 4237.4756)">
</image>
<image style="overflow:visible;" width="1255" height="807" xlink:href="../../Library/CloudStorage/GoogleDrive-lucas.pretti@okfn.org/.shortcut-targets-by-id/0B79xBlVd-Nf6ZzMzUlZSTWwxV28/Open Knowledge All Team/Brand 2023/Illustrations/L 1500px - web transp/Icons/impact.png"  transform="matrix(1 0 0 1 -3164.6372 4237.4756)">
</image>
<image style="overflow:visible;" width="1275" height="1127" xlink:href="../../Library/CloudStorage/GoogleDrive-lucas.pretti@okfn.org/.shortcut-targets-by-id/0B79xBlVd-Nf6ZzMzUlZSTWwxV28/Open Knowledge All Team/Brand 2023/Illustrations/L 1500px - web transp/Icons/jobs.png"  transform="matrix(1 0 0 1 -3164.6372 4237.4756)">
</image>
<image style="overflow:visible;" width="1246" height="1065" xlink:href="../../Library/CloudStorage/GoogleDrive-lucas.pretti@okfn.org/.shortcut-targets-by-id/0B79xBlVd-Nf6ZzMzUlZSTWwxV28/Open Knowledge All Team/Brand 2023/Illustrations/L 1500px - web transp/Icons/knowledge.png"  transform="matrix(1 0 0 1 -3164.6372 4237.4756)">
</image>
<image style="overflow:visible;" width="1163" height="1026" xlink:href="../../Library/CloudStorage/GoogleDrive-lucas.pretti@okfn.org/.shortcut-targets-by-id/0B79xBlVd-Nf6ZzMzUlZSTWwxV28/Open Knowledge All Team/Brand 2023/Illustrations/L 1500px - web transp/Icons/mission.png"  transform="matrix(1 0 0 1 -3164.6372 4237.4756)">
</image>
<image style="overflow:visible;" width="943" height="914" xlink:href="../../Library/CloudStorage/GoogleDrive-lucas.pretti@okfn.org/.shortcut-targets-by-id/0B79xBlVd-Nf6ZzMzUlZSTWwxV28/Open Knowledge All Team/Brand 2023/Illustrations/L 1500px - web transp/Icons/policy.png"  transform="matrix(1 0 0 1 -3164.6372 4237.4756)">
</image>
<image style="overflow:visible;" width="1413" height="1197" xlink:href="../../Library/CloudStorage/GoogleDrive-lucas.pretti@okfn.org/.shortcut-targets-by-id/0B79xBlVd-Nf6ZzMzUlZSTWwxV28/Open Knowledge All Team/Brand 2023/Illustrations/L 1500px - web transp/Icons/press.png"  transform="matrix(1 0 0 1 -3164.6372 4237.4756)">
</image>
<image style="overflow:visible;" width="1302" height="998" xlink:href="../../Library/CloudStorage/GoogleDrive-lucas.pretti@okfn.org/.shortcut-targets-by-id/0B79xBlVd-Nf6ZzMzUlZSTWwxV28/Open Knowledge All Team/Brand 2023/Illustrations/L 1500px - web transp/Icons/reproducible-research.png"  transform="matrix(1 0 0 1 -3164.6372 4237.4756)">
</image>
<image style="overflow:visible;" width="948" height="1047" xlink:href="../../Library/CloudStorage/GoogleDrive-lucas.pretti@okfn.org/.shortcut-targets-by-id/0B79xBlVd-Nf6ZzMzUlZSTWwxV28/Open Knowledge All Team/Brand 2023/Illustrations/L 1500px - web transp/Icons/service.png"  transform="matrix(1 0 0 1 -3164.6372 4237.4756)">
</image>
<image style="overflow:visible;" width="1266" height="879" xlink:href="../../Library/CloudStorage/GoogleDrive-lucas.pretti@okfn.org/.shortcut-targets-by-id/0B79xBlVd-Nf6ZzMzUlZSTWwxV28/Open Knowledge All Team/Brand 2023/Illustrations/L 1500px - web transp/Icons/support.png"  transform="matrix(1 0 0 1 -3164.6372 4237.4756)">
</image>
<image style="overflow:visible;" width="1366" height="1085" xlink:href="../../Library/CloudStorage/GoogleDrive-lucas.pretti@okfn.org/.shortcut-targets-by-id/0B79xBlVd-Nf6ZzMzUlZSTWwxV28/Open Knowledge All Team/Brand 2023/Illustrations/L 1500px - web transp/Icons/team.png"  transform="matrix(1 0 0 1 -3164.6372 4237.4756)">
</image>
<image style="overflow:visible;" width="1136" height="964" xlink:href="../../Library/CloudStorage/GoogleDrive-lucas.pretti@okfn.org/.shortcut-targets-by-id/0B79xBlVd-Nf6ZzMzUlZSTWwxV28/Open Knowledge All Team/Brand 2023/Illustrations/L 1500px - web transp/Icons/tools.png"  transform="matrix(1 0 0 1 -3164.6372 4237.4756)">
</image>
<g>
	<path d="M450.9,800.5c-2.5,7.7-4.5,13.7-6.3,19.8c-2.8,9.4-5.5,18.7-8.2,28.1c-1.4,5.1-2.4,10.3-4,15.4c-0.6,2-2.3,3.7-3.7,5.8
		c-9.5-7.1-10.5-16.9-8.9-26.1c3.6-22.1,10.7-43.3,21-63.2c2.4-4.7,6.5-8.5,9.8-12.8c-26.3-4.3-42.5-20.3-49.8-46
		c6.9-0.2,9.9,5.1,13.5,9.3c2.1,2.5,3.7,5.5,5.7,8.2c6.1,8.1,15,9.6,24.3,10.6c17.9,1.9,35.3-0.5,53-2.9c15.1-2.1,23.8-15.7,23.1-27
		c-0.3-4.9-1.5-6.6-5.9-5.2c-9.7,3.1-18-0.8-25.9-5.1c-4.6-2.5-6.2-7.8-6.1-12.9c0.1-4.4,3.7-6.2,7.7-7.3c6.4-1.7,12.7-3.8,19.1-5.6
		c7.5-2,8-3.2,6.2-10.6c-0.4-1.6,0.8-4.1,2-5.5c7.3-7.9,14.9-15.6,22.2-23.5c1.5-1.6,2.5-3.9,3.2-6.1c1.2-3.5,0.3-5.6-3.4-7.9
		c-20.5-12.3-38.5-27.4-49.3-49.5c-6.6-13.6-17.8-23.1-29.1-32.4c-4.4-3.7-9.5-6.4-14.2-9.8c-0.8-0.6-1.3-1.9-1.4-2.9
		c0-0.4,1.3-1.2,2.2-1.4c6.6-1.4,12.3,0.9,17.5,4.8c2.3,1.8,4.5,3.8,6.9,5.7c5.6-9.2,4.7-21.6-3.1-28.9
		c-10.9-10.2-21-21.3-31.9-31.5c-7.6-7.1-16.9-7.3-26.5-4.5c-11.4,3.2-20.9,9.9-30.6,16.4c-10.2,6.8-20.1,14-30.1,21
		c-7.7,5.4-17.6,3.5-22.7-4.7c5.6-4,11.4-7.8,16.8-12.1c11.6-9.2,22.5-19.3,34.6-27.9c20.8-14.9,41.7-12.7,62.9,0.5
		c7.1,4.4,11.9,10.8,17.3,16.9c7.4,8.2,15.8,15.6,23.9,23.2c7.6,7,13.8,14.6,15.8,25.1c1.4,7.1-2.1,16.2-8.6,20.8
		c4.3,4.6,9.1,8.8,12.7,13.8c4.4,6.1,8.8,12.6,11.6,19.6c4,10,11.2,16.8,19.4,22.8c5.6,4.1,11.8,7.4,17.8,10.9
		c7.5,4.3,11.8,11.9,8.4,18.1c-3.4,6.2-8.1,11.9-13,17.1c-6.1,6.5-12.9,12.2-18.4,17.3c1.2,8.1,2.4,14.7,3.3,21.4
		c1.4,10.2,3.3,20.3,3.8,30.6c0.6,11.8-8,22.6-19.1,26.4c-3.4,1.2-6.3,3.6-9.7,4.8c-6.4,2.2-12.8,4.5-19.5,5.6c-6.4,1-12.2,2.6-17,7
		c-4.7,4.4-11.2,6.8-13.9,13.6c-1.6,4-1.4,6.1,2.7,8.2c13.4,7,22.7,18.2,29.6,31.3c5.4,10.2,10.1,20.8,14.7,31.4
		c1.7,3.9,2.5,8.2,3.1,12.5c0.2,1.9-1.2,4.1-2.1,5.9c-3.3,6.4-6.6,12.9-10.2,19.1c-5.3,9-10.9,17.7-16.4,26.6c-0.6,1-1.4,1.9-1.8,3
		c-1.9,4.7-4.6,8.4-10.1,9.2c-1,0.2-1.9,1.1-3.4,2.1c-8.6-11-17.3-22.1-26.2-33.5c-4.3,9.5-9.3,18.4-12.4,27.9
		c-3.7,11.2-0.5,22.5,1.2,33.8c4.3,28.9,10.1,57.8,8.4,87.2c-0.4,6.2-1.7,12.5-3.7,18.4c-0.7,2.1-4.6,4-7.3,4.3
		c-3.1,0.4-7-0.6-7.4-4.9c-0.5-5.4-0.6-10.8-0.6-16.2c0.1-11.6,1.1-23.3,0.5-34.9c-1-17.5-2.8-35.1-4.8-52.5
		c-0.5-4.5-2.5-9-4.5-13.1c-7-13.9-10.6-28.4-10.3-44c0-1.1-0.3-2.2-0.4-3.2c-7.6,5.1-15.2,9.9-22.5,15.2
		c-6.1,4.4-17.9,3.8-24.3-2.9c-13-13.6-25.9-27.3-37.8-41.8c-11.1-13.5-20.9-28.2-31.6-42.6c-4.2,2.4-8.9,4.9-13.2,7.8
		c-12.8,8.5-25.3,17.4-38.3,25.7c-26.4,16.8-51.1,35.6-73.8,57.1c-4,3.8-8,7.5-11.6,11.6c-4.6,5.3-10,9.8-8.6,18.6
		c0.7,4.4-2.9,9.5-4.2,14.3c-1.6,5.9-2.6,11.9-4.2,17.7c-2.1,7.6-4.4,15.1-6.9,22.6c-4.3,13.4-8.6,26.8-13.1,40.1
		c-3.3,9.9-6.9,19.8-10.6,29.6c-4.1,10.8-8.1,21.8-12.8,32.3c-3.6,7.9-7.8,15.6-12.6,22.8c-1.9,2.9-6.3,4.2-10.3,6.7
		c-0.5-2.9-0.7-4.2-1-6c-1,1.1-1.8,1.9-3,3.3c-0.2-1.6-0.8-2.8-0.5-3.8c5-14.8,10.2-29.5,15.2-44.3c6.8-20.4,12.8-41.1,20.1-61.3
		c10-27.9,20.5-55.5,31.3-83c3.7-9.5,9.1-18.4,13.8-27.6c0.4-0.9,1-1.8,1.8-2.4c16.9-14.6,33.5-29.4,50.7-43.5
		c14.2-11.6,28.9-22.4,43.8-33.1c12.3-8.8,25.1-16.7,37.9-25.2c-4.8-5.2,1.3-9.1,4.1-12.5c8.1-9.8,17-19,26-28.1
		c3.7-3.7,8.4-6.4,13.6-10.3c-1.9-1.3-3.3-3-4.9-3.2c-11.8-0.9-18.5-8.6-24.6-17.5c-6.4-9.3-11.5-19-11.4-30.7
		c0-4.3-2.1-7.1-6.3-8.5c-5.8-2-11.4-4.7-17.3-6.4c-8.1-2.3-13.6-7.5-18-14.1c-7.8-11.8-13.8-24.5-15-38.7
		c-1.8-20.2,7.3-36.7,18.7-52.2c3-4,6.4-7.6,9.8-11.4c6.4-7.1,10.5-15.4,12.5-24.7c3.9-18.2,14.7-31.4,30.2-41
		c8.3-5.2,16.7-10.3,25.2-15.1c2.8-1.6,6.2-2.2,9.4-3.1c2.9-0.8,5-0.1,5.9,3.3c0.7,2.9,1,4.6-2.2,6.9c-10.7,7.7-21.3,15.7-31.1,24.5
		c-11.8,10.6-20.8,23.3-23.3,39.6c-1.7,11.3-7.1,20.6-14.9,28.9c-5.1,5.4-10.2,11.1-13.8,17.6c-6.7,12.1-12.8,25.1-10.9,39.3
		c0.9,7.1,4.8,14.1,8.6,20.4c1.6,2.7,6.8,3.1,10.1,5c8.9,5.1,18.1,9.9,26.3,15.9c7.9,5.7,10.9,14.5,11.1,24.3
		c0.2,11.7,6.2,18.8,17.6,21.1c9.7,2,18.5,5.6,25.2,13.2c2.6,2.9,4.7,5.7,0.9,9.9c-1.1,1.3,0.5,6.3,2.2,8.6
		c10.4,13.7,21.1,27.2,31.7,40.7c3.6,4.6,6.7,9.5,10.6,13.8c2.8,3.1,6.7,5.1,9.7,8c4.8,4.5,9.8,8.9,13.7,14.1
		c4,5.4,7.7,11.5,9.6,17.8c1.8,5.8,1,12.3,1.6,18.5c0.4,4.2,1.1,8.3,2,12.4c0.6,2.6,1.7,5.1,2.7,7.5c0.5,1.2,1.5,2.3,2.2,3.4
		c0.9-1.1,2.2-2,2.8-3.2c3.5-7.1,6.7-14.4,10.3-21.5c2.5-4.9,5.4-9.5,8.3-14.1c0.5-0.8,1.6-1.6,2.5-1.6c0.6,0,1.1,1.5,1.7,2.1
		c0.5,0.5,1.2,0.7,2.4,1.4c-0.5,4.8-1.1,10.4-1.5,16c-0.1,1,0.5,2.2,1.1,3c6.2,7.1,12.4,14.2,19.3,22c3.4-6.6,6.5-12.3,9.3-18
		c4-8.2,7.8-16.6,11.8-24.8c2.5-5.1,3.4-10.4,1.5-15.9c-5.3-15.3-11.6-30.2-21.2-43.3C460.3,809,455.8,805.5,450.9,800.5z
		 M280.9,816.1c6,4,6,4.1,11.1,14.2c1.2,2.3,2.9,4.4,4.5,6.6c7.9,10.6,15.6,21.3,24,31.6c10.1,12.4,21.1,24,30.8,36.6
		c4.3,5.6,8,4.1,12.6,1.8c1.2-0.6,2.5-1.1,3.4-2c8-7.9,15.8-16,23.8-23.8c3.5-3.3,3.6-7.2,2-10.9c-1.5-3.6-3.5-7.4-6.3-10
		c-21.1-19.7-38.3-42.8-56.3-65.2c-4.5-5.6-8.9-11.5-14.1-18.2c-9.5,9.7-18.7,18.6-27.5,28C285.8,808.2,283.5,812.4,280.9,816.1z
		 M517.1,688.4c-8.6,2.5-16.4,4.7-24.1,7.2c-1.6,0.5-2.8,2.3-4.2,3.5c1.4,1.6,2.5,3.8,4.3,4.7c7.8,4.2,15.6,1,23.3-0.8
		c0.8-0.2,2-1.9,1.9-2.8C518.2,696.5,517.6,692.9,517.1,688.4z"/>
	<path d="M1119.8,721c6.8,5.2,9.1,11.8,8.4,19.6c-0.2,2-0.7,3.9-0.8,5.9c-0.1,3.7-0.6,7.5,0.1,11.1c1,5.6-2.4,8.9-5.1,12.8
		c-1.1,1.6-1.6,3.7-2.4,5.6c-0.1,0.1,0,0.3-0.1,0.5c-4.3,11.5-6.4,24.5-18.2,31.3c-4.3,2.5-10.1,3.6-15.1,3.4
		c-6-0.3-12.1-2.2-17.8-4.3c-3.2-1.2-5.7-4.3-9.3-7.1c-1.4,1.8-3.3,4.9-5.9,7.1c-7.9,6.7-15.9,13-25.5,17.6
		c-8.6,4.1-15.3,12.4-22.3,18.3c2.8,5.2,5.3,9.1,7,13.4c0.9,2.4,1.4,5.8,0.3,7.9c-5.5,10.7-12.1,20.7-23,26.8
		c-5.1,2.9-10.9,4.3-14.8,9.4c-2,2.7-9.1,0.3-12.2-3.2c-3.2-3.7-1.4-6.3,1.5-8.8c7.9-6.9,16-13.6,23.4-21c3.5-3.4,5.6-8.1,8.3-12.3
		c1.8-2.8,0.9-5-1.4-7.5c-12.9-14.1-25.6-28.4-38.3-42.7c-1.4-1.6-2.9-3.1-4.3-4.7c-6.5,4-8.3,3.7-14.3-2.4
		c-9.7,7.3-19.7,14.4-29.2,22.1c-4.1,3.3-9.2,4.7-13.2,7.5c-13.2,9.5-25.8,19.9-38.6,29.8c-20.8,16-41.8,31.8-62.5,48
		c-14.6,11.5-29,23.3-43.1,35.5c-2.5,2.2-2.9,7.1-3.6,10.9c-2.3,11.8-4.3,23.6-6.3,35.4c-0.8,4.7-1.2,9.4-2,14.1
		c-0.3,1.8-1.1,4.7-2.2,4.9c-2,0.4-5,0-6.3-1.3c-3.1-3.2-6.7-6.6-6.1-11.8c1.3-11.2,2.6-22.4,4.1-33.6c0.7-4.9,1.8-9.8,2.6-14.8
		c1-5.8-1.6-9.4-7.1-11.4c-15.2-5.5-30.4-11.4-45.6-17c-13.7-5-27.5-9.8-41.3-14.7c-32.8-11.8-65.7-23.6-98.5-35.6
		c-10.1-3.7-20.1-7.8-29.9-12.3c-2.6-1.2-4.4-4.8-5.6-7.6c-1-2.2,2.8-4.4,5.4-3.5c25.4,9.1,50.7,18.3,76.1,27.1
		c20.3,7,40.8,13,61.1,20.1c21.2,7.5,42.1,15.8,63.1,23.6c2.3,0.9,5.2,1.1,7.6,0.7c4-0.6,6.2,1.4,8.4,4c1.4,1.6,3,3,4.3,4.7
		c3.8,5.2,3.9,5.4,9,1.3c16.4-13,32.5-26.5,49.1-39.3c21.3-16.4,42.7-32.7,64.5-48.5c7.4-5.4,15.4-12.1,24-13.5
		c12.3-2,17.8-11.8,26.5-17.6c9.9-6.7,18.9-14.7,28.5-21.8c4.8-3.6,14.7-3.2,20,1c10.7-9.8,21.7-19.7,32.3-29.8
		c12.8-12.3,25.2-25.1,38.1-37.4c14.5-13.9,32.2-22.1,51.4-27.3c18.5-5.1,37-10.4,55.5-15.6c6.9-2,13.6-4.3,20.5-6.1
		c7.2-1.9,13.7,0.5,18.8,5.4c1.9,1.8,2.5,5.7,2.3,8.6c-0.6,9.6-6.7,15.6-14,21.2c-9.6,7.2-20.6,11.2-31.6,15.5
		C1123.1,719.1,1121.9,719.9,1119.8,721z M1115,754.5c-1.7-0.9-3.2-2.4-4.8-2.6c-11.8-1.7-22.8-5.1-33.2-11.2
		c-6.9-4-12.9-8.6-18.1-14.4c-0.7-0.7-0.7-2-1-3.1c1-0.1,2.2-0.7,3.1-0.4c4.2,1.5,8.3,3.2,11.4,4.5c1.5-2,2.4-4.7,4.1-5.5
		c11-5,22.2-9.4,33.3-14.2c8.9-3.9,18-7.7,26.5-12.4c6.5-3.6,12.3-8.5,18.4-12.8c-0.3-0.5-0.6-1-0.9-1.5c-1.7,0.4-3.5,0.7-5.2,1.3
		c-4.6,1.5-9,3.4-13.6,4.7c-16.8,4.6-33.7,8.7-50.4,13.6c-12.3,3.6-24.7,7.5-35.4,15.1c-15.6,11.1-29.8,23.9-42.9,38
		c-3.6,3.9-7.8,7.6-10.1,12.2c-4.1,8.2-9.1,15.4-17.8,18.7c-6.2,2.4-12.2,4.5-17.3,10.8c11.2,12.7,22.6,25.5,34.4,38.7
		c9.4-8.5,18-16.5,26.7-24.2c5.4-4.7,11.6-8.6,16.5-13.7c4.7-5,9.4-10.6,12.1-16.7c4.5-10.1,9.4-14.5,20.5-14.3
		c12.2,0.2,24.4,1.9,36.3-3.2C1111.2,760.2,1113.4,758.5,1115,754.5z M1062.4,794.7c6.7,1,13,2.1,19.4,2.9c1.6,0.2,3.3-0.3,4.9-0.7
		c10-3.1,13.7-11.5,17.6-20.1c-8.1,0.8-15.6,2.4-23,2.2C1068.9,778.7,1064.9,781.5,1062.4,794.7z M1087,733.7
		c9.9,3.3,18.2,6.1,27.1,9c0.8-4.9,1.7-9.1,2-13.3c0.2-2.7-0.6-6.6-4.4-5.4C1103.8,726.5,1096.1,730,1087,733.7z"/>
	<path d="M446.1,315.2c10.2-7,22.5-3.1,33.6-6.5c-1.3-0.1-2.6-0.3-3.9-0.4c-1.4-0.1-2.9,0-4.3-0.8c28.3-1.7,56.5-3.5,84.8-5.2
		c0,0.4,0.1,0.7,0.1,1.1c-3.8,0.5-7.5,1-11.3,1.6c0,0.3,0.1,0.6,0.1,1c10.4,0,20.8-0.1,31.2,0c11.9,0.2,23.7,0.9,35.6,1
		c16.1,0.2,32.3,0.2,48.4,0.2c21,0,41.9-0.2,62.9-0.4c20.8-0.1,41.6-0.4,62.4-0.4c30.1-0.1,60.3,0.3,90.4-0.2
		c32-0.5,63.9-1.7,95.8-2.6c26.5-0.7,52.9-1.6,79.4-1.9c47.9-0.7,95.9-1.3,143.8-1.7c44.1-0.3,88.3-0.8,132.4-0.3
		c18.9,0.2,37.8,2.6,56.7,4.1c2.4,0.2,5.1,0.8,7.1,2c2.9,1.8,4.2,5.4,2.5,8.1c-1.5,2.5-4.5,4.6-7.4,5.5c-3.3,1.1-7.1,0.8-10.7,0.8
		c-11.2,0-22.5-0.3-33.7-0.2c-37.4,0.4-74.7,1.2-112.1,1.5c-19.3,0.2-38.5-0.3-57.8-0.6c-4-0.1-8.6-2.3-11.9-1
		c-8,3.2-15.5-0.7-23.2,0.2c-6.5,0.8-13.2,1.9-19.6,1c-9.8-1.4-19.4-0.2-29.1-0.1c-36.7,0.7-73.4,1.4-110.1,2
		c-11.1,0.2-22.2-0.8-33.2-0.5c-21.1,0.6-42.2,2-63.4,2.5c-20.2,0.5-40.3,0.2-60.5,0.1c-22.2-0.1-44.4-0.3-66.6-0.6
		c-16.3-0.3-32.6-1.2-48.9-1.2c-17.1,0-34.3,1.2-51.4,0.8c-27.4-0.6-54.8-2.2-82.2-3.1c-10.4-0.3-20.9-0.1-31.4,0.1
		c-14.5,0.3-29,1.1-43.5,1.2c-9.4,0.1-19.1,0.3-28.2-1.5c-6-1.2-11.8-1.8-17.9-2.1C449.6,319,448.1,316.8,446.1,315.2z"/>
	<path d="M1392.9,326.3c2-1,3.5-1.5,4.6-2.4c4.5-3.6,9.2-4.4,14.1-1.4c8.9,5.5,15.8,13.3,20.3,22.6c9.9,20.4,12.7,42.6,13.6,65
		c0.7,17.7,0.5,35.4,0,53.1c-0.3,9.8-1.9,19.6-2.7,29.4c-0.7,8.3-0.9,16.6-1.5,24.9c-0.7,8.7-2,17.3-2.5,26
		c-0.2,3.9,1.1,7.8,1.1,11.8c0,2.7-0.8,5.4-1.3,8.1c-0.2,1.1-0.4,2.2-0.4,3.3c-0.1,12.8-0.1,25.5-0.2,38.3
		c-0.1,8.5-0.5,16.9-0.4,25.4c0.2,16.3,0.4,32.7,0.9,49c0.5,18.3,1.4,36.6,2,54.9c0.4,13.1,0.9,26.2,1.1,39.2
		c0.1,12-0.2,24-0.2,36.1c0,3.5,1,7.1,1.1,10.6c0.1,6.8-0.2,13.7-0.3,20.5c-0.1,6.5-0.5,13.1-0.4,19.6c0.1,10.2,0.8,20.4,0.8,30.6
		c-0.1,14.9-0.6,29.9-0.8,44.8c-0.1,6.1,0.7,12.2,0.4,18.3c-0.4,10.9-0.9,21.9-2,32.8c-0.6,6.2-6.7,11.7-12.8,11.9
		c-2.9,0.1-5.8-1.7-8.3-2.5c0-13.5-0.1-27,0.1-40.4c0.1-5.3,1.3-10.7,1.3-16c0.1-10.3-0.2-20.7-0.3-31c0-5.5,0.6-11.1,0.4-16.6
		c-0.6-13.9,0.4-27.8-0.1-41.7c-0.4-10.6-0.6-21.1-1-31.7c-0.4-11.2-1.1-22.4-1.4-33.6c-0.2-5.9,0.2-11.9,0-17.8
		c-0.1-4-0.6-8.1-0.8-12.1c-0.5-10.3-0.8-20.6-1.3-30.9c-0.4-8.9-1.1-17.8-1.3-26.8c-0.1-5.6,0.6-11.2,0.6-16.8c0-2.3-0.8-4.5-1-6.8
		c-0.5-7-1.1-14.1-1.3-21.2c-0.2-6.5,0.2-13,0.2-19.5c0-5.8-0.6-11.5-0.4-17.3c0.5-16.3,1.4-32.6,1.9-48.9
		c0.5-17.4,0.7-34.7,1.3-52.1c0.4-12.4,0.8-24.9,1.8-37.2c1.9-22.4,2.9-44.7,1-67.1c-0.9-10.9-0.7-22-2.2-32.8
		c-1.3-9.5-3.4-19-6.7-28C1406.5,340.9,1401.3,332.8,1392.9,326.3z"/>
	<path d="M585.3,1070.9c9.9,1.6,19.6,4.2,29.5,4.5c12,0.3,23.3,3.5,34.8,5.5c15.8,2.7,31.7,4.6,47.7,6.3c11.8,1.3,23.7,2.2,35.6,2.2
		c7.5,0,15.1-1.6,22.3-3.6c8-2.2,16-5,23.3-8.8c7-3.6,13.6-8.4,19.6-13.5c13.9-11.9,27.7-23.8,40.7-36.6
		c20.7-20.3,40.4-41.4,61-61.8c14.2-14,29.2-27.2,43.8-40.8c3.1-2.9,5.5-6.4,8.4-9.5c2.7-2.9,5.5-5.6,8.5-8.2
		c0.9-0.8,2.4-1.1,3.6-1.2c3.6-0.2,7.3-0.1,11.4-0.1c-1,1.9-2,3.8-3.1,5.6c-4,6.4-7.3,13.5-12.4,18.8c-5,5.3-7.9,12.1-13.9,16.7
		c-6.1,4.8-10.9,11.2-16.4,16.8c-5.4,5.4-11.1,10.6-16.4,16.1c-6.9,7.1-13.4,14.6-20.4,21.7c-8.7,8.8-17.6,17.6-26.7,26
		c-18,16.5-36.1,32.8-54.4,48.9c-6.1,5.4-12,11.5-19.2,14.8c-16.7,7.5-33.5,14.4-52.8,14c-23.4-0.5-46.3-4.1-69.4-6.5
		c-10.5-1.1-20.7-4.6-31.2-6.3c-8-1.3-16.2-1.4-24.3-2.3c-8.7-1-17.5-2.2-26.2-3.4c-2.1-0.3-5.5-1.8-6.1-1.1c-1.5,2-1.9,4.9-2.4,7.4
		c-3.7,16.6-7.2,33.2-11,49.7c-1,4.2-2.3,8.4-4.4,12.1c-2.1,3.7-7.9,3.6-10.2-0.1c-1.5-2.4-2.9-5.5-2.6-8.2
		c1.1-11.5,2.8-23,4.3-34.6c1-7.5,2.1-15.1,2.8-22.6c1.4-14,3-28,3.6-42c0.5-11.1,0.9-22.3-0.8-33.2c-1.8-12.4-5.8-24.5-9.2-36.6
		c-1.5-5.3-1.9-10.3,0.7-15.2c8.7,0.8,12.7,7.4,15.7,14c13.6,29.4,21.6,60,16.1,92.8C585.1,1069.1,585.3,1069.8,585.3,1070.9z"/>
	<path d="M896.6,1028.1c6.4-6,14.4-3.7,21.8-4c13.8-0.6,27.6-0.5,41.3-0.7c21.5-0.2,42.9-0.2,64.4-0.6c20.8-0.4,41.5-1.3,62.3-1.9
		c11.6-0.3,23.2-0.4,34.7-0.9c13.9-0.6,27.8-1.9,41.8-2.4c11.1-0.4,22.2,0,33.3-0.4c6.7-0.2,13.4-1.3,20-1.6
		c14.8-0.6,29.7-0.9,44.5-1.4c8.8-0.3,17.5-1.3,26.3-1.5c9.9-0.3,19.9-0.1,29.8,0c14.1,0.1,28.1,0.2,42.2,0.6
		c15.3,0.5,30.5,1.4,45.8,2c10.6,0.4,21.2,0.7,31.8,0.7c3.3,0,7.5-0.5,6.8,3.8c-0.5,3.3-3.3,8.1-6.1,8.9
		c-14.4,4.4-29.4,5.1-44.5,4.3c-11.3-0.6-22.5-0.6-33.8-0.9c-14.8-0.4-29.6-1-44.4-1.2c-7.8-0.1-15.6,0.3-23.4,0.5
		c-28.4,1-56.8,2.1-85.2,3c-16.9,0.5-33.9,0.4-50.8,1.1c-24.9,1-49.8,2.8-74.7,3.5c-23.8,0.7-47.6,0.3-71.3,0.5
		c-19.9,0.1-39.9,0.7-59.8,0.5c-14.7-0.2-29.5-1.2-44.2-2C899.4,1037.8,898.2,1032.6,896.6,1028.1z"/>
	<path d="M881.5,445.5c1.4-4.5,4.1-5.4,7.9-6.2c24.4-5.2,48.9-5.9,73.5-3.2c16.8,1.8,33.3,5.2,49.2,11.5
		c22.3,8.9,43.3,19.9,62.3,34.6c1.4,1.1,3.1,1.9,5.5,3.3c-1.8-4.7-3.5-8.5-4.6-12.5c-0.3-1.1,1.3-4,2-4c4.9,0,9.7-0.1,13.2,4.7
		c6.5,8.9,9.9,19.2,12.6,29.6c0.9,3.6-2.6,7.7-6.9,8.3c-10.4,1.2-20.7,2.2-31.1,3.1c-2.3,0.2-4.7,0-7-0.4c-8.4-1.5-9.6,0.8-11.8-11
		c9.3-0.6,18.6-1.2,27.9-1.8c0.3-0.7,0.5-1.4,0.8-2.1c-10.7-7.3-21.1-15.3-32.3-21.8c-31-18.2-64.9-26.1-100.7-26.9
		c-16.8-0.3-33.5-0.5-50.3-1.2C888.2,449.3,884.8,446.9,881.5,445.5z"/>
	<path d="M753.1,760.4c-3.6,2.1-7.3,4.3-11.3,6.6c-25.4-30-37.3-65.8-44.5-104.8c-3.7,9.1-7.3,16.9-10,25.1c-2.3,7-7,9.9-14,7.5
		c-0.6-0.2-1.3-0.4-3.2-0.9c3.4-10.5,6.3-21.2,10.4-31.3c4.5-11,10.1-21.6,15.4-32.3c0.5-1,2-2.2,3-2.2c7.7,0.1,15.3,1.3,20.6,7.7
		c8.9,10.7,17.6,21.7,26.4,32.5c2.5,3,1.5,4.7-2,5.7c-6.1,1.8-11.1,0.4-15.4-4.6c-4.7-5.4-9.4-10.7-14.1-16
		c-0.5,0.2-1.1,0.3-1.6,0.5c2.2,9.1,4.1,18.3,6.6,27.3c2.5,9.3,5.1,18.5,8.2,27.6c3.1,9,6.3,18,10.5,26.4
		C742.3,743.8,747.8,751.7,753.1,760.4z"/>
	<path d="M410.8,313.9c2.2,0.2,4.4,0,6.4,0.6c1.5,0.5,2.6,2,3.9,3c-1,1.2-1.8,3-3,3.3c-5.6,1.5-11.3,2.7-17,3.8
		c-11.7,2.2-14.9,5.9-16.2,18c-2.7,25.7-3.8,51.4-3.2,77.1c0.2,7.6,0.6,15.2,1.1,22.8c0.2,3.1-0.3,5.6-3.6,6.7
		c-4.5,1.4-8.9,3.3-13.4,4c-3.4,0.5-6.4-1.1-6.2-5.7c1.7-32.2,3.3-64.4,4.8-96.7c0.4-8.4,1.5-16.5,6.5-23.6
		c3.5-4.9,7.4-8.7,13.7-9.7c8.7-1.3,17.4-2.7,26.1-4.1C410.8,313.6,410.8,313.8,410.8,313.9z"/>
	<path d="M598.7,506c17.3-6.3,35.9-5.8,54.3-7.1c13.2-1,26.5-1.7,39.7-1.9c26.5-0.4,53.1-0.4,79.6-0.6c2,0,4,0.5,6,0.2
		c5.2-0.6,6,3.5,6.8,6.8c1,4.2-1.5,6.7-5.6,7c-12.5,1-25.1,2.4-37.6,2.4c-35.6,0.2-71.1,0.5-106.5,4.2c-8.1,0.8-16.2,1.4-24.3,1.6
		c-3.1,0.1-6.5-0.9-9.4-2.2c-2.3-1-3.9-2.9-1.6-5.9C600.5,509.9,599.1,507.6,598.7,506z"/>
	<path d="M1329.8,607.5c0,2-0.3,2.8,0,3.4c2.2,3.7,1.5,6.2-2.8,7c-6.1,1.1-12.3,2-18.5,2c-24.3-0.2-48.5-1-72.8-1.2
		c-21.9-0.1-43.8,0.5-65.6,0.4c-4.4,0-8.8-1.6-13-2.8c-4.7-1.3-7.8-4.2-7.4-10.7c4.7-0.9,9.6-2.5,14.6-2.6
		c37.8-0.6,75.5-1.2,113.3-1.2c10,0,20,1.6,30,2.5c5.2,0.5,10.7-0.7,15.4,3.4C1324.2,608.8,1327.6,607.6,1329.8,607.5z"/>
	<path d="M322.4,611.3c16.1-13.5,31.3-27.8,50.3-36.3c18.1-8.2,29.3-21.3,34.2-40.2c2.3-9,4.2-18.1,6.4-27.2
		c1.2-4.9,2.1-5.1,6.3-2.4c6.8,4.4,8.5,9.7,6.8,17.8c-1.2,6-0.8,12.3-2.2,18.2c-3,12.6-5.6,25.5-15.1,35.2c-3,3.1-6.9,5.7-10.9,7.6
		c-12.2,5.9-24.7,11.1-36.9,17.1c-8.1,4-15.9,8.7-23.7,13.3C331.6,618.1,327.4,617.5,322.4,611.3z"/>
	<path d="M602.5,447.4c7.9-7.1,17.8-5.7,27.1-6.1c11.8-0.6,23.6-0.3,35.4-0.7c32.8-1.3,65.6-2.9,98.4-4.3c4.3-0.2,8.8-0.5,12.7,0.7
		c2.5,0.8,5.6,4.1,5.9,6.5c0.4,4.7-3,7.1-7.9,7.2c-10.3,0.3-20.6,0.5-30.9,1.1c-30.9,1.7-61.7,3.8-92.6,5.4
		c-12.9,0.7-25.9,0.5-38.9,0.5C606.7,457.6,604.2,454.5,602.5,447.4z"/>
	<path d="M234,984.6c0,1.4,0,2.7,0,4.7c3.8-2.1,5.2-0.5,6.4,2.9c2,5.7,1.3,11.2,0.6,17c-2.7,22.9-4.8,45.9-7.4,68.8
		c-1.9,16.5-4.2,33-6.3,49.5c-0.5,3.9-0.2,8-0.9,11.9c-0.4,2.2-1.6,4.7-3.2,6.2c-1.7,1.5-5,3.3-6.5,2.6c-2.4-1.2-5.6-4.3-5.6-6.6
		c0.1-13.8,0.7-27.5,1.8-41.2c1.4-16.8,3.2-33.7,5.5-50.4c1.3-10,3.5-19.9,5.6-29.8c1.8-8.1,4.1-16,6.2-24c1-3.9,1.9-7.8,2.9-11.7
		C233.5,984.5,233.7,984.6,234,984.6z"/>
	<path d="M1247.2,573.8c-24.9,0-49.8,0.2-74.8-0.2c-5.1-0.1-10.1-2.4-15.3-3.1c-5-0.7-2.5-5.4-4.5-7.6c2.5-1.4,4.8-3.9,7.4-4.1
		c10.2-0.9,20.5-1.3,30.8-1.6c21.8-0.7,43.5-1.2,65.3-1.7c15.5-0.4,31-0.9,46.5-1.1c6.7-0.1,11,6.6,8.1,12.7c-0.9,2-4,4-6.1,4.1
		c-19.1,0.9-38.2,1.3-57.3,1.9C1247.2,573.4,1247.2,573.6,1247.2,573.8z"/>
	<path d="M387.5,654.6c-7.6-0.6-13.4-1.6-19.1-1.2c-7.2,0.5-14.1,11.9-12.5,18.8c1.1,5,1.7,10.1,2.8,15.1c0.5,2.4,1.5,4.8,2.8,6.9
		c7.1,11.6,11.5,12.8,25.4,6.9c7.3-3.1,11.9,0.4,11.5,8.7c-0.1,2.8-0.9,4.9-3.7,6.2c-1.8,0.8-3.3,2.1-4.9,3.3
		c-6,4.4-16.1,2.1-22.6-2.5c-8.4-5.9-15.7-13.1-20.1-22.3c-5.1-11-9.4-22.4-7.9-35c0.9-7.2,8.1-14.9,14.8-17.3c11.3-4,20.9-1,29.7,6
		C385.5,649.5,386.2,652.2,387.5,654.6z"/>
	<path d="M1199.7,657.2c4.3-0.8,8.7-2.3,13.2-2.3c27.6-0.4,55.2-0.6,82.8-0.8c1,0,2.8,0.3,3,0.9c1.1,3.4,2.9,7.2,2.3,10.5
		c-0.6,3.3-3.9,5.7-8.2,5.6c-7.6-0.2-15.3-0.1-22.9-0.1c-15.7,0.1-31.5,0.6-47.2,0.4c-5.2-0.1-10.5-1.3-15.6-2.6
		C1202.3,667.6,1199.1,664.3,1199.7,657.2z"/>
	<path d="M707.1,565.5c-11.5,0.6-23.1,1.4-34.6,1.7c-7.3,0.2-14.6-0.3-21.9-0.5c-8.1-0.2-13.5-5.3-13-13.3c0.1-1.7,4-4.5,6.1-4.5
		c22.2-0.5,44.4-0.5,66.6-0.5c5.6,0,11.3,0.8,16.9,1.2c2.7,0.2,6.6-0.9,6.7,2.9c0.1,2.9-0.5,6.9-4.5,8c-6.4,1.8-12.9,3.3-19.4,4.8
		C709.1,565.6,708.1,565.4,707.1,565.5C707.1,565.5,707.1,565.5,707.1,565.5z"/>
	<path d="M350.5,721.2c6.8,6.2,11.8,13.2,11.9,21.8c0.1,11.2-1.3,22.5-2.8,33.6c-0.5,3.6-2.9,7.5-5.6,9.9c-1.6,1.5-5.8,1.2-8.4,0.4
		c-3.4-1.2-2-4.2-1.5-7.1c1.7-11.2,3-22.4,4.2-33.6C349.2,738.2,349.7,730.1,350.5,721.2z"/>
	<path d="M394.6,601.4c8.2,4.8,9.7,15.2,3.9,21.5c-8.3,9.1-18.9,13-30.8,13.5c-5.8,0.3-10.7-2-13.3-7.8c-1.1-2.5-1.1-3.7,2.3-4.3
		c6.2-1,12.3-2.6,18.4-4.3C384.7,617.3,391.6,611.5,394.6,601.4z"/>
	<path d="M296.5,630.5c2.1,1.5,4.7,2.7,6.5,4.7c4.3,4.6,3.8,9.2,0.4,14.7c-5.9,9.4-5.1,19.9-2.8,30.3c0.2,1,0.1,2.1,0.2,3.2
		c-1.2,0-2.6,0.6-3.6,0.1c-6.3-3.3-9.3-8.9-10.6-15.6C284.2,654.2,286,641.7,296.5,630.5z"/>
	<path d="M913.6,841.5c7.4,1.1,11.8,5.6,16.2,10c6.1,6.1,12.2,12.1,18,18.4c2.3,2.5,5.8,4.7,3.8,10.5c-4.3-1.7-9.7-2.1-12.3-5.1
		c-8.9-9.9-16.8-20.8-25.1-31.3C913.9,843.6,913.9,842.9,913.6,841.5z"/>
	<path d="M459.5,605.8c-0.2-1.1-0.8-2.4-0.5-3.4c0.8-2.6,1.3-6,3.2-7.3c2.3-1.6,5.4-1.4,8.6,0.7c4.4,3,8,6.4,8.6,11.4
		c0.4,3.5-0.2,8.1-2.2,10.8c-2.6,3.5-7.4,2.5-11.1-1.4C463.2,613.5,459,611.1,459.5,605.8z"/>
	<path d="M311.1,573.5c-4-0.4-5.1-1.9-4.6-5.2c1.4-10.2,12.7-23.2,22.5-25.2c1.4-0.3,4,0.3,4.3,1.2c0.6,1.5,0.5,4.1-0.5,5.2
		c-4.1,4.9-8.8,9.3-13.1,14c-1.7,2-2.8,4.6-4.4,6.6C314.2,571.5,312.5,572.4,311.1,573.5z"/>
	<path d="M968.3,845.9c2.5,3.5,5.3,7,7.5,10.9c0.4,0.8-1.6,3.7-3,4.5c-3,1.6-10.3-1.3-10.6-4.8c-0.2-3,2.3-6.2,3.8-9.3
		C966,846.8,966.7,846.7,968.3,845.9z"/>
	<path d="M426.8,623.4c6.1-6.4,8.7-6.7,13.8-1.5C436.8,628,431.9,628.6,426.8,623.4z"/>
	<path d="M441.4,632c-0.2,1.5,0.2,3.6-0.6,4.5c-1.9,2-4.3,3.6-6.7,5c-0.4,0.2-2.2-0.9-2.5-1.7c-0.3-0.8,0-2.4,0.6-2.9
		c2.5-2,5.3-3.7,7.9-5.6C440.5,631.5,440.9,631.7,441.4,632z"/>
</g>
</svg>
