<?xml version="1.0" encoding="UTF-8"?><svg id="Ebene_2" xmlns="http://www.w3.org/2000/svg" viewBox="0 0 110.91 120"><defs><style>.cls-1{fill:#03d1ff;}</style></defs><g id="Layer_1"><g><path class="cls-1" d="m80.2,63.24c-1.76,11.15-12.24,18.75-23.36,16.98-3.2-.52-6.21-1.76-8.82-3.66v43.41h23.98v-31.01l21.95,21.92,16.96-16.96-21.95-21.95-8.76-8.74Z"/><path class="cls-1" d="m80.2,56.73c-1.76-11.15-12.24-18.75-23.36-16.98-3.2.52-6.21,1.76-8.82,3.66V0h23.98v31.01s21.95-21.92,21.95-21.92l16.96,16.96-21.95,21.95-8.76,8.74Z"/><path d="m80.2,63.24c-1.76,11.15-12.26,18.75-23.41,16.98-3.17-.52-6.19-1.76-8.79-3.64-9.14-6.51-11.29-19.24-4.75-28.38.68-.95,1.44-1.84,2.28-2.66.76-.76,1.6-1.47,2.5-2.09,9.12-6.65,21.89-4.61,28.54,4.5,1.9,2.6,3.15,5.64,3.66,8.82l8.76-8.76,21.89-21.95-16.96-16.96-21.95,21.92V.03h-24.01v31.01L26.05,9.11,9.09,26.07l21.95,21.95H0v23.98h31.01l-21.95,21.95,16.96,16.96,21.95-21.92v31.01h23.98v-31.04l21.95,21.92,16.96-16.96-21.95-21.95-8.71-8.74Zm-4.97-28.95l18.69-18.72,10.5,10.5-18.69,18.69-3.58,3.55c-2.36-4.48-6.02-8.14-10.47-10.5l3.55-3.53Zm-7.81-29.68v31.47c-4.83-1.47-10.01-1.47-14.84.03V4.61h14.84ZM15.57,26.07l10.5-10.5,17.36,17.36v8.28c-.41.35-.79.71-1.14,1.06-1.79,1.76-3.28,3.8-4.48,6.02l-3.55-3.55L15.57,26.07Zm-10.99,41.35v-14.84h31.47c-1.49,4.83-1.49,10.01,0,14.84H4.59Zm38.82,19.67l-17.36,17.36-10.5-10.5,18.69-18.69,3.55-3.55c1.17,2.22,2.69,4.26,4.45,6.02.35.35.73.71,1.14,1.06l.03,8.3Zm24.01,1.9v26.43h-14.84v-31.47c4.83,1.49,10.01,1.49,14.84.03v5.02Zm26.51,15.46l-18.69-18.69-3.55-3.58c4.48-2.36,8.14-6.02,10.5-10.5l3.55,3.55,18.69,18.69-10.5,10.53Z"/></g></g></svg>