<svg width="311" height="272" viewBox="0 0 311 272" fill="none" xmlns="http://www.w3.org/2000/svg">
<path d="M182.5 90C180 105.7 165.1 116 149.5 113.5C145 112.8 141.7 112.1 138 109.5V167.5H170V123L201.5 154L224.5 131.5L194 102L182.5 90Z" fill="#00D1FF"/>
<path d="M182.5 77.5C180 61.9 165.1 52 149.5 54.5C145 55.2 140.7 56.4 137 59L138 1H169.5L170 45L201 15L224 37L194 66L182.5 77.5Z" fill="#00D1FF"/>
<path d="M182.299 88.8C179.799 104.5 165.099 115.1 149.399 112.6C144.899 111.9 140.699 110.1 137.099 107.5C124.299 98.4 121.299 80.5 130.399 67.7C131.299 66.4 132.399 65.1 133.599 64C134.699 62.9 135.799 61.9 137.099 61.1C149.899 51.8 167.799 54.6 177.199 67.4C179.899 71.1 181.599 75.3 182.299 79.8L194.599 67.5L225.299 36.7L201.499 12.9L170.699 43.7V0H136.999V43.5L106.199 12.7L82.4992 36.6L113.299 67.4H69.6992V101.1H113.199L82.4992 131.9L106.299 155.7L137.099 124.9V168.4H170.799V124.8L201.599 155.6L225.399 131.8L194.499 101L182.299 88.8ZM175.299 48.1L201.499 21.8L216.199 36.5L189.999 62.7L184.999 67.7C181.699 61.4 176.599 56.3 170.299 53L175.299 48.1ZM164.399 6.5V50.7C157.599 48.6 150.299 48.6 143.599 50.7V6.5C143.499 6.5 164.399 6.5 164.399 6.5ZM91.5992 36.6L106.299 21.9L130.699 46.3V57.9C130.099 58.4 129.599 58.9 129.099 59.4C126.599 61.9 124.499 64.7 122.799 67.8L117.799 62.8L91.5992 36.6ZM76.1992 94.6V73.8H120.399C118.299 80.6 118.299 87.9 120.399 94.6H76.1992ZM130.699 122.2L106.299 146.6L91.5992 131.9L117.799 105.7L122.799 100.7C124.399 103.8 126.599 106.7 128.999 109.1C129.499 109.6 129.999 110.1 130.599 110.6L130.699 122.2ZM164.399 124.9V162H143.499V117.8C150.299 119.9 157.599 119.9 164.299 117.8C164.399 117.9 164.399 124.9 164.399 124.9ZM201.599 146.6L175.399 120.4L170.399 115.4C176.699 112.1 181.799 107 185.099 100.7L190.099 105.7L216.299 131.9L201.599 146.6Z" fill="black"/>
<path d="M106.363 248.846H117.865V264.382H114.209L113.593 261.415C111.908 263.723 108.828 265 105.131 265C97.1205 265 91 259.066 91 249.959C91 241.429 96.3811 235 104.966 235C110.799 235 115.482 237.967 117.577 243.407L112.853 245.261C111.58 241.717 108.745 239.904 104.884 239.904C99.3798 239.904 96.1347 243.613 96.1347 249.918C96.1347 256.47 99.6263 260.096 105.459 260.096C110.06 260.096 112.771 257.83 112.771 253.956V253.585H106.363V248.846Z" fill="black"/>
<path d="M133.716 243.654C135.071 243.654 136.263 243.984 137.577 244.808L135.195 249.176C134.496 248.723 133.716 248.475 132.73 248.475C129.731 248.475 128.252 250.33 128.252 254.162V264.382H123.323V244.066H128.294V247.527C129.156 245.014 131.415 243.654 133.716 243.654Z" fill="black"/>
<path d="M156.301 253.956C156.301 254.574 156.26 255.192 156.177 255.852H142.293C142.499 258.53 144.142 260.302 147.346 260.302C149.153 260.302 150.796 259.725 152.193 258.118L155.602 261.126C153.384 263.599 150.714 264.794 147.305 264.794C140.322 264.794 137.364 259.766 137.364 254.327C137.364 249.011 140.239 243.654 146.976 243.654C153.261 243.654 156.301 248.31 156.301 253.956ZM142.252 251.937H151.577C151.495 249.341 149.523 247.775 146.935 247.775C143.936 247.775 142.54 249.918 142.252 251.937Z" fill="black"/>
<path d="M177.602 253.956C177.602 254.574 177.561 255.192 177.478 255.852H163.594C163.8 258.53 165.443 260.302 168.647 260.302C170.454 260.302 172.097 259.725 173.494 258.118L176.903 261.126C174.685 263.599 172.015 264.794 168.606 264.794C161.622 264.794 158.665 259.766 158.665 254.327C158.665 249.011 161.54 243.654 168.277 243.654C174.562 243.654 177.602 248.31 177.602 253.956ZM163.553 251.937H172.878C172.796 249.341 170.824 247.775 168.236 247.775C165.237 247.775 163.841 249.918 163.553 251.937Z" fill="black"/>
<path d="M189.701 264.794C183.088 264.794 179.884 259.643 179.884 254.286C179.884 248.929 183.047 243.654 189.66 243.654C193.686 243.654 196.849 245.591 198.41 249.629L193.727 251.484C193.193 249.341 191.673 247.981 189.66 247.981C186.251 247.981 184.936 251.071 184.936 254.286C184.936 257.5 186.21 260.467 189.66 260.467C191.632 260.467 193.193 259.148 193.727 257.047L198.204 258.777C196.849 262.569 193.727 264.794 189.701 264.794Z" fill="black"/>
<path d="M219 253.956C219 254.574 218.959 255.192 218.877 255.852H204.993C205.198 258.53 206.841 260.302 210.045 260.302C211.853 260.302 213.496 259.725 214.892 258.118L218.302 261.126C216.083 263.599 213.413 264.794 210.004 264.794C203.021 264.794 200.063 259.766 200.063 254.327C200.063 249.011 202.939 243.654 209.675 243.654C215.96 243.654 219 248.31 219 253.956ZM204.951 251.937H214.276C214.194 249.341 212.222 247.775 209.634 247.775C206.636 247.775 205.239 249.918 204.951 251.937Z" fill="black"/>
<path d="M0 206.9C0 198.2 5.4 192.5 13.2 192.5C21.1 192.5 26.4 198.3 26.4 206.9C26.4 215.6 21 221.3 13.2 221.3C5.4 221.3 0 215.6 0 206.9ZM21.5 206.9C21.5 200.9 18.3 197.2 13.2 197.2C8.2 197.2 4.9 200.9 4.9 206.9C4.9 212.9 8.1 216.6 13.2 216.6C18.3 216.6 21.5 212.9 21.5 206.9Z" fill="black"/>
<path d="M50.5008 210.899C50.5008 217.299 47.0008 221.099 42.2008 221.099C40.0008 221.099 37.8008 220.199 36.6008 218.699V228.799H31.8008V201.099H36.6008V202.999C37.9008 201.299 40.1008 200.699 42.2008 200.699C47.6008 200.699 50.5008 205.099 50.5008 210.899ZM45.8008 210.899C45.8008 207.099 44.3008 204.899 41.2008 204.899C37.7008 204.899 36.3008 207.399 36.3008 210.899C36.3008 214.299 37.8008 216.899 41.2008 216.899C44.3008 216.899 45.8008 214.699 45.8008 210.899Z" fill="black"/>
<path d="M72.1 212.499H58.7C58.9 215.099 60.5 216.799 63.6 216.799C65.3 216.799 66.9 216.199 68.3 214.699L71.6 217.599C69.5 219.999 66.9 221.099 63.6 221.099C56.9 221.099 54 216.299 54 210.999C54 205.899 56.8 200.699 63.3 200.699C69.4 200.699 72.3 205.199 72.3 210.599C72.3 211.299 72.2 211.899 72.1 212.499ZM67.7 208.699C67.6 206.199 65.7 204.699 63.2 204.699C60.3 204.699 59 206.799 58.7 208.699H67.7Z" fill="black"/>
<path d="M95.4008 208.099V220.699H90.6008V209.299C90.6008 207.999 90.6008 204.899 87.0008 204.899C82.6008 204.899 82.6008 209.399 82.6008 212.899V220.699H77.8008V201.099H82.6008V203.399C84.0008 201.499 86.1008 200.699 88.5008 200.699C92.9008 200.699 95.4008 203.399 95.4008 208.099Z" fill="black"/>
<path d="M131.199 220.7L122.999 206.9L117.699 212.3V220.7H112.699V193H117.699V206L130.099 193H136.599L126.299 203.5L136.899 220.7H131.199Z" fill="black"/>
<path d="M157.899 208.099V220.699H153.099V209.299C153.099 207.999 153.099 204.899 149.499 204.899C145.099 204.899 145.099 209.399 145.099 212.899V220.699H140.299V201.099H145.099V203.399C146.499 201.499 148.599 200.699 150.999 200.699C155.399 200.699 157.899 203.399 157.899 208.099Z" fill="black"/>
<path d="M160.199 210.899C160.199 205.299 163.899 200.699 169.999 200.699C175.999 200.699 179.799 205.299 179.799 210.899C179.799 216.399 175.999 221.099 169.999 221.099C163.899 221.099 160.199 216.399 160.199 210.899ZM174.999 210.899C174.999 207.699 173.599 204.899 169.999 204.899C166.399 204.899 164.999 207.699 164.999 210.899C164.999 214.099 166.399 216.899 169.999 216.899C173.599 216.899 174.999 214.099 174.999 210.899Z" fill="black"/>
<path d="M182.1 201.1H187.2L190.5 213.4L194.2 201.1H198.3L202 213.3L205.4 201.1H210.5L204.5 220.7H200.2L196.4 207.9L192.6 220.7H188.3L182.1 201.1Z" fill="black"/>
<path d="M215 216V193H219.8V215.7C219.8 216.6 220.3 216.9 221.2 216.9C221.6 216.9 222.2 216.8 222.7 216.7V220.5C221.6 220.9 220.6 221.1 219.6 221.1C217 221.1 215 219.5 215 216Z" fill="black"/>
<path d="M243.299 212.499H229.899C230.099 215.099 231.699 216.799 234.799 216.799C236.499 216.799 238.099 216.199 239.499 214.699L242.799 217.599C240.699 219.999 238.099 221.099 234.799 221.099C228.099 221.099 225.199 216.299 225.199 210.999C225.199 205.899 227.999 200.699 234.499 200.699C240.599 200.699 243.499 205.199 243.499 210.599C243.399 211.299 243.399 211.899 243.299 212.499ZM238.899 208.699C238.799 206.199 236.899 204.699 234.399 204.699C231.499 204.699 230.199 206.799 229.899 208.699H238.899Z" fill="black"/>
<path d="M266.1 193V220.7H261.3V218.8C260 220.5 257.8 221.1 255.7 221.1C250.4 221.1 247.4 216.8 247.4 210.9C247.4 204.5 250.9 200.7 255.7 200.7C257.9 200.7 260.1 201.6 261.3 203.1V193H266.1ZM261.8 210.9C261.8 207.6 260.3 205 256.9 205C253.7 205 252.2 207.2 252.2 210.9C252.2 214.5 253.7 216.7 256.8 216.7C260.3 216.7 261.8 214.2 261.8 210.9Z" fill="black"/>
<path d="M289.399 223.4C289.399 227.5 285.699 229.2 280.399 229.2C274.599 229.2 271.199 227.1 271.199 223C271.199 222.5 271.199 222.3 271.299 222.1L274.099 220.3C272.699 219.5 271.799 218.3 271.799 216.3C271.799 214.6 272.499 213.4 273.599 212.4C272.599 211.2 271.999 209.6 271.999 207.9C271.999 203.7 275.699 200.7 279.999 200.7C281.699 200.7 283.299 201.1 284.599 201.9L287.599 199.4L290.099 202.4L287.299 204.7C287.799 205.7 288.099 206.8 288.099 208.1C288.099 212.5 284.399 215.2 280.199 215.2C278.899 215.2 277.599 214.9 276.399 214.4C275.999 214.6 275.799 215 275.799 215.4C275.799 216.8 277.799 217.2 280.199 217.5C284.299 218.2 289.399 218.7 289.399 223.4ZM284.599 223.8C284.599 222.3 282.099 222.1 279.299 221.7L277.699 221.5L275.999 223.1C275.999 223.2 275.999 223.3 275.999 223.4C275.999 225.1 278.399 225.6 280.599 225.6C282.599 225.6 284.599 225.2 284.599 223.8ZM276.799 208C276.799 209.9 277.899 211.4 280.099 211.4C282.299 211.4 283.399 209.9 283.399 208C283.399 206 282.199 204.7 280.099 204.7C277.999 204.7 276.799 206.1 276.799 208Z" fill="black"/>
<path d="M310.1 212.499H296.7C296.9 215.099 298.5 216.799 301.6 216.799C303.3 216.799 304.9 216.199 306.3 214.699L309.6 217.599C307.5 219.999 304.9 221.099 301.6 221.099C294.9 221.099 292 216.299 292 210.999C292 205.899 294.8 200.699 301.3 200.699C307.4 200.699 310.3 205.199 310.3 210.599C310.3 211.299 310.2 211.899 310.1 212.499ZM305.7 208.699C305.6 206.199 303.7 204.699 301.2 204.699C298.3 204.699 297 206.799 296.7 208.699H305.7Z" fill="black"/>
</svg>
